<svg xmlns="http://www.w3.org/2000/svg" xmlns:xlink="http://www.w3.org/1999/xlink" zoomAndPan="magnify" preserveAspectRatio="xMidYMid meet" version="1.0" viewBox="432.11 307.68 576.26 194.57"><defs><clipPath id="d82f5347a2"><path d="M 626 365 L 1008 365 L 1008 445 L 626 445 Z M 626 365 " clip-rule="nonzero"/></clipPath></defs><g clip-path="url(#d82f5347a2)"><path fill="#ffffff" d="M 816.757812 366.160156 C 818.832031 366.160156 820.804688 365.148438 822.320312 366.660156 C 822.824219 368.738281 822.320312 370.199219 822.320312 372.222656 L 822.320312 443.027344 C 820.464844 443.542969 818.613281 443.542969 816.757812 443.027344 L 816.757812 431.402344 C 812.207031 437.472656 806.136719 442.023438 799.113281 443.542969 C 790.515625 445.621094 780.402344 444.046875 773.324219 438.484375 C 768.773438 434.945312 765.230469 429.886719 762.703125 424.835938 C 759.164062 416.238281 760.175781 405.621094 765.230469 397.527344 C 769.277344 390.953125 775.851562 385.902344 783.941406 384.378906 C 792.035156 382.300781 801.136719 383.875 807.707031 388.425781 C 811.246094 390.5 813.777344 393.484375 816.304688 396.519531 L 816.808594 366.179688 M 785.902344 389.433594 C 773.761719 391.960938 765.167969 404.605469 766.6875 416.742188 C 767.699219 425.339844 773.765625 432.414062 781.351562 436.460938 C 787.925781 438.988281 795.519531 439.496094 801.578125 435.957031 C 811.699219 431.910156 818.269531 420.285156 816.242188 409.15625 C 815.230469 401.570312 810.171875 394.988281 803.601562 391.511719 C 798.039062 388.984375 791.980469 388.476562 785.960938 389.4375 Z M 1002.8125 366.167969 C 1004.324219 364.652344 1006.351562 365.664062 1008.375 366.167969 L 1008.375 443.035156 C 1006.519531 443.550781 1004.664062 443.550781 1002.8125 443.035156 L 1002.8125 431.464844 C 997.75 438.542969 989.164062 444.105469 980.050781 444.613281 C 973.980469 445.117188 967.910156 443.601562 962.855469 440.566406 C 955.265625 436.519531 949.703125 428.941406 947.679688 420.339844 C 946.164062 412.753906 947.175781 404.667969 951.726562 398.085938 C 956.277344 391.007812 963.351562 385.945312 971.445312 384.441406 C 979.542969 382.933594 988.136719 384.441406 994.710938 388.992188 C 997.746094 391.066406 1000.273438 393.542969 1002.804688 396.578125 L 1002.804688 366.183594 M 971.929688 389.433594 C 965.355469 390.945312 959.289062 395.503906 955.738281 401.574219 C 952.703125 406.632812 952.199219 412.699219 953.210938 418.261719 C 954.726562 426.359375 960.800781 433.4375 968.882812 436.464844 C 973.941406 438.542969 979.507812 438.542969 985.074219 436.96875 C 990.132812 434.894531 995.191406 431.910156 998.222656 426.851562 C 1002.269531 421.289062 1003.785156 413.703125 1001.761719 407.132812 C 1000.246094 399.546875 994.683594 393.484375 988.113281 389.933594 C 983.054688 388.421875 976.988281 388.421875 971.925781 389.433594 Z M 932.492188 366.667969 C 935.527344 365.65625 938.5625 369.703125 936.539062 372.230469 C 935.527344 374.304688 931.988281 374.757812 930.46875 372.734375 C 928.390625 370.65625 929.964844 367.171875 932.542969 366.660156 Z M 652.277344 383.359375 C 658.851562 382.347656 665.921875 382.855469 671.492188 386.394531 C 676.042969 388.472656 679.585938 391.960938 683.113281 396.007812 L 683.113281 383.863281 L 688.175781 383.863281 C 688.679688 403.582031 688.175781 423.3125 688.175781 443.03125 C 686.660156 443.535156 684.636719 443.535156 682.613281 443.03125 L 682.613281 431.40625 C 677.550781 437.480469 671.484375 442.53125 663.394531 443.550781 C 656.820312 445.066406 649.75 444.054688 643.167969 441.023438 C 634.066406 436.472656 627.996094 427.875 626.480469 418.261719 C 625.976562 412.699219 626.480469 406.640625 629.007812 401.574219 C 633.558594 391.964844 642.65625 385.382812 652.269531 383.371094 M 652.773438 389.441406 C 644.175781 391.519531 636.582031 398.039062 634.0625 407.085938 C 631.027344 417.203125 635.578125 428.878906 644.179688 434.394531 C 650.253906 438.445312 657.828125 439.457031 664.40625 437.933594 C 672.503906 435.40625 679.074219 429.335938 681.605469 421.246094 C 685.144531 411.636719 681.101562 400.007812 672.503906 393.9375 C 666.941406 389.386719 659.355469 387.863281 652.785156 389.386719 Z M 710.027344 388.914062 C 719.636719 380.816406 734.804688 380.816406 744.414062 388.914062 C 750.488281 393.972656 754.535156 402.0625 754.535156 410.152344 L 754.535156 443.027344 C 752.457031 443.527344 750.488281 443.527344 748.972656 443.027344 L 748.972656 409.152344 C 748.46875 398.023438 738.347656 388.414062 727.175781 388.921875 C 716.050781 388.921875 706.441406 398.535156 705.9375 409.660156 L 705.9375 443.035156 C 704.082031 443.550781 702.230469 443.550781 700.375 443.035156 L 700.375 411.226562 C 699.871094 402.628906 703.410156 394.539062 709.984375 388.976562 Z M 832.40625 408.632812 C 832.40625 394.464844 845.558594 381.828125 859.210938 382.839844 C 859.210938 384.355469 859.714844 386.378906 859.210938 387.902344 C 857.695312 388.914062 856.175781 388.40625 854.660156 388.914062 C 848.589844 390.429688 843.035156 394.476562 839.996094 400.535156 C 837.46875 406.097656 837.917969 412.160156 837.917969 418.179688 L 837.917969 442.957031 C 836.402344 443.96875 834.378906 443.460938 832.355469 443.460938 L 832.355469 408.632812 Z M 882.980469 383.859375 C 890.058594 382.34375 898.15625 383.355469 904.222656 387.398438 C 911.808594 391.949219 917.867188 399.539062 919.394531 408.636719 C 920.40625 414.199219 919.898438 420.261719 917.320312 425.835938 C 913.269531 435.953125 903.152344 443.476562 892.539062 444.546875 C 885.460938 445.050781 877.875 443.535156 871.804688 438.984375 C 870.1875 437.855469 868.695312 436.585938 867.320312 435.175781 C 865.949219 433.765625 864.71875 432.234375 863.636719 430.589844 C 862.554688 428.945312 861.636719 427.210938 860.886719 425.390625 C 860.132812 423.570312 859.558594 421.695312 859.164062 419.769531 C 857.648438 412.179688 859.164062 404.59375 863.210938 397.972656 C 867.257812 390.386719 874.835938 385.332031 882.929688 383.808594 M 883.941406 389.371094 C 871.800781 391.898438 862.703125 404.542969 864.726562 417.183594 C 865.738281 423.757812 868.773438 429.328125 874.335938 433.375 C 879.898438 438.433594 888.503906 439.949219 896.132812 437.925781 C 900.683594 436.410156 905.234375 433.878906 908.273438 430.339844 C 912.824219 425.789062 914.847656 419.210938 914.847656 412.695312 C 914.34375 404.097656 909.285156 396.007812 901.699219 391.960938 C 896.136719 388.921875 889.558594 388.421875 884.054688 389.433594 Z M 930.519531 385.320312 C 932.035156 383.808594 934.566406 384.308594 936.589844 384.820312 L 936.589844 440.445312 C 936.589844 442.972656 933.050781 441.457031 931.53125 441.960938 C 931.261719 441.941406 931.027344 441.835938 930.835938 441.644531 C 930.644531 441.453125 930.539062 441.222656 930.519531 440.949219 Z M 930.519531 385.320312 " fill-opacity="1" fill-rule="nonzero"/></g><path fill="#a4c639" d="M 480.257812 309.101562 L 489.011719 324.734375 C 472.753906 332.859375 461.5 348.5 461.5 366.625 L 566.554688 366.625 C 566.554688 348.496094 555.296875 332.859375 539.042969 324.734375 L 547.796875 309.101562 C 547.796875 309.101562 548.417969 308.480469 547.175781 307.859375 C 546.550781 307.234375 545.929688 308.480469 545.929688 308.480469 L 536.550781 324.109375 C 529.195312 320.800781 521.484375 319.136719 513.417969 319.109375 C 505.351562 319.136719 497.640625 320.800781 490.285156 324.109375 L 480.945312 308.480469 C 480.945312 308.480469 480.320312 307.859375 479.699219 307.859375 C 479.699219 308.480469 480.320312 309.101562 480.320312 309.101562 Z M 489.011719 339.742188 C 489.660156 339.785156 490.28125 339.945312 490.871094 340.214844 C 491.464844 340.484375 491.988281 340.847656 492.449219 341.308594 C 492.910156 341.765625 493.273438 342.292969 493.542969 342.882812 C 493.8125 343.476562 493.96875 344.09375 494.015625 344.742188 C 493.96875 345.390625 493.8125 346.011719 493.542969 346.601562 C 493.273438 347.191406 492.910156 347.71875 492.449219 348.179688 C 491.988281 348.636719 491.464844 349 490.871094 349.273438 C 490.28125 349.542969 489.660156 349.699219 489.011719 349.746094 C 488.683594 349.75 488.355469 349.722656 488.03125 349.660156 C 487.707031 349.601562 487.394531 349.507812 487.085938 349.382812 C 486.78125 349.261719 486.492188 349.105469 486.21875 348.925781 C 485.941406 348.742188 485.6875 348.535156 485.453125 348.300781 C 485.222656 348.070312 485.011719 347.8125 484.832031 347.539062 C 484.648438 347.265625 484.496094 346.972656 484.371094 346.667969 C 484.25 346.363281 484.15625 346.046875 484.09375 345.722656 C 484.035156 345.398438 484.007812 345.074219 484.011719 344.742188 C 484.007812 344.414062 484.035156 344.085938 484.09375 343.761719 C 484.15625 343.4375 484.25 343.121094 484.371094 342.816406 C 484.496094 342.511719 484.648438 342.222656 484.832031 341.945312 C 485.011719 341.671875 485.222656 341.417969 485.453125 341.183594 C 485.6875 340.949219 485.941406 340.742188 486.21875 340.558594 C 486.492188 340.378906 486.78125 340.226562 487.085938 340.101562 C 487.394531 339.976562 487.707031 339.886719 488.03125 339.824219 C 488.355469 339.761719 488.683594 339.734375 489.011719 339.742188 Z M 539.039062 339.742188 C 539.6875 339.785156 540.304688 339.945312 540.894531 340.214844 C 541.488281 340.484375 542.011719 340.847656 542.472656 341.308594 C 542.933594 341.765625 543.296875 342.292969 543.566406 342.882812 C 543.835938 343.476562 543.992188 344.09375 544.039062 344.742188 C 543.992188 345.390625 543.835938 346.011719 543.566406 346.601562 C 543.296875 347.191406 542.933594 347.71875 542.472656 348.179688 C 542.011719 348.636719 541.488281 349 540.894531 349.273438 C 540.304688 349.542969 539.6875 349.699219 539.039062 349.746094 C 538.707031 349.75 538.378906 349.722656 538.054688 349.660156 C 537.730469 349.601562 537.417969 349.507812 537.113281 349.382812 C 536.804688 349.261719 536.515625 349.105469 536.242188 348.925781 C 535.964844 348.742188 535.710938 348.535156 535.476562 348.300781 C 535.246094 348.070312 535.039062 347.8125 534.855469 347.539062 C 534.671875 347.265625 534.519531 346.972656 534.394531 346.667969 C 534.273438 346.363281 534.179688 346.046875 534.117188 345.722656 C 534.058594 345.398438 534.03125 345.074219 534.035156 344.742188 C 534.03125 344.414062 534.058594 344.085938 534.117188 343.761719 C 534.179688 343.4375 534.273438 343.121094 534.394531 342.816406 C 534.519531 342.511719 534.671875 342.222656 534.855469 341.945312 C 535.039062 341.671875 535.246094 341.417969 535.476562 341.183594 C 535.710938 340.949219 535.964844 340.742188 536.242188 340.558594 C 536.515625 340.378906 536.804688 340.226562 537.113281 340.101562 C 537.417969 339.976562 537.730469 339.886719 538.054688 339.824219 C 538.378906 339.761719 538.707031 339.734375 539.039062 339.742188 Z M 460.882812 372.828125 L 460.882812 452.863281 C 460.882812 456.617188 465.886719 462.242188 469.636719 462.242188 L 482.089844 462.242188 L 482.089844 489.753906 C 482.089844 496.628906 487.09375 502.207031 493.351562 502.207031 C 499.609375 502.207031 504.613281 496.582031 504.613281 489.753906 L 504.613281 462.289062 L 522.742188 462.289062 L 522.742188 489.800781 C 522.742188 496.675781 527.746094 502.253906 534.003906 502.253906 C 540.261719 502.253906 545.265625 496.628906 545.265625 489.800781 L 545.265625 462.289062 L 557.71875 462.289062 C 561.46875 462.289062 566.472656 457.285156 566.472656 452.910156 L 566.472656 372.828125 Z M 460.882812 372.828125 " fill-opacity="1" fill-rule="nonzero"/><path fill="#a4c639" d="M 443.375 371.011719 C 449.628906 371.011719 454.636719 376.636719 454.636719 383.464844 L 454.636719 430.988281 C 454.636719 437.863281 449.632812 443.441406 443.375 443.441406 C 437.117188 443.441406 432.113281 437.816406 432.113281 430.988281 L 432.113281 383.515625 C 432.113281 376.640625 437.117188 371.0625 443.375 371.0625 Z M 443.375 371.011719 " fill-opacity="1" fill-rule="nonzero"/><path fill="#a4c639" d="M 584.691406 371.011719 C 590.945312 371.011719 595.953125 376.636719 595.953125 383.464844 L 595.953125 430.988281 C 595.953125 437.863281 590.949219 443.441406 584.691406 443.441406 C 578.433594 443.441406 573.429688 437.816406 573.429688 430.988281 L 573.429688 383.515625 C 573.429688 376.640625 578.433594 371.0625 584.691406 371.0625 Z M 584.691406 371.011719 " fill-opacity="1" fill-rule="nonzero"/></svg>