<svg xmlns="http://www.w3.org/2000/svg" xmlns:xlink="http://www.w3.org/1999/xlink" zoomAndPan="magnify" preserveAspectRatio="xMidYMid meet" version="1.0" viewBox="597 244.31 250.5 319.06"><defs><clipPath id="0a196a031c"><path d="M 597 337 L 847.492188 337 L 847.492188 564 L 597 564 Z M 597 337 " clip-rule="nonzero"/></clipPath></defs><g clip-path="url(#0a196a031c)"><path fill="#07244b" d="M 651.675781 341 C 627.972656 348.875 609.390625 368.375 601.972656 393.222656 C 596.164062 412.722656 592.492188 445.144531 608.320312 488.578125 C 608.472656 489.035156 624.074219 531.933594 662.304688 555.101562 C 681.117188 566.570312 704.667969 566.035156 722.253906 553.878906 L 722.941406 553.417969 C 723.628906 552.882812 724.320312 552.425781 724.929688 551.964844 C 725.925781 551.125 727.070312 550.742188 728.21875 550.742188 C 729.367188 550.742188 730.4375 551.125 731.429688 551.8125 C 732.347656 552.578125 733.265625 553.265625 734.03125 553.726562 L 734.183594 553.800781 C 751.769531 566.035156 775.320312 566.496094 794.132812 555.023438 C 828.386719 534.226562 844.367188 497.90625 847.503906 490.03125 C 846.816406 490.03125 846.128906 490.03125 845.441406 490.03125 L 845.285156 490.03125 C 827.089844 490.03125 809.882812 482.917969 797.035156 470.070312 C 784.113281 457.148438 776.925781 440.019531 776.925781 421.746094 C 776.851562 389.554688 799.40625 362.027344 829.917969 354.992188 C 822.578125 348.722656 814.089844 343.902344 804.914062 340.84375 C 764.308594 327.386719 735.253906 355.832031 732.117188 359.121094 L 731.964844 359.273438 C 729.976562 361.261719 726.6875 361.261719 724.699219 359.273438 L 724.546875 359.121094 C 721.261719 355.984375 692.28125 327.539062 651.675781 341 Z M 651.675781 341 " fill-opacity="1" fill-rule="evenodd"/></g><path fill="#07244b" d="M 744.277344 259.792969 C 733.339844 270.726562 728.066406 286.9375 729.058594 305.75 C 747.945312 306.742188 764.15625 301.390625 775.089844 290.378906 C 786.027344 279.445312 791.378906 263.234375 790.308594 244.421875 C 771.421875 243.429688 755.210938 248.78125 744.277344 259.792969 Z M 744.277344 259.792969 " fill-opacity="1" fill-rule="evenodd"/></svg>