<svg xmlns="http://www.w3.org/2000/svg" xmlns:xlink="http://www.w3.org/1999/xlink" zoomAndPan="magnify" preserveAspectRatio="xMidYMid meet" version="1.0" viewBox="578.16 244.31 283.6 322.63"><defs><clipPath id="f07c4fead1"><path d="M 578.183594 365 L 619 365 L 619 487 L 578.183594 487 Z M 578.183594 365 " clip-rule="nonzero"/></clipPath><clipPath id="0c78cd7202"><path d="M 821 365 L 861.683594 365 L 861.683594 487 L 821 487 Z M 821 365 " clip-rule="nonzero"/></clipPath></defs><g clip-path="url(#f07c4fead1)"><path fill="#07244b" d="M 598.421875 365.304688 C 587.238281 365.304688 578.164062 374.335938 578.164062 385.46875 L 578.164062 466.125 C 578.164062 477.257812 587.238281 486.289062 598.421875 486.289062 C 609.601562 486.289062 618.679688 477.257812 618.679688 466.125 L 618.679688 385.46875 C 618.679688 374.335938 609.601562 365.304688 598.421875 365.304688 Z M 598.421875 365.304688 " fill-opacity="1" fill-rule="nonzero"/></g><g clip-path="url(#0c78cd7202)"><path fill="#07244b" d="M 841.507812 365.304688 C 830.328125 365.304688 821.253906 374.335938 821.253906 385.46875 L 821.253906 466.125 C 821.253906 477.257812 830.324219 486.289062 841.507812 486.289062 C 852.695312 486.289062 861.765625 477.257812 861.765625 466.125 L 861.765625 385.46875 C 861.765625 374.335938 852.695312 365.304688 841.507812 365.304688 Z M 841.507812 365.304688 " fill-opacity="1" fill-rule="nonzero"/></g><path fill="#07244b" d="M 638.933594 487.460938 C 638.933594 498.589844 648.007812 507.621094 659.195312 507.621094 L 659.195312 546.78125 C 659.195312 557.914062 668.269531 566.945312 679.449219 566.945312 C 690.632812 566.945312 699.707031 557.914062 699.707031 546.78125 L 699.707031 507.621094 L 740.21875 507.621094 L 740.21875 546.78125 C 740.21875 557.914062 749.296875 566.945312 760.484375 566.945312 C 771.660156 566.945312 780.738281 557.914062 780.738281 546.78125 L 780.738281 507.621094 C 791.917969 507.621094 800.996094 498.589844 800.996094 487.460938 L 800.996094 366.472656 L 638.933594 366.472656 Z M 638.933594 487.460938 " fill-opacity="1" fill-rule="nonzero"/><path fill="#07244b" d="M 770.527344 282.570312 L 788.554688 260.8125 C 792.125 256.515625 791.511719 250.164062 787.199219 246.617188 C 782.867188 243.085938 776.503906 243.671875 772.9375 247.96875 L 753.230469 271.742188 C 743.0625 267.164062 731.855469 264.484375 719.964844 264.484375 C 707.910156 264.484375 696.566406 267.265625 686.300781 271.984375 L 667.109375 248.109375 C 663.609375 243.769531 657.246094 243.046875 652.875 246.535156 C 648.515625 250.019531 647.808594 256.355469 651.292969 260.714844 L 669.078125 282.851562 C 650.824219 297.632812 638.933594 319.890625 638.933594 345.136719 L 800.996094 345.136719 C 800.996094 319.730469 788.960938 297.347656 770.527344 282.570312 Z M 699.707031 314.890625 C 694.117188 314.890625 689.578125 310.375 689.578125 304.808594 C 689.578125 299.246094 694.117188 294.726562 699.707031 294.726562 C 705.300781 294.726562 709.839844 299.246094 709.839844 304.808594 C 709.839844 310.375 705.300781 314.890625 699.707031 314.890625 Z M 740.21875 314.890625 C 734.628906 314.890625 730.09375 310.375 730.09375 304.808594 C 730.09375 299.246094 734.628906 294.726562 740.21875 294.726562 C 745.8125 294.726562 750.351562 299.246094 750.351562 304.808594 C 750.351562 310.375 745.8125 314.890625 740.21875 314.890625 Z M 740.21875 314.890625 " fill-opacity="1" fill-rule="nonzero"/></svg>