<svg xmlns="http://www.w3.org/2000/svg" xmlns:xlink="http://www.w3.org/1999/xlink" zoomAndPan="magnify" preserveAspectRatio="xMidYMid meet" version="1.0" viewBox="558 243.5 324 322.99"><path fill="#07244b" d="M 721.011719 337.773438 C 723.789062 337.773438 726.066406 335.5 726.066406 332.71875 L 726.066406 321.851562 C 726.066406 319.070312 723.789062 316.796875 721.011719 316.796875 C 718.230469 316.796875 715.957031 319.070312 715.957031 321.851562 L 715.957031 332.71875 C 715.957031 335.5 718.230469 337.773438 721.011719 337.773438 Z M 721.011719 337.773438 " fill-opacity="1" fill-rule="nonzero"/><path fill="#07244b" d="M 680.070312 345.355469 C 681.078125 347.125 682.597656 347.882812 684.363281 347.882812 C 685.125 347.882812 686.132812 347.628906 686.890625 347.125 C 689.417969 345.859375 690.179688 342.574219 688.914062 340.300781 L 683.605469 330.699219 C 682.34375 328.171875 679.058594 327.410156 676.78125 328.675781 C 674.253906 329.9375 673.496094 333.226562 674.761719 335.5 Z M 680.070312 345.355469 " fill-opacity="1" fill-rule="nonzero"/><path fill="#07244b" d="M 754.875 347.378906 C 755.636719 347.882812 756.394531 348.136719 757.402344 348.136719 C 759.171875 348.136719 760.941406 347.125 761.699219 345.609375 L 767.007812 336.003906 C 768.269531 333.476562 767.511719 330.445312 764.984375 329.179688 C 762.457031 327.917969 759.425781 328.675781 758.164062 331.203125 L 752.855469 340.804688 C 751.589844 342.828125 752.347656 345.859375 754.875 347.378906 Z M 754.875 347.378906 " fill-opacity="1" fill-rule="nonzero"/><path fill="#07244b" d="M 738.703125 498.761719 L 703.320312 498.761719 C 700.539062 498.761719 698.265625 501.039062 698.265625 503.816406 C 698.265625 506.597656 700.539062 508.871094 703.320312 508.871094 L 738.703125 508.871094 C 741.480469 508.871094 743.757812 506.597656 743.757812 503.816406 C 743.757812 501.039062 741.480469 498.761719 738.703125 498.761719 Z M 738.703125 498.761719 " fill-opacity="1" fill-rule="nonzero"/><path fill="#07244b" d="M 733.648438 513.925781 L 708.375 513.925781 C 705.59375 513.925781 703.320312 516.203125 703.320312 518.980469 C 703.320312 521.761719 705.59375 524.035156 708.375 524.035156 L 733.648438 524.035156 C 736.425781 524.035156 738.703125 521.761719 738.703125 518.980469 C 738.703125 516.203125 736.425781 513.925781 733.648438 513.925781 Z M 733.648438 513.925781 " fill-opacity="1" fill-rule="nonzero"/><path fill="#07244b" d="M 646.203125 369.113281 L 655.300781 374.671875 C 656.058594 375.179688 657.070312 375.429688 657.828125 375.429688 C 659.597656 375.429688 661.113281 374.671875 662.125 372.902344 C 663.640625 370.628906 662.882812 367.34375 660.355469 366.078125 L 651.257812 360.519531 C 648.984375 359.003906 645.699219 359.761719 644.433594 362.289062 C 643.171875 364.816406 643.675781 367.847656 646.203125 369.113281 Z M 646.203125 369.113281 " fill-opacity="1" fill-rule="nonzero"/><path fill="#07244b" d="M 653.277344 407.78125 C 653.277344 405 651.003906 402.726562 648.226562 402.726562 L 637.609375 402.726562 C 634.828125 402.726562 632.554688 405 632.554688 407.78125 C 632.554688 410.558594 634.828125 412.835938 637.609375 412.835938 L 648.226562 412.835938 C 651.003906 412.835938 653.277344 410.558594 653.277344 407.78125 Z M 653.277344 407.78125 " fill-opacity="1" fill-rule="nonzero"/><path fill="#07244b" d="M 781.667969 375.429688 C 782.425781 375.429688 783.433594 375.179688 784.195312 374.671875 L 793.292969 369.113281 C 795.566406 367.597656 796.578125 364.5625 795.0625 362.289062 C 793.542969 360.015625 790.511719 359.003906 788.238281 360.519531 L 779.140625 366.078125 C 776.863281 367.597656 775.851562 370.628906 777.371094 372.902344 C 778.128906 374.417969 779.898438 375.429688 781.667969 375.429688 Z M 781.667969 375.429688 " fill-opacity="1" fill-rule="nonzero"/><path fill="#07244b" d="M 786.214844 407.78125 C 786.214844 410.558594 788.488281 412.835938 791.269531 412.835938 L 801.882812 412.835938 C 804.664062 412.835938 806.9375 410.558594 806.9375 407.78125 C 806.9375 405 804.664062 402.726562 801.882812 402.726562 L 791.269531 402.726562 C 788.488281 402.726562 786.214844 405 786.214844 407.78125 Z M 786.214844 407.78125 " fill-opacity="1" fill-rule="nonzero"/><path fill="#07244b" d="M 658.839844 402.472656 C 657.574219 422.4375 666.421875 441.394531 682.34375 453.523438 C 687.902344 457.566406 690.9375 463.632812 690.9375 469.953125 L 690.9375 481.324219 C 690.9375 487.136719 695.738281 493.457031 702.054688 493.457031 L 736.679688 493.457031 C 743 493.457031 747.292969 487.136719 747.292969 481.324219 L 747.292969 470.457031 C 747.292969 463.886719 750.582031 457.566406 756.140625 453.523438 C 771.304688 442.152344 779.898438 424.964844 779.898438 406.265625 C 779.898438 389.835938 773.324219 374.671875 761.195312 363.300781 C 748.8125 351.925781 732.132812 345.859375 714.945312 347.125 C 684.871094 349.398438 660.859375 373.15625 658.839844 402.472656 Z M 693.464844 401.714844 C 695.484375 399.691406 698.519531 399.691406 700.539062 401.714844 L 712.671875 413.84375 L 738.703125 387.8125 C 740.722656 385.792969 743.757812 385.792969 745.777344 387.8125 C 747.800781 389.835938 747.800781 392.867188 745.777344 394.890625 L 715.449219 425.21875 C 714.441406 426.230469 713.175781 426.734375 711.914062 426.734375 C 710.648438 426.734375 709.386719 426.230469 708.375 425.21875 C 707.617188 424.460938 707.109375 423.449219 707.109375 422.691406 L 693.210938 408.789062 C 691.441406 407.023438 691.441406 403.738281 693.464844 401.714844 Z M 693.464844 401.714844 " fill-opacity="1" fill-rule="nonzero"/><path fill="#07244b" d="M 577.460938 427.492188 C 578.976562 437.347656 581.503906 446.953125 585.042969 456.050781 L 576.953125 460.601562 C 574.679688 461.863281 572.910156 464.140625 572.152344 466.667969 C 571.394531 469.195312 571.898438 471.972656 573.164062 474.25 L 585.800781 495.984375 C 588.582031 500.785156 594.898438 502.554688 599.699219 499.773438 L 607.789062 494.972656 C 614.105469 502.554688 621.183594 509.628906 628.765625 515.949219 L 623.960938 524.035156 C 622.699219 526.308594 622.195312 529.089844 622.953125 531.617188 C 623.710938 534.144531 625.226562 536.417969 627.753906 537.683594 L 649.742188 550.320312 C 651.257812 551.332031 653.027344 551.582031 654.796875 551.582031 C 658.332031 551.582031 661.621094 549.8125 663.640625 546.527344 L 668.441406 538.441406 C 677.792969 541.980469 687.398438 544.507812 697.253906 546.023438 L 697.253906 556.386719 C 697.253906 561.945312 701.804688 566.496094 707.363281 566.496094 L 732.636719 566.496094 C 738.195312 566.496094 742.746094 561.945312 742.746094 556.386719 L 742.746094 546.023438 C 752.601562 544.507812 762.207031 541.980469 771.558594 538.441406 L 776.359375 546.527344 C 779.140625 551.332031 785.457031 553.101562 790.257812 550.320312 L 812.246094 537.683594 C 814.519531 536.417969 816.289062 534.144531 817.046875 531.617188 C 817.804688 529.089844 817.300781 526.308594 816.039062 524.035156 L 811.234375 515.949219 C 818.816406 509.628906 825.894531 502.804688 832.210938 494.972656 L 840.300781 499.773438 C 845.101562 502.554688 851.417969 500.785156 854.199219 495.984375 L 866.835938 474.25 C 868.101562 471.972656 868.605469 469.195312 867.847656 466.667969 C 867.089844 464.140625 865.574219 461.863281 863.046875 460.601562 L 854.957031 456.050781 C 858.496094 446.953125 861.023438 437.347656 862.539062 427.492188 L 871.890625 427.492188 C 877.449219 427.492188 882 422.945312 882 417.382812 L 882 392.109375 C 882 386.550781 877.449219 382 871.890625 382 L 862.539062 382 C 861.023438 372.144531 858.496094 362.542969 854.957031 353.441406 L 863.046875 348.894531 C 865.320312 347.628906 867.089844 345.355469 867.847656 342.828125 C 868.605469 340.300781 868.101562 337.519531 866.835938 335.246094 L 854.199219 313.511719 C 851.417969 308.710938 845.101562 306.941406 840.300781 309.722656 L 832.210938 314.523438 C 825.894531 306.941406 818.816406 299.863281 811.234375 293.546875 L 816.039062 285.457031 C 817.300781 283.183594 817.804688 280.402344 817.046875 277.875 C 816.289062 275.347656 814.773438 273.074219 812.246094 271.8125 L 790.257812 259.175781 C 785.457031 256.394531 779.140625 258.164062 776.359375 262.964844 L 771.558594 271.054688 C 762.207031 267.515625 752.601562 264.988281 742.746094 263.472656 L 742.746094 253.613281 C 742.746094 248.054688 738.195312 243.503906 732.636719 243.503906 L 707.109375 243.503906 C 701.550781 243.503906 697 248.054688 697 253.613281 L 697 262.964844 C 687.144531 264.480469 677.542969 267.007812 668.191406 270.546875 L 663.386719 262.460938 C 660.609375 257.660156 654.289062 255.890625 649.488281 258.667969 L 627.5 271.304688 C 625.226562 272.570312 623.457031 274.84375 622.699219 277.371094 C 621.941406 279.898438 622.445312 282.679688 623.710938 284.953125 L 628.511719 293.039062 C 620.929688 299.359375 613.851562 306.183594 607.535156 314.015625 L 599.449219 309.214844 C 594.644531 306.433594 588.328125 308.203125 585.546875 313.007812 L 572.910156 334.742188 C 571.648438 337.015625 571.140625 339.796875 571.898438 342.324219 C 572.660156 344.851562 574.175781 347.125 576.703125 348.386719 L 584.789062 352.9375 C 581.25 362.035156 578.722656 371.640625 577.207031 381.496094 L 568.109375 381.496094 C 562.550781 381.496094 558 386.046875 558 391.605469 L 558 416.878906 C 558 422.4375 562.550781 426.988281 568.109375 426.988281 L 577.460938 426.988281 Z M 719.746094 289.503906 C 783.941406 289.503906 836.003906 341.566406 836.003906 405.253906 C 836.003906 459.085938 798.851562 504.574219 748.558594 517.464844 C 748.558594 517.96875 748.558594 518.476562 748.558594 518.980469 C 748.558594 527.320312 741.734375 534.144531 733.394531 534.144531 L 708.121094 534.144531 C 699.78125 534.144531 692.957031 527.320312 692.957031 518.980469 C 692.957031 518.730469 692.957031 518.476562 692.957031 517.96875 C 641.90625 506.09375 603.492188 460.09375 603.492188 405.253906 C 603.492188 341.3125 655.554688 289.503906 719.746094 289.503906 Z M 719.746094 289.503906 " fill-opacity="1" fill-rule="nonzero"/></svg>