<svg xmlns="http://www.w3.org/2000/svg" xmlns:xlink="http://www.w3.org/1999/xlink" zoomAndPan="magnify" preserveAspectRatio="xMidYMid meet" version="1.0" viewBox="581.97 248.96 282.02 318.04"><defs><clipPath id="382629ebcd"><path d="M 825 528 L 863.886719 528 L 863.886719 567 L 825 567 Z M 825 528 " clip-rule="nonzero"/></clipPath></defs><path fill="#07244b" d="M 704.738281 542.351562 C 705.050781 544.074219 705.210938 545.84375 705.210938 547.652344 C 705.210938 549.460938 705.050781 551.230469 704.738281 552.953125 L 815.164062 552.953125 C 814.851562 551.230469 814.695312 549.460938 814.695312 547.652344 C 814.695312 545.84375 814.851562 544.074219 815.164062 542.351562 Z M 704.738281 542.351562 " fill-opacity="1" fill-rule="nonzero"/><path fill="#07244b" d="M 606.617188 477.816406 C 606.617188 460.582031 613.335938 444.375 625.523438 432.179688 C 629.238281 428.460938 633.347656 425.25 637.792969 422.566406 C 637.753906 422.292969 637.734375 422.015625 637.734375 421.738281 L 637.734375 410.511719 C 630.445312 414.128906 623.820312 418.886719 618.023438 424.683594 C 603.835938 438.882812 596.015625 457.753906 596.015625 477.816406 C 596.015625 494.253906 601.230469 509.867188 611.085938 522.957031 C 619.777344 534.507812 631.816406 543.425781 645.320312 548.375 C 645.3125 548.136719 645.3125 547.898438 645.3125 547.652344 C 645.3125 544.160156 645.917969 540.808594 647.023438 537.695312 C 622.632812 527.949219 606.617188 504.539062 606.617188 477.816406 Z M 606.617188 477.816406 " fill-opacity="1" fill-rule="nonzero"/><path fill="#07244b" d="M 839.34375 338.144531 C 839.34375 355.378906 832.628906 371.585938 820.4375 383.785156 C 816.722656 387.5 812.613281 390.714844 808.167969 393.398438 C 808.207031 393.671875 808.226562 393.949219 808.226562 394.226562 L 808.226562 405.449219 C 815.523438 401.832031 822.140625 397.074219 827.9375 391.277344 C 842.125 377.078125 849.945312 358.214844 849.945312 338.144531 C 849.945312 321.707031 844.730469 306.097656 834.875 293.003906 C 826.183594 281.457031 814.144531 272.539062 800.640625 267.582031 C 800.648438 267.820312 800.648438 268.066406 800.648438 268.308594 C 800.648438 271.800781 800.042969 275.160156 798.9375 278.277344 C 823.320312 288.023438 839.34375 311.425781 839.34375 338.144531 Z M 839.34375 338.144531 " fill-opacity="1" fill-rule="nonzero"/><path fill="#07244b" d="M 608.722656 250.433594 C 609.308594 250.675781 609.878906 250.945312 610.4375 251.246094 C 610.996094 251.542969 611.539062 251.871094 612.066406 252.222656 C 612.59375 252.574219 613.101562 252.949219 613.59375 253.351562 C 614.082031 253.753906 614.550781 254.179688 615 254.628906 C 615.445312 255.074219 615.871094 255.542969 616.273438 256.035156 C 616.675781 256.523438 617.054688 257.03125 617.40625 257.558594 C 617.757812 258.085938 618.082031 258.628906 618.382812 259.1875 C 618.679688 259.746094 618.949219 260.320312 619.191406 260.90625 C 619.433594 261.488281 619.648438 262.085938 619.832031 262.691406 C 620.015625 263.296875 620.171875 263.914062 620.292969 264.535156 C 620.417969 265.15625 620.511719 265.78125 620.574219 266.410156 C 620.632812 267.042969 620.664062 267.675781 620.664062 268.308594 C 620.664062 268.941406 620.632812 269.574219 620.574219 270.203125 C 620.511719 270.835938 620.417969 271.460938 620.292969 272.082031 C 620.171875 272.703125 620.015625 273.316406 619.832031 273.925781 C 619.648438 274.53125 619.433594 275.125 619.191406 275.710938 C 618.949219 276.296875 618.679688 276.871094 618.382812 277.429688 C 618.082031 277.988281 617.757812 278.53125 617.40625 279.058594 C 617.054688 279.585938 616.675781 280.09375 616.273438 280.582031 C 615.871094 281.070312 615.445312 281.539062 615 281.988281 C 614.550781 282.4375 614.082031 282.863281 613.59375 283.265625 C 613.101562 283.664062 612.59375 284.042969 612.066406 284.394531 C 611.539062 284.746094 610.996094 285.074219 610.4375 285.371094 C 609.878906 285.667969 609.308594 285.941406 608.722656 286.183594 C 608.136719 286.425781 607.542969 286.636719 606.933594 286.824219 C 606.328125 287.007812 605.714844 287.160156 605.09375 287.285156 C 604.472656 287.40625 603.84375 287.5 603.214844 287.5625 C 602.585938 287.625 601.953125 287.65625 601.320312 287.65625 C 600.683594 287.65625 600.050781 287.625 599.421875 287.5625 C 598.792969 287.5 598.164062 287.40625 597.542969 287.285156 C 596.921875 287.160156 596.308594 287.007812 595.703125 286.824219 C 595.097656 286.636719 594.5 286.425781 593.914062 286.183594 C 593.328125 285.941406 592.757812 285.667969 592.199219 285.371094 C 591.640625 285.074219 591.097656 284.746094 590.570312 284.394531 C 590.042969 284.042969 589.535156 283.664062 589.042969 283.265625 C 588.554688 282.863281 588.085938 282.4375 587.636719 281.988281 C 587.191406 281.539062 586.765625 281.070312 586.363281 280.582031 C 585.960938 280.09375 585.582031 279.585938 585.230469 279.058594 C 584.878906 278.53125 584.554688 277.988281 584.253906 277.429688 C 583.957031 276.871094 583.6875 276.296875 583.445312 275.710938 C 583.203125 275.125 582.988281 274.53125 582.804688 273.925781 C 582.621094 273.316406 582.464844 272.703125 582.34375 272.082031 C 582.21875 271.460938 582.125 270.835938 582.0625 270.203125 C 582.003906 269.574219 581.972656 268.941406 581.972656 268.308594 C 581.972656 267.675781 582.003906 267.042969 582.0625 266.410156 C 582.125 265.78125 582.21875 265.15625 582.34375 264.535156 C 582.464844 263.914062 582.621094 263.296875 582.804688 262.691406 C 582.988281 262.085938 583.203125 261.488281 583.445312 260.90625 C 583.6875 260.320312 583.957031 259.746094 584.253906 259.1875 C 584.554688 258.628906 584.878906 258.085938 585.230469 257.558594 C 585.582031 257.03125 585.960938 256.523438 586.363281 256.035156 C 586.765625 255.542969 587.191406 255.074219 587.636719 254.628906 C 588.085938 254.179688 588.554688 253.753906 589.042969 253.351562 C 589.535156 252.949219 590.042969 252.574219 590.570312 252.222656 C 591.097656 251.871094 591.640625 251.542969 592.199219 251.246094 C 592.757812 250.945312 593.328125 250.675781 593.914062 250.433594 C 594.5 250.191406 595.097656 249.976562 595.703125 249.792969 C 596.308594 249.609375 596.921875 249.457031 597.542969 249.332031 C 598.164062 249.210938 598.792969 249.117188 599.421875 249.054688 C 600.050781 248.992188 600.683594 248.960938 601.320312 248.960938 C 601.953125 248.960938 602.585938 248.992188 603.214844 249.054688 C 603.84375 249.117188 604.472656 249.210938 605.09375 249.332031 C 605.714844 249.457031 606.328125 249.609375 606.933594 249.792969 C 607.542969 249.976562 608.136719 250.191406 608.722656 250.433594 Z M 608.722656 250.433594 " fill-opacity="1" fill-rule="nonzero"/><path fill="#07244b" d="M 741.222656 273.609375 C 740.910156 271.886719 740.75 270.121094 740.75 268.308594 C 740.75 266.5 740.910156 264.734375 741.222656 263.011719 L 630.796875 263.011719 C 631.109375 264.734375 631.265625 266.5 631.265625 268.308594 C 631.265625 270.121094 631.109375 271.886719 630.796875 273.609375 Z M 741.222656 273.609375 " fill-opacity="1" fill-rule="nonzero"/><path fill="#07244b" d="M 770.699219 287.65625 C 780.605469 287.65625 788.792969 280.175781 789.914062 270.5625 C 790 269.828125 790.046875 269.074219 790.046875 268.308594 C 790.046875 257.644531 781.367188 248.964844 770.699219 248.964844 C 760.03125 248.964844 751.351562 257.644531 751.351562 268.308594 C 751.351562 278.976562 760.03125 287.65625 770.699219 287.65625 Z M 770.699219 287.65625 " fill-opacity="1" fill-rule="nonzero"/><path fill="#07244b" d="M 675.261719 528.304688 C 665.355469 528.304688 657.160156 535.792969 656.046875 545.40625 C 655.960938 546.140625 655.914062 546.890625 655.914062 547.652344 C 655.914062 558.320312 664.59375 567 675.261719 567 C 685.9375 567 694.609375 558.320312 694.609375 547.652344 C 694.609375 536.984375 685.9375 528.304688 675.261719 528.304688 Z M 675.261719 528.304688 " fill-opacity="1" fill-rule="nonzero"/><g clip-path="url(#382629ebcd)"><path fill="#07244b" d="M 863.988281 547.652344 C 863.988281 548.285156 863.957031 548.917969 863.898438 549.550781 C 863.835938 550.179688 863.742188 550.804688 863.617188 551.425781 C 863.496094 552.046875 863.339844 552.664062 863.15625 553.269531 C 862.972656 553.875 862.757812 554.472656 862.515625 555.054688 C 862.273438 555.640625 862.003906 556.214844 861.707031 556.773438 C 861.40625 557.332031 861.082031 557.875 860.730469 558.402344 C 860.378906 558.929688 860 559.4375 859.597656 559.925781 C 859.195312 560.417969 858.769531 560.886719 858.324219 561.332031 C 857.875 561.78125 857.40625 562.207031 856.917969 562.609375 C 856.425781 563.011719 855.917969 563.386719 855.390625 563.738281 C 854.863281 564.089844 854.320312 564.417969 853.761719 564.714844 C 853.203125 565.015625 852.632812 565.285156 852.046875 565.527344 C 851.460938 565.769531 850.867188 565.984375 850.257812 566.167969 C 849.652344 566.351562 849.039062 566.503906 848.417969 566.628906 C 847.796875 566.75 847.167969 566.84375 846.539062 566.90625 C 845.910156 566.96875 845.277344 567 844.644531 567 C 844.007812 567 843.378906 566.96875 842.746094 566.90625 C 842.117188 566.84375 841.488281 566.75 840.867188 566.628906 C 840.246094 566.503906 839.632812 566.351562 839.027344 566.167969 C 838.421875 565.984375 837.824219 565.769531 837.238281 565.527344 C 836.652344 565.285156 836.082031 565.015625 835.523438 564.714844 C 834.964844 564.417969 834.421875 564.089844 833.894531 563.738281 C 833.367188 563.386719 832.859375 563.011719 832.367188 562.609375 C 831.878906 562.207031 831.410156 561.78125 830.960938 561.332031 C 830.515625 560.886719 830.089844 560.417969 829.6875 559.925781 C 829.285156 559.4375 828.90625 558.929688 828.554688 558.402344 C 828.203125 557.875 827.878906 557.332031 827.578125 556.773438 C 827.28125 556.214844 827.011719 555.640625 826.769531 555.054688 C 826.527344 554.472656 826.3125 553.875 826.128906 553.269531 C 825.945312 552.664062 825.789062 552.046875 825.667969 551.425781 C 825.542969 550.804688 825.449219 550.179688 825.386719 549.550781 C 825.328125 548.917969 825.296875 548.285156 825.296875 547.652344 C 825.296875 547.019531 825.328125 546.386719 825.386719 545.757812 C 825.449219 545.125 825.542969 544.5 825.667969 543.878906 C 825.789062 543.257812 825.945312 542.644531 826.128906 542.035156 C 826.3125 541.429688 826.527344 540.835938 826.769531 540.25 C 827.011719 539.664062 827.28125 539.089844 827.578125 538.53125 C 827.878906 537.972656 828.203125 537.429688 828.554688 536.902344 C 828.90625 536.378906 829.285156 535.867188 829.6875 535.378906 C 830.089844 534.890625 830.515625 534.421875 830.960938 533.972656 C 831.410156 533.523438 831.878906 533.097656 832.367188 532.695312 C 832.859375 532.296875 833.367188 531.917969 833.894531 531.566406 C 834.421875 531.214844 834.964844 530.886719 835.523438 530.589844 C 836.082031 530.292969 836.652344 530.019531 837.238281 529.777344 C 837.824219 529.535156 838.421875 529.324219 839.027344 529.136719 C 839.632812 528.953125 840.246094 528.800781 840.867188 528.675781 C 841.488281 528.554688 842.117188 528.460938 842.746094 528.398438 C 843.378906 528.335938 844.007812 528.304688 844.644531 528.304688 C 845.277344 528.304688 845.910156 528.335938 846.539062 528.398438 C 847.167969 528.460938 847.796875 528.554688 848.417969 528.675781 C 849.039062 528.800781 849.652344 528.953125 850.257812 529.136719 C 850.867188 529.324219 851.460938 529.535156 852.046875 529.777344 C 852.632812 530.019531 853.203125 530.292969 853.761719 530.589844 C 854.320312 530.890625 854.863281 531.214844 855.390625 531.566406 C 855.917969 531.917969 856.425781 532.296875 856.917969 532.695312 C 857.40625 533.097656 857.875 533.523438 858.324219 533.972656 C 858.769531 534.421875 859.195312 534.890625 859.597656 535.378906 C 860 535.867188 860.378906 536.378906 860.730469 536.902344 C 861.082031 537.429688 861.40625 537.972656 861.707031 538.53125 C 862.003906 539.089844 862.273438 539.664062 862.515625 540.25 C 862.757812 540.835938 862.972656 541.429688 863.15625 542.035156 C 863.339844 542.644531 863.496094 543.257812 863.617188 543.878906 C 863.742188 544.5 863.835938 545.125 863.898438 545.757812 C 863.957031 546.386719 863.988281 547.019531 863.988281 547.652344 Z M 863.988281 547.652344 " fill-opacity="1" fill-rule="nonzero"/></g><path fill="#07244b" d="M 663.40625 420.636719 C 664.957031 427.957031 667.8125 434.863281 671.910156 441.148438 C 673.273438 443.25 672.988281 446.019531 671.214844 447.789062 L 664.214844 454.785156 L 676.175781 466.746094 L 683.171875 459.75 C 684.941406 457.972656 687.710938 457.6875 689.8125 459.054688 C 696.101562 463.148438 703.003906 466.003906 710.324219 467.554688 C 712.769531 468.070312 714.527344 470.238281 714.527344 472.742188 L 714.527344 482.628906 L 731.433594 482.628906 L 731.433594 472.742188 C 731.433594 470.238281 733.191406 468.070312 735.636719 467.554688 C 742.957031 466.003906 749.859375 463.148438 756.148438 459.054688 C 758.25 457.6875 761.019531 457.972656 762.789062 459.75 L 769.785156 466.746094 L 781.746094 454.785156 L 774.746094 447.789062 C 772.972656 446.019531 772.6875 443.25 774.050781 441.148438 C 778.148438 434.863281 781.003906 427.957031 782.550781 420.636719 C 783.070312 418.191406 785.234375 416.4375 787.742188 416.4375 L 797.625 416.4375 L 797.625 399.527344 L 787.742188 399.527344 C 785.234375 399.527344 783.070312 397.769531 782.550781 395.328125 C 781.003906 388.003906 778.148438 381.101562 774.050781 374.8125 C 772.6875 372.710938 772.972656 369.941406 774.746094 368.175781 L 781.746094 361.175781 L 769.785156 349.21875 L 762.789062 356.214844 C 761.019531 357.988281 758.25 358.273438 756.148438 356.910156 C 749.859375 352.816406 742.957031 349.960938 735.636719 348.410156 C 733.191406 347.890625 731.433594 345.726562 731.433594 343.222656 L 731.433594 333.335938 L 714.527344 333.335938 L 714.527344 343.222656 C 714.527344 345.726562 712.769531 347.890625 710.324219 348.410156 C 703.003906 349.960938 696.101562 352.816406 689.8125 356.910156 C 687.710938 358.273438 684.941406 357.988281 683.171875 356.214844 L 676.175781 349.21875 L 664.214844 361.175781 L 671.214844 368.175781 C 672.988281 369.941406 673.273438 372.710938 671.910156 374.8125 C 667.8125 381.101562 664.957031 388.003906 663.40625 395.328125 C 662.890625 397.769531 660.726562 399.527344 658.21875 399.527344 L 648.335938 399.527344 L 648.335938 416.4375 L 658.21875 416.4375 C 660.726562 416.4375 662.890625 418.191406 663.40625 420.636719 Z M 722.980469 356.863281 C 751.167969 356.863281 774.097656 379.796875 774.097656 407.980469 C 774.097656 436.167969 751.167969 459.097656 722.980469 459.097656 C 694.792969 459.097656 671.863281 436.167969 671.863281 407.980469 C 671.863281 379.796875 694.792969 356.863281 722.980469 356.863281 Z M 722.980469 356.863281 " fill-opacity="1" fill-rule="nonzero"/><path fill="#07244b" d="M 780.304688 471.21875 L 804.449219 495.367188 C 806.082031 497 808.738281 497 810.367188 495.367188 C 811.996094 493.738281 811.996094 491.082031 810.367188 489.453125 L 786.214844 465.308594 Z M 780.304688 471.21875 " fill-opacity="1" fill-rule="nonzero"/><path fill="#07244b" d="M 722.980469 448.5 C 745.324219 448.5 763.496094 430.324219 763.496094 407.980469 C 763.496094 385.640625 745.324219 367.464844 722.980469 367.464844 C 700.636719 367.464844 682.464844 385.640625 682.464844 407.980469 C 682.464844 430.324219 700.636719 448.5 722.980469 448.5 Z M 702.011719 408.1875 C 704.082031 406.113281 707.4375 406.113281 709.503906 408.1875 L 714.605469 413.28125 L 736.449219 391.4375 C 738.523438 389.363281 741.878906 389.363281 743.949219 391.4375 C 746.019531 393.503906 746.019531 396.863281 743.949219 398.929688 L 718.355469 424.527344 C 717.320312 425.558594 715.964844 426.082031 714.605469 426.082031 C 713.246094 426.082031 711.894531 425.558594 710.855469 424.527344 L 702.011719 415.679688 C 699.941406 413.605469 699.941406 410.253906 702.011719 408.1875 Z M 702.011719 408.1875 " fill-opacity="1" fill-rule="nonzero"/></svg>