<svg xmlns="http://www.w3.org/2000/svg" xmlns:xlink="http://www.w3.org/1999/xlink" zoomAndPan="magnify" preserveAspectRatio="xMidYMid meet" version="1.0" viewBox="435.82 243 568.38 324.08"><defs><clipPath id="cbe8f0c554"><path d="M 435.582031 451 L 465 451 L 465 539 L 435.582031 539 Z M 435.582031 451 " clip-rule="nonzero"/></clipPath><clipPath id="7f404722ed"><path d="M 658.238281 449 L 1004.082031 449 L 1004.082031 567 L 658.238281 567 Z M 658.238281 449 " clip-rule="nonzero"/></clipPath></defs><g clip-path="url(#cbe8f0c554)"><path fill="#07244b" d="M 448.578125 451.785156 C 440.292969 479.222656 435.824219 508.355469 435.824219 538.546875 L 449.152344 538.546875 C 449.152344 509.59375 454.496094 481.910156 464.230469 456.441406 L 448.578125 451.785156 " fill-opacity="1" fill-rule="nonzero"/></g><g clip-path="url(#7f404722ed)"><path fill="#07244b" d="M 674.65625 531.230469 C 674.9375 522.558594 680.925781 515.421875 688.894531 513.308594 C 689.3125 513.199219 689.738281 513.105469 690.164062 513.019531 C 690.207031 513.015625 690.246094 513.003906 690.289062 512.996094 C 690.71875 512.914062 691.15625 512.847656 691.601562 512.796875 C 691.613281 512.792969 691.617188 512.792969 691.628906 512.792969 C 692.03125 512.75 692.4375 512.71875 692.851562 512.699219 C 692.949219 512.695312 693.046875 512.6875 693.152344 512.6875 C 693.578125 512.667969 694.003906 512.664062 694.433594 512.683594 C 705.019531 513.019531 713.320312 521.867188 712.980469 532.453125 C 712.96875 532.941406 712.925781 533.421875 712.875 533.898438 C 712.863281 533.988281 712.859375 534.082031 712.84375 534.179688 C 712.789062 534.636719 712.714844 535.09375 712.628906 535.542969 C 712.617188 535.621094 712.597656 535.703125 712.582031 535.78125 C 712.488281 536.214844 712.382812 536.644531 712.265625 537.0625 C 712.261719 537.101562 712.246094 537.136719 712.242188 537.167969 C 712.113281 537.613281 711.964844 538.050781 711.804688 538.480469 C 711.773438 538.5625 711.742188 538.648438 711.710938 538.726562 C 711.550781 539.152344 711.371094 539.570312 711.183594 539.976562 C 711.15625 540.027344 711.132812 540.078125 711.109375 540.125 C 710.917969 540.519531 710.71875 540.910156 710.496094 541.289062 C 710.480469 541.328125 710.453125 541.371094 710.4375 541.40625 C 710.207031 541.808594 709.960938 542.191406 709.710938 542.574219 C 709.667969 542.632812 709.621094 542.6875 709.578125 542.75 C 709.316406 543.132812 709.042969 543.503906 708.753906 543.867188 C 708.746094 543.871094 708.742188 543.878906 708.734375 543.878906 C 708.441406 544.25 708.132812 544.605469 707.804688 544.945312 C 707.78125 544.976562 707.757812 545.007812 707.726562 545.035156 C 707.40625 545.375 707.066406 545.703125 706.722656 546.015625 C 706.691406 546.046875 706.652344 546.078125 706.617188 546.109375 C 705.902344 546.75 705.144531 547.335938 704.34375 547.867188 C 704.3125 547.882812 704.285156 547.902344 704.257812 547.921875 C 703.855469 548.179688 703.4375 548.433594 703.011719 548.660156 C 702.992188 548.671875 702.972656 548.683594 702.957031 548.691406 C 702.097656 549.160156 701.195312 549.566406 700.261719 549.898438 C 700.230469 549.90625 700.203125 549.917969 700.175781 549.929688 C 699.703125 550.097656 699.226562 550.242188 698.742188 550.375 C 696.980469 550.835938 695.125 551.0625 693.203125 551 C 682.621094 550.664062 674.316406 541.808594 674.65625 531.230469 Z M 1004.203125 449.375 L 713.222656 502.421875 C 707.964844 498.945312 701.710938 496.839844 694.953125 496.617188 C 675.5 495.996094 659.226562 511.257812 658.597656 530.710938 C 657.976562 550.164062 673.238281 566.4375 692.691406 567.058594 C 706.820312 567.515625 719.265625 559.578125 725.261719 547.75 L 1004.203125 449.375 " fill-opacity="1" fill-rule="nonzero"/></g><path fill="#07244b" d="M 470.941406 440.71875 C 479.738281 422.046875 490.964844 404.777344 504.222656 389.355469 L 485.878906 372.816406 C 472.886719 392.25 462.117188 413.347656 453.933594 435.714844 L 470.941406 440.71875 " fill-opacity="1" fill-rule="nonzero"/><path fill="#07244b" d="M 486.664062 371.65625 C 486.449219 371.984375 486.222656 372.304688 486.007812 372.632812 L 504.367188 389.1875 C 504.6875 388.8125 505.027344 388.441406 505.355469 388.074219 L 486.664062 371.65625 " fill-opacity="1" fill-rule="nonzero"/><path fill="#07244b" d="M 516.882812 375.808594 C 532.203125 360.683594 549.640625 347.757812 568.714844 337.550781 L 548.308594 305.183594 C 528.941406 320.484375 511.527344 338.21875 496.519531 357.929688 L 516.882812 375.808594 " fill-opacity="1" fill-rule="nonzero"/><path fill="#07244b" d="M 584.113281 330.085938 C 603.332031 321.648438 623.949219 315.855469 645.515625 313.195312 L 638.148438 257.011719 C 610.726562 265.921875 585.085938 278.855469 561.875 295.105469 L 584.113281 330.085938 " fill-opacity="1" fill-rule="nonzero"/><path fill="#07244b" d="M 726.972656 243 C 701.996094 243 677.753906 246.199219 654.617188 252.210938 L 662.394531 311.765625 C 665.84375 311.597656 669.3125 311.519531 672.800781 311.519531 C 690.398438 311.519531 707.523438 313.582031 723.949219 317.488281 L 740.574219 243.320312 C 736.070312 243.109375 731.535156 243 726.972656 243 " fill-opacity="1" fill-rule="nonzero"/><path fill="#07244b" d="M 740.984375 243.339844 C 740.925781 243.339844 740.863281 243.332031 740.800781 243.332031 L 735.109375 268.730469 L 740.984375 243.339844 " fill-opacity="1" fill-rule="nonzero"/><path fill="#07244b" d="M 757.945312 244.65625 L 740.042969 321.976562 C 760.640625 328.5625 779.964844 338.082031 797.515625 350.074219 L 846.214844 268.855469 C 818.785156 256.335938 789.097656 248.003906 757.945312 244.65625 " fill-opacity="1" fill-rule="nonzero"/><path fill="#07244b" d="M 860.9375 276.105469 L 810.941406 360.011719 C 824.929688 371.175781 837.585938 384 848.59375 398.195312 L 934.738281 331.507812 C 913.273438 309.320312 888.375 290.570312 860.9375 276.105469 " fill-opacity="1" fill-rule="nonzero"/><path fill="#07244b" d="M 859.980469 389.722656 L 848.738281 398.449219 C 848.769531 398.484375 848.792969 398.523438 848.824219 398.558594 L 859.980469 389.722656 " fill-opacity="1" fill-rule="nonzero"/><path fill="#07244b" d="M 945.585938 343.398438 L 858.867188 412.054688 C 867.800781 424.847656 873.0625 435.546875 879.269531 454.355469 L 997.253906 428.480469 C 984.808594 396.988281 967.296875 368.386719 945.585938 343.398438 " fill-opacity="1" fill-rule="nonzero"/></svg>