<svg xmlns="http://www.w3.org/2000/svg" xmlns:xlink="http://www.w3.org/1999/xlink" zoomAndPan="magnify" preserveAspectRatio="xMidYMid meet" version="1.0" viewBox="537.21 245.04 365.59 318.26"><defs><clipPath id="0676a9fc20"><path d="M 537.207031 245 L 902.457031 245 L 902.457031 564 L 537.207031 564 Z M 537.207031 245 " clip-rule="nonzero"/></clipPath></defs><g clip-path="url(#0676a9fc20)"><path fill="#07244b" d="M 719.996094 245.042969 C 708.324219 245.042969 698.859375 254.515625 698.851562 266.1875 C 698.851562 275.910156 705.480469 284.375 714.917969 286.71875 L 714.917969 317.960938 C 689.296875 319.148438 664.886719 329.25 645.917969 346.53125 L 623.832031 324.429688 C 628.859375 316.113281 627.570312 305.429688 620.699219 298.550781 C 612.441406 290.285156 599.054688 290.285156 590.789062 298.542969 C 590.789062 298.542969 590.78125 298.550781 590.78125 298.550781 C 582.523438 306.816406 582.523438 320.203125 590.78125 328.460938 C 597.652344 335.339844 608.335938 336.644531 616.664062 331.625 L 638.746094 353.710938 C 621.441406 372.679688 611.3125 397.105469 610.125 422.765625 L 578.882812 422.765625 C 576.546875 413.316406 568.082031 406.6875 558.351562 406.679688 C 546.671875 406.671875 537.207031 416.140625 537.207031 427.832031 C 537.207031 439.503906 546.679688 448.976562 558.351562 448.976562 C 568.074219 448.976562 576.539062 442.347656 578.882812 432.910156 L 610.125 432.910156 C 611.320312 458.53125 621.429688 482.933594 638.714844 501.894531 L 616.613281 523.980469 C 608.289062 518.953125 597.601562 520.257812 590.730469 527.128906 C 582.464844 535.378906 582.449219 548.773438 590.707031 557.039062 C 590.707031 557.046875 590.714844 557.054688 590.714844 557.054688 C 598.972656 565.3125 612.359375 565.3125 620.625 557.054688 C 627.503906 550.183594 628.808594 539.5 623.792969 531.175781 L 645.890625 509.089844 C 647.230469 510.304688 648.59375 511.484375 649.980469 512.628906 C 650.03125 512.679688 650.078125 512.722656 650.128906 512.761719 C 652.132812 514.632812 655.246094 514.582031 657.191406 512.644531 C 659.1875 510.667969 659.195312 507.4375 657.207031 505.441406 C 656.933594 505.183594 656.644531 504.9375 656.320312 504.746094 L 656.320312 504.726562 C 633.429688 485.757812 620.175781 457.570312 620.175781 427.839844 C 620.167969 372.703125 664.859375 327.996094 720.003906 327.988281 L 719.996094 327.988281 C 775.140625 327.988281 819.832031 372.6875 819.832031 427.832031 L 819.832031 427.839844 C 819.832031 457.570312 806.589844 485.757812 783.691406 504.726562 L 783.691406 504.746094 C 783.367188 504.9375 783.074219 505.183594 782.800781 505.441406 C 780.824219 507.4375 780.824219 510.660156 782.816406 512.644531 C 784.753906 514.574219 787.878906 514.625 789.878906 512.761719 C 789.929688 512.722656 789.980469 512.679688 790.03125 512.628906 C 791.402344 511.492188 792.738281 510.3125 794.050781 509.105469 L 816.167969 531.222656 C 811.140625 539.550781 812.4375 550.226562 819.316406 557.105469 C 827.574219 565.363281 840.960938 565.371094 849.226562 557.121094 C 857.488281 548.863281 857.496094 535.476562 849.246094 527.210938 C 849.238281 527.203125 849.226562 527.195312 849.226562 527.195312 C 842.347656 520.332031 831.6875 519.035156 823.363281 524.046875 L 801.261719 501.945312 C 818.570312 482.976562 828.699219 458.558594 829.886719 432.910156 L 861.125 432.910156 C 863.460938 442.347656 871.9375 448.976562 881.65625 448.976562 C 893.332031 448.976562 902.800781 439.503906 902.800781 427.832031 C 902.800781 416.148438 893.339844 406.679688 881.65625 406.671875 C 871.9375 406.671875 863.46875 413.308594 861.125 422.753906 L 829.886719 422.753906 C 828.699219 397.132812 818.59375 372.722656 801.3125 353.753906 L 823.414062 331.667969 C 831.738281 336.6875 842.398438 335.382812 849.277344 328.519531 C 857.535156 320.261719 857.546875 306.875 849.292969 298.609375 C 841.035156 290.351562 827.652344 290.351562 819.382812 298.609375 C 812.511719 305.480469 811.207031 316.148438 816.21875 324.472656 L 794.117188 346.558594 C 775.148438 329.257812 750.722656 319.140625 725.082031 317.949219 L 725.082031 286.710938 C 734.519531 284.375 741.148438 275.902344 741.148438 266.179688 C 741.140625 254.507812 731.671875 245.042969 719.996094 245.042969 Z M 719.589844 255.179688 C 719.722656 255.179688 719.863281 255.179688 719.996094 255.179688 C 726.0625 255.179688 730.996094 260.097656 730.996094 266.171875 C 730.996094 266.171875 730.996094 266.171875 730.996094 266.179688 C 730.996094 272.253906 726.078125 277.179688 720.003906 277.179688 C 720.003906 277.179688 720.003906 277.179688 719.996094 277.179688 C 713.921875 277.179688 708.996094 272.261719 708.996094 266.1875 C 708.988281 260.265625 713.671875 255.394531 719.589844 255.179688 Z M 605.121094 302.503906 C 608.246094 302.332031 611.304688 303.503906 613.511719 305.71875 C 617.816406 310.007812 617.824219 316.96875 613.539062 321.273438 C 613.53125 321.28125 613.523438 321.289062 613.511719 321.300781 C 609.21875 325.59375 602.253906 325.585938 597.960938 321.289062 C 593.65625 316.996094 593.65625 310.03125 597.953125 305.730469 C 597.953125 305.730469 597.953125 305.730469 597.960938 305.71875 C 599.863281 303.792969 602.414062 302.65625 605.121094 302.503906 Z M 834.125 302.554688 C 837.105469 302.503906 839.996094 303.667969 842.109375 305.785156 C 846.402344 310.082031 846.394531 317.046875 842.097656 321.339844 C 842.089844 321.339844 842.089844 321.339844 842.089844 321.339844 C 837.796875 325.644531 830.832031 325.644531 826.539062 321.347656 C 826.539062 321.347656 826.527344 321.347656 826.527344 321.339844 C 822.234375 317.046875 822.242188 310.082031 826.539062 305.785156 C 826.546875 305.785156 826.546875 305.785156 826.546875 305.777344 C 828.554688 303.769531 831.28125 302.605469 834.125 302.554688 Z M 699.957031 346.824219 C 697.464844 346.773438 695.039062 347.230469 692.6875 348.269531 C 687.585938 350.511719 683.464844 355.449219 680.015625 362.144531 C 676.5 360.492188 673.394531 359.21875 670.425781 358.960938 C 669.1875 358.855469 667.96875 358.886719 666.746094 359.09375 C 661.84375 359.902344 657.988281 363.109375 654.433594 367.304688 C 650.859375 371.515625 646.988281 377.558594 644.40625 385.824219 C 641.828125 394.066406 640.566406 404.070312 640.675781 412.371094 C 640.699219 414.671875 640.855469 416.796875 641.082031 418.808594 C 641.214844 420.238281 641.4375 421.625 641.644531 422.964844 L 641.644531 422.980469 C 641.6875 423.253906 641.753906 423.542969 641.8125 423.84375 C 642.179688 426.011719 642.644531 428.171875 643.242188 430.367188 C 643.40625 431.054688 643.582031 431.910156 643.773438 432.71875 C 643.78125 432.75 643.789062 432.800781 643.804688 432.832031 C 643.847656 432.984375 643.996094 433.042969 644.0625 433.175781 C 644.238281 433.707031 644.363281 434.402344 644.664062 435.269531 C 649.039062 447.648438 656.976562 459.679688 664.070312 468.960938 C 671.148438 478.222656 676.917969 484.980469 678.011719 488.808594 C 678.71875 491.292969 678.289062 493.777344 677.539062 497.234375 C 677.539062 497.25 677.539062 497.265625 677.539062 497.285156 C 676.890625 500.574219 676.316406 503.824219 676.226562 506.78125 L 676.226562 506.796875 C 676.152344 509.246094 676.527344 512.171875 678.238281 514.882812 C 679.898438 517.507812 682.433594 519.632812 686.03125 521.945312 C 693.226562 526.5625 705.496094 532.328125 717.613281 536.433594 C 729.71875 540.539062 741.160156 542.980469 749.566406 541.984375 C 753.828125 541.476562 757.535156 539.824219 760.003906 536.875 C 762.429688 533.957031 763.332031 530.375 763.714844 526.777344 C 763.773438 526.253906 763.875 525.308594 763.90625 524.683594 C 763.914062 524.550781 763.90625 524.429688 763.890625 524.292969 C 764 523.039062 764.097656 521.726562 764.132812 520.058594 C 764.230469 514.558594 763.957031 506.964844 764.371094 503.117188 C 764.589844 501.15625 764.8125 500.5 765.394531 499.492188 C 765.941406 498.570312 767.089844 497.191406 769.140625 495.097656 C 773.253906 490.902344 780.757812 483.929688 785.253906 475.65625 C 789.746094 467.363281 790.429688 458.957031 791.789062 449.824219 C 793.152344 440.695312 795.371094 429.402344 795.007812 416.816406 C 794.707031 406.535156 792.636719 395.902344 790.394531 385.351562 C 789.679688 379.957031 787.878906 375.695312 784.796875 372.871094 C 782.386719 370.660156 779.4375 369.753906 776.828125 369.605469 L 776.808594 369.605469 C 776.46875 369.589844 776.320312 369.605469 776.386719 369.605469 C 774.859375 369.457031 773.289062 369.398438 771.683594 369.503906 C 769.671875 369.648438 767.722656 370.003906 765.875 370.445312 C 765.070312 368.667969 764.28125 366.871094 763.085938 365.316406 C 759.710938 360.921875 754.757812 357.699219 748.851562 356.71875 C 747.390625 356.476562 745.925781 356.363281 744.457031 356.34375 C 742.386719 356.328125 740.386719 356.570312 738.398438 356.835938 C 736.488281 355.105469 734.363281 353.410156 731.828125 352.191406 C 728.046875 350.371094 724.300781 349.832031 721.234375 349.757812 C 718.210938 349.679688 714.976562 350.222656 711.546875 351.933594 C 709.039062 349.480469 705.921875 347.878906 702.796875 347.113281 C 702.722656 347.097656 702.648438 347.082031 702.574219 347.0625 C 701.808594 346.949219 700.804688 346.839844 699.957031 346.824219 Z M 698.675781 357.027344 C 699.308594 356.984375 700.007812 357.027344 700.753906 357.109375 C 702.574219 357.558594 703.695312 358.054688 704.742188 359.203125 C 706.527344 361.140625 708.398438 365.527344 708.503906 372.871094 C 708.523438 374.148438 708.355469 375.753906 708.246094 377.25 C 704.328125 375.03125 700.28125 372.761719 697 370.984375 C 696.109375 370.496094 695.335938 370.105469 694.546875 369.6875 L 694.496094 369.671875 C 692.429688 368.515625 690.707031 367.621094 688.945312 366.6875 C 691.6875 361.496094 694.613281 358.421875 696.742188 357.492188 C 697.355469 357.207031 697.988281 357.074219 698.675781 357.027344 Z M 720.953125 359.933594 C 723.085938 359.984375 725.378906 360.300781 727.40625 361.28125 C 728.328125 361.730469 729.410156 362.445312 730.441406 363.242188 C 730.605469 363.367188 730.699219 363.457031 730.699219 363.457031 C 730.714844 363.464844 730.746094 363.480469 730.765625 363.5 C 730.863281 363.574219 731.054688 363.789062 731.378906 364.082031 C 732.550781 365.226562 733.6875 366.679688 734.933594 368.660156 L 734.933594 368.675781 C 736.148438 370.769531 737.113281 373.777344 736.894531 378.804688 C 736.539062 387.234375 732.566406 402.929688 729.644531 411.339844 C 728.179688 415.542969 726.96875 417.960938 726.203125 419.066406 C 725.777344 419.679688 725.53125 419.929688 725.457031 419.988281 C 725.378906 420.046875 725.457031 420.011719 725.148438 420.121094 C 724.53125 420.328125 722.605469 420.023438 722.066406 419.648438 L 722.066406 419.632812 C 721.457031 419.207031 720.660156 418.054688 719.8125 415.445312 C 719.621094 414.84375 719.214844 413.441406 718.859375 412.195312 C 725.089844 409.019531 728.1875 403.738281 729.453125 400.089844 C 730.167969 398.039062 730.699219 395.03125 729.144531 392.15625 C 727.75 389.578125 725.480469 387.824219 722.363281 385.714844 C 721.066406 384.835938 719.449219 383.839844 717.804688 382.824219 C 718.226562 379.34375 718.574219 375.878906 718.535156 372.730469 C 718.46875 368.152344 717.71875 364.328125 716.605469 360.898438 C 718.167969 360.175781 719.066406 359.882812 720.953125 359.933594 Z M 744.515625 366.472656 C 745.46875 366.472656 746.441406 366.472656 747.191406 366.605469 C 750.5625 367.171875 753.140625 368.839844 755.109375 371.410156 C 757.035156 373.925781 758.398438 377.679688 758.804688 381.984375 C 759.195312 386.066406 758.738281 391.050781 758.191406 396.285156 C 757.882812 398.835938 757.46875 401.378906 756.828125 403.878906 C 754.902344 411.414062 751.019531 419.101562 747.886719 422.214844 C 746.269531 423.835938 744.890625 424.515625 743.785156 424.734375 C 742.679688 424.949219 741.773438 424.734375 740.84375 424.210938 C 740.070312 423.769531 738.582031 421.742188 737.160156 419.546875 C 737.792969 418.085938 738.441406 416.597656 739.121094 414.613281 C 742.328125 405.375 746.5 389.996094 746.957031 379.203125 C 747.199219 373.769531 746.003906 369.796875 744.515625 366.472656 Z M 669.597656 368.957031 C 671.09375 369.113281 673.710938 369.996094 678.277344 372.296875 C 681.34375 373.84375 685.359375 375.976562 689.738281 378.363281 C 690.574219 378.84375 691.457031 379.359375 692.222656 379.773438 C 699.832031 383.914062 711.320312 390.410156 716.738281 394.089844 C 718.070312 394.988281 719 395.726562 719.597656 396.269531 C 719.773438 396.425781 719.871094 396.523438 719.988281 396.640625 C 719.953125 396.765625 719.988281 396.632812 719.9375 396.792969 C 719.164062 399 717.6875 401.875 713.964844 403.546875 C 710.339844 405.167969 702.421875 405.847656 695.785156 404.859375 C 692.097656 404.308594 689.039062 403.378906 686.113281 402.492188 C 685.757812 400.746094 685.332031 399.007812 684.816406 397.347656 C 684.453125 394.988281 682.226562 393.050781 679.832031 393.042969 C 679.832031 393.042969 679.824219 393.042969 679.816406 393.042969 C 677.164062 393.042969 674.757812 395.453125 674.757812 398.105469 C 674.757812 398.105469 674.757812 398.113281 674.757812 398.121094 C 674.757812 398.378906 674.8125 398.617188 674.855469 398.867188 L 674.855469 398.886719 C 674.855469 399.117188 674.878906 399.351562 674.957031 399.566406 C 675.953125 402.738281 676.691406 405.714844 676.707031 407.839844 C 676.71875 409.769531 676.175781 411.914062 675.394531 414.238281 C 675.394531 414.253906 675.386719 414.253906 675.378906 414.273438 C 675.320312 414.464844 675.296875 414.679688 675.296875 414.886719 C 675.171875 415.4375 675.039062 415.992188 675.039062 416.558594 C 675.039062 419.898438 677.441406 423.128906 680.65625 424.066406 C 683.4375 425.007812 686.007812 426.0625 688.183594 427.390625 C 693.601562 430.707031 698.136719 436.191406 701.152344 442.046875 C 702.707031 445.0625 703.859375 448.246094 704.867188 451.5625 C 705.007812 452.035156 705.316406 452.433594 705.730469 452.699219 C 706.660156 453.960938 708.03125 454.925781 709.609375 454.925781 C 712.234375 454.925781 714.621094 452.558594 714.628906 449.925781 L 714.628906 449.90625 C 714.628906 449.144531 714.445312 448.363281 714.105469 447.679688 C 713.042969 444.308594 711.777344 440.910156 710.035156 437.503906 C 706.34375 430.316406 700.820312 423.402344 693.402344 418.859375 C 690.890625 417.3125 688.207031 416.300781 685.550781 415.335938 C 685.773438 414.546875 685.949219 413.714844 686.113281 412.886719 C 688.589844 413.582031 691.097656 414.289062 694.304688 414.769531 C 699.273438 415.511719 704.433594 415.535156 709.304688 414.871094 C 709.617188 416.117188 709.917969 417.378906 710.308594 418.566406 C 711.398438 421.898438 712.941406 425.523438 716.390625 427.914062 C 719.789062 430.265625 724.226562 431.046875 728.378906 429.636719 C 729.210938 429.359375 729.910156 428.6875 730.664062 428.171875 C 732.09375 429.992188 733.746094 431.710938 735.941406 432.941406 C 741.722656 436.214844 749.375 434.886719 754.976562 429.320312 C 755.507812 428.789062 755.949219 428.105469 756.453125 427.515625 C 757.859375 430.339844 759.777344 433.089844 763.25 434.652344 C 766.09375 435.933594 769.683594 436.25 773.164062 434.894531 C 776.621094 433.554688 779.667969 430.738281 782.121094 426.570312 C 783.109375 424.882812 783.921875 422.820312 784.730469 420.8125 C 784.578125 430.617188 783.109375 439.972656 781.855469 448.335938 C 780.441406 457.785156 779.726562 464.753906 776.421875 470.863281 C 773.113281 476.960938 766.339844 483.617188 761.964844 488.078125 C 759.777344 490.304688 758.066406 492.117188 756.738281 494.375 C 755.390625 496.660156 754.675781 499.195312 754.367188 501.984375 C 753.753906 507.488281 754.179688 514.972656 754.09375 519.851562 C 754.046875 522.566406 753.871094 524.425781 753.636719 526.148438 C 753.347656 528.425781 752.765625 529.828125 752.292969 530.402344 C 751.675781 531.148438 750.945312 531.679688 748.34375 531.988281 C 743.320312 532.585938 732.109375 530.757812 720.820312 526.929688 C 709.519531 523.097656 697.40625 517.289062 691.429688 513.460938 C 688.457031 511.550781 687.109375 510.121094 686.695312 509.457031 C 686.195312 508.667969 686.230469 508.640625 686.273438 507.085938 C 686.339844 504.984375 687.308594 500.890625 687.976562 496.476562 L 687.976562 496.445312 C 688.148438 495.449219 688.300781 494.410156 688.367188 493.328125 C 688.375 493.246094 688.40625 493.097656 688.433594 492.78125 C 688.449219 492.523438 688.414062 492.257812 688.332031 492 L 688.332031 491.984375 C 688.347656 490.097656 688.25 488.136719 687.652344 486.042969 C 685.347656 477.941406 678.761719 471.667969 672.039062 462.871094 C 665.300781 454.054688 657.871094 442.570312 654.109375 431.917969 C 653.585938 430.449219 653.1875 428.855469 652.746094 427.183594 C 651.675781 422.589844 650.777344 418.128906 650.703125 412.269531 C 650.609375 405.117188 651.78125 395.585938 653.917969 388.757812 C 656.0625 381.902344 659.152344 377.214844 662.035156 373.824219 C 664.894531 370.453125 666.980469 369.207031 668.382812 368.972656 C 668.757812 368.90625 669.105469 368.90625 669.597656 368.957031 Z M 774.75 379.5 C 775.496094 379.527344 776.179688 379.59375 776.742188 379.691406 C 776.84375 379.707031 777.183594 379.851562 777.574219 379.984375 C 777.800781 380.109375 777.980469 380.191406 778.03125 380.242188 C 778.835938 380.980469 781.199219 385.542969 780.640625 394.183594 C 780.09375 402.824219 776.695312 416.042969 773.503906 421.476562 C 771.882812 424.226562 770.394531 425.214844 769.5 425.5625 C 768.558594 425.929688 768.101562 425.839844 767.386719 425.515625 C 766.285156 425.007812 764.664062 422.640625 764.082031 420.203125 C 763.640625 418.367188 763.675781 416.597656 763.824219 414.589844 C 764.871094 411.9375 765.851562 409.1875 766.582031 406.328125 C 767.238281 403.753906 767.65625 401.246094 767.996094 398.75 C 768.0625 398.570312 768.113281 398.378906 768.128906 398.1875 C 768.210938 397.414062 768.277344 396.675781 768.335938 396.011719 C 768.335938 396.011719 768.335938 396 768.335938 396 C 768.402344 395.3125 768.527344 394.496094 768.59375 393.59375 C 768.609375 393.410156 768.609375 393.226562 768.578125 393.042969 C 768.933594 389.089844 769.226562 385.058594 768.835938 381.019531 C 768.800781 380.699219 768.75 380.449219 768.703125 380.148438 C 770.59375 379.75 772.824219 379.425781 774.75 379.5 Z M 557.945312 416.824219 C 558.078125 416.824219 558.21875 416.824219 558.351562 416.824219 C 564.425781 416.804688 569.363281 421.726562 569.371094 427.796875 C 569.371094 427.808594 569.371094 427.816406 569.371094 427.824219 C 569.371094 433.890625 564.449219 438.824219 558.378906 438.824219 C 558.371094 438.824219 558.359375 438.824219 558.351562 438.824219 C 552.277344 438.824219 547.351562 433.90625 547.351562 427.832031 C 547.351562 427.824219 547.351562 427.824219 547.351562 427.824219 C 547.34375 421.90625 552.03125 417.039062 557.945312 416.824219 Z M 881.640625 416.824219 C 887.707031 416.824219 892.640625 421.742188 892.640625 427.816406 C 892.640625 427.824219 892.640625 427.824219 892.640625 427.824219 C 892.640625 433.890625 887.722656 438.824219 881.648438 438.824219 C 881.640625 438.824219 881.640625 438.824219 881.640625 438.824219 C 875.574219 438.839844 870.640625 433.921875 870.621094 427.847656 C 870.621094 427.839844 870.621094 427.832031 870.621094 427.824219 C 870.621094 421.757812 875.542969 416.824219 881.613281 416.824219 C 881.625 416.824219 881.632812 416.824219 881.640625 416.824219 Z M 605.871094 531.082031 C 608.726562 531.132812 611.445312 532.296875 613.464844 534.316406 C 617.757812 538.617188 617.75 545.574219 613.457031 549.867188 C 613.457031 549.878906 613.457031 549.878906 613.445312 549.878906 C 609.152344 554.179688 602.1875 554.179688 597.894531 549.886719 C 597.894531 549.878906 597.894531 549.878906 597.894531 549.878906 C 593.597656 545.574219 593.597656 538.617188 597.894531 534.324219 C 597.894531 534.316406 597.894531 534.316406 597.902344 534.316406 C 600.011719 532.203125 602.878906 531.042969 605.871094 531.082031 Z M 834.066406 531.148438 C 837.046875 531.089844 839.9375 532.253906 842.050781 534.363281 C 846.351562 538.660156 846.351562 545.621094 842.058594 549.917969 C 842.050781 549.925781 842.050781 549.925781 842.050781 549.925781 C 837.753906 554.230469 830.792969 554.230469 826.496094 549.933594 C 826.488281 549.925781 826.488281 549.925781 826.488281 549.925781 C 822.183594 545.632812 822.183594 538.667969 826.480469 534.375 C 826.488281 534.363281 826.488281 534.363281 826.488281 534.363281 C 828.5 532.355469 831.214844 531.199219 834.066406 531.148438 Z M 834.066406 531.148438 " fill-opacity="1" fill-rule="nonzero"/></g></svg>