<svg xmlns="http://www.w3.org/2000/svg" xmlns:xlink="http://www.w3.org/1999/xlink" zoomAndPan="magnify" preserveAspectRatio="xMidYMid meet" version="1.0" viewBox="558.83 243.62 322.76 322.76"><path fill="#00a5a5" d="M 567.101562 309.828125 C 566.558594 309.828125 566.023438 309.878906 565.488281 309.988281 C 564.957031 310.09375 564.4375 310.25 563.9375 310.457031 C 563.433594 310.664062 562.957031 310.921875 562.503906 311.222656 C 562.054688 311.523438 561.636719 311.867188 561.25 312.25 C 560.867188 312.636719 560.523438 313.054688 560.222656 313.503906 C 559.921875 313.957031 559.664062 314.433594 559.457031 314.9375 C 559.25 315.4375 559.09375 315.957031 558.988281 316.488281 C 558.878906 317.023438 558.828125 317.558594 558.828125 318.101562 C 558.828125 318.648438 558.878906 319.183594 558.988281 319.71875 C 559.09375 320.25 559.25 320.769531 559.457031 321.269531 C 559.664062 321.773438 559.921875 322.25 560.222656 322.703125 C 560.523438 323.152344 560.867188 323.570312 561.25 323.957031 C 561.636719 324.339844 562.054688 324.683594 562.503906 324.984375 C 562.957031 325.285156 563.433594 325.542969 563.9375 325.75 C 564.4375 325.957031 564.957031 326.113281 565.488281 326.21875 C 566.023438 326.328125 566.558594 326.378906 567.101562 326.378906 C 567.648438 326.378906 568.183594 326.328125 568.71875 326.21875 C 569.25 326.113281 569.769531 325.957031 570.269531 325.75 C 570.773438 325.542969 571.25 325.285156 571.703125 324.984375 C 572.152344 324.683594 572.570312 324.339844 572.957031 323.957031 C 573.339844 323.570312 573.683594 323.152344 573.984375 322.703125 C 574.285156 322.25 574.542969 321.773438 574.75 321.269531 C 574.957031 320.769531 575.113281 320.25 575.21875 319.71875 C 575.328125 319.183594 575.378906 318.648438 575.378906 318.101562 C 575.378906 317.558594 575.328125 317.023438 575.21875 316.488281 C 575.113281 315.957031 574.957031 315.4375 574.75 314.9375 C 574.542969 314.433594 574.285156 313.957031 573.984375 313.503906 C 573.683594 313.054688 573.339844 312.636719 572.957031 312.25 C 572.570312 311.867188 572.152344 311.523438 571.703125 311.222656 C 571.25 310.921875 570.773438 310.664062 570.269531 310.457031 C 569.769531 310.25 569.25 310.09375 568.71875 309.988281 C 568.183594 309.878906 567.648438 309.828125 567.101562 309.828125 Z M 567.101562 309.828125 " fill-opacity="1" fill-rule="nonzero"/><path fill="#f1bc19" d="M 831.929688 247.757812 C 831.660156 247.757812 831.390625 247.785156 831.125 247.839844 C 830.855469 247.890625 830.597656 247.96875 830.347656 248.074219 C 830.097656 248.175781 829.859375 248.304688 829.632812 248.457031 C 829.40625 248.605469 829.195312 248.777344 829.003906 248.96875 C 828.8125 249.164062 828.640625 249.371094 828.492188 249.597656 C 828.339844 249.824219 828.210938 250.0625 828.109375 250.3125 C 828.003906 250.5625 827.925781 250.824219 827.871094 251.089844 C 827.820312 251.355469 827.792969 251.625 827.792969 251.898438 C 827.792969 252.167969 827.820312 252.4375 827.871094 252.703125 C 827.925781 252.96875 828.003906 253.230469 828.109375 253.480469 C 828.210938 253.730469 828.339844 253.96875 828.492188 254.195312 C 828.640625 254.421875 828.8125 254.628906 829.003906 254.824219 C 829.195312 255.015625 829.40625 255.1875 829.632812 255.335938 C 829.859375 255.488281 830.097656 255.617188 830.347656 255.71875 C 830.597656 255.824219 830.855469 255.902344 831.125 255.953125 C 831.390625 256.007812 831.660156 256.035156 831.929688 256.035156 C 832.203125 256.035156 832.472656 256.007812 832.738281 255.953125 C 833.003906 255.902344 833.261719 255.824219 833.515625 255.71875 C 833.765625 255.617188 834.003906 255.488281 834.230469 255.335938 C 834.457031 255.1875 834.664062 255.015625 834.855469 254.824219 C 835.050781 254.628906 835.21875 254.421875 835.371094 254.195312 C 835.523438 253.96875 835.648438 253.730469 835.753906 253.480469 C 835.859375 253.230469 835.9375 252.96875 835.988281 252.703125 C 836.042969 252.4375 836.070312 252.167969 836.070312 251.898438 C 836.070312 251.625 836.042969 251.355469 835.988281 251.089844 C 835.9375 250.824219 835.859375 250.5625 835.753906 250.3125 C 835.648438 250.0625 835.523438 249.824219 835.371094 249.597656 C 835.21875 249.371094 835.050781 249.164062 834.855469 248.96875 C 834.664062 248.777344 834.457031 248.605469 834.230469 248.457031 C 834.003906 248.304688 833.765625 248.175781 833.515625 248.074219 C 833.261719 247.96875 833.003906 247.890625 832.738281 247.839844 C 832.472656 247.785156 832.203125 247.757812 831.929688 247.757812 Z M 831.929688 247.757812 " fill-opacity="1" fill-rule="nonzero"/><path fill="#c0e5e4" d="M 720.207031 251.898438 C 717.703125 251.898438 715.195312 251.957031 712.695312 252.082031 C 710.191406 252.203125 707.695312 252.386719 705.199219 252.632812 C 702.707031 252.878906 700.21875 253.1875 697.742188 253.554688 C 695.261719 253.921875 692.796875 254.347656 690.335938 254.839844 C 687.878906 255.328125 685.4375 255.875 683.003906 256.484375 C 680.574219 257.09375 678.160156 257.761719 675.761719 258.488281 C 673.367188 259.214844 670.988281 260.003906 668.628906 260.847656 C 666.269531 261.691406 663.929688 262.59375 661.617188 263.550781 C 659.300781 264.507812 657.011719 265.523438 654.746094 266.597656 C 652.480469 267.667969 650.246094 268.792969 648.035156 269.976562 C 645.824219 271.15625 643.644531 272.390625 641.496094 273.679688 C 639.347656 274.96875 637.230469 276.308594 635.148438 277.699219 C 633.0625 279.089844 631.015625 280.535156 629.003906 282.027344 C 626.992188 283.519531 625.015625 285.058594 623.078125 286.648438 C 621.140625 288.238281 619.246094 289.875 617.390625 291.558594 C 615.53125 293.242188 613.71875 294.96875 611.945312 296.738281 C 610.175781 298.511719 608.449219 300.324219 606.765625 302.183594 C 605.082031 304.039062 603.445312 305.933594 601.855469 307.871094 C 600.265625 309.808594 598.726562 311.785156 597.234375 313.796875 C 595.742188 315.808594 594.296875 317.855469 592.90625 319.941406 C 591.515625 322.023438 590.171875 324.140625 588.886719 326.289062 C 587.597656 328.4375 586.363281 330.617188 585.183594 332.828125 C 584 335.039062 582.875 337.273438 581.804688 339.539062 C 580.730469 341.804688 579.714844 344.09375 578.757812 346.410156 C 577.800781 348.726562 576.898438 351.0625 576.054688 353.421875 C 575.210938 355.78125 574.421875 358.160156 573.695312 360.554688 C 572.96875 362.953125 572.300781 365.367188 571.691406 367.800781 C 571.082031 370.230469 570.535156 372.671875 570.046875 375.132812 C 569.554688 377.589844 569.128906 380.054688 568.761719 382.535156 C 568.394531 385.011719 568.085938 387.5 567.839844 389.992188 C 567.59375 392.488281 567.410156 394.984375 567.289062 397.488281 C 567.164062 399.988281 567.101562 402.496094 567.101562 405 C 567.101562 407.503906 567.164062 410.011719 567.289062 412.511719 C 567.410156 415.015625 567.59375 417.511719 567.839844 420.007812 C 568.085938 422.5 568.394531 424.988281 568.761719 427.464844 C 569.128906 429.945312 569.554688 432.410156 570.046875 434.867188 C 570.535156 437.328125 571.082031 439.769531 571.691406 442.199219 C 572.300781 444.632812 572.96875 447.046875 573.695312 449.445312 C 574.421875 451.839844 575.210938 454.21875 576.054688 456.578125 C 576.898438 458.9375 577.800781 461.273438 578.757812 463.589844 C 579.714844 465.90625 580.730469 468.195312 581.804688 470.460938 C 582.875 472.726562 584 474.960938 585.183594 477.171875 C 586.363281 479.382812 587.597656 481.5625 588.886719 483.710938 C 590.175781 485.859375 591.515625 487.976562 592.90625 490.058594 C 594.296875 492.144531 595.742188 494.191406 597.234375 496.203125 C 598.726562 498.214844 600.265625 500.191406 601.855469 502.128906 C 603.445312 504.066406 605.082031 505.960938 606.765625 507.816406 C 608.449219 509.675781 610.175781 511.488281 611.945312 513.261719 C 613.71875 515.03125 615.53125 516.757812 617.390625 518.441406 C 619.246094 520.125 621.140625 521.761719 623.078125 523.351562 C 625.015625 524.941406 626.992188 526.480469 629.003906 527.972656 C 631.015625 529.464844 633.0625 530.910156 635.148438 532.300781 C 637.230469 533.691406 639.347656 535.03125 641.496094 536.320312 C 643.644531 537.609375 645.824219 538.84375 648.035156 540.023438 C 650.246094 541.207031 652.480469 542.332031 654.746094 543.402344 C 657.011719 544.476562 659.300781 545.488281 661.617188 546.449219 C 663.929688 547.40625 666.269531 548.308594 668.628906 549.152344 C 670.988281 549.996094 673.367188 550.785156 675.761719 551.511719 C 678.160156 552.238281 680.574219 552.90625 683.003906 553.515625 C 685.4375 554.125 687.878906 554.671875 690.335938 555.160156 C 692.796875 555.648438 695.261719 556.078125 697.742188 556.445312 C 700.21875 556.8125 702.707031 557.121094 705.199219 557.367188 C 707.695312 557.613281 710.191406 557.796875 712.695312 557.917969 C 715.195312 558.042969 717.703125 558.101562 720.207031 558.101562 C 722.710938 558.101562 725.214844 558.042969 727.71875 557.917969 C 730.222656 557.796875 732.71875 557.613281 735.214844 557.367188 C 737.707031 557.121094 740.191406 556.8125 742.671875 556.445312 C 745.148438 556.078125 747.617188 555.648438 750.074219 555.160156 C 752.535156 554.671875 754.976562 554.125 757.40625 553.515625 C 759.839844 552.90625 762.253906 552.238281 764.652344 551.511719 C 767.046875 550.785156 769.425781 549.996094 771.785156 549.152344 C 774.144531 548.308594 776.480469 547.40625 778.796875 546.449219 C 781.113281 545.488281 783.402344 544.476562 785.667969 543.402344 C 787.933594 542.332031 790.167969 541.207031 792.378906 540.023438 C 794.589844 538.84375 796.769531 537.609375 798.917969 536.320312 C 801.066406 535.03125 803.183594 533.691406 805.265625 532.300781 C 807.351562 530.910156 809.398438 529.464844 811.410156 527.972656 C 813.421875 526.480469 815.398438 524.941406 817.335938 523.351562 C 819.273438 521.761719 821.167969 520.125 823.023438 518.441406 C 824.882812 516.757812 826.695312 515.03125 828.46875 513.261719 C 830.238281 511.488281 831.964844 509.675781 833.648438 507.816406 C 835.332031 505.960938 836.96875 504.066406 838.558594 502.128906 C 840.148438 500.191406 841.6875 498.214844 843.179688 496.203125 C 844.671875 494.191406 846.117188 492.144531 847.507812 490.058594 C 848.898438 487.976562 850.238281 485.859375 851.527344 483.710938 C 852.816406 481.5625 854.050781 479.382812 855.230469 477.171875 C 856.414062 474.960938 857.539062 472.726562 858.609375 470.460938 C 859.683594 468.195312 860.695312 465.90625 861.65625 463.589844 C 862.613281 461.273438 863.515625 458.9375 864.359375 456.578125 C 865.203125 454.21875 865.992188 451.839844 866.71875 449.445312 C 867.445312 447.046875 868.113281 444.632812 868.722656 442.199219 C 869.332031 439.769531 869.878906 437.328125 870.367188 434.867188 C 870.855469 432.410156 871.285156 429.945312 871.652344 427.464844 C 872.019531 424.988281 872.328125 422.5 872.574219 420.007812 C 872.820312 417.511719 873.003906 415.015625 873.125 412.511719 C 873.25 410.011719 873.308594 407.503906 873.308594 405 C 873.308594 402.496094 873.25 399.988281 873.125 397.488281 C 873.003906 394.984375 872.820312 392.488281 872.574219 389.992188 C 872.328125 387.5 872.019531 385.011719 871.652344 382.535156 C 871.285156 380.054688 870.855469 377.589844 870.367188 375.132812 C 869.878906 372.671875 869.332031 370.230469 868.722656 367.800781 C 868.113281 365.367188 867.445312 362.953125 866.71875 360.554688 C 865.992188 358.160156 865.203125 355.78125 864.359375 353.421875 C 863.515625 351.0625 862.613281 348.726562 861.65625 346.410156 C 860.695312 344.09375 859.683594 341.804688 858.609375 339.539062 C 857.539062 337.273438 856.414062 335.039062 855.230469 332.828125 C 854.050781 330.617188 852.816406 328.4375 851.527344 326.289062 C 850.238281 324.140625 848.898438 322.023438 847.507812 319.941406 C 846.117188 317.855469 844.671875 315.808594 843.179688 313.796875 C 841.6875 311.785156 840.148438 309.808594 838.558594 307.871094 C 836.96875 305.933594 835.332031 304.039062 833.648438 302.183594 C 831.964844 300.324219 830.238281 298.511719 828.46875 296.738281 C 826.695312 294.96875 824.882812 293.242188 823.023438 291.558594 C 821.167969 289.875 819.273438 288.238281 817.335938 286.648438 C 815.398438 285.058594 813.421875 283.519531 811.410156 282.027344 C 809.398438 280.535156 807.351562 279.089844 805.265625 277.699219 C 803.183594 276.308594 801.066406 274.96875 798.917969 273.679688 C 796.769531 272.390625 794.589844 271.15625 792.378906 269.976562 C 790.167969 268.792969 787.933594 267.667969 785.667969 266.597656 C 783.402344 265.523438 781.113281 264.507812 778.796875 263.550781 C 776.480469 262.59375 774.144531 261.691406 771.785156 260.847656 C 769.425781 260.003906 767.046875 259.214844 764.652344 258.488281 C 762.253906 257.761719 759.839844 257.09375 757.40625 256.484375 C 754.976562 255.875 752.535156 255.328125 750.074219 254.839844 C 747.617188 254.347656 745.148438 253.921875 742.671875 253.554688 C 740.191406 253.1875 737.707031 252.878906 735.214844 252.632812 C 732.71875 252.386719 730.222656 252.203125 727.71875 252.082031 C 725.214844 251.957031 722.710938 251.898438 720.207031 251.898438 Z M 720.207031 251.898438 " fill-opacity="1" fill-rule="nonzero"/><path fill="#f1bc19" d="M 856.757812 243.621094 C 856.214844 243.621094 855.675781 243.648438 855.136719 243.699219 C 854.597656 243.753906 854.0625 243.832031 853.53125 243.9375 C 852.996094 244.042969 852.472656 244.175781 851.953125 244.332031 C 851.433594 244.492188 850.925781 244.671875 850.425781 244.878906 C 849.921875 245.089844 849.433594 245.320312 848.957031 245.574219 C 848.476562 245.832031 848.015625 246.109375 847.5625 246.410156 C 847.113281 246.710938 846.675781 247.035156 846.257812 247.378906 C 845.839844 247.722656 845.4375 248.085938 845.054688 248.46875 C 844.671875 248.851562 844.308594 249.253906 843.964844 249.671875 C 843.621094 250.089844 843.296875 250.527344 842.996094 250.976562 C 842.695312 251.425781 842.417969 251.890625 842.160156 252.371094 C 841.90625 252.847656 841.675781 253.335938 841.464844 253.839844 C 841.257812 254.339844 841.078125 254.847656 840.917969 255.367188 C 840.761719 255.886719 840.628906 256.410156 840.523438 256.941406 C 840.417969 257.476562 840.339844 258.011719 840.285156 258.550781 C 840.234375 259.089844 840.207031 259.628906 840.207031 260.171875 C 840.207031 260.714844 840.234375 261.253906 840.285156 261.792969 C 840.339844 262.335938 840.417969 262.871094 840.523438 263.402344 C 840.628906 263.933594 840.761719 264.457031 840.917969 264.976562 C 841.078125 265.496094 841.257812 266.003906 841.464844 266.507812 C 841.675781 267.007812 841.90625 267.496094 842.160156 267.976562 C 842.417969 268.453125 842.695312 268.917969 842.996094 269.367188 C 843.296875 269.820312 843.621094 270.253906 843.964844 270.671875 C 844.308594 271.089844 844.671875 271.492188 845.054688 271.875 C 845.4375 272.257812 845.839844 272.625 846.257812 272.96875 C 846.675781 273.3125 847.113281 273.632812 847.5625 273.933594 C 848.015625 274.234375 848.476562 274.515625 848.957031 274.769531 C 849.433594 275.023438 849.921875 275.257812 850.425781 275.464844 C 850.925781 275.671875 851.433594 275.855469 851.953125 276.011719 C 852.472656 276.167969 852.996094 276.300781 853.53125 276.40625 C 854.0625 276.511719 854.597656 276.589844 855.136719 276.644531 C 855.675781 276.699219 856.214844 276.722656 856.757812 276.722656 C 857.300781 276.722656 857.839844 276.699219 858.382812 276.644531 C 858.921875 276.589844 859.457031 276.511719 859.988281 276.40625 C 860.519531 276.300781 861.042969 276.167969 861.5625 276.011719 C 862.082031 275.855469 862.59375 275.671875 863.09375 275.464844 C 863.59375 275.257812 864.082031 275.023438 864.5625 274.769531 C 865.039062 274.515625 865.503906 274.234375 865.953125 273.933594 C 866.40625 273.632812 866.839844 273.3125 867.257812 272.96875 C 867.679688 272.625 868.078125 272.257812 868.460938 271.875 C 868.847656 271.492188 869.210938 271.089844 869.554688 270.671875 C 869.898438 270.253906 870.21875 269.820312 870.519531 269.367188 C 870.820312 268.917969 871.101562 268.453125 871.355469 267.976562 C 871.613281 267.496094 871.84375 267.007812 872.050781 266.507812 C 872.257812 266.003906 872.441406 265.496094 872.597656 264.976562 C 872.753906 264.457031 872.886719 263.933594 872.992188 263.402344 C 873.097656 262.871094 873.175781 262.335938 873.230469 261.792969 C 873.285156 261.253906 873.308594 260.714844 873.308594 260.171875 C 873.308594 259.628906 873.285156 259.089844 873.230469 258.550781 C 873.175781 258.011719 873.097656 257.476562 872.992188 256.941406 C 872.886719 256.410156 872.753906 255.886719 872.597656 255.367188 C 872.441406 254.847656 872.257812 254.339844 872.050781 253.839844 C 871.84375 253.335938 871.613281 252.847656 871.355469 252.371094 C 871.101562 251.890625 870.820312 251.425781 870.519531 250.976562 C 870.21875 250.527344 869.898438 250.089844 869.554688 249.671875 C 869.210938 249.253906 868.847656 248.851562 868.460938 248.46875 C 868.078125 248.085938 867.679688 247.722656 867.257812 247.378906 C 866.839844 247.035156 866.40625 246.710938 865.953125 246.410156 C 865.503906 246.109375 865.039062 245.832031 864.5625 245.574219 C 864.082031 245.320312 863.59375 245.089844 863.09375 244.878906 C 862.59375 244.671875 862.082031 244.492188 861.5625 244.332031 C 861.042969 244.175781 860.519531 244.042969 859.988281 243.9375 C 859.457031 243.832031 858.921875 243.753906 858.382812 243.699219 C 857.839844 243.648438 857.300781 243.621094 856.757812 243.621094 Z M 856.757812 243.621094 " fill-opacity="1" fill-rule="nonzero"/><path fill="#00a5a5" d="M 873.308594 289.136719 C 872.765625 289.136719 872.230469 289.191406 871.695312 289.296875 C 871.164062 289.402344 870.644531 289.558594 870.144531 289.769531 C 869.640625 289.976562 869.164062 290.230469 868.710938 290.53125 C 868.261719 290.835938 867.84375 291.175781 867.457031 291.5625 C 867.074219 291.945312 866.730469 292.363281 866.429688 292.816406 C 866.128906 293.269531 865.871094 293.746094 865.664062 294.246094 C 865.457031 294.75 865.300781 295.265625 865.195312 295.800781 C 865.085938 296.332031 865.035156 296.871094 865.035156 297.414062 C 865.035156 297.957031 865.085938 298.496094 865.195312 299.027344 C 865.300781 299.5625 865.457031 300.078125 865.664062 300.582031 C 865.871094 301.082031 866.128906 301.558594 866.429688 302.011719 C 866.730469 302.464844 867.074219 302.882812 867.457031 303.265625 C 867.84375 303.648438 868.261719 303.992188 868.710938 304.292969 C 869.164062 304.597656 869.640625 304.851562 870.144531 305.058594 C 870.644531 305.269531 871.164062 305.425781 871.695312 305.53125 C 872.230469 305.636719 872.765625 305.691406 873.308594 305.691406 C 873.855469 305.691406 874.390625 305.636719 874.925781 305.53125 C 875.457031 305.425781 875.976562 305.269531 876.476562 305.058594 C 876.980469 304.851562 877.457031 304.597656 877.90625 304.292969 C 878.359375 303.992188 878.777344 303.648438 879.164062 303.265625 C 879.546875 302.882812 879.890625 302.464844 880.191406 302.011719 C 880.492188 301.558594 880.75 301.082031 880.957031 300.582031 C 881.164062 300.078125 881.320312 299.5625 881.425781 299.027344 C 881.53125 298.496094 881.585938 297.957031 881.585938 297.414062 C 881.585938 296.871094 881.53125 296.332031 881.425781 295.800781 C 881.320312 295.265625 881.164062 294.75 880.957031 294.246094 C 880.75 293.746094 880.492188 293.269531 880.191406 292.816406 C 879.890625 292.363281 879.546875 291.945312 879.164062 291.5625 C 878.777344 291.175781 878.359375 290.835938 877.90625 290.53125 C 877.457031 290.230469 876.980469 289.976562 876.476562 289.769531 C 875.976562 289.558594 875.457031 289.402344 874.925781 289.296875 C 874.390625 289.191406 873.855469 289.136719 873.308594 289.136719 Z M 873.308594 289.136719 " fill-opacity="1" fill-rule="nonzero"/><path fill="#fbcd59" d="M 848.484375 504.308594 C 847.9375 504.308594 847.402344 504.363281 846.867188 504.46875 C 846.335938 504.574219 845.816406 504.730469 845.316406 504.941406 C 844.8125 505.148438 844.335938 505.402344 843.886719 505.703125 C 843.433594 506.007812 843.015625 506.351562 842.628906 506.734375 C 842.246094 507.117188 841.902344 507.535156 841.601562 507.988281 C 841.300781 508.441406 841.042969 508.917969 840.835938 509.417969 C 840.628906 509.921875 840.472656 510.4375 840.367188 510.972656 C 840.261719 511.503906 840.207031 512.042969 840.207031 512.585938 C 840.207031 513.128906 840.261719 513.667969 840.367188 514.199219 C 840.472656 514.734375 840.628906 515.25 840.835938 515.753906 C 841.042969 516.253906 841.300781 516.730469 841.601562 517.183594 C 841.902344 517.636719 842.246094 518.054688 842.628906 518.4375 C 843.015625 518.824219 843.433594 519.164062 843.886719 519.46875 C 844.335938 519.769531 844.8125 520.023438 845.316406 520.230469 C 845.816406 520.441406 846.335938 520.597656 846.867188 520.703125 C 847.402344 520.808594 847.9375 520.863281 848.484375 520.863281 C 849.027344 520.863281 849.5625 520.808594 850.097656 520.703125 C 850.628906 520.597656 851.148438 520.441406 851.648438 520.230469 C 852.152344 520.023438 852.628906 519.769531 853.082031 519.46875 C 853.53125 519.164062 853.949219 518.824219 854.335938 518.4375 C 854.71875 518.054688 855.0625 517.636719 855.363281 517.183594 C 855.664062 516.730469 855.921875 516.253906 856.128906 515.753906 C 856.335938 515.25 856.492188 514.734375 856.597656 514.199219 C 856.707031 513.667969 856.757812 513.128906 856.757812 512.585938 C 856.757812 512.042969 856.707031 511.503906 856.597656 510.972656 C 856.492188 510.4375 856.335938 509.921875 856.128906 509.417969 C 855.921875 508.917969 855.664062 508.441406 855.363281 507.988281 C 855.0625 507.535156 854.71875 507.117188 854.335938 506.734375 C 853.949219 506.351562 853.53125 506.007812 853.082031 505.703125 C 852.628906 505.402344 852.152344 505.148438 851.648438 504.941406 C 851.148438 504.730469 850.628906 504.574219 850.097656 504.46875 C 849.5625 504.363281 849.027344 504.308594 848.484375 504.308594 Z M 575.378906 442.242188 C 574.835938 442.242188 574.296875 442.269531 573.757812 442.320312 C 573.21875 442.375 572.683594 442.453125 572.148438 442.558594 C 571.617188 442.664062 571.09375 442.796875 570.574219 442.953125 C 570.054688 443.113281 569.546875 443.292969 569.046875 443.5 C 568.542969 443.707031 568.054688 443.941406 567.578125 444.195312 C 567.097656 444.453125 566.632812 444.730469 566.183594 445.03125 C 565.734375 445.332031 565.296875 445.65625 564.878906 446 C 564.460938 446.34375 564.058594 446.707031 563.675781 447.089844 C 563.292969 447.472656 562.929688 447.875 562.585938 448.292969 C 562.242188 448.710938 561.917969 449.148438 561.617188 449.597656 C 561.316406 450.046875 561.039062 450.511719 560.78125 450.992188 C 560.527344 451.46875 560.296875 451.957031 560.085938 452.460938 C 559.878906 452.960938 559.699219 453.46875 559.539062 453.988281 C 559.382812 454.507812 559.25 455.03125 559.144531 455.5625 C 559.039062 456.097656 558.960938 456.632812 558.90625 457.171875 C 558.855469 457.710938 558.828125 458.25 558.828125 458.792969 C 558.828125 459.335938 558.855469 459.875 558.90625 460.414062 C 558.960938 460.953125 559.039062 461.492188 559.144531 462.023438 C 559.25 462.554688 559.382812 463.078125 559.539062 463.597656 C 559.699219 464.117188 559.878906 464.625 560.085938 465.128906 C 560.296875 465.628906 560.527344 466.117188 560.78125 466.59375 C 561.039062 467.074219 561.316406 467.539062 561.617188 467.988281 C 561.917969 468.441406 562.242188 468.875 562.585938 469.292969 C 562.929688 469.710938 563.292969 470.113281 563.675781 470.496094 C 564.058594 470.878906 564.460938 471.242188 564.878906 471.585938 C 565.296875 471.933594 565.734375 472.253906 566.183594 472.554688 C 566.632812 472.855469 567.097656 473.136719 567.578125 473.390625 C 568.054688 473.644531 568.542969 473.878906 569.046875 474.085938 C 569.546875 474.292969 570.054688 474.476562 570.574219 474.632812 C 571.09375 474.789062 571.617188 474.921875 572.148438 475.027344 C 572.683594 475.132812 573.21875 475.210938 573.757812 475.265625 C 574.296875 475.316406 574.835938 475.34375 575.378906 475.34375 C 575.921875 475.34375 576.460938 475.316406 577 475.265625 C 577.542969 475.210938 578.078125 475.132812 578.609375 475.027344 C 579.140625 474.921875 579.664062 474.789062 580.183594 474.632812 C 580.703125 474.476562 581.210938 474.292969 581.714844 474.085938 C 582.214844 473.878906 582.703125 473.644531 583.183594 473.390625 C 583.660156 473.136719 584.125 472.855469 584.574219 472.554688 C 585.027344 472.253906 585.460938 471.933594 585.878906 471.585938 C 586.296875 471.242188 586.699219 470.878906 587.082031 470.496094 C 587.464844 470.113281 587.828125 469.710938 588.175781 469.292969 C 588.519531 468.875 588.839844 468.441406 589.140625 467.988281 C 589.441406 467.539062 589.722656 467.074219 589.976562 466.59375 C 590.230469 466.117188 590.464844 465.628906 590.671875 465.128906 C 590.878906 464.625 591.0625 464.117188 591.21875 463.597656 C 591.375 463.078125 591.507812 462.554688 591.613281 462.023438 C 591.71875 461.492188 591.796875 460.953125 591.851562 460.414062 C 591.90625 459.875 591.929688 459.335938 591.929688 458.792969 C 591.929688 458.25 591.90625 457.710938 591.851562 457.171875 C 591.796875 456.632812 591.71875 456.097656 591.613281 455.5625 C 591.507812 455.03125 591.375 454.507812 591.21875 453.988281 C 591.0625 453.46875 590.878906 452.960938 590.671875 452.460938 C 590.464844 451.957031 590.230469 451.46875 589.976562 450.992188 C 589.722656 450.511719 589.441406 450.046875 589.140625 449.597656 C 588.839844 449.148438 588.519531 448.710938 588.175781 448.292969 C 587.828125 447.875 587.464844 447.472656 587.082031 447.089844 C 586.699219 446.707031 586.296875 446.34375 585.878906 446 C 585.460938 445.65625 585.027344 445.332031 584.574219 445.03125 C 584.125 444.730469 583.660156 444.453125 583.183594 444.195312 C 582.703125 443.941406 582.214844 443.707031 581.714844 443.5 C 581.210938 443.292969 580.703125 443.113281 580.183594 442.953125 C 579.664062 442.796875 579.140625 442.664062 578.609375 442.558594 C 578.078125 442.453125 577.542969 442.375 577 442.320312 C 576.460938 442.269531 575.921875 442.242188 575.378906 442.242188 Z M 575.378906 442.242188 " fill-opacity="1" fill-rule="nonzero"/><path fill="#00a5a5" d="M 616.757812 549.828125 C 616.214844 549.828125 615.675781 549.878906 615.144531 549.988281 C 614.609375 550.09375 614.09375 550.25 613.589844 550.457031 C 613.089844 550.664062 612.613281 550.921875 612.160156 551.222656 C 611.707031 551.523438 611.289062 551.867188 610.90625 552.25 C 610.523438 552.636719 610.179688 553.054688 609.878906 553.503906 C 609.574219 553.957031 609.320312 554.433594 609.113281 554.9375 C 608.90625 555.4375 608.746094 555.957031 608.640625 556.488281 C 608.535156 557.023438 608.484375 557.558594 608.484375 558.101562 C 608.484375 558.648438 608.535156 559.183594 608.640625 559.71875 C 608.746094 560.25 608.90625 560.769531 609.113281 561.269531 C 609.320312 561.773438 609.574219 562.25 609.878906 562.699219 C 610.179688 563.152344 610.523438 563.570312 610.90625 563.957031 C 611.289062 564.339844 611.707031 564.683594 612.160156 564.984375 C 612.613281 565.285156 613.089844 565.542969 613.589844 565.75 C 614.09375 565.957031 614.609375 566.113281 615.144531 566.21875 C 615.675781 566.328125 616.214844 566.378906 616.757812 566.378906 C 617.300781 566.378906 617.839844 566.328125 618.375 566.21875 C 618.90625 566.113281 619.421875 565.957031 619.925781 565.75 C 620.425781 565.542969 620.90625 565.285156 621.355469 564.984375 C 621.808594 564.683594 622.226562 564.339844 622.609375 563.957031 C 622.996094 563.570312 623.335938 563.152344 623.640625 562.703125 C 623.941406 562.25 624.195312 561.773438 624.40625 561.269531 C 624.613281 560.769531 624.769531 560.25 624.875 559.71875 C 624.980469 559.183594 625.035156 558.648438 625.035156 558.101562 C 625.035156 557.558594 624.980469 557.023438 624.875 556.488281 C 624.769531 555.957031 624.613281 555.4375 624.40625 554.9375 C 624.195312 554.433594 623.941406 553.957031 623.640625 553.503906 C 623.335938 553.054688 622.996094 552.636719 622.609375 552.25 C 622.226562 551.867188 621.808594 551.523438 621.355469 551.222656 C 620.90625 550.921875 620.425781 550.664062 619.925781 550.457031 C 619.421875 550.25 618.90625 550.09375 618.375 549.988281 C 617.839844 549.878906 617.300781 549.828125 616.757812 549.828125 Z M 616.757812 549.828125 " fill-opacity="1" fill-rule="nonzero"/><path fill="#ffffff" d="M 589.863281 409.136719 C 589.183594 409.136719 588.511719 409.203125 587.84375 409.335938 C 587.175781 409.46875 586.53125 409.664062 585.902344 409.925781 C 585.277344 410.183594 584.679688 410.503906 584.113281 410.882812 C 583.550781 411.257812 583.027344 411.6875 582.546875 412.167969 C 582.066406 412.648438 581.636719 413.171875 581.261719 413.734375 C 580.882812 414.300781 580.566406 414.894531 580.304688 415.523438 C 580.042969 416.152344 579.847656 416.796875 579.714844 417.464844 C 579.582031 418.128906 579.515625 418.804688 579.515625 419.484375 C 579.515625 420.160156 579.582031 420.835938 579.714844 421.5 C 579.847656 422.167969 580.042969 422.8125 580.304688 423.441406 C 580.566406 424.070312 580.882812 424.664062 581.261719 425.230469 C 581.636719 425.792969 582.066406 426.316406 582.546875 426.796875 C 583.027344 427.277344 583.550781 427.707031 584.113281 428.085938 C 584.679688 428.460938 585.277344 428.78125 585.902344 429.039062 C 586.53125 429.300781 587.175781 429.496094 587.84375 429.628906 C 588.511719 429.761719 589.183594 429.828125 589.863281 429.828125 C 590.542969 429.828125 591.214844 429.761719 591.878906 429.628906 C 592.546875 429.496094 593.191406 429.300781 593.820312 429.039062 C 594.449219 428.78125 595.042969 428.460938 595.609375 428.085938 C 596.175781 427.707031 596.695312 427.277344 597.175781 426.796875 C 597.65625 426.316406 598.085938 425.792969 598.464844 425.230469 C 598.839844 424.664062 599.160156 424.070312 599.417969 423.441406 C 599.679688 422.8125 599.875 422.167969 600.007812 421.5 C 600.140625 420.835938 600.207031 420.160156 600.207031 419.484375 C 600.207031 418.804688 600.140625 418.128906 600.007812 417.464844 C 599.875 416.796875 599.679688 416.152344 599.417969 415.523438 C 599.160156 414.894531 598.839844 414.300781 598.464844 413.734375 C 598.085938 413.171875 597.65625 412.648438 597.175781 412.167969 C 596.695312 411.6875 596.175781 411.257812 595.609375 410.882812 C 595.042969 410.503906 594.449219 410.183594 593.820312 409.925781 C 593.191406 409.664062 592.546875 409.46875 591.878906 409.335938 C 591.214844 409.203125 590.542969 409.136719 589.863281 409.136719 Z M 589.863281 409.136719 " fill-opacity="1" fill-rule="nonzero"/><path fill="#f1bc19" d="M 600.207031 471.207031 C 599.933594 471.207031 599.667969 471.234375 599.398438 471.285156 C 599.132812 471.339844 598.875 471.417969 598.625 471.523438 C 598.371094 471.625 598.132812 471.753906 597.90625 471.902344 C 597.683594 472.054688 597.472656 472.226562 597.28125 472.417969 C 597.089844 472.609375 596.917969 472.820312 596.765625 473.046875 C 596.617188 473.273438 596.488281 473.511719 596.382812 473.761719 C 596.28125 474.011719 596.203125 474.269531 596.148438 474.539062 C 596.09375 474.804688 596.070312 475.074219 596.070312 475.34375 C 596.070312 475.617188 596.09375 475.886719 596.148438 476.152344 C 596.203125 476.417969 596.28125 476.675781 596.382812 476.929688 C 596.488281 477.179688 596.617188 477.417969 596.765625 477.644531 C 596.917969 477.871094 597.089844 478.078125 597.28125 478.269531 C 597.472656 478.460938 597.683594 478.632812 597.90625 478.785156 C 598.132812 478.9375 598.371094 479.0625 598.625 479.167969 C 598.875 479.273438 599.132812 479.351562 599.398438 479.402344 C 599.667969 479.457031 599.933594 479.484375 600.207031 479.484375 C 600.480469 479.484375 600.746094 479.457031 601.015625 479.402344 C 601.28125 479.351562 601.539062 479.273438 601.789062 479.167969 C 602.042969 479.0625 602.28125 478.9375 602.503906 478.785156 C 602.730469 478.632812 602.941406 478.460938 603.132812 478.269531 C 603.324219 478.078125 603.496094 477.871094 603.648438 477.644531 C 603.796875 477.417969 603.925781 477.179688 604.03125 476.929688 C 604.132812 476.675781 604.210938 476.417969 604.265625 476.152344 C 604.316406 475.886719 604.34375 475.617188 604.34375 475.34375 C 604.34375 475.074219 604.316406 474.804688 604.265625 474.539062 C 604.210938 474.269531 604.132812 474.011719 604.03125 473.761719 C 603.925781 473.511719 603.796875 473.273438 603.648438 473.046875 C 603.496094 472.820312 603.324219 472.609375 603.132812 472.417969 C 602.941406 472.226562 602.730469 472.054688 602.503906 471.902344 C 602.28125 471.753906 602.042969 471.625 601.789062 471.523438 C 601.539062 471.417969 601.28125 471.339844 601.015625 471.285156 C 600.746094 471.234375 600.480469 471.207031 600.207031 471.207031 Z M 600.207031 471.207031 " fill-opacity="1" fill-rule="nonzero"/><path fill="#ffffff" d="M 844.34375 334.65625 C 844.074219 334.65625 843.804688 334.683594 843.539062 334.734375 C 843.269531 334.789062 843.011719 334.867188 842.761719 334.96875 C 842.511719 335.074219 842.273438 335.203125 842.046875 335.351562 C 841.820312 335.503906 841.609375 335.675781 841.417969 335.867188 C 841.226562 336.058594 841.054688 336.269531 840.902344 336.496094 C 840.753906 336.71875 840.625 336.957031 840.523438 337.210938 C 840.417969 337.460938 840.339844 337.71875 840.285156 337.984375 C 840.234375 338.253906 840.207031 338.519531 840.207031 338.792969 C 840.207031 339.066406 840.234375 339.332031 840.285156 339.601562 C 840.339844 339.867188 840.417969 340.125 840.523438 340.375 C 840.625 340.628906 840.753906 340.867188 840.902344 341.09375 C 841.054688 341.316406 841.226562 341.527344 841.417969 341.71875 C 841.609375 341.910156 841.820312 342.082031 842.046875 342.234375 C 842.273438 342.382812 842.511719 342.511719 842.761719 342.617188 C 843.011719 342.71875 843.269531 342.796875 843.539062 342.851562 C 843.804688 342.90625 844.074219 342.929688 844.34375 342.929688 C 844.617188 342.929688 844.886719 342.90625 845.152344 342.851562 C 845.417969 342.796875 845.675781 342.71875 845.929688 342.617188 C 846.179688 342.511719 846.417969 342.382812 846.644531 342.234375 C 846.871094 342.082031 847.078125 341.910156 847.269531 341.71875 C 847.460938 341.527344 847.632812 341.316406 847.785156 341.09375 C 847.9375 340.867188 848.0625 340.628906 848.167969 340.375 C 848.273438 340.125 848.351562 339.867188 848.402344 339.601562 C 848.457031 339.332031 848.484375 339.066406 848.484375 338.792969 C 848.484375 338.519531 848.457031 338.253906 848.402344 337.984375 C 848.351562 337.71875 848.273438 337.460938 848.167969 337.210938 C 848.0625 336.957031 847.9375 336.71875 847.785156 336.496094 C 847.632812 336.269531 847.460938 336.058594 847.269531 335.867188 C 847.078125 335.675781 846.871094 335.503906 846.644531 335.351562 C 846.417969 335.203125 846.179688 335.074219 845.929688 334.96875 C 845.675781 334.867188 845.417969 334.789062 845.152344 334.734375 C 844.886719 334.683594 844.617188 334.65625 844.34375 334.65625 Z M 844.34375 334.65625 " fill-opacity="1" fill-rule="nonzero"/><path fill="#fefdef" d="M 757.449219 301.550781 C 766.578125 301.550781 774 308.976562 774 318.101562 L 774 491.898438 C 774 501.023438 766.578125 508.449219 757.449219 508.449219 L 682.964844 508.449219 C 673.835938 508.449219 666.414062 501.023438 666.414062 491.898438 L 666.414062 318.101562 C 666.414062 308.976562 673.835938 301.550781 682.964844 301.550781 L 757.449219 301.550781 " fill-opacity="1" fill-rule="nonzero"/><path fill="#a2b3cb" d="M 699.515625 303.160156 L 740.898438 303.160156 L 740.898438 312.128906 L 699.515625 312.128906 Z M 699.515625 303.160156 " fill-opacity="1" fill-rule="nonzero"/><path fill="#472b29" d="M 691.242188 299.484375 L 691.242188 305.691406 C 691.242188 310.261719 694.949219 313.964844 699.515625 313.964844 L 740.898438 313.964844 C 745.464844 313.964844 749.171875 310.261719 749.171875 305.691406 L 749.171875 299.484375 Z M 726.414062 309.828125 C 725.273438 309.828125 715.140625 309.828125 714 309.828125 C 712.859375 309.828125 711.929688 308.902344 711.929688 307.757812 C 711.929688 306.617188 712.859375 305.691406 714 305.691406 C 715.140625 305.691406 725.273438 305.691406 726.414062 305.691406 C 727.554688 305.691406 728.484375 306.617188 728.484375 307.757812 C 728.484375 308.902344 727.554688 309.828125 726.414062 309.828125 Z M 734.691406 309.828125 C 733.546875 309.828125 732.621094 308.902344 732.621094 307.757812 C 732.621094 306.617188 733.546875 305.691406 734.691406 305.691406 C 735.832031 305.691406 736.757812 306.617188 736.757812 307.757812 C 736.757812 308.902344 735.832031 309.828125 734.691406 309.828125 Z M 747.621094 500.171875 L 692.792969 500.171875 C 691.9375 500.171875 691.242188 499.476562 691.242188 498.621094 C 691.242188 497.765625 691.9375 497.070312 692.792969 497.070312 L 747.621094 497.070312 C 748.476562 497.070312 749.171875 497.765625 749.171875 498.621094 C 749.171875 499.476562 748.476562 500.171875 747.621094 500.171875 Z M 747.621094 500.171875 " fill-opacity="1" fill-rule="nonzero"/><path fill="#a2b3cb" d="M 720.183594 385.027344 C 721.726562 383.226562 724.191406 382.023438 726.355469 381.722656 C 726.660156 384.128906 725.738281 386.527344 724.507812 388.03125 C 722.960938 389.832031 720.804688 391.035156 718.332031 391.035156 C 717.710938 388.933594 718.636719 386.828125 720.183594 385.027344 Z M 720.183594 385.027344 " fill-opacity="1" fill-rule="nonzero"/><path fill="#472b29" d="M 718.332031 392.585938 C 717.644531 392.585938 717.039062 392.132812 716.847656 391.472656 C 716.140625 389.070312 716.886719 386.492188 719.003906 384.015625 C 720.707031 382.03125 723.441406 380.5625 726.140625 380.1875 C 726.574219 380.132812 726.96875 380.246094 727.296875 380.496094 C 727.625 380.746094 727.839844 381.121094 727.894531 381.53125 C 728.289062 384.601562 727.023438 387.410156 725.710938 389.015625 C 723.722656 391.328125 721.113281 392.585938 718.332031 392.585938 Z M 721.363281 386.035156 C 720.625 386.890625 719.851562 388.066406 719.714844 389.316406 C 721.058594 388.996094 722.308594 388.203125 723.328125 387.015625 C 723.921875 386.292969 724.546875 385.101562 724.773438 383.722656 C 723.441406 384.226562 722.203125 385.054688 721.363281 386.035156 Z M 721.363281 386.035156 " fill-opacity="1" fill-rule="nonzero"/><path fill="#a2b3cb" d="M 733.617188 409.664062 C 733.425781 408.808594 733.332031 407.902344 733.332031 406.953125 C 733.332031 406.90625 734.886719 406.945312 734.886719 406.945312 C 734.886719 402.613281 738.226562 400.167969 739.328125 399.277344 L 739.46875 399.164062 L 738.433594 398.019531 C 736.042969 395.289062 732.519531 394.132812 729.445312 394.132812 C 725.351562 394.132812 724.308594 396.980469 720.890625 396.980469 C 717.816406 396.980469 715.800781 394.132812 712.386719 394.132812 C 708.972656 394.132812 705.527344 396.148438 703.171875 399.597656 C 701.753906 401.664062 701.074219 404.511719 701.066406 407.65625 C 701.054688 412.230469 702.386719 417.332031 705.257812 422.09375 C 707.066406 425.09375 709.628906 428.308594 713.066406 428.269531 C 716.148438 428.234375 716.1875 426.753906 720.566406 426.753906 C 724.578125 426.753906 725.355469 428.269531 728.421875 428.269531 C 731.488281 428.269531 734.460938 424.695312 736.265625 421.78125 C 737.464844 419.84375 737.972656 418.703125 739.339844 416.324219 C 736.164062 415.027344 734.292969 412.664062 733.617188 409.664062 Z M 733.617188 409.664062 " fill-opacity="1" fill-rule="nonzero"/><path fill="#472b29" d="M 713.011719 429.828125 C 708.109375 429.828125 704.972656 424.617188 703.933594 422.902344 C 701.082031 418.160156 699.511719 412.746094 699.519531 407.65625 C 699.53125 404.074219 700.351562 400.984375 701.898438 398.722656 C 704.515625 394.882812 708.4375 392.585938 712.386719 392.585938 C 714.53125 392.585938 716.164062 393.472656 717.605469 394.253906 C 718.773438 394.886719 719.785156 395.433594 720.890625 395.433594 C 722.09375 395.433594 722.917969 394.945312 723.957031 394.324219 C 725.257812 393.550781 726.878906 392.585938 729.445312 392.585938 C 733.386719 392.585938 737.179688 394.238281 739.597656 396.996094 C 740.164062 397.644531 740.09375 398.625 739.453125 399.1875 C 738.808594 399.75 737.828125 399.683594 737.261719 399.042969 C 735.425781 396.9375 732.503906 395.683594 729.445312 395.683594 C 727.734375 395.683594 726.71875 396.289062 725.542969 396.984375 C 724.328125 397.707031 722.945312 398.53125 720.890625 398.53125 C 719 398.53125 717.476562 397.703125 716.125 396.976562 C 714.847656 396.285156 713.746094 395.683594 712.390625 395.683594 C 709.46875 395.683594 706.503906 397.472656 704.457031 400.46875 C 703.265625 402.214844 702.632812 404.703125 702.625 407.660156 C 702.617188 412.191406 704.027344 417.03125 706.59375 421.296875 C 708.8125 424.972656 710.921875 426.863281 713.0625 426.71875 C 714.164062 426.707031 714.722656 426.480469 715.503906 426.167969 C 716.5625 425.738281 717.882812 425.207031 720.578125 425.207031 C 722.988281 425.207031 724.4375 425.71875 725.59375 426.128906 C 726.535156 426.460938 727.269531 426.71875 728.4375 426.71875 C 730.265625 426.71875 732.769531 424.515625 734.96875 420.964844 C 735.636719 419.871094 736.089844 419.039062 736.605469 418.078125 C 736.792969 417.738281 736.984375 417.378906 737.203125 416.992188 C 734.542969 415.449219 732.804688 413.0625 732.117188 410 C 731.902344 409.050781 731.792969 408.023438 731.792969 406.949219 C 731.792969 406.914062 731.800781 406.511719 731.804688 406.476562 C 731.859375 405.621094 732.566406 404.960938 733.453125 405.027344 C 734.308594 405.082031 734.953125 405.824219 734.902344 406.675781 C 734.898438 407.789062 734.984375 408.582031 735.144531 409.3125 C 735.742188 411.953125 737.351562 413.828125 739.945312 414.886719 C 740.363281 415.054688 740.679688 415.394531 740.828125 415.820312 C 740.972656 416.242188 740.925781 416.707031 740.707031 417.09375 C 740.140625 418.085938 739.726562 418.855469 739.34375 419.558594 C 738.792969 420.566406 738.324219 421.445312 737.609375 422.59375 C 735.921875 425.300781 732.511719 429.828125 728.425781 429.828125 C 726.726562 429.828125 725.621094 429.433594 724.546875 429.058594 C 723.464844 428.671875 722.441406 428.3125 720.566406 428.3125 C 718.476562 428.3125 717.585938 428.667969 716.652344 429.050781 C 715.769531 429.40625 714.773438 429.8125 713.085938 429.828125 C 713.0625 429.828125 713.035156 429.828125 713.011719 429.828125 Z M 713.011719 429.828125 " fill-opacity="1" fill-rule="nonzero"/><path fill="#472b29" d="M 757.449219 303.207031 C 765.660156 303.207031 772.34375 309.890625 772.34375 318.101562 L 772.34375 491.898438 C 772.34375 500.109375 765.660156 506.792969 757.449219 506.792969 L 682.964844 506.792969 C 674.75 506.792969 668.070312 500.109375 668.070312 491.898438 L 668.070312 318.101562 C 668.070312 309.890625 674.75 303.207031 682.964844 303.207031 L 757.449219 303.207031 M 757.449219 297.414062 L 682.964844 297.414062 C 671.539062 297.414062 662.277344 306.679688 662.277344 318.101562 L 662.277344 491.898438 C 662.277344 503.320312 671.539062 512.585938 682.964844 512.585938 L 757.449219 512.585938 C 768.875 512.585938 778.136719 503.320312 778.136719 491.898438 L 778.136719 318.101562 C 778.136719 306.679688 768.875 297.414062 757.449219 297.414062 Z M 757.449219 297.414062 " fill-opacity="1" fill-rule="nonzero"/></svg>