<svg xmlns="http://www.w3.org/2000/svg" xmlns:xlink="http://www.w3.org/1999/xlink" zoomAndPan="magnify" preserveAspectRatio="xMidYMid meet" version="1.0" viewBox="583.58 243.13 272.83 323.87"><defs><clipPath id="a15446a3e5"><path d="M 583.582031 243 L 856.582031 243 L 856.582031 567 L 583.582031 567 Z M 583.582031 243 " clip-rule="nonzero"/></clipPath></defs><g clip-path="url(#a15446a3e5)"><path fill="#07244b" d="M 853.242188 299.777344 L 722.050781 243.550781 C 720.738281 242.988281 719.25 242.988281 717.9375 243.550781 L 586.746094 299.777344 C 584.824219 300.601562 583.582031 302.488281 583.582031 304.578125 L 583.582031 410.660156 C 583.582031 449.683594 596.933594 485.402344 622.199219 513.949219 C 646.546875 541.460938 680.960938 560.273438 719.097656 566.921875 C 719.394531 566.972656 719.695312 567 719.996094 567 C 720.296875 567 720.59375 566.972656 720.890625 566.921875 C 759.027344 560.273438 793.441406 541.460938 817.792969 513.945312 C 843.054688 485.402344 856.410156 449.683594 856.410156 410.65625 L 856.410156 304.578125 C 856.410156 302.488281 855.164062 300.597656 853.242188 299.777344 Z M 845.960938 410.65625 C 845.960938 483.289062 794.207031 543.125 719.996094 556.472656 C 645.78125 543.125 594.027344 483.289062 594.027344 410.65625 L 594.027344 308.023438 L 719.996094 254.039062 L 845.960938 308.023438 Z M 717.9375 273.363281 L 611.699219 318.890625 C 609.78125 319.714844 608.535156 321.601562 608.535156 323.691406 L 608.535156 409.59375 C 608.535156 441.445312 619.433594 470.59375 640.054688 493.894531 C 659.921875 516.34375 687.996094 531.691406 719.097656 537.113281 C 719.394531 537.164062 719.695312 537.191406 719.992188 537.191406 C 720.292969 537.191406 720.59375 537.164062 720.890625 537.113281 C 751.992188 531.691406 780.066406 516.34375 799.933594 493.894531 C 820.554688 470.59375 831.453125 441.445312 831.453125 409.59375 L 831.453125 323.691406 C 831.453125 321.601562 830.207031 319.714844 828.285156 318.890625 L 722.050781 273.363281 C 720.738281 272.796875 719.25 272.796875 717.9375 273.363281 Z M 821.007812 327.136719 L 821.007812 409.59375 C 821.007812 467.863281 779.515625 515.878906 719.996094 526.660156 C 660.472656 515.878906 618.984375 467.863281 618.984375 409.59375 L 618.984375 327.136719 L 719.996094 283.847656 Z M 708.152344 315.914062 C 706.882812 316.867188 705.753906 317.722656 704.738281 318.488281 C 700.734375 321.523438 698.722656 323.046875 696.96875 323.683594 C 695.214844 324.324219 692.699219 324.449219 687.679688 324.699219 C 686.410156 324.761719 684.996094 324.832031 683.410156 324.921875 C 674.578125 325.410156 667.285156 331.527344 665.269531 340.140625 C 664.90625 341.6875 664.589844 343.070312 664.308594 344.308594 C 663.191406 349.207031 662.628906 351.664062 661.695312 353.28125 C 660.761719 354.898438 658.914062 356.613281 655.230469 360.03125 C 654.300781 360.894531 653.261719 361.859375 652.101562 362.945312 C 645.652344 369 644 378.371094 647.992188 386.269531 C 648.707031 387.6875 649.351562 388.945312 649.933594 390.078125 C 652.226562 394.546875 653.375 396.792969 653.703125 398.632812 C 654.027344 400.46875 653.710938 402.972656 653.085938 407.957031 C 652.929688 409.21875 652.753906 410.621094 652.5625 412.199219 C 651.515625 420.984375 656.273438 429.226562 664.40625 432.710938 C 665.867188 433.335938 667.167969 433.882812 668.339844 434.378906 C 668.472656 434.433594 668.597656 434.488281 668.726562 434.539062 L 650.324219 474.066406 C 649.503906 475.832031 649.730469 477.90625 650.914062 479.449219 C 652.097656 480.996094 654.039062 481.753906 655.957031 481.417969 L 676.136719 477.894531 L 686.425781 495.601562 C 687.367188 497.21875 689.089844 498.203125 690.945312 498.203125 C 691.023438 498.203125 691.101562 498.199219 691.179688 498.195312 C 693.125 498.109375 694.859375 496.945312 695.679688 495.183594 L 714.160156 455.492188 C 716.914062 454.671875 718.605469 454.257812 719.996094 454.257812 C 721.863281 454.257812 724.273438 455 729.074219 456.484375 C 729.546875 456.628906 730.046875 456.785156 730.5625 456.941406 L 743.777344 487.625 C 744.546875 489.414062 746.246094 490.625 748.1875 490.769531 C 748.320312 490.777344 748.449219 490.78125 748.578125 490.78125 C 750.375 490.78125 752.058594 489.855469 753.015625 488.3125 L 763.816406 470.910156 L 783.882812 475.019531 C 785.785156 475.414062 787.753906 474.707031 788.980469 473.199219 C 790.210938 471.6875 790.496094 469.621094 789.726562 467.835938 L 774.753906 433.0625 C 775.027344 432.949219 775.300781 432.832031 775.585938 432.710938 C 783.71875 429.226562 788.476562 420.984375 787.425781 412.199219 C 787.238281 410.621094 787.0625 409.21875 786.902344 407.957031 C 786.277344 402.972656 785.964844 400.46875 786.289062 398.628906 C 786.613281 396.792969 787.765625 394.546875 790.058594 390.074219 C 790.636719 388.945312 791.28125 387.6875 792 386.269531 C 795.992188 378.375 794.339844 369 787.886719 362.945312 C 786.730469 361.859375 785.691406 360.894531 784.761719 360.03125 C 781.074219 356.613281 779.226562 354.898438 778.292969 353.28125 C 777.359375 351.664062 776.800781 349.207031 775.683594 344.308594 C 775.398438 343.070312 775.085938 341.6875 774.722656 340.140625 C 772.703125 331.527344 765.414062 325.410156 756.578125 324.921875 C 754.992188 324.832031 753.582031 324.761719 752.3125 324.699219 C 747.292969 324.449219 744.773438 324.324219 743.019531 323.683594 C 741.265625 323.046875 739.253906 321.523438 735.25 318.488281 C 734.238281 317.71875 733.109375 316.867188 731.835938 315.914062 C 724.753906 310.613281 715.238281 310.613281 708.152344 315.914062 Z M 690.433594 481.699219 L 683.339844 469.496094 C 682.242188 467.605469 680.078125 466.597656 677.925781 466.976562 L 664.019531 469.40625 L 677.863281 439.667969 C 678.96875 440.96875 680.238281 442.9375 682.25 446.046875 C 682.9375 447.117188 683.707031 448.304688 684.574219 449.636719 C 688.347656 455.402344 694.609375 458.636719 701.195312 458.582031 Z M 762.34375 459.945312 C 760.199219 459.503906 758.011719 460.449219 756.859375 462.308594 L 749.414062 474.300781 L 742.511719 458.269531 C 747.679688 457.320312 752.359375 454.300781 755.414062 449.632812 C 756.285156 448.304688 757.050781 447.117188 757.742188 446.046875 C 760.464844 441.828125 761.835938 439.707031 763.265625 438.507812 C 763.769531 438.082031 764.394531 437.6875 765.183594 437.261719 L 776.175781 462.777344 Z M 728.941406 326.816406 C 738.609375 334.140625 739.675781 334.527344 751.789062 335.132812 C 753.042969 335.195312 754.433594 335.261719 756 335.351562 C 760.226562 335.585938 763.582031 338.402344 764.546875 342.523438 C 764.90625 344.050781 765.214844 345.410156 765.496094 346.632812 C 768.191406 358.457031 768.761719 359.441406 777.652344 367.691406 C 778.570312 368.542969 779.59375 369.492188 780.738281 370.5625 C 783.824219 373.460938 784.585938 377.777344 782.675781 381.554688 C 781.96875 382.953125 781.332031 384.195312 780.757812 385.308594 C 775.226562 396.101562 775.027344 397.222656 776.539062 409.257812 C 776.691406 410.5 776.867188 411.882812 777.050781 413.4375 C 777.554688 417.644531 775.363281 421.4375 771.472656 423.105469 C 770.03125 423.722656 768.746094 424.261719 767.59375 424.75 C 756.414062 429.460938 755.542969 430.191406 748.964844 440.378906 C 748.285156 441.433594 747.527344 442.605469 746.671875 443.914062 C 744.351562 447.460938 740.238281 448.960938 736.183594 447.734375 C 734.683594 447.28125 733.347656 446.871094 732.152344 446.5 C 726.359375 444.710938 723.175781 443.816406 719.992188 443.816406 C 716.8125 443.816406 713.628906 444.710938 707.835938 446.5 C 706.636719 446.867188 705.304688 447.28125 703.804688 447.734375 C 699.753906 448.960938 695.636719 447.457031 693.320312 443.914062 C 692.460938 442.605469 691.703125 441.433594 691.023438 440.378906 C 684.445312 430.191406 683.574219 429.460938 672.394531 424.75 C 671.242188 424.265625 669.957031 423.722656 668.515625 423.105469 C 664.625 421.4375 662.433594 417.644531 662.9375 413.4375 C 663.121094 411.882812 663.296875 410.5 663.453125 409.257812 C 664.960938 397.222656 664.765625 396.101562 659.230469 385.308594 C 658.65625 384.195312 658.019531 382.953125 657.3125 381.554688 C 655.402344 377.777344 656.164062 373.460938 659.253906 370.5625 C 660.394531 369.488281 661.417969 368.542969 662.335938 367.691406 C 671.226562 359.441406 671.796875 358.457031 674.496094 346.628906 C 674.773438 345.410156 675.082031 344.050781 675.441406 342.523438 C 676.40625 338.402344 679.761719 335.585938 683.988281 335.351562 C 685.554688 335.261719 686.945312 335.195312 688.199219 335.132812 C 700.3125 334.527344 701.378906 334.140625 711.050781 326.816406 C 712.046875 326.058594 713.160156 325.214844 714.414062 324.277344 C 717.800781 321.738281 722.183594 321.738281 725.574219 324.277344 C 726.828125 325.214844 727.941406 326.058594 728.941406 326.816406 Z M 674.085938 385.265625 C 674.085938 410.578125 694.679688 431.171875 719.996094 431.171875 C 745.308594 431.171875 765.902344 410.578125 765.902344 385.265625 C 765.902344 359.953125 745.308594 339.359375 719.996094 339.359375 C 694.679688 339.359375 674.085938 359.953125 674.085938 385.265625 Z M 755.453125 385.265625 C 755.453125 404.816406 739.546875 420.726562 719.996094 420.726562 C 700.441406 420.726562 684.535156 404.820312 684.535156 385.265625 C 684.535156 365.710938 700.441406 349.804688 719.996094 349.804688 C 739.546875 349.804688 755.453125 365.710938 755.453125 385.265625 Z M 714.023438 388.394531 L 733.132812 371.054688 C 735.265625 369.117188 738.570312 369.273438 740.511719 371.414062 C 742.449219 373.546875 742.289062 376.851562 740.152344 378.789062 L 717.359375 399.476562 C 716.363281 400.382812 715.105469 400.832031 713.851562 400.832031 C 712.511719 400.832031 711.171875 400.316406 710.15625 399.300781 L 699.652344 388.796875 C 697.613281 386.757812 697.613281 383.449219 699.65625 381.410156 C 701.695312 379.371094 705 379.371094 707.042969 381.410156 Z M 714.023438 388.394531 " fill-opacity="1" fill-rule="nonzero"/></g></svg>