<svg xmlns="http://www.w3.org/2000/svg" xmlns:xlink="http://www.w3.org/1999/xlink" zoomAndPan="magnify" preserveAspectRatio="xMidYMid meet" version="1.0" viewBox="558.26 249.63 323.48 310.75"><path fill="#07244b" d="M 648.207031 471.535156 L 639.828125 471.535156 C 635.152344 471.535156 631.253906 467.636719 631.253906 462.960938 L 631.253906 436.660156 C 631.253906 434.515625 633.007812 432.761719 635.152344 432.761719 C 637.101562 432.761719 638.855469 434.515625 638.855469 436.660156 L 638.855469 462.960938 C 638.855469 463.546875 639.242188 463.9375 639.828125 463.9375 L 648.207031 463.9375 C 648.789062 463.9375 649.179688 463.546875 649.179688 462.960938 L 649.179688 436.660156 C 649.179688 434.515625 650.933594 432.761719 653.078125 432.761719 C 655.023438 432.761719 656.777344 434.515625 656.777344 436.660156 L 656.777344 462.960938 C 656.777344 467.636719 652.882812 471.535156 648.207031 471.535156 Z M 648.207031 471.535156 " fill-opacity="1" fill-rule="evenodd"/><path fill="#07244b" d="M 696.328125 471.535156 L 687.753906 471.535156 C 685.613281 471.535156 683.859375 469.78125 683.859375 467.636719 L 683.859375 436.660156 C 683.859375 434.515625 685.613281 432.761719 687.753906 432.761719 L 696.328125 432.761719 C 703.34375 432.761719 708.796875 438.414062 708.796875 445.230469 L 708.796875 459.066406 C 708.796875 465.882812 703.34375 471.535156 696.328125 471.535156 Z M 691.457031 463.9375 L 696.328125 463.9375 C 699.054688 463.9375 701.199219 461.792969 701.199219 459.066406 L 701.199219 445.230469 C 701.199219 442.503906 699.054688 440.363281 696.328125 440.363281 L 691.457031 440.363281 Z M 691.457031 463.9375 " fill-opacity="1" fill-rule="evenodd"/><path fill="#07244b" d="M 776.597656 471.535156 L 763.347656 471.535156 C 761.207031 471.535156 759.453125 469.78125 759.453125 467.636719 L 759.453125 436.660156 C 759.453125 434.515625 761.207031 432.761719 763.347656 432.761719 L 776.597656 432.761719 C 778.742188 432.761719 780.300781 434.515625 780.300781 436.660156 C 780.300781 438.609375 778.742188 440.363281 776.597656 440.363281 L 767.050781 440.363281 L 767.050781 448.347656 L 776.597656 448.347656 C 778.742188 448.347656 780.300781 450.101562 780.300781 452.246094 C 780.300781 454.195312 778.742188 455.949219 776.597656 455.949219 L 767.050781 455.949219 L 767.050781 463.9375 L 776.597656 463.9375 C 778.742188 463.9375 780.300781 465.6875 780.300781 467.636719 C 780.300781 469.78125 778.742188 471.535156 776.597656 471.535156 Z M 776.597656 471.535156 " fill-opacity="1" fill-rule="evenodd"/><path fill="#07244b" d="M 796.273438 471.535156 L 787.507812 471.535156 C 785.363281 471.535156 783.613281 469.78125 783.613281 467.636719 L 783.613281 436.660156 C 783.613281 434.515625 785.363281 432.761719 787.507812 432.761719 L 796.273438 432.761719 C 803.09375 432.761719 808.746094 438.414062 808.746094 445.230469 L 808.746094 459.066406 C 808.746094 465.882812 803.09375 471.535156 796.273438 471.535156 Z M 791.40625 463.9375 L 796.273438 463.9375 C 798.808594 463.9375 801.144531 461.792969 801.144531 459.066406 L 801.144531 445.230469 C 801.144531 442.503906 798.808594 440.363281 796.273438 440.363281 L 791.40625 440.363281 Z M 791.40625 463.9375 " fill-opacity="1" fill-rule="evenodd"/><path fill="#07244b" d="M 747.375 471.535156 C 745.230469 471.535156 743.671875 469.78125 743.671875 467.636719 L 743.671875 436.660156 C 743.671875 434.515625 745.230469 432.761719 747.375 432.761719 C 749.515625 432.761719 751.269531 434.515625 751.269531 436.660156 L 751.269531 467.636719 C 751.269531 469.78125 749.515625 471.535156 747.375 471.535156 Z M 747.375 471.535156 " fill-opacity="1" fill-rule="evenodd"/><path fill="#07244b" d="M 755.75 440.363281 L 738.996094 440.363281 C 737.046875 440.363281 735.292969 438.609375 735.292969 436.660156 C 735.292969 434.515625 737.046875 432.761719 738.996094 432.761719 L 755.75 432.761719 C 757.894531 432.761719 759.648438 434.515625 759.648438 436.660156 C 759.648438 438.609375 757.894531 440.363281 755.75 440.363281 Z M 755.75 440.363281 " fill-opacity="1" fill-rule="evenodd"/><path fill="#07244b" d="M 730.035156 471.535156 C 727.890625 471.535156 726.136719 469.78125 726.136719 467.636719 L 726.136719 440.945312 C 726.136719 440.75 725.941406 440.363281 725.550781 440.363281 L 719.316406 440.363281 C 718.929688 440.363281 718.734375 440.75 718.734375 440.945312 L 718.734375 467.636719 C 718.734375 469.78125 716.980469 471.535156 714.835938 471.535156 C 712.890625 471.535156 711.136719 469.78125 711.136719 467.636719 L 711.136719 440.945312 C 711.136719 436.464844 714.835938 432.761719 719.316406 432.761719 L 725.550781 432.761719 C 730.035156 432.761719 733.734375 436.464844 733.734375 440.945312 L 733.734375 467.636719 C 733.734375 469.78125 732.175781 471.535156 730.035156 471.535156 Z M 730.035156 471.535156 " fill-opacity="1" fill-rule="evenodd"/><path fill="#07244b" d="M 730.035156 458.089844 L 714.835938 458.089844 C 712.890625 458.089844 711.136719 456.53125 711.136719 454.390625 C 711.136719 452.246094 712.890625 450.492188 714.835938 450.492188 L 730.035156 450.492188 C 732.175781 450.492188 733.734375 452.246094 733.734375 454.390625 C 733.734375 456.53125 732.175781 458.089844 730.035156 458.089844 Z M 730.035156 458.089844 " fill-opacity="1" fill-rule="evenodd"/><path fill="#07244b" d="M 671.585938 455.558594 L 663.988281 455.558594 C 661.84375 455.558594 660.089844 453.804688 660.089844 451.660156 L 660.089844 436.660156 C 660.089844 434.515625 661.84375 432.761719 663.988281 432.761719 L 671.585938 432.761719 C 677.820312 432.761719 682.886719 437.828125 682.886719 444.0625 C 682.886719 450.296875 677.820312 455.558594 671.585938 455.558594 Z M 667.882812 447.960938 L 671.585938 447.960938 C 673.535156 447.960938 675.285156 446.207031 675.285156 444.0625 C 675.285156 442.113281 673.535156 440.363281 671.585938 440.363281 L 667.882812 440.363281 Z M 667.882812 447.960938 " fill-opacity="1" fill-rule="evenodd"/><path fill="#07244b" d="M 663.988281 471.535156 C 661.84375 471.535156 660.089844 469.78125 660.089844 467.636719 L 660.089844 451.660156 C 660.089844 449.519531 661.84375 447.960938 663.988281 447.960938 C 666.128906 447.960938 667.882812 449.519531 667.882812 451.660156 L 667.882812 467.636719 C 667.882812 469.78125 666.128906 471.535156 663.988281 471.535156 Z M 663.988281 471.535156 " fill-opacity="1" fill-rule="evenodd"/><path fill="#07244b" d="M 719.902344 406.070312 C 695.160156 406.070312 675.09375 390.875 675.09375 372.171875 C 675.09375 353.46875 695.160156 338.464844 719.902344 338.464844 C 744.644531 338.464844 764.90625 353.46875 764.90625 372.171875 C 764.90625 390.875 744.644531 406.070312 719.902344 406.070312 Z M 713.667969 386.976562 C 712.890625 386.976562 711.914062 386.785156 711.328125 386.199219 C 711.136719 386.003906 711.136719 386.003906 710.941406 385.808594 L 701.785156 376.652344 C 700.226562 375.09375 700.226562 372.757812 701.785156 371.195312 C 703.148438 369.832031 705.679688 369.832031 707.042969 371.195312 L 713.667969 377.820312 L 732.761719 358.535156 C 734.320312 357.167969 736.65625 357.167969 738.214844 358.535156 C 739.773438 360.09375 739.773438 362.429688 738.214844 363.988281 L 716.394531 385.808594 C 716.199219 386.003906 716.007812 386.003906 715.8125 386.199219 C 715.421875 386.589844 714.640625 386.785156 714.058594 386.976562 C 713.863281 386.976562 713.667969 386.976562 713.667969 386.976562 Z M 713.667969 386.976562 " fill-opacity="1" fill-rule="evenodd"/><path fill="#07244b" d="M 719.902344 560.375 C 686.195312 560.375 652.882812 548.6875 626.578125 527.644531 C 601.058594 506.992188 582.742188 478.546875 574.949219 446.984375 L 562.089844 446.984375 C 560.53125 446.984375 559.167969 446.011719 558.585938 444.648438 C 558 443.285156 558.195312 441.726562 559.167969 440.554688 L 586.445312 410.746094 C 587.222656 409.96875 588.199219 409.382812 589.367188 409.382812 C 590.339844 409.382812 591.316406 409.96875 592.09375 410.746094 L 619.371094 440.554688 C 620.34375 441.726562 620.734375 443.285156 620.148438 444.648438 C 619.371094 446.011719 618.007812 446.984375 616.644531 446.984375 L 605.734375 446.984375 C 621.125 496.667969 667.492188 530.761719 719.902344 530.761719 C 774.066406 530.761719 821.601562 494.328125 835.628906 442.113281 C 836.019531 440.554688 837.578125 439.386719 839.332031 439.386719 L 861.933594 439.386719 C 863.101562 439.386719 864.269531 439.777344 864.855469 440.75 C 865.632812 441.726562 865.828125 442.894531 865.632812 444.0625 C 858.230469 476.792969 839.722656 506.410156 813.421875 527.644531 C 786.921875 548.6875 753.800781 560.375 719.902344 560.375 Z M 719.902344 560.375 " fill-opacity="1" fill-rule="evenodd"/><path fill="#07244b" d="M 850.632812 400.421875 C 849.464844 400.421875 848.488281 400.03125 847.90625 399.253906 L 820.628906 369.445312 C 819.460938 368.273438 819.265625 366.714844 819.851562 365.351562 C 820.433594 363.792969 821.796875 363.015625 823.355469 363.015625 L 834.265625 363.015625 C 818.679688 313.332031 772.507812 279.042969 719.902344 279.042969 C 665.738281 279.042969 618.203125 315.671875 604.371094 367.691406 C 603.785156 369.445312 602.421875 370.613281 600.667969 370.613281 L 578.066406 370.613281 C 576.898438 370.613281 575.730469 370.027344 574.949219 369.25 C 574.367188 368.273438 573.976562 367.105469 574.367188 365.9375 C 581.574219 333.207031 600.277344 303.398438 626.578125 282.355469 C 652.882812 261.117188 686.195312 249.625 719.902344 249.625 C 753.800781 249.625 786.921875 261.117188 813.421875 282.355469 C 838.941406 302.8125 857.0625 331.453125 864.855469 363.015625 L 877.910156 363.015625 C 879.46875 363.015625 880.832031 363.792969 881.414062 365.351562 C 882 366.714844 881.804688 368.273438 880.636719 369.445312 L 853.359375 399.253906 C 852.777344 400.03125 851.605469 400.421875 850.632812 400.421875 Z M 850.632812 400.421875 " fill-opacity="1" fill-rule="evenodd"/></svg>