<svg xmlns="http://www.w3.org/2000/svg" xmlns:xlink="http://www.w3.org/1999/xlink" zoomAndPan="magnify" preserveAspectRatio="xMidYMid meet" version="1.0" viewBox="581.76 243.08 276.54 323.84"><defs><clipPath id="996673a10d"><path d="M 581.691406 243 L 858.441406 243 L 858.441406 567 L 581.691406 567 Z M 581.691406 243 " clip-rule="nonzero"/></clipPath></defs><g clip-path="url(#996673a10d)"><path fill="#07244b" d="M 719.996094 566.917969 C 719.0625 566.90625 718.164062 566.726562 717.296875 566.378906 C 584.324219 508.085938 581.761719 308.121094 581.761719 299.617188 C 581.761719 299.175781 581.804688 298.738281 581.890625 298.300781 C 581.976562 297.867188 582.105469 297.445312 582.273438 297.035156 C 582.441406 296.628906 582.652344 296.238281 582.898438 295.871094 C 583.144531 295.503906 583.421875 295.160156 583.734375 294.847656 C 584.050781 294.535156 584.390625 294.253906 584.757812 294.007812 C 585.125 293.761719 585.515625 293.554688 585.925781 293.386719 C 586.332031 293.214844 586.753906 293.089844 587.191406 293 C 587.625 292.914062 588.0625 292.871094 588.507812 292.871094 C 655.09375 292.535156 714.53125 245.039062 715.070312 244.566406 C 716.292969 243.585938 717.6875 243.089844 719.253906 243.082031 L 720.738281 243.082031 C 722.332031 243.074219 723.746094 243.570312 724.988281 244.566406 C 725.53125 245.039062 784.964844 292.535156 851.554688 292.871094 C 852 292.871094 852.4375 292.914062 852.871094 293 C 853.304688 293.089844 853.726562 293.214844 854.136719 293.386719 C 854.546875 293.554688 854.933594 293.761719 855.304688 294.007812 C 855.671875 294.253906 856.011719 294.535156 856.324219 294.847656 C 856.640625 295.160156 856.917969 295.503906 857.164062 295.871094 C 857.410156 296.238281 857.617188 296.628906 857.789062 297.035156 C 857.957031 297.445312 858.085938 297.867188 858.171875 298.300781 C 858.257812 298.738281 858.300781 299.175781 858.300781 299.617188 C 858.300781 308.121094 855.738281 508.085938 722.761719 566.378906 C 721.875 566.734375 720.953125 566.917969 719.996094 566.917969 Z M 595.457031 306.164062 C 597.074219 340.839844 610.566406 502.351562 719.996094 552.75 C 829.425781 502.351562 842.917969 340.839844 844.539062 306.164062 C 784.832031 303.261719 733.492188 268.042969 719.996094 257.789062 C 706.503906 268.042969 655.164062 303.261719 595.457031 306.164062 Z M 595.457031 306.164062 " fill-opacity="1" fill-rule="nonzero"/></g><path fill="#07244b" d="M 719.996094 523.199219 C 719.058594 523.222656 718.15625 523.042969 717.296875 522.660156 C 620.621094 480.359375 618.796875 335.441406 618.796875 329.304688 C 618.796875 328.859375 618.84375 328.421875 618.929688 327.988281 C 619.015625 327.554688 619.144531 327.132812 619.3125 326.722656 C 619.480469 326.3125 619.691406 325.921875 619.9375 325.554688 C 620.183594 325.1875 620.460938 324.847656 620.773438 324.53125 C 621.085938 324.21875 621.429688 323.941406 621.796875 323.695312 C 622.164062 323.449219 622.554688 323.238281 622.964844 323.070312 C 623.371094 322.902344 623.792969 322.773438 624.230469 322.6875 C 624.664062 322.601562 625.101562 322.558594 625.546875 322.558594 C 672.769531 322.558594 714.871094 288.824219 715.273438 288.285156 C 716.515625 287.289062 717.933594 286.792969 719.523438 286.800781 L 720.605469 286.800781 C 722.195312 286.792969 723.613281 287.289062 724.855469 288.285156 C 725.257812 288.621094 767.425781 322.015625 814.585938 322.558594 C 815.027344 322.558594 815.464844 322.601562 815.898438 322.6875 C 816.335938 322.773438 816.757812 322.902344 817.164062 323.070312 C 817.574219 323.238281 817.964844 323.449219 818.332031 323.695312 C 818.699219 323.941406 819.042969 324.21875 819.355469 324.53125 C 819.667969 324.847656 819.949219 325.1875 820.195312 325.554688 C 820.441406 325.921875 820.648438 326.3125 820.816406 326.722656 C 820.988281 327.132812 821.113281 327.554688 821.199219 327.988281 C 821.289062 328.421875 821.332031 328.859375 821.332031 329.304688 C 821.332031 335.441406 819.507812 480.359375 722.832031 522.660156 C 721.929688 523.066406 720.984375 523.246094 719.996094 523.199219 Z M 632.292969 335.78125 C 633.84375 363.777344 644.707031 473.679688 719.996094 509.097656 C 795.222656 473.679688 805.949219 363.777344 807.703125 335.78125 C 766.617188 333.148438 731.464844 309.875 719.996094 301.574219 C 708.730469 309.875 673.582031 333.148438 632.292969 335.78125 Z M 632.292969 335.78125 " fill-opacity="1" fill-rule="nonzero"/><path fill="#07244b" d="M 748.941406 399.332031 L 691.054688 399.332031 C 690.613281 399.332031 690.171875 399.289062 689.738281 399.203125 C 689.304688 399.117188 688.882812 398.988281 688.472656 398.820312 C 688.0625 398.648438 687.675781 398.441406 687.304688 398.195312 C 686.9375 397.949219 686.597656 397.671875 686.285156 397.355469 C 685.96875 397.042969 685.691406 396.703125 685.445312 396.335938 C 685.199219 395.964844 684.992188 395.578125 684.820312 395.167969 C 684.652344 394.757812 684.523438 394.335938 684.4375 393.902344 C 684.351562 393.46875 684.308594 393.027344 684.308594 392.585938 L 684.308594 379.09375 C 684.320312 377.949219 684.386719 376.808594 684.507812 375.671875 C 684.628906 374.53125 684.808594 373.402344 685.039062 372.285156 C 685.273438 371.164062 685.558594 370.058594 685.902344 368.964844 C 686.242188 367.871094 686.632812 366.800781 687.078125 365.746094 C 687.523438 364.691406 688.019531 363.660156 688.566406 362.65625 C 689.113281 361.652344 689.707031 360.675781 690.347656 359.726562 C 690.988281 358.78125 691.675781 357.867188 692.40625 356.984375 C 693.136719 356.105469 693.910156 355.261719 694.722656 354.457031 C 695.535156 353.652344 696.382812 352.886719 697.273438 352.164062 C 698.160156 351.445312 699.082031 350.765625 700.035156 350.132812 C 700.988281 349.5 701.96875 348.917969 702.980469 348.382812 C 703.992188 347.84375 705.027344 347.359375 706.082031 346.925781 C 707.140625 346.488281 708.21875 346.105469 709.3125 345.777344 C 710.410156 345.445312 711.519531 345.167969 712.640625 344.949219 C 713.765625 344.726562 714.894531 344.558594 716.03125 344.449219 C 717.171875 344.335938 718.3125 344.28125 719.457031 344.28125 L 720.535156 344.28125 C 721.6875 344.28125 722.835938 344.335938 723.980469 344.449219 C 725.128906 344.5625 726.265625 344.730469 727.394531 344.957031 C 728.523438 345.179688 729.640625 345.460938 730.742188 345.792969 C 731.84375 346.128906 732.925781 346.515625 733.988281 346.957031 C 735.050781 347.398438 736.089844 347.886719 737.105469 348.429688 C 738.121094 348.972656 739.109375 349.566406 740.066406 350.203125 C 741.023438 350.84375 741.945312 351.527344 742.835938 352.257812 C 743.726562 352.988281 744.578125 353.761719 745.390625 354.574219 C 746.207031 355.390625 746.976562 356.242188 747.707031 357.132812 C 748.4375 358.023438 749.125 358.945312 749.761719 359.902344 C 750.402344 360.859375 750.992188 361.847656 751.535156 362.859375 C 752.078125 363.875 752.570312 364.914062 753.011719 365.980469 C 753.453125 367.042969 753.839844 368.125 754.171875 369.226562 C 754.507812 370.328125 754.785156 371.445312 755.011719 372.574219 C 755.234375 373.703125 755.40625 374.839844 755.515625 375.984375 C 755.628906 377.132812 755.6875 378.28125 755.6875 379.429688 L 755.6875 392.921875 C 755.664062 393.351562 755.601562 393.773438 755.5 394.191406 C 755.398438 394.609375 755.257812 395.011719 755.078125 395.402344 C 754.898438 395.792969 754.6875 396.160156 754.4375 396.511719 C 754.1875 396.859375 753.90625 397.183594 753.59375 397.476562 C 753.285156 397.773438 752.949219 398.035156 752.585938 398.269531 C 752.226562 398.5 751.84375 398.695312 751.445312 398.851562 C 751.046875 399.011719 750.636719 399.132812 750.214844 399.210938 C 749.792969 399.292969 749.367188 399.332031 748.941406 399.332031 Z M 697.800781 385.839844 L 742.195312 385.839844 L 742.195312 379.09375 C 742.183594 378.390625 742.136719 377.691406 742.058594 376.992188 C 741.980469 376.296875 741.867188 375.601562 741.71875 374.917969 C 741.574219 374.230469 741.394531 373.550781 741.183594 372.882812 C 740.96875 372.210938 740.726562 371.554688 740.449219 370.910156 C 740.171875 370.261719 739.867188 369.632812 739.527344 369.015625 C 739.191406 368.402344 738.824219 367.804688 738.425781 367.222656 C 738.03125 366.644531 737.609375 366.082031 737.160156 365.542969 C 736.707031 365.003906 736.234375 364.488281 735.730469 363.996094 C 735.230469 363.503906 734.707031 363.039062 734.164062 362.59375 C 733.617188 362.152344 733.050781 361.738281 732.464844 361.351562 C 731.878906 360.964844 731.273438 360.609375 730.652344 360.28125 C 730.03125 359.953125 729.398438 359.65625 728.746094 359.390625 C 728.097656 359.125 727.4375 358.890625 726.761719 358.6875 C 726.089844 358.484375 725.410156 358.316406 724.722656 358.179688 C 724.03125 358.046875 723.335938 357.945312 722.640625 357.875 C 721.941406 357.808594 721.238281 357.773438 720.535156 357.773438 L 719.457031 357.773438 C 718.75 357.773438 718.039062 357.808594 717.335938 357.878906 C 716.628906 357.949219 715.929688 358.050781 715.234375 358.191406 C 714.535156 358.328125 713.851562 358.5 713.171875 358.707031 C 712.492188 358.914062 711.824219 359.152344 711.167969 359.421875 C 710.515625 359.695312 709.875 359.996094 709.25 360.332031 C 708.625 360.664062 708.015625 361.03125 707.425781 361.421875 C 706.835938 361.816406 706.265625 362.238281 705.71875 362.691406 C 705.171875 363.140625 704.644531 363.617188 704.144531 364.117188 C 703.640625 364.617188 703.167969 365.144531 702.714844 365.691406 C 702.265625 366.238281 701.84375 366.808594 701.449219 367.398438 C 701.058594 367.988281 700.691406 368.597656 700.359375 369.222656 C 700.023438 369.847656 699.722656 370.488281 699.449219 371.144531 C 699.179688 371.796875 698.9375 372.464844 698.734375 373.144531 C 698.527344 373.824219 698.355469 374.511719 698.21875 375.207031 C 698.078125 375.902344 697.976562 376.601562 697.90625 377.308594 C 697.835938 378.011719 697.800781 378.722656 697.800781 379.429688 Z M 697.800781 385.839844 " fill-opacity="1" fill-rule="nonzero"/><path fill="#07244b" d="M 756.160156 455.128906 L 683.835938 455.128906 C 683.390625 455.128906 682.953125 455.082031 682.519531 454.996094 C 682.085938 454.910156 681.664062 454.78125 681.253906 454.613281 C 680.84375 454.445312 680.457031 454.234375 680.085938 453.988281 C 679.71875 453.742188 679.378906 453.464844 679.066406 453.152344 C 678.75 452.835938 678.472656 452.496094 678.226562 452.128906 C 677.980469 451.761719 677.773438 451.371094 677.601562 450.960938 C 677.433594 450.554688 677.304688 450.132812 677.21875 449.695312 C 677.132812 449.261719 677.089844 448.824219 677.089844 448.378906 L 677.089844 392.585938 C 677.089844 392.144531 677.132812 391.703125 677.21875 391.269531 C 677.304688 390.835938 677.433594 390.414062 677.601562 390.003906 C 677.773438 389.59375 677.980469 389.207031 678.226562 388.839844 C 678.472656 388.46875 678.75 388.128906 679.066406 387.816406 C 679.378906 387.503906 679.71875 387.222656 680.085938 386.976562 C 680.457031 386.730469 680.84375 386.523438 681.253906 386.351562 C 681.664062 386.183594 682.085938 386.054688 682.519531 385.96875 C 682.953125 385.882812 683.390625 385.839844 683.835938 385.839844 L 756.160156 385.839844 C 756.601562 385.839844 757.039062 385.882812 757.476562 385.96875 C 757.910156 386.054688 758.332031 386.183594 758.742188 386.351562 C 759.148438 386.523438 759.539062 386.730469 759.90625 386.976562 C 760.273438 387.222656 760.617188 387.503906 760.929688 387.816406 C 761.242188 388.128906 761.523438 388.46875 761.769531 388.839844 C 762.015625 389.207031 762.222656 389.59375 762.390625 390.003906 C 762.5625 390.414062 762.6875 390.835938 762.777344 391.269531 C 762.863281 391.703125 762.90625 392.144531 762.90625 392.585938 L 762.90625 448.378906 C 762.90625 448.824219 762.863281 449.261719 762.777344 449.695312 C 762.6875 450.132812 762.5625 450.554688 762.390625 450.960938 C 762.222656 451.371094 762.015625 451.761719 761.769531 452.128906 C 761.523438 452.496094 761.242188 452.835938 760.929688 453.152344 C 760.617188 453.464844 760.273438 453.742188 759.90625 453.988281 C 759.539062 454.234375 759.148438 454.445312 758.742188 454.613281 C 758.332031 454.78125 757.910156 454.910156 757.476562 454.996094 C 757.039062 455.082031 756.601562 455.128906 756.160156 455.128906 Z M 690.582031 441.632812 L 749.414062 441.632812 L 749.414062 399.332031 L 690.582031 399.332031 Z M 690.582031 441.632812 " fill-opacity="1" fill-rule="nonzero"/></svg>