<svg xmlns="http://www.w3.org/2000/svg" xmlns:xlink="http://www.w3.org/1999/xlink" width="1920" zoomAndPan="magnify" viewBox="0 0 1440 809.999993" height="1080" preserveAspectRatio="xMidYMid meet" version="1.0"><defs><clipPath id="0766215918"><path d="M 609.492188 375 L 700 375 L 700 450 L 609.492188 450 Z M 609.492188 375 " clip-rule="nonzero"/></clipPath><clipPath id="2d84670275"><path d="M 711 374 L 830 374 L 830 464.914062 L 711 464.914062 Z M 711 374 " clip-rule="nonzero"/></clipPath></defs><g clip-path="url(#0766215918)"><path fill="#564080" d="M 635.628906 420.476562 C 630.75 418.476562 626.113281 416.050781 622.347656 412.710938 C 618.539062 409.453125 615.652344 405.234375 615.125 400.417969 C 614.40625 395.601562 616.460938 390.445312 619.9375 386.308594 C 623.386719 382.109375 628.007812 378.757812 632.9375 375.996094 C 627.644531 377.964844 622.449219 380.554688 618.023438 384.476562 C 613.628906 388.292969 609.972656 393.949219 609.828125 400.566406 C 609.492188 407.167969 612.550781 413.476562 616.597656 418.207031 C 620.621094 423.09375 625.671875 426.800781 630.816406 429.925781 C 641.195312 436.191406 652.710938 440.105469 664.15625 442.925781 C 675.628906 445.746094 687.167969 447.484375 698.34375 449.203125 L 699.921875 428.046875 C 688.59375 428.09375 677.589844 428.152344 666.785156 427.238281 C 656.015625 426.316406 645.417969 424.453125 635.628906 420.476562 " fill-opacity="1" fill-rule="nonzero"/></g><g clip-path="url(#2d84670275)"><path fill="#564080" d="M 829.035156 396.238281 C 827.640625 390.355469 823.707031 385.804688 819.410156 382.457031 C 815.105469 378.960938 810.027344 376.886719 805.105469 374.824219 C 809.742188 377.496094 814.4375 380.179688 818.058594 383.996094 C 821.722656 387.660156 824.539062 392.1875 825.003906 396.945312 C 825.535156 401.683594 823.695312 406.277344 820.648438 409.972656 C 817.601562 413.703125 813.535156 416.65625 809.230469 419.136719 C 800.417969 423.84375 790.402344 426.785156 780.316406 428.515625 C 772.832031 429.816406 765.21875 430.46875 757.554688 430.722656 L 757.109375 412.03125 L 711.957031 439.5625 L 758.371094 464.90625 L 757.921875 446.109375 C 777.378906 443.039062 796.964844 437.695312 813.6875 426 C 818.253906 422.53125 822.550781 418.515625 825.6875 413.46875 C 828.839844 408.515625 830.503906 402.105469 829.035156 396.238281 " fill-opacity="1" fill-rule="nonzero"/></g><path fill="#564080" d="M 641.464844 401.28125 L 641.464844 393.738281 L 648.355469 387.5 C 660.007812 377.078125 665.667969 371.089844 665.832031 364.855469 C 665.832031 360.507812 663.207031 357.0625 657.054688 357.0625 C 652.457031 357.0625 648.4375 359.359375 645.648438 361.492188 L 642.121094 352.550781 C 646.140625 349.515625 652.375 347.054688 659.597656 347.054688 C 671.65625 347.054688 678.300781 354.109375 678.300781 363.789062 C 678.300781 372.734375 671.820312 379.871094 664.109375 386.761719 L 659.183594 390.863281 L 659.183594 391.027344 L 679.285156 391.027344 L 679.285156 401.28125 L 641.464844 401.28125 " fill-opacity="1" fill-rule="nonzero"/><path fill="#564080" d="M 709.0625 379.214844 L 709.0625 367.398438 C 709.0625 364.199219 709.230469 360.917969 709.472656 357.472656 L 709.144531 357.472656 C 707.425781 360.917969 706.03125 364.035156 704.222656 367.398438 L 697.085938 379.050781 L 697.085938 379.214844 Z M 709.0625 401.28125 L 709.0625 388.566406 L 685.4375 388.566406 L 685.4375 380.445312 L 705.621094 347.957031 L 720.878906 347.957031 L 720.878906 379.214844 L 727.277344 379.214844 L 727.277344 388.566406 L 720.878906 388.566406 L 720.878906 401.28125 L 709.0625 401.28125 " fill-opacity="1" fill-rule="nonzero"/><path fill="#564080" d="M 730.394531 404.566406 L 747.949219 345.085938 L 756.234375 345.085938 L 738.679688 404.566406 L 730.394531 404.566406 " fill-opacity="1" fill-rule="nonzero"/><path fill="#564080" d="M 797.914062 347.957031 L 797.914062 355.832031 L 775.925781 401.28125 L 762.714844 401.28125 L 784.703125 358.375 L 784.703125 358.210938 L 760.253906 358.210938 L 760.253906 347.957031 L 797.914062 347.957031 " fill-opacity="1" fill-rule="nonzero"/></svg>