<svg xmlns="http://www.w3.org/2000/svg" xmlns:xlink="http://www.w3.org/1999/xlink" width="1920" zoomAndPan="magnify" viewBox="0 0 1440 809.999993" height="1080" preserveAspectRatio="xMidYMid meet" version="1.0"><defs><clipPath id="995ef38be5"><path d="M 536.652344 329.304688 L 903.402344 329.304688 L 903.402344 480.804688 L 536.652344 480.804688 Z M 536.652344 329.304688 " clip-rule="nonzero"/></clipPath><clipPath id="03a9bfe7e2"><path d="M 536.652344 329.304688 L 903.402344 329.304688 L 903.402344 480.804688 L 536.652344 480.804688 Z M 536.652344 329.304688 " clip-rule="nonzero"/></clipPath></defs><rect x="-144" width="1728" fill="#ffffff" y="-80.999999" height="971.999992" fill-opacity="1"/><rect x="-144" width="1728" fill="#ffffff" y="-80.999999" height="971.999992" fill-opacity="1"/><g clip-path="url(#995ef38be5)"><path fill="#000000" d="M 849.699219 480.804688 C 875.332031 480.804688 887.96875 479.605469 895.082031 472.492188 C 898.683594 468.890625 900.824219 463.839844 902.019531 456.117188 C 903.160156 448.773438 903.394531 439.214844 903.394531 427.113281 L 903.394531 389.152344 C 903.394531 363.519531 902.195312 350.886719 895.082031 343.773438 C 894.902344 343.597656 894.722656 343.421875 894.539062 343.253906 L 894.527344 343.242188 L 887.855469 337.097656 L 887.847656 337.085938 C 884.285156 333.804688 879.359375 331.816406 872.023438 330.679688 C 864.683594 329.539062 855.121094 329.304688 843.019531 329.304688 L 590.347656 329.304688 C 565.671875 329.304688 553.039062 330.417969 545.785156 336.847656 C 545.507812 337.097656 545.234375 337.351562 544.96875 337.617188 C 541.367188 341.21875 539.226562 346.269531 538.027344 353.992188 C 536.890625 361.332031 536.65625 370.894531 536.65625 382.992188 L 536.65625 420.953125 C 536.65625 446.582031 537.855469 459.21875 544.96875 466.328125 L 544.96875 466.332031 C 544.96875 466.332031 544.96875 466.332031 544.972656 466.332031 L 544.972656 466.335938 C 544.972656 466.335938 544.976562 466.335938 544.976562 466.335938 L 544.976562 466.339844 C 545.148438 466.507812 545.324219 466.675781 545.5 466.839844 C 545.503906 466.84375 545.507812 466.847656 545.511719 466.851562 L 552.15625 472.992188 L 552.164062 473.003906 L 552.175781 473.011719 C 555.738281 476.300781 560.667969 478.292969 568.011719 479.429688 C 575.355469 480.570312 584.917969 480.804688 597.015625 480.804688 Z M 849.699219 480.804688 " fill-opacity="1" fill-rule="nonzero"/></g><path fill="#ffffff" d="M 843.019531 330.300781 C 891.890625 330.300781 895.714844 334.125 895.714844 382.992188 L 895.714844 420.953125 C 895.714844 469.820312 891.890625 473.644531 843.019531 473.644531 L 590.347656 473.644531 C 541.476562 473.644531 537.652344 469.820312 537.652344 420.953125 L 537.652344 382.992188 C 537.652344 334.125 541.476562 330.300781 590.347656 330.300781 Z M 843.019531 330.300781 " fill-opacity="1" fill-rule="nonzero"/><g clip-path="url(#03a9bfe7e2)"><path stroke-linecap="butt" transform="matrix(0.137768, 0, 0, 0.137853, 536.656203, 329.304613)" fill="none" stroke-linejoin="miter" d="M 2223.763012 7.226329 C 2578.497801 7.226329 2606.256202 34.967692 2606.256202 389.456408 L 2606.256202 664.829816 C 2606.256202 1019.318532 2578.497801 1047.059895 2223.763012 1047.059895 L 389.723757 1047.059895 C 34.988968 1047.059895 7.230567 1019.318532 7.230567 664.829816 L 7.230567 389.456408 C 7.230567 34.967692 34.988968 7.226329 389.723757 7.226329 Z M 2223.763012 7.226329 " stroke="#000000" stroke-width="10" stroke-opacity="1" stroke-miterlimit="10"/></g></svg>