<svg xmlns="http://www.w3.org/2000/svg" xmlns:xlink="http://www.w3.org/1999/xlink" width="1920" zoomAndPan="magnify" viewBox="0 0 1440 809.999993" height="1080" preserveAspectRatio="xMidYMid meet" version="1.0"><defs><clipPath id="5d725e48a9"><path d="M 589.097656 286.367188 L 850.847656 286.367188 L 850.847656 523.367188 L 589.097656 523.367188 Z M 589.097656 286.367188 " clip-rule="nonzero"/></clipPath></defs><rect x="-144" width="1728" fill="#ffffff" y="-80.999999" height="971.999992" fill-opacity="1"/><rect x="-144" width="1728" fill="#ffffff" y="-80.999999" height="971.999992" fill-opacity="1"/><g clip-path="url(#5d725e48a9)"><path fill="#07244b" d="M 603.210938 474.539062 L 695.453125 474.539062 C 697.90625 480.058594 698.109375 484.765625 696.269531 488.648438 C 680.929688 491.308594 668.863281 496.625 668.863281 505.21875 C 668.863281 517.898438 695.453125 523.625 719.996094 523.625 C 744.539062 523.625 771.128906 517.898438 771.128906 505.21875 C 771.128906 496.625 759.058594 491.308594 743.71875 488.648438 C 741.878906 484.765625 742.289062 480.058594 744.539062 474.539062 L 836.78125 474.539062 C 844.554688 474.539062 850.894531 468.195312 850.894531 460.425781 L 850.894531 300.484375 C 850.894531 292.710938 844.554688 286.371094 836.78125 286.371094 L 603.210938 286.371094 C 595.4375 286.371094 589.097656 292.710938 589.097656 300.484375 L 589.097656 460.425781 C 589.097656 468.195312 595.4375 474.539062 603.210938 474.539062 Z M 746.789062 502.761719 C 747.402344 503.171875 748.015625 503.171875 748.628906 503.171875 C 750.0625 503.171875 751.492188 502.351562 752.3125 500.921875 C 752.515625 500.308594 752.71875 499.695312 752.71875 499.285156 C 759.46875 501.332031 762.945312 503.785156 762.945312 505.21875 C 762.945312 508.285156 747.8125 515.441406 719.996094 515.441406 C 692.179688 515.441406 677.042969 508.285156 677.042969 505.21875 C 677.042969 503.785156 680.519531 501.332031 687.269531 499.285156 C 687.269531 499.898438 687.476562 500.511719 687.679688 500.921875 C 688.703125 502.96875 691.15625 503.785156 693.203125 502.761719 C 704.042969 497.035156 708.132812 486.605469 704.246094 474.539062 L 735.742188 474.539062 C 731.859375 486.605469 735.742188 497.035156 746.789062 502.761719 Z M 597.277344 300.484375 C 597.277344 297.210938 599.9375 294.550781 603.210938 294.550781 L 836.78125 294.550781 C 840.054688 294.550781 842.710938 297.210938 842.710938 300.484375 L 842.710938 460.425781 C 842.710938 463.699219 840.054688 466.355469 836.78125 466.355469 L 603.210938 466.355469 C 599.9375 466.355469 597.277344 463.699219 597.277344 460.425781 Z M 597.277344 300.484375 " fill-opacity="1" fill-rule="nonzero"/></g><path fill="#07244b" d="M 617.933594 458.175781 L 822.054688 458.175781 C 829.007812 458.175781 834.53125 452.652344 834.53125 445.699219 L 834.53125 315.210938 C 834.53125 308.253906 829.007812 302.734375 822.054688 302.734375 L 617.933594 302.734375 C 610.980469 302.734375 605.457031 308.253906 605.457031 315.210938 L 605.457031 445.699219 C 605.457031 452.652344 610.980469 458.175781 617.933594 458.175781 Z M 613.640625 315.210938 C 613.640625 312.753906 615.480469 310.914062 617.933594 310.914062 L 822.054688 310.914062 C 824.507812 310.914062 826.351562 312.753906 826.351562 315.210938 L 826.351562 445.699219 C 826.351562 448.152344 824.507812 449.992188 822.054688 449.992188 L 617.933594 449.992188 C 615.480469 449.992188 613.640625 448.152344 613.640625 445.699219 Z M 613.640625 315.210938 " fill-opacity="1" fill-rule="nonzero"/><path fill="#07244b" d="M 659.863281 364.910156 C 659.863281 365.113281 659.863281 365.113281 660.066406 365.320312 C 660.066406 365.523438 660.066406 365.523438 660.273438 365.726562 C 660.273438 365.933594 660.476562 365.933594 660.476562 366.136719 C 660.476562 366.34375 660.683594 366.34375 660.683594 366.546875 C 660.683594 366.75 660.886719 366.75 660.886719 366.957031 C 660.886719 366.957031 660.886719 367.160156 661.089844 367.160156 C 661.089844 367.160156 661.296875 367.363281 661.5 367.363281 C 661.703125 367.363281 661.703125 367.570312 661.910156 367.570312 L 689.929688 383.726562 C 690.542969 384.136719 691.359375 384.339844 691.972656 384.339844 C 693.40625 384.339844 694.839844 383.523438 695.453125 382.296875 C 696.472656 380.25 695.859375 377.796875 694.019531 376.773438 L 670.5 363.273438 L 690.746094 343.027344 C 692.382812 341.390625 692.382812 338.933594 690.746094 337.296875 C 689.109375 335.664062 686.65625 335.664062 685.019531 337.296875 L 660.886719 361.023438 C 660.886719 361.023438 660.683594 361.230469 660.683594 361.433594 C 660.683594 361.636719 660.476562 361.636719 660.476562 361.84375 C 660.476562 361.84375 660.476562 362.046875 660.476562 362.046875 C 660.476562 362.25 660.273438 362.25 660.273438 362.457031 C 660.273438 362.660156 660.273438 362.660156 660.066406 362.863281 C 660.066406 363.070312 660.066406 363.070312 660.066406 363.273438 C 660.066406 363.476562 660.066406 363.476562 660.066406 363.683594 C 660.066406 363.886719 660.066406 363.886719 660.066406 364.09375 C 660.066406 364.296875 660.066406 364.296875 660.066406 364.5 C 659.863281 364.707031 659.863281 364.910156 659.863281 364.910156 Z M 659.863281 364.910156 " fill-opacity="1" fill-rule="nonzero"/><path fill="#07244b" d="M 748.015625 384.136719 C 748.628906 384.136719 749.445312 383.929688 750.0625 383.523438 L 778.082031 367.363281 C 778.285156 367.363281 778.285156 367.160156 778.492188 367.160156 C 778.695312 367.160156 778.695312 366.957031 778.898438 366.957031 C 778.898438 366.957031 778.898438 366.75 779.105469 366.75 C 779.105469 366.546875 779.308594 366.546875 779.308594 366.34375 C 779.308594 366.136719 779.511719 366.136719 779.511719 365.933594 C 779.511719 365.726562 779.71875 365.726562 779.71875 365.523438 C 779.71875 365.320312 779.71875 365.320312 779.921875 365.113281 C 779.921875 364.910156 779.921875 364.910156 780.125 364.707031 C 780.125 364.5 780.125 364.5 780.125 364.296875 C 780.125 364.09375 780.125 364.09375 780.125 363.886719 C 780.125 363.683594 780.125 363.683594 780.125 363.476562 C 780.125 363.273438 780.125 363.273438 780.125 363.070312 C 780.125 362.863281 780.125 362.863281 780.125 362.660156 C 780.125 362.457031 780.125 362.457031 779.921875 362.25 C 779.921875 362.046875 779.71875 362.046875 779.71875 361.84375 C 779.71875 361.84375 779.71875 361.636719 779.71875 361.636719 C 779.71875 361.433594 779.511719 361.433594 779.511719 361.230469 C 779.511719 361.023438 779.308594 361.023438 779.308594 360.820312 L 754.96875 337.09375 C 753.332031 335.457031 750.878906 335.457031 749.242188 337.09375 C 747.605469 338.730469 747.605469 341.183594 749.242188 342.820312 L 769.492188 363.070312 L 745.96875 376.566406 C 743.925781 377.589844 743.3125 380.25 744.539062 382.089844 C 745.355469 383.523438 746.582031 384.136719 748.015625 384.136719 Z M 748.015625 384.136719 " fill-opacity="1" fill-rule="nonzero"/><path fill="#07244b" d="M 710.996094 400.089844 C 711.199219 400.089844 711.609375 400.089844 711.8125 400.089844 C 713.65625 400.089844 715.289062 398.863281 715.90625 396.816406 L 732.0625 324.617188 C 732.472656 322.367188 731.242188 320.324219 728.996094 319.710938 C 726.746094 319.300781 724.699219 320.527344 724.085938 322.777344 L 707.929688 394.976562 C 707.519531 397.429688 708.949219 399.679688 710.996094 400.089844 Z M 710.996094 400.089844 " fill-opacity="1" fill-rule="nonzero"/><path fill="#07244b" d="M 690.746094 417.679688 C 691.15625 417.679688 691.566406 417.679688 691.769531 417.679688 C 691.972656 417.679688 692.382812 417.679688 692.792969 417.882812 C 693.203125 417.882812 693.40625 418.085938 693.816406 418.085938 C 694.222656 418.292969 694.632812 418.292969 695.042969 418.496094 C 695.453125 417.882812 695.65625 416.859375 696.066406 416.042969 C 696.472656 415.222656 696.472656 414.203125 696.679688 413.179688 C 695.453125 412.566406 694.429688 412.359375 693.40625 412.15625 C 692.382812 411.953125 691.359375 411.953125 690.339844 411.953125 C 688.496094 411.953125 686.863281 412.359375 685.226562 412.972656 C 683.589844 413.589844 682.566406 414.609375 681.542969 415.835938 C 680.519531 417.066406 679.703125 418.496094 679.292969 420.132812 C 678.679688 421.769531 678.476562 423.609375 678.476562 425.65625 C 678.476562 427.699219 678.679688 429.335938 679.292969 431.175781 C 679.703125 432.8125 680.519531 434.246094 681.542969 435.472656 C 682.566406 436.699219 683.792969 437.519531 685.226562 438.335938 C 686.65625 439.152344 688.496094 439.359375 690.339844 439.359375 C 690.953125 439.359375 691.359375 439.359375 691.972656 439.359375 C 692.589844 439.359375 692.996094 439.359375 693.609375 439.152344 C 694.222656 439.152344 694.632812 438.949219 695.246094 438.746094 C 695.859375 438.539062 696.472656 438.335938 697.085938 438.132812 C 696.882812 436.289062 696.269531 434.449219 695.65625 432.609375 C 694.632812 433.019531 693.816406 433.222656 693.203125 433.425781 C 692.589844 433.632812 691.769531 433.632812 691.15625 433.632812 C 687.066406 433.632812 685.019531 430.972656 685.019531 425.859375 C 685.019531 423.199219 685.632812 421.15625 686.65625 419.929688 C 687.679688 418.703125 688.90625 417.679688 690.746094 417.679688 Z M 690.746094 417.679688 " fill-opacity="1" fill-rule="nonzero"/><path fill="#07244b" d="M 700.359375 435.472656 C 701.179688 436.699219 702.40625 437.722656 703.835938 438.335938 C 705.269531 438.949219 706.90625 439.359375 708.746094 439.359375 C 710.585938 439.359375 712.222656 438.949219 713.65625 438.335938 C 715.085938 437.722656 716.109375 436.699219 716.925781 435.472656 C 717.746094 434.246094 718.5625 432.8125 718.972656 431.175781 C 719.382812 429.542969 719.585938 427.699219 719.585938 425.859375 C 719.585938 424.019531 719.382812 422.179688 718.972656 420.335938 C 718.5625 418.496094 717.949219 417.269531 716.925781 416.042969 C 716.109375 414.816406 714.882812 413.792969 713.65625 413.179688 C 712.222656 412.566406 710.585938 412.15625 708.746094 412.15625 C 706.90625 412.15625 705.269531 412.566406 703.835938 413.179688 C 702.40625 413.792969 701.382812 414.816406 700.359375 416.042969 C 699.542969 417.269531 698.722656 418.703125 698.316406 420.335938 C 697.90625 421.972656 697.703125 423.8125 697.703125 425.859375 C 697.703125 427.90625 697.90625 429.542969 698.316406 431.175781 C 698.722656 432.8125 699.542969 434.246094 700.359375 435.472656 Z M 708.746094 417.679688 C 711.609375 417.679688 713.042969 420.335938 713.042969 425.65625 C 713.042969 430.972656 711.609375 433.632812 708.542969 433.632812 C 707.109375 433.632812 705.882812 433.019531 705.0625 431.585938 C 704.246094 430.359375 704.042969 428.3125 704.042969 425.65625 C 704.246094 420.335938 705.679688 417.679688 708.746094 417.679688 Z M 708.746094 417.679688 " fill-opacity="1" fill-rule="nonzero"/><path fill="#07244b" d="M 727.972656 411.953125 C 727.359375 411.953125 726.746094 411.953125 726.132812 412.15625 C 725.515625 412.15625 724.902344 412.359375 724.496094 412.359375 C 723.882812 412.359375 723.472656 412.566406 723.265625 412.566406 L 723.265625 438.746094 C 724.289062 438.949219 725.3125 438.949219 726.335938 439.152344 C 727.359375 439.359375 728.585938 439.359375 729.609375 439.359375 C 734.109375 439.359375 737.585938 438.335938 739.835938 436.085938 C 742.085938 433.835938 743.3125 430.5625 743.3125 425.859375 C 743.3125 421.359375 742.085938 417.882812 739.835938 415.429688 C 737.585938 413.179688 734.3125 411.953125 729.8125 411.953125 C 729.402344 411.953125 728.789062 411.953125 727.972656 411.953125 Z M 733.085938 418.085938 C 733.902344 418.292969 734.515625 418.703125 735.128906 419.316406 C 735.742188 419.929688 736.152344 420.746094 736.5625 421.769531 C 736.972656 422.792969 737.175781 424.019531 737.175781 425.65625 C 737.175781 427.292969 736.972656 428.519531 736.765625 429.542969 C 736.355469 430.5625 735.949219 431.382812 735.335938 431.996094 C 734.722656 432.609375 734.109375 433.019531 733.289062 433.222656 C 732.472656 433.425781 731.652344 433.632812 730.835938 433.632812 C 730.628906 433.632812 730.425781 433.632812 730.222656 433.632812 C 730.015625 433.632812 729.8125 433.632812 729.609375 433.632812 L 729.609375 417.882812 C 729.609375 417.882812 729.8125 417.882812 730.015625 417.882812 C 730.222656 417.882812 730.628906 417.882812 731.039062 417.882812 C 731.449219 417.679688 732.265625 417.882812 733.085938 418.085938 Z M 733.085938 418.085938 " fill-opacity="1" fill-rule="nonzero"/><path fill="#07244b" d="M 752.925781 433.222656 L 752.925781 428.109375 L 759.671875 428.109375 C 759.878906 427.085938 760.082031 426.0625 760.082031 425.246094 C 760.082031 424.429688 759.878906 423.40625 759.671875 422.382812 L 752.925781 422.382812 L 752.925781 418.292969 L 761.308594 418.292969 C 761.515625 417.269531 761.515625 416.246094 761.515625 415.429688 C 761.515625 415.019531 761.515625 414.609375 761.515625 414.203125 C 761.515625 413.792969 761.308594 413.179688 761.308594 412.769531 L 746.789062 412.769531 L 746.789062 439.152344 L 761.515625 439.152344 C 761.71875 438.132812 761.921875 437.109375 761.921875 436.289062 C 761.921875 435.472656 761.71875 434.449219 761.515625 433.425781 L 752.925781 433.425781 Z M 752.925781 433.222656 " fill-opacity="1" fill-rule="nonzero"/></svg>