<svg xmlns="http://www.w3.org/2000/svg" xmlns:xlink="http://www.w3.org/1999/xlink" width="1920" zoomAndPan="magnify" viewBox="0 0 1440 809.999993" height="1080" preserveAspectRatio="xMidYMid meet" version="1.0"><defs><g/><clipPath id="5fe4c2c4bd"><path d="M 0.628906 0.8125 L 401.371094 0.8125 L 401.371094 201.1875 L 0.628906 201.1875 Z M 0.628906 0.8125 " clip-rule="nonzero"/></clipPath><clipPath id="57102b9f2b"><path d="M 0.628906 201.1875 C 0.628906 90.523438 90.335938 0.8125 201 0.8125 C 311.664062 0.8125 401.371094 90.523438 401.371094 201.1875 L 373.320312 201.1875 C 373.320312 106.015625 296.167969 28.867188 201 28.867188 C 105.832031 28.867188 28.679688 106.015625 28.679688 201.1875 Z M 0.628906 201.1875 " clip-rule="nonzero"/></clipPath><clipPath id="af3bc7c0e4"><path d="M 0.628906 0.8125 L 401.371094 0.8125 L 401.371094 201.1875 L 0.628906 201.1875 Z M 0.628906 0.8125 " clip-rule="nonzero"/></clipPath><clipPath id="5817c7217a"><path d="M 0.628906 201.1875 C 0.628906 90.523438 90.335938 0.8125 201 0.8125 C 311.664062 0.8125 401.371094 90.523438 401.371094 201.1875 L 373.320312 201.1875 C 373.320312 106.015625 296.167969 28.867188 201 28.867188 C 105.832031 28.867188 28.679688 106.015625 28.679688 201.1875 Z M 0.628906 201.1875 " clip-rule="nonzero"/></clipPath><clipPath id="ea09153daa"><rect x="0" width="402" y="0" height="202"/></clipPath><clipPath id="9a2093f45e"><path d="M 0.628906 0.800781 L 275 0.800781 L 275 201.1875 L 0.628906 201.1875 Z M 0.628906 0.800781 " clip-rule="nonzero"/></clipPath><clipPath id="7ddb6015ec"><path d="M 0.628906 201.1875 C 0.628906 134.824219 33.484375 72.765625 88.375 35.460938 C 143.261719 -1.839844 213.058594 -9.546875 274.761719 14.886719 L 264.433594 40.96875 C 211.371094 19.957031 151.34375 26.585938 104.140625 58.664062 C 56.9375 90.742188 28.679688 144.113281 28.679688 201.1875 Z M 0.628906 201.1875 " clip-rule="nonzero"/></clipPath><clipPath id="7247238549"><path d="M 0.628906 0.800781 L 274.921875 0.800781 L 274.921875 201.1875 L 0.628906 201.1875 Z M 0.628906 0.800781 " clip-rule="nonzero"/></clipPath><clipPath id="a82639673d"><path d="M 0.628906 201.1875 C 0.628906 134.824219 33.484375 72.765625 88.375 35.460938 C 143.261719 -1.839844 213.058594 -9.546875 274.761719 14.886719 L 264.433594 40.96875 C 211.371094 19.957031 151.34375 26.585938 104.140625 58.664062 C 56.9375 90.742188 28.679688 144.113281 28.679688 201.1875 Z M 0.628906 201.1875 " clip-rule="nonzero"/></clipPath><clipPath id="2227f6b416"><rect x="0" width="275" y="0" height="202"/></clipPath><clipPath id="eeb22c7f9f"><rect x="0" width="402" y="0" height="203"/></clipPath></defs><g transform="matrix(1, 0, 0, 1, 519, 304)"><g clip-path="url(#eeb22c7f9f)"><g fill="#000000" fill-opacity="1"><g transform="translate(99.843726, 176.038977)"><g><path d="M 35.671875 -74.734375 C 39.960938 -74.734375 43.625 -74.023438 46.65625 -72.609375 C 49.695312 -71.203125 52.019531 -69.34375 53.625 -67.03125 C 55.238281 -64.726562 56.046875 -62.234375 56.046875 -59.546875 C 56.046875 -57.242188 55.476562 -55.476562 54.34375 -54.25 C 53.207031 -53.03125 51.644531 -52.421875 49.65625 -52.421875 C 47.664062 -52.421875 46.132812 -52.972656 45.0625 -54.078125 C 44 -55.179688 43.46875 -56.757812 43.46875 -58.8125 L 43.46875 -62.375 C 43.46875 -65.0625 42.722656 -67.164062 41.234375 -68.6875 C 39.753906 -70.207031 37.460938 -70.96875 34.359375 -70.96875 C 32.015625 -70.96875 29.785156 -70.320312 27.671875 -69.03125 C 25.566406 -67.738281 23.675781 -65.675781 22 -62.84375 C 20.320312 -60.019531 19.003906 -56.300781 18.046875 -51.6875 C 17.085938 -47.082031 16.585938 -41.445312 16.546875 -34.78125 C 18.535156 -37.601562 21.25 -39.878906 24.6875 -41.609375 C 28.132812 -43.335938 31.953125 -44.203125 36.140625 -44.203125 C 40.640625 -44.203125 44.546875 -43.347656 47.859375 -41.640625 C 51.179688 -39.929688 53.75 -37.457031 55.5625 -34.21875 C 57.382812 -30.988281 58.296875 -27.125 58.296875 -22.625 C 58.296875 -19.03125 57.691406 -15.753906 56.484375 -12.796875 C 55.273438 -9.847656 53.546875 -7.304688 51.296875 -5.171875 C 49.046875 -3.046875 46.359375 -1.40625 43.234375 -0.25 C 40.109375 0.894531 36.609375 1.46875 32.734375 1.46875 C 26.796875 1.46875 21.707031 0.0625 17.46875 -2.75 C 13.226562 -5.5625 9.988281 -9.628906 7.75 -14.953125 C 5.519531 -20.273438 4.382812 -26.691406 4.34375 -34.203125 C 4.34375 -43.210938 5.644531 -50.71875 8.25 -56.71875 C 10.851562 -62.726562 14.507812 -67.234375 19.21875 -70.234375 C 23.9375 -73.234375 29.421875 -74.734375 35.671875 -74.734375 Z M 31.84375 -39.484375 C 29.570312 -39.484375 27.414062 -39.003906 25.375 -38.046875 C 23.332031 -37.085938 21.550781 -35.757812 20.03125 -34.0625 C 18.507812 -32.375 17.398438 -30.410156 16.703125 -28.171875 C 17.085938 -21.785156 18.015625 -16.695312 19.484375 -12.90625 C 20.953125 -9.125 22.835938 -6.398438 25.140625 -4.734375 C 27.441406 -3.078125 30.007812 -2.25 32.84375 -2.25 C 36.957031 -2.25 40.253906 -3.835938 42.734375 -7.015625 C 45.210938 -10.191406 46.453125 -14.90625 46.453125 -21.15625 C 46.453125 -25.175781 45.847656 -28.535156 44.640625 -31.234375 C 43.441406 -33.941406 41.742188 -35.992188 39.546875 -37.390625 C 37.347656 -38.785156 34.78125 -39.484375 31.84375 -39.484375 Z M 31.84375 -39.484375 "/></g></g></g><g fill="#000000" fill-opacity="1"><g transform="translate(161.95414, 176.038977)"><g><path d="M 5.234375 -5.34375 C 5.234375 -7.40625 5.722656 -9.265625 6.703125 -10.921875 C 7.679688 -12.578125 9.113281 -13.894531 11 -14.875 L 24.5625 -25.5 C 29 -28.851562 32.539062 -32.019531 35.1875 -35 C 37.84375 -37.988281 39.773438 -41.03125 40.984375 -44.125 C 42.191406 -47.21875 42.796875 -50.5625 42.796875 -54.15625 C 42.796875 -59.988281 41.691406 -64.304688 39.484375 -67.109375 C 37.285156 -69.921875 34.320312 -71.328125 30.59375 -71.328125 C 27.9375 -71.328125 25.75 -70.820312 24.03125 -69.8125 C 22.320312 -68.800781 21.046875 -67.429688 20.203125 -65.703125 C 19.367188 -63.972656 18.953125 -62.023438 18.953125 -59.859375 L 18.953125 -54.84375 C 18.953125 -52.84375 18.394531 -51.285156 17.28125 -50.171875 C 16.164062 -49.054688 14.664062 -48.5 12.78125 -48.5 C 10.96875 -48.5 9.507812 -49.125 8.40625 -50.375 C 7.300781 -51.632812 6.75 -53.398438 6.75 -55.671875 C 6.75 -58.148438 7.28125 -60.53125 8.34375 -62.8125 C 9.414062 -65.101562 11 -67.140625 13.09375 -68.921875 C 15.1875 -70.703125 17.796875 -72.113281 20.921875 -73.15625 C 24.046875 -74.207031 27.648438 -74.734375 31.734375 -74.734375 C 37.046875 -74.734375 41.460938 -73.859375 44.984375 -72.109375 C 48.515625 -70.367188 51.160156 -67.988281 52.921875 -64.96875 C 54.679688 -61.945312 55.5625 -58.5 55.5625 -54.625 C 55.5625 -52.144531 55.160156 -49.78125 54.359375 -47.53125 C 53.554688 -45.28125 52.226562 -43.007812 50.375 -40.71875 C 48.53125 -38.4375 46.0625 -36.019531 42.96875 -33.46875 C 39.882812 -30.914062 36.054688 -28.125 31.484375 -25.09375 L 19.28125 -16.65625 L 19.4375 -16.65625 C 21.769531 -16.65625 24.035156 -16.304688 26.234375 -15.609375 C 28.441406 -14.910156 30.617188 -14.113281 32.765625 -13.21875 C 34.910156 -12.332031 37.046875 -11.539062 39.171875 -10.84375 C 41.304688 -10.144531 43.472656 -9.796875 45.671875 -9.796875 C 48.253906 -9.796875 50.253906 -10.34375 51.671875 -11.4375 C 53.085938 -12.539062 54.25 -14.316406 55.15625 -16.765625 C 55.425781 -17.359375 55.769531 -17.773438 56.1875 -18.015625 C 56.613281 -18.265625 57.054688 -18.351562 57.515625 -18.28125 C 58.691406 -18.207031 59.210938 -17.242188 59.078125 -15.390625 C 58.585938 -11.304688 57.703125 -8.035156 56.421875 -5.578125 C 55.148438 -3.117188 53.519531 -1.328125 51.53125 -0.203125 C 49.539062 0.910156 47.1875 1.46875 44.46875 1.46875 C 42.300781 1.46875 40.328125 1.160156 38.546875 0.546875 C 36.765625 -0.0546875 35.097656 -1.019531 33.546875 -2.34375 C 31.992188 -3.675781 30.429688 -5.425781 28.859375 -7.59375 C 27.253906 -9.375 25.914062 -10.585938 24.84375 -11.234375 C 23.78125 -11.878906 22.691406 -12.203125 21.578125 -12.203125 C 20.285156 -12.203125 19.28125 -11.6875 18.5625 -10.65625 C 17.851562 -9.625 17.410156 -7.890625 17.234375 -5.453125 C 17.054688 -2.972656 16.410156 -1.195312 15.296875 -0.125 C 14.179688 0.9375 12.660156 1.46875 10.734375 1.46875 C 9.203125 1.46875 7.898438 0.867188 6.828125 -0.328125 C 5.765625 -1.535156 5.234375 -3.207031 5.234375 -5.34375 Z M 5.234375 -5.34375 "/></g></g></g><g fill="#000000" fill-opacity="1"><g transform="translate(224.378774, 176.038977)"><g><path d="M 43.84375 -41.265625 C 43.382812 -40.609375 42.9375 -40.203125 42.5 -40.046875 C 42.0625 -39.890625 41.566406 -39.945312 41.015625 -40.21875 C 40.484375 -40.5 40.207031 -40.882812 40.1875 -41.375 C 40.175781 -41.863281 40.347656 -42.441406 40.703125 -43.109375 C 41.398438 -44.398438 42.253906 -46.039062 43.265625 -48.03125 C 44.273438 -50.019531 45.351562 -52.15625 46.5 -54.4375 C 47.65625 -56.726562 48.828125 -59.023438 50.015625 -61.328125 C 51.203125 -63.628906 52.328125 -65.765625 53.390625 -67.734375 C 54.460938 -69.710938 55.378906 -71.347656 56.140625 -72.640625 C 56.804688 -73.691406 57.628906 -74.375 58.609375 -74.6875 C 59.585938 -75 60.617188 -74.859375 61.703125 -74.265625 C 62.742188 -73.710938 63.359375 -72.953125 63.546875 -71.984375 C 63.742188 -71.023438 63.507812 -70.003906 62.84375 -68.921875 C 62.144531 -67.804688 61.191406 -66.335938 59.984375 -64.515625 C 58.785156 -62.703125 57.441406 -60.722656 55.953125 -58.578125 C 54.472656 -56.429688 52.972656 -54.265625 51.453125 -52.078125 C 49.941406 -49.898438 48.519531 -47.867188 47.1875 -45.984375 C 45.863281 -44.097656 44.75 -42.523438 43.84375 -41.265625 Z M 20.640625 -74.6875 C 24.054688 -74.6875 27.003906 -73.914062 29.484375 -72.375 C 31.960938 -70.84375 33.875 -68.660156 35.21875 -65.828125 C 36.5625 -63.003906 37.234375 -59.671875 37.234375 -55.828125 C 37.234375 -51.773438 36.535156 -48.28125 35.140625 -45.34375 C 33.742188 -42.414062 31.785156 -40.175781 29.265625 -38.625 C 26.753906 -37.070312 23.804688 -36.296875 20.421875 -36.296875 C 16.828125 -36.296875 13.769531 -37.0625 11.25 -38.59375 C 8.738281 -40.132812 6.820312 -42.34375 5.5 -45.21875 C 4.175781 -48.101562 3.515625 -51.535156 3.515625 -55.515625 C 3.515625 -59.390625 4.191406 -62.757812 5.546875 -65.625 C 6.910156 -68.488281 8.875 -70.710938 11.4375 -72.296875 C 14.007812 -73.890625 17.078125 -74.6875 20.640625 -74.6875 Z M 28.484375 -55.3125 C 28.484375 -61.03125 27.785156 -65.179688 26.390625 -67.765625 C 24.992188 -70.359375 23.003906 -71.65625 20.421875 -71.65625 C 17.773438 -71.65625 15.757812 -70.367188 14.375 -67.796875 C 13 -65.234375 12.3125 -61.28125 12.3125 -55.9375 C 12.3125 -50.070312 13.007812 -45.835938 14.40625 -43.234375 C 15.800781 -40.628906 17.828125 -39.328125 20.484375 -39.328125 C 22.992188 -39.328125 24.953125 -40.550781 26.359375 -43 C 27.773438 -45.445312 28.484375 -49.550781 28.484375 -55.3125 Z M 57.609375 -36.984375 C 61.035156 -36.984375 63.988281 -36.210938 66.46875 -34.671875 C 68.945312 -33.140625 70.859375 -30.96875 72.203125 -28.15625 C 73.546875 -25.34375 74.21875 -22.015625 74.21875 -18.171875 C 74.21875 -14.085938 73.519531 -10.585938 72.125 -7.671875 C 70.726562 -4.753906 68.769531 -2.507812 66.25 -0.9375 C 63.738281 0.632812 60.789062 1.421875 57.40625 1.421875 C 53.8125 1.421875 50.753906 0.644531 48.234375 -0.90625 C 45.722656 -2.46875 43.800781 -4.679688 42.46875 -7.546875 C 41.144531 -10.410156 40.484375 -13.832031 40.484375 -17.8125 C 40.484375 -21.6875 41.164062 -25.0625 42.53125 -27.9375 C 43.894531 -30.820312 45.859375 -33.050781 48.421875 -34.625 C 50.984375 -36.195312 54.046875 -36.984375 57.609375 -36.984375 Z M 65.46875 -17.59375 C 65.46875 -23.320312 64.769531 -27.476562 63.375 -30.0625 C 61.976562 -32.644531 59.988281 -33.9375 57.40625 -33.9375 C 54.75 -33.9375 52.726562 -32.648438 51.34375 -30.078125 C 49.96875 -27.515625 49.28125 -23.5625 49.28125 -18.21875 C 49.28125 -12.351562 49.976562 -8.117188 51.375 -5.515625 C 52.769531 -2.921875 54.796875 -1.625 57.453125 -1.625 C 59.960938 -1.625 61.925781 -2.84375 63.34375 -5.28125 C 64.757812 -7.726562 65.46875 -11.832031 65.46875 -17.59375 Z M 34.15625 -31.953125 C 34.632812 -32.609375 35.09375 -33.023438 35.53125 -33.203125 C 35.96875 -33.378906 36.46875 -33.328125 37.03125 -33.046875 C 37.550781 -32.734375 37.816406 -32.332031 37.828125 -31.84375 C 37.847656 -31.351562 37.671875 -30.773438 37.296875 -30.109375 C 36.597656 -28.816406 35.738281 -27.175781 34.71875 -25.1875 C 33.707031 -23.195312 32.625 -21.050781 31.46875 -18.75 C 30.320312 -16.445312 29.15625 -14.140625 27.96875 -11.828125 C 26.78125 -9.523438 25.660156 -7.394531 24.609375 -5.4375 C 23.566406 -3.488281 22.660156 -1.867188 21.890625 -0.578125 C 21.222656 0.503906 20.390625 1.191406 19.390625 1.484375 C 18.398438 1.785156 17.363281 1.640625 16.28125 1.046875 C 15.269531 0.484375 14.664062 -0.265625 14.46875 -1.203125 C 14.28125 -2.148438 14.519531 -3.164062 15.1875 -4.25 C 15.851562 -5.363281 16.796875 -6.835938 18.015625 -8.671875 C 19.234375 -10.503906 20.582031 -12.492188 22.0625 -14.640625 C 23.550781 -16.785156 25.054688 -18.945312 26.578125 -21.125 C 28.097656 -23.3125 29.519531 -25.347656 30.84375 -27.234375 C 32.175781 -29.117188 33.28125 -30.691406 34.15625 -31.953125 Z M 34.15625 -31.953125 "/></g></g></g><g clip-path="url(#5fe4c2c4bd)"><g clip-path="url(#57102b9f2b)"><g transform="matrix(1, 0, 0, 1, 0, 0.000000000000056843)"><g clip-path="url(#ea09153daa)"><g clip-path="url(#af3bc7c0e4)"><g clip-path="url(#5817c7217a)"><path fill="#000000" d="M 0.628906 0.8125 L 401.371094 0.8125 L 401.371094 201.1875 L 0.628906 201.1875 Z M 0.628906 0.8125 " fill-opacity="1" fill-rule="nonzero"/></g></g></g></g></g></g><g clip-path="url(#9a2093f45e)"><g clip-path="url(#7ddb6015ec)"><g transform="matrix(1, 0, 0, 1, 0, 0.000000000000056843)"><g clip-path="url(#2227f6b416)"><g clip-path="url(#7247238549)"><g clip-path="url(#a82639673d)"><path fill="#92a519" d="M 0.628906 0.8125 L 401.371094 0.8125 L 401.371094 201.1875 L 0.628906 201.1875 Z M 0.628906 0.8125 " fill-opacity="1" fill-rule="nonzero"/></g></g></g></g></g></g></g></g></svg>