<svg xmlns="http://www.w3.org/2000/svg" xmlns:xlink="http://www.w3.org/1999/xlink" zoomAndPan="magnify" preserveAspectRatio="xMidYMid meet" version="1.0" viewBox="639.23 324.23 161.29 161.29"><defs><clipPath id="6c74da33a7"><path d="M 639.195312 324.195312 L 800.445312 324.195312 L 800.445312 485.445312 L 639.195312 485.445312 Z M 639.195312 324.195312 " clip-rule="nonzero"/></clipPath></defs><g clip-path="url(#6c74da33a7)"><path fill="#668fa3" d="M 735.742188 342.875 C 738.695312 343.628906 741.574219 344.589844 744.359375 345.75 C 747.167969 346.910156 749.886719 348.277344 752.492188 349.824219 L 763.597656 343.054688 C 765.035156 342.179688 766.640625 341.605469 768.210938 341.605469 C 769.714844 341.605469 771.152344 342.105469 772.359375 343.308594 L 781.449219 352.402344 C 781.484375 352.4375 781.519531 352.476562 781.554688 352.511719 C 782.679688 353.695312 783.152344 355.089844 783.152344 356.546875 C 783.152344 358.113281 782.582031 359.722656 781.703125 361.160156 L 774.9375 372.261719 C 776.480469 374.871094 777.847656 377.582031 779.011719 380.390625 C 780.167969 383.183594 781.128906 386.0625 781.886719 389.019531 L 794.503906 392.078125 C 796.144531 392.476562 797.691406 393.203125 798.792969 394.3125 C 799.859375 395.378906 800.523438 396.746094 800.523438 398.449219 L 800.523438 411.304688 C 800.523438 413.007812 799.859375 414.382812 798.792969 415.441406 C 797.691406 416.550781 796.144531 417.28125 794.503906 417.679688 L 781.882812 420.742188 C 781.128906 423.695312 780.164062 426.574219 779.011719 429.359375 C 777.84375 432.167969 776.480469 434.886719 774.929688 437.492188 L 781.703125 448.597656 C 782.582031 450.035156 783.152344 451.640625 783.152344 453.210938 C 783.152344 454.710938 782.65625 456.144531 781.449219 457.351562 L 781.445312 457.355469 L 781.449219 457.359375 L 772.359375 466.449219 C 771.152344 467.648438 769.714844 468.152344 768.210938 468.152344 C 766.640625 468.152344 765.035156 467.582031 763.597656 466.703125 L 752.496094 459.929688 C 749.890625 461.480469 747.171875 462.847656 744.363281 464.011719 C 741.578125 465.167969 738.695312 466.128906 735.742188 466.886719 L 732.679688 479.503906 C 732.285156 481.144531 731.550781 482.691406 730.445312 483.792969 C 729.382812 484.859375 728.007812 485.523438 726.304688 485.523438 L 713.449219 485.523438 C 711.746094 485.523438 710.378906 484.859375 709.3125 483.792969 C 708.203125 482.691406 707.476562 481.144531 707.078125 479.503906 L 704.019531 466.882812 C 701.0625 466.128906 698.183594 465.164062 695.398438 464.011719 C 692.59375 462.84375 689.875 461.480469 687.269531 459.929688 L 676.164062 466.703125 C 674.726562 467.582031 673.113281 468.152344 671.546875 468.152344 C 670.042969 468.152344 668.601562 467.648438 667.402344 466.449219 L 658.3125 457.359375 C 657.105469 456.152344 656.605469 454.714844 656.605469 453.210938 C 656.605469 451.640625 657.179688 450.035156 658.058594 448.597656 L 664.824219 437.496094 C 663.273438 434.890625 661.910156 432.171875 660.75 429.363281 C 659.589844 426.578125 658.625 423.695312 657.875 420.742188 L 645.25 417.679688 C 643.613281 417.285156 642.070312 416.550781 640.960938 415.441406 C 639.898438 414.382812 639.234375 413.007812 639.234375 411.304688 L 639.234375 398.449219 C 639.234375 396.746094 639.898438 395.378906 640.960938 394.3125 C 642.070312 393.203125 643.613281 392.476562 645.25 392.078125 L 657.875 389.015625 C 658.628906 386.0625 659.589844 383.183594 660.75 380.398438 C 661.910156 377.589844 663.277344 374.871094 664.824219 372.261719 L 658.058594 361.160156 C 657.179688 359.722656 656.605469 358.113281 656.605469 356.546875 C 656.605469 355.039062 657.105469 353.601562 658.3125 352.402344 L 667.402344 343.308594 C 668.601562 342.105469 670.042969 341.605469 671.546875 341.605469 C 673.113281 341.605469 674.726562 342.179688 676.164062 343.054688 L 687.269531 349.824219 C 689.875 348.277344 692.59375 346.910156 695.398438 345.75 C 698.183594 344.589844 701.0625 343.628906 704.015625 342.875 L 707.078125 330.25 C 707.476562 328.613281 708.203125 327.070312 709.3125 325.960938 C 710.378906 324.894531 711.746094 324.234375 713.449219 324.234375 L 726.304688 324.234375 C 728.007812 324.234375 729.382812 324.894531 730.445312 325.960938 C 731.550781 327.070312 732.285156 328.613281 732.679688 330.25 Z M 735.742188 342.875 " fill-opacity="1" fill-rule="nonzero"/></g><path fill="#577989" d="M 719.878906 350.417969 C 734.914062 350.417969 748.53125 356.515625 758.390625 366.371094 C 768.242188 376.226562 774.335938 389.839844 774.335938 404.878906 C 774.335938 419.914062 768.242188 433.53125 758.390625 443.386719 C 748.53125 453.242188 734.914062 459.335938 719.878906 459.335938 C 704.839844 459.335938 691.226562 453.242188 681.371094 443.386719 C 671.515625 433.53125 665.417969 419.914062 665.417969 404.878906 C 665.417969 389.839844 671.515625 376.226562 681.371094 366.371094 C 691.226562 356.515625 704.839844 350.417969 719.878906 350.417969 Z M 719.878906 350.417969 " fill-opacity="1" fill-rule="nonzero"/><path fill="#ffffff" d="M 719.878906 358.050781 C 732.808594 358.050781 744.515625 363.292969 752.992188 371.765625 C 761.464844 380.238281 766.707031 391.945312 766.707031 404.878906 C 766.707031 417.808594 761.464844 429.515625 752.992188 437.992188 C 744.515625 446.464844 732.808594 451.707031 719.878906 451.707031 C 706.945312 451.707031 695.238281 446.464844 686.765625 437.992188 C 678.292969 429.515625 673.050781 417.808594 673.050781 404.878906 C 673.050781 391.945312 678.292969 380.238281 686.765625 371.765625 C 695.238281 363.292969 706.945312 358.050781 719.878906 358.050781 Z M 719.878906 358.050781 " fill-opacity="1" fill-rule="nonzero"/><path fill="#27a2db" d="M 702.210938 409.738281 C 702.210938 408.769531 702.996094 407.980469 703.960938 407.980469 C 704.933594 407.980469 705.71875 408.769531 705.71875 409.738281 C 705.71875 411.859375 704.847656 413.785156 703.457031 415.183594 C 702.058594 416.578125 700.132812 417.449219 698.007812 417.449219 L 694.574219 417.449219 C 691.507812 417.449219 688.726562 416.195312 686.707031 414.175781 C 684.691406 412.15625 683.4375 409.371094 683.4375 406.304688 L 683.4375 403.457031 C 683.4375 400.390625 684.691406 397.605469 686.707031 395.589844 C 688.726562 393.570312 691.507812 392.316406 694.574219 392.316406 L 698.007812 392.316406 C 700.132812 392.316406 702.058594 393.183594 703.457031 394.582031 C 704.847656 395.976562 705.71875 397.90625 705.71875 400.027344 C 705.71875 400.992188 704.933594 401.777344 703.960938 401.777344 C 702.996094 401.777344 702.210938 400.992188 702.210938 400.027344 C 702.210938 398.871094 701.738281 397.820312 700.976562 397.058594 C 700.210938 396.296875 699.164062 395.820312 698.007812 395.820312 L 694.574219 395.820312 C 692.480469 395.820312 690.570312 396.679688 689.183594 398.066406 C 687.800781 399.449219 686.945312 401.359375 686.945312 403.457031 L 686.945312 406.304688 C 686.945312 408.40625 687.800781 410.308594 689.183594 411.695312 C 690.570312 413.078125 692.480469 413.941406 694.574219 413.941406 L 698.007812 413.941406 C 699.164062 413.941406 700.210938 413.46875 700.976562 412.703125 C 701.738281 411.945312 702.210938 410.890625 702.210938 409.738281 Z M 702.210938 409.738281 " fill-opacity="1" fill-rule="nonzero"/><path fill="#27a2db" d="M 715.644531 415.691406 C 715.644531 416.660156 714.855469 417.449219 713.890625 417.449219 C 712.921875 417.449219 712.136719 416.660156 712.136719 415.691406 L 712.136719 394.066406 C 712.136719 393.09375 712.921875 392.3125 713.890625 392.3125 C 714.636719 392.3125 715.277344 392.78125 715.523438 393.4375 L 723.859375 411.515625 L 732.242188 393.332031 C 732.644531 392.453125 733.683594 392.074219 734.5625 392.476562 C 735.199219 392.773438 735.578125 393.40625 735.578125 394.066406 L 735.582031 394.066406 L 735.582031 415.691406 C 735.582031 416.660156 734.796875 417.449219 733.828125 417.449219 C 732.863281 417.449219 732.074219 416.660156 732.074219 415.691406 L 732.074219 402.050781 L 725.453125 416.417969 L 725.449219 416.425781 C 725.277344 416.792969 724.988281 417.101562 724.59375 417.28125 C 723.714844 417.6875 722.675781 417.304688 722.269531 416.425781 L 715.644531 402.050781 Z M 715.644531 415.691406 " fill-opacity="1" fill-rule="nonzero"/><path fill="#27a2db" d="M 755.527344 396.214844 C 755.96875 397.070312 755.628906 398.121094 754.769531 398.5625 C 753.914062 399 752.859375 398.660156 752.421875 397.804688 C 752.113281 397.207031 751.644531 396.699219 751.070312 396.347656 C 750.519531 396.011719 749.863281 395.816406 749.160156 395.816406 C 748.152344 395.816406 747.238281 396.226562 746.578125 396.886719 C 745.914062 397.550781 745.507812 398.464844 745.507812 399.472656 C 745.507812 400.480469 745.914062 401.394531 746.578125 402.054688 C 747.238281 402.71875 748.152344 403.125 749.160156 403.125 C 751.136719 403.125 752.929688 403.929688 754.222656 405.222656 C 755.519531 406.519531 756.320312 408.308594 756.320312 410.289062 C 756.320312 412.261719 755.519531 414.054688 754.222656 415.351562 C 752.929688 416.644531 751.136719 417.449219 749.160156 417.449219 C 747.699219 417.449219 746.332031 417 745.195312 416.238281 C 744.023438 415.460938 743.097656 414.347656 742.550781 413.03125 C 742.179688 412.140625 742.601562 411.113281 743.496094 410.746094 C 744.390625 410.375 745.410156 410.800781 745.78125 411.691406 C 746.0625 412.363281 746.539062 412.933594 747.136719 413.335938 C 747.710938 413.71875 748.402344 413.941406 749.160156 413.941406 C 750.167969 413.941406 751.082031 413.527344 751.746094 412.871094 C 752.40625 412.210938 752.816406 411.296875 752.816406 410.289062 C 752.816406 409.277344 752.40625 408.363281 751.746094 407.703125 C 751.082031 407.042969 750.167969 406.632812 749.160156 406.632812 C 747.183594 406.632812 745.394531 405.828125 744.097656 404.535156 C 742.804688 403.238281 742 401.445312 742 399.472656 C 742 397.492188 742.804688 395.703125 744.097656 394.410156 C 745.394531 393.113281 747.183594 392.3125 749.160156 392.3125 C 750.523438 392.3125 751.796875 392.691406 752.890625 393.363281 C 754.007812 394.046875 754.925781 395.035156 755.527344 396.214844 Z M 755.527344 396.214844 " fill-opacity="1" fill-rule="nonzero"/><path fill="#edf3f4" d="M 699.0625 381.976562 C 698.09375 381.976562 697.304688 381.191406 697.304688 380.226562 C 697.304688 379.257812 698.09375 378.46875 699.0625 378.46875 L 740.699219 378.46875 C 741.664062 378.46875 742.449219 379.257812 742.449219 380.226562 C 742.449219 381.191406 741.664062 381.976562 740.699219 381.976562 Z M 699.0625 381.976562 " fill-opacity="1" fill-rule="evenodd"/><path fill="#edf3f4" d="M 699.0625 431.285156 C 698.09375 431.285156 697.304688 430.5 697.304688 429.535156 C 697.304688 428.5625 698.09375 427.777344 699.0625 427.777344 L 740.699219 427.777344 C 741.664062 427.777344 742.449219 428.5625 742.449219 429.535156 C 742.449219 430.5 741.664062 431.285156 740.699219 431.285156 Z M 699.0625 431.285156 " fill-opacity="1" fill-rule="evenodd"/></svg>