<svg xmlns="http://www.w3.org/2000/svg" xmlns:xlink="http://www.w3.org/1999/xlink" zoomAndPan="magnify" preserveAspectRatio="xMidYMid meet" version="1.0" viewBox="-144 -81 1728 972"><defs><clipPath id="d1b507ea68"><path d="M 642 326.640625 L 798.390625 326.640625 L 798.390625 483.390625 L 642 483.390625 Z M 642 326.640625 " clip-rule="nonzero"/></clipPath></defs><rect x="-144" width="1728" fill="#ffffff" y="-80.999999" height="971.999992" fill-opacity="1"/><rect x="-144" width="1728" fill="#ffffff" y="-80.999999" height="971.999992" fill-opacity="1"/><g clip-path="url(#d1b507ea68)"><path fill="#07244b" d="M 763.929688 424.503906 L 775.59375 424.503906 C 777.390625 424.503906 778.847656 423.050781 778.847656 421.253906 C 778.847656 419.460938 777.390625 418.003906 775.59375 418.003906 L 763.320312 418.003906 C 764.9375 415.433594 765.835938 412.476562 765.835938 409.367188 L 765.835938 391.824219 C 766.914062 391.921875 767.992188 391.992188 769.09375 391.992188 C 770.710938 391.992188 772.085938 390.800781 772.316406 389.207031 L 775.304688 368.296875 C 783.703125 365.007812 791.574219 363.796875 792.808594 365.039062 C 794.074219 366.304688 796.136719 366.304688 797.40625 365.039062 C 798.671875 363.769531 798.671875 361.710938 797.40625 360.441406 C 792.484375 355.519531 779.996094 359.460938 773.125 362.171875 L 763.15625 352.203125 C 765.867188 345.328125 769.800781 332.832031 764.890625 327.921875 C 763.625 326.652344 761.5625 326.652344 760.292969 327.921875 C 759.027344 329.1875 759.027344 331.25 760.292969 332.519531 C 761.53125 333.753906 760.320312 341.617188 757.03125 350.023438 L 736.125 353.007812 C 734.519531 353.234375 733.328125 354.609375 733.328125 356.226562 C 733.328125 357.328125 733.394531 358.414062 733.492188 359.484375 L 715.953125 359.484375 C 712.871094 359.484375 709.9375 360.375 707.382812 361.96875 C 707.355469 361.527344 707.257812 361.078125 707.277344 360.636719 C 707.640625 352.617188 704.28125 344.953125 697.03125 337.21875 C 690.828125 330.605469 682.679688 327.128906 674.394531 326.972656 C 667.164062 327.0625 660.277344 329.585938 654.46875 334.273438 C 653.644531 334.945312 653.195312 335.972656 653.265625 337.03125 C 653.34375 338.089844 653.921875 339.046875 654.839844 339.59375 L 674.710938 351.511719 C 674.121094 357.488281 670.589844 362.730469 665.1875 365.527344 L 647.394531 354.847656 C 646.394531 354.257812 645.035156 354.308594 644.03125 354.855469 C 643.042969 355.394531 642.40625 356.402344 642.34375 357.519531 C 641.808594 366.585938 644.9375 375.203125 651.140625 381.78125 C 657.265625 388.273438 665.886719 391.992188 674.804688 391.992188 C 675.46875 391.992188 676.164062 391.90625 676.839844 391.855469 L 670.367188 398.332031 C 668.359375 400.339844 666.800781 402.65625 665.472656 405.082031 C 665.328125 405.0625 665.207031 404.996094 665.050781 404.996094 L 645.542969 404.996094 C 643.746094 404.996094 642.289062 406.453125 642.289062 408.25 C 642.289062 410.042969 643.746094 411.5 645.542969 411.5 L 662.898438 411.5 C 662.253906 413.933594 661.796875 416.4375 661.796875 419.023438 L 661.796875 434.257812 C 661.796875 450.394531 674.925781 463.523438 691.0625 463.523438 L 706.296875 463.523438 C 708.882812 463.523438 711.382812 463.074219 713.820312 462.421875 L 713.820312 479.777344 C 713.820312 481.574219 715.277344 483.03125 717.070312 483.03125 C 718.867188 483.03125 720.324219 481.574219 720.324219 479.777344 L 720.324219 460.269531 C 720.324219 460.121094 720.257812 459.992188 720.238281 459.847656 C 722.671875 458.519531 724.984375 456.960938 726.996094 454.949219 L 736.585938 445.359375 L 769.261719 478.035156 C 772.472656 481.261719 776.757812 483.03125 781.316406 483.03125 C 790.707031 483.03125 798.355469 475.382812 798.347656 465.984375 C 798.347656 461.433594 796.574219 457.160156 793.355469 453.9375 Z M 759.332031 409.367188 C 759.332031 411.976562 758.316406 414.417969 756.476562 416.265625 L 756.085938 416.65625 L 734.675781 395.242188 L 746.230469 383.695312 C 750.015625 386.855469 754.46875 389.214844 759.332031 390.601562 Z M 758.195312 356.429688 L 768.898438 367.132812 L 766.289062 385.359375 C 752.382812 384.039062 741.289062 372.9375 739.960938 359.035156 Z M 715.953125 365.988281 L 734.714844 365.988281 C 736.097656 370.859375 738.464844 375.3125 741.625 379.097656 L 730.078125 390.644531 L 712.703125 373.265625 C 711.285156 371.847656 710.210938 370.261719 709.328125 368.621094 C 711.121094 366.957031 713.5 365.988281 715.953125 365.988281 Z M 668.300781 434.257812 L 668.300781 419.023438 C 668.300781 412.945312 670.667969 407.226562 674.964844 402.929688 L 684.558594 393.332031 L 705.972656 414.746094 L 672.890625 447.824219 C 670.050781 444.027344 668.300781 439.359375 668.300781 434.257812 Z M 722.398438 450.355469 C 718.09375 454.652344 712.382812 457.019531 706.296875 457.019531 L 691.0625 457.019531 C 685.957031 457.019531 681.292969 455.269531 677.496094 452.421875 L 710.574219 419.34375 L 731.988281 440.753906 Z M 781.324219 476.527344 L 781.3125 476.527344 C 778.496094 476.527344 775.847656 475.429688 773.859375 473.4375 L 685.496094 385.074219 C 684.875 384.457031 684.042969 384.125 683.191406 384.125 C 682.878906 384.125 682.5625 384.164062 682.257812 384.261719 C 679.472656 385.097656 677.105469 385.488281 674.804688 385.488281 C 667.566406 385.488281 660.847656 382.589844 655.886719 377.316406 C 652.214844 373.414062 649.886719 368.613281 649.097656 363.445312 L 663.390625 372.015625 C 664.335938 372.59375 665.519531 372.632812 666.511719 372.140625 L 667.886719 371.457031 C 676.167969 367.3125 681.3125 358.984375 681.3125 349.722656 C 681.3125 348.582031 680.714844 347.519531 679.734375 346.933594 L 662.566406 336.632812 C 666.253906 334.605469 670.296875 333.519531 674.484375 333.46875 C 674.570312 333.46875 674.648438 333.46875 674.738281 333.46875 C 681.019531 333.46875 687.398438 336.445312 692.296875 341.667969 C 698.375 348.152344 701.074219 354.085938 700.796875 360.355469 C 700.535156 366.578125 703.195312 372.957031 708.109375 377.867188 L 727.753906 397.511719 C 727.769531 397.527344 727.769531 397.539062 727.773438 397.546875 C 727.78125 397.550781 727.800781 397.558594 727.808594 397.566406 L 753.765625 423.523438 C 753.773438 423.53125 753.777344 423.542969 753.785156 423.550781 C 753.792969 423.554688 753.804688 423.5625 753.8125 423.570312 L 788.769531 458.527344 C 790.761719 460.515625 791.859375 463.164062 791.859375 465.984375 C 791.859375 471.800781 787.136719 476.527344 781.324219 476.527344 Z M 781.324219 476.527344 " fill-opacity="1" fill-rule="nonzero"/></g></svg>