<svg xmlns="http://www.w3.org/2000/svg" xmlns:xlink="http://www.w3.org/1999/xlink" width="1920" zoomAndPan="magnify" viewBox="0 0 1440 809.999993" height="1080" preserveAspectRatio="xMidYMid meet" version="1.0"><defs><clipPath id="02a44662d4"><path d="M 725 309.558594 L 815.808594 309.558594 L 815.808594 400 L 725 400 Z M 725 309.558594 " clip-rule="nonzero"/></clipPath><clipPath id="ffaa73e5f1"><path d="M 624.558594 342 L 745 342 L 745 500.808594 L 624.558594 500.808594 Z M 624.558594 342 " clip-rule="nonzero"/></clipPath></defs><rect x="-144" width="1728" fill="#ffffff" y="-80.999999" height="971.999992" fill-opacity="1"/><rect x="-144" width="1728" fill="#ffffff" y="-80.999999" height="971.999992" fill-opacity="1"/><path fill="#07244b" d="M 667.804688 421.398438 C 667.804688 441.167969 683.824219 457.1875 703.589844 457.1875 C 723.355469 457.1875 739.382812 441.167969 739.382812 421.398438 C 739.382812 401.628906 723.355469 385.609375 703.589844 385.609375 C 683.824219 385.609375 667.804688 401.628906 667.804688 421.398438 Z M 736.398438 421.398438 C 736.398438 439.488281 721.683594 454.207031 703.589844 454.207031 C 685.503906 454.207031 670.785156 439.488281 670.785156 421.398438 C 670.785156 403.308594 685.503906 388.59375 703.589844 388.59375 C 721.683594 388.59375 736.398438 403.308594 736.398438 421.398438 Z M 736.398438 421.398438 " fill-opacity="1" fill-rule="nonzero"/><g clip-path="url(#02a44662d4)"><path fill="#07244b" d="M 811.015625 346.839844 L 804.683594 346.839844 C 803.789062 342.753906 802.179688 338.945312 799.996094 335.539062 L 804.480469 331.058594 C 806.207031 329.332031 806.027344 326.363281 804.089844 324.421875 L 800.574219 320.902344 C 799.527344 319.855469 798.179688 319.324219 796.894531 319.324219 C 795.792969 319.324219 794.730469 319.714844 793.933594 320.511719 L 789.453125 324.996094 C 786.046875 322.8125 782.238281 321.203125 778.152344 320.3125 L 778.152344 313.976562 C 778.152344 311.535156 775.925781 309.558594 773.179688 309.558594 L 768.214844 309.558594 C 765.46875 309.558594 763.238281 311.535156 763.238281 313.976562 L 763.238281 320.3125 C 759.15625 321.203125 755.347656 322.8125 751.941406 324.996094 L 747.460938 320.511719 C 746.664062 319.714844 745.601562 319.324219 744.5 319.324219 C 743.214844 319.324219 741.867188 319.855469 740.820312 320.902344 L 737.308594 324.421875 C 735.363281 326.363281 735.1875 329.332031 736.914062 331.058594 L 741.398438 335.539062 C 739.214844 338.945312 737.605469 342.753906 736.710938 346.839844 L 730.378906 346.839844 C 727.9375 346.839844 725.960938 349.0625 725.960938 351.8125 L 725.960938 356.78125 C 725.960938 359.523438 727.9375 361.75 730.378906 361.75 L 736.710938 361.75 C 737.605469 365.835938 739.214844 369.640625 741.398438 373.050781 L 736.914062 377.53125 C 735.1875 379.257812 735.363281 382.226562 737.308594 384.171875 L 740.820312 387.6875 C 741.867188 388.734375 743.214844 389.265625 744.5 389.265625 C 745.601562 389.265625 746.664062 388.875 747.460938 388.078125 L 751.941406 383.589844 C 755.347656 385.78125 759.15625 387.386719 763.238281 388.28125 L 763.238281 394.613281 C 763.238281 397.050781 765.46875 399.03125 768.214844 399.03125 L 773.179688 399.03125 C 775.925781 399.03125 778.152344 397.050781 778.152344 394.613281 L 778.152344 388.28125 C 782.238281 387.386719 786.046875 385.78125 789.453125 383.589844 L 793.933594 388.078125 C 794.730469 388.875 795.792969 389.265625 796.894531 389.265625 C 798.183594 389.265625 799.527344 388.734375 800.574219 387.6875 L 804.089844 384.171875 C 806.027344 382.226562 806.207031 379.257812 804.480469 377.53125 L 799.996094 373.050781 C 802.179688 369.640625 803.789062 365.835938 804.683594 361.75 L 811.015625 361.75 C 813.453125 361.75 815.433594 359.523438 815.433594 356.78125 L 815.433594 351.8125 C 815.433594 349.0625 813.453125 346.839844 811.015625 346.839844 Z M 812.449219 356.78125 C 812.449219 357.839844 811.78125 358.769531 811.015625 358.769531 L 802.28125 358.769531 L 801.769531 361.113281 C 800.96875 364.78125 799.527344 368.257812 797.488281 371.441406 L 796.191406 373.460938 L 797.886719 375.160156 L 802.371094 379.640625 C 802.921875 380.191406 802.742188 381.300781 801.980469 382.0625 L 798.46875 385.574219 C 798.019531 386.027344 797.445312 386.285156 796.894531 386.285156 C 796.648438 386.285156 796.300781 386.230469 796.042969 385.972656 L 791.5625 381.484375 L 789.867188 379.78125 L 787.84375 381.082031 C 784.667969 383.121094 781.191406 384.5625 777.515625 385.367188 L 775.171875 385.878906 L 775.171875 394.613281 C 775.171875 395.378906 774.242188 396.050781 773.179688 396.050781 L 768.214844 396.050781 C 767.152344 396.050781 766.21875 395.378906 766.21875 394.613281 L 766.21875 385.878906 L 763.875 385.367188 C 760.199219 384.5625 756.726562 383.121094 753.550781 381.082031 L 751.527344 379.78125 L 749.828125 381.484375 L 745.351562 385.96875 C 745.09375 386.230469 744.746094 386.285156 744.5 386.285156 C 743.953125 386.285156 743.378906 386.027344 742.929688 385.578125 L 739.414062 382.0625 C 738.652344 381.300781 738.472656 380.191406 739.019531 379.640625 L 743.507812 375.160156 L 745.207031 373.460938 L 743.910156 371.441406 C 741.871094 368.257812 740.425781 364.78125 739.625 361.113281 L 739.113281 358.769531 L 730.378906 358.769531 C 729.613281 358.769531 728.941406 357.839844 728.941406 356.78125 L 728.941406 351.8125 C 728.941406 350.75 729.613281 349.820312 730.378906 349.820312 L 739.113281 349.820312 L 739.625 347.476562 C 740.429688 343.804688 741.871094 340.328125 743.910156 337.148438 L 745.207031 335.125 L 743.507812 333.429688 L 739.023438 328.949219 C 738.734375 328.664062 738.695312 328.273438 738.710938 327.996094 C 738.742188 327.480469 738.996094 326.949219 739.417969 326.527344 L 742.929688 323.015625 C 743.378906 322.566406 743.953125 322.308594 744.5 322.308594 C 744.746094 322.308594 745.09375 322.359375 745.351562 322.621094 L 749.832031 327.105469 L 751.527344 328.804688 L 753.550781 327.507812 C 756.734375 325.464844 760.210938 324.023438 763.875 323.226562 L 766.21875 322.714844 L 766.21875 313.976562 C 766.21875 313.210938 767.152344 312.542969 768.214844 312.542969 L 773.179688 312.542969 C 774.242188 312.542969 775.171875 313.210938 775.171875 313.976562 L 775.171875 322.714844 L 777.519531 323.226562 C 781.183594 324.023438 784.660156 325.464844 787.84375 327.507812 L 789.867188 328.804688 L 791.5625 327.105469 L 796.042969 322.621094 C 796.304688 322.359375 796.648438 322.308594 796.894531 322.308594 C 797.441406 322.308594 798.019531 322.566406 798.464844 323.011719 L 801.980469 326.53125 C 802.742188 327.292969 802.921875 328.398438 802.371094 328.949219 L 797.886719 333.429688 L 796.191406 335.125 L 797.488281 337.148438 C 799.523438 340.328125 800.96875 343.804688 801.769531 347.476562 L 802.28125 349.820312 L 811.015625 349.820312 C 811.78125 349.820312 812.449219 350.75 812.449219 351.8125 Z M 812.449219 356.78125 " fill-opacity="1" fill-rule="nonzero"/></g><path fill="#07244b" d="M 770.695312 333.417969 C 759.167969 333.417969 749.820312 342.765625 749.820312 354.296875 C 749.820312 365.824219 759.167969 375.171875 770.695312 375.171875 C 782.226562 375.171875 791.574219 365.824219 791.574219 354.296875 C 791.574219 342.765625 782.226562 333.417969 770.695312 333.417969 Z M 770.695312 372.191406 C 760.828125 372.191406 752.800781 364.164062 752.800781 354.296875 C 752.800781 344.425781 760.828125 336.402344 770.695312 336.402344 C 780.5625 336.402344 788.589844 344.425781 788.589844 354.296875 C 788.589844 364.164062 780.5625 372.191406 770.695312 372.191406 Z M 770.695312 372.191406 " fill-opacity="1" fill-rule="nonzero"/><g clip-path="url(#ffaa73e5f1)"><path fill="#07244b" d="M 738.839844 471.046875 L 737.144531 469.34375 L 735.121094 470.644531 C 729.269531 474.402344 722.882812 477.050781 716.128906 478.523438 L 713.78125 479.035156 L 713.78125 492.621094 C 713.78125 495.285156 711.179688 497.453125 707.976562 497.453125 L 699.203125 497.453125 C 696.003906 497.453125 693.398438 495.285156 693.398438 492.621094 L 693.398438 479.035156 L 691.050781 478.523438 C 684.308594 477.054688 677.921875 474.402344 672.070312 470.644531 L 670.046875 469.347656 L 668.347656 471.046875 L 660.429688 478.972656 C 659.421875 479.984375 658.175781 480.195312 657.3125 480.195312 C 655.742188 480.195312 654.140625 479.5 652.921875 478.28125 L 646.710938 472.070312 C 645.570312 470.929688 644.890625 469.480469 644.804688 467.996094 C 644.722656 466.644531 645.15625 465.425781 646.019531 464.558594 L 653.9375 456.644531 L 655.632812 454.949219 L 654.339844 452.925781 C 650.589844 447.078125 647.941406 440.6875 646.46875 433.929688 L 645.957031 431.585938 L 632.363281 431.585938 C 629.703125 431.585938 627.542969 428.984375 627.542969 425.785156 L 627.542969 417.011719 C 627.542969 413.8125 629.703125 411.210938 632.363281 411.210938 L 645.953125 411.210938 L 646.46875 408.863281 C 647.945312 402.105469 650.59375 395.714844 654.339844 389.871094 L 655.636719 387.851562 L 653.9375 386.152344 L 646.019531 378.238281 C 645.15625 377.375 644.722656 376.152344 644.804688 374.800781 C 644.890625 373.316406 645.570312 371.871094 646.714844 370.730469 L 652.921875 364.519531 C 654.140625 363.300781 655.742188 362.601562 657.316406 362.601562 C 658.179688 362.601562 659.421875 362.8125 660.429688 363.820312 L 668.347656 371.75 L 670.046875 373.449219 L 672.070312 372.152344 C 677.925781 368.394531 684.3125 365.742188 691.050781 364.273438 L 693.398438 363.761719 L 693.398438 350.175781 C 693.398438 347.515625 696.003906 345.347656 699.203125 345.347656 L 707.976562 345.347656 C 711.179688 345.347656 713.78125 347.515625 713.78125 350.175781 L 713.78125 363.761719 L 716.128906 364.273438 C 722.875 365.742188 729.265625 368.394531 735.121094 372.152344 L 736.921875 373.304688 L 737.648438 372.582031 C 737.035156 371.480469 736.488281 370.34375 735.992188 369.191406 C 730.160156 365.5625 723.6875 362.871094 716.765625 361.359375 L 716.765625 350.175781 C 716.765625 345.859375 712.832031 342.367188 707.976562 342.367188 L 699.203125 342.367188 C 694.355469 342.367188 690.417969 345.859375 690.417969 350.175781 L 690.417969 361.359375 C 683.207031 362.933594 676.480469 365.777344 670.457031 369.640625 L 662.539062 361.714844 C 661.132812 360.308594 659.261719 359.621094 657.316406 359.617188 C 655.039062 359.617188 652.664062 360.5625 650.8125 362.410156 L 644.605469 368.621094 C 641.171875 372.050781 640.859375 377.296875 643.914062 380.347656 L 651.828125 388.261719 C 647.96875 394.28125 645.128906 401.015625 643.554688 408.226562 L 632.363281 408.226562 C 628.054688 408.226562 624.558594 412.15625 624.558594 417.011719 L 624.558594 425.785156 C 624.558594 430.636719 628.054688 434.566406 632.363281 434.566406 L 643.554688 434.566406 C 645.128906 441.785156 647.96875 448.511719 651.828125 454.535156 L 643.914062 462.453125 C 640.859375 465.503906 641.171875 470.75 644.605469 474.179688 L 650.8125 480.390625 C 652.664062 482.234375 655.039062 483.179688 657.3125 483.179688 C 659.261719 483.179688 661.132812 482.488281 662.539062 481.082031 L 670.457031 473.15625 C 676.480469 477.019531 683.207031 479.867188 690.417969 481.4375 L 690.417969 492.621094 C 690.417969 496.933594 694.355469 500.433594 699.203125 500.433594 L 707.976562 500.433594 C 712.832031 500.433594 716.765625 496.933594 716.765625 492.621094 L 716.765625 481.4375 C 723.980469 479.867188 730.710938 477.019531 736.730469 473.15625 L 744.179688 480.617188 C 743.789062 479.246094 743.808594 477.804688 744.296875 476.511719 Z M 738.839844 471.046875 " fill-opacity="1" fill-rule="nonzero"/></g><path fill="#07244b" d="M 782.625 425.785156 L 782.625 417.011719 C 782.625 412.15625 779.128906 408.226562 774.816406 408.226562 L 763.632812 408.226562 C 762.121094 401.304688 759.429688 394.832031 755.804688 389 C 754.648438 388.503906 753.511719 387.957031 752.40625 387.34375 L 751.6875 388.066406 L 752.84375 389.871094 C 756.597656 395.730469 759.25 402.117188 760.71875 408.863281 L 761.230469 411.210938 L 774.816406 411.210938 C 777.476562 411.210938 779.644531 413.8125 779.644531 417.011719 L 779.644531 422.691406 C 781.292969 423.855469 782.378906 425.691406 782.378906 427.769531 L 782.378906 427.945312 C 782.535156 427.253906 782.625 426.53125 782.625 425.785156 Z M 782.625 425.785156 " fill-opacity="1" fill-rule="nonzero"/><path fill="#07244b" d="M 804.589844 452.964844 L 799.734375 452.964844 C 799.050781 449.832031 797.816406 446.914062 796.144531 444.300781 L 799.578125 440.867188 C 800.902344 439.542969 800.765625 437.265625 799.28125 435.777344 L 796.589844 433.082031 C 795.785156 432.277344 794.753906 431.867188 793.765625 431.867188 C 792.917969 431.867188 792.105469 432.167969 791.496094 432.78125 L 788.058594 436.214844 C 785.445312 434.542969 782.527344 433.308594 779.398438 432.625 L 779.398438 427.769531 C 779.398438 425.894531 777.691406 424.382812 775.582031 424.382812 L 771.777344 424.382812 C 769.667969 424.382812 767.960938 425.894531 767.960938 427.769531 L 767.960938 432.625 C 764.832031 433.308594 761.914062 434.542969 759.300781 436.214844 L 755.867188 432.78125 C 755.253906 432.167969 754.441406 431.867188 753.597656 431.867188 C 752.609375 431.867188 751.578125 432.277344 750.773438 433.082031 L 748.082031 435.777344 C 746.589844 437.265625 746.457031 439.542969 747.777344 440.867188 L 751.21875 444.300781 C 749.542969 446.914062 748.308594 449.832031 747.625 452.964844 L 742.769531 452.964844 C 740.894531 452.964844 739.382812 454.667969 739.382812 456.777344 L 739.382812 460.582031 C 739.382812 462.6875 740.894531 464.394531 742.769531 464.394531 L 747.625 464.394531 C 748.308594 467.527344 749.542969 470.445312 751.21875 473.058594 L 747.777344 476.496094 C 746.457031 477.816406 746.589844 480.09375 748.082031 481.585938 L 750.773438 484.28125 C 751.578125 485.082031 752.609375 485.492188 753.59375 485.492188 C 754.441406 485.492188 755.253906 485.191406 755.867188 484.582031 L 759.300781 481.140625 C 761.914062 482.816406 764.832031 484.050781 767.960938 484.734375 L 767.960938 489.589844 C 767.960938 491.457031 769.667969 492.976562 771.777344 492.976562 L 775.582031 492.976562 C 777.691406 492.976562 779.398438 491.457031 779.398438 489.589844 L 779.398438 484.734375 C 782.527344 484.050781 785.445312 482.816406 788.058594 481.140625 L 791.496094 484.582031 C 792.105469 485.1875 792.917969 485.492188 793.765625 485.492188 C 794.753906 485.492188 795.785156 485.082031 796.589844 484.28125 L 799.28125 481.585938 C 800.765625 480.09375 800.902344 477.816406 799.578125 476.496094 L 796.144531 473.058594 C 797.816406 470.445312 799.050781 467.527344 799.734375 464.394531 L 804.589844 464.394531 C 806.460938 464.394531 807.976562 462.6875 807.976562 460.582031 L 807.976562 456.777344 C 807.976562 454.667969 806.460938 452.964844 804.589844 452.964844 Z M 806.484375 460.582031 C 806.484375 461.863281 805.632812 462.90625 804.589844 462.90625 L 798.535156 462.90625 L 798.277344 464.078125 C 797.644531 466.980469 796.503906 469.730469 794.886719 472.253906 L 794.242188 473.265625 L 798.523438 477.546875 C 799.261719 478.289062 799.128906 479.625 798.226562 480.53125 L 795.535156 483.222656 C 795.042969 483.714844 794.394531 484 793.765625 484 C 793.429688 484 792.941406 483.917969 792.550781 483.527344 L 789.117188 480.085938 L 788.265625 479.238281 L 787.253906 479.886719 C 784.738281 481.5 781.984375 482.640625 779.078125 483.277344 L 777.90625 483.535156 L 777.90625 489.589844 C 777.90625 490.636719 776.863281 491.488281 775.582031 491.488281 L 771.777344 491.488281 C 770.496094 491.488281 769.453125 490.636719 769.453125 489.589844 L 769.453125 483.535156 L 768.28125 483.277344 C 765.371094 482.640625 762.621094 481.5 760.105469 479.886719 L 759.09375 479.238281 L 758.246094 480.089844 L 754.8125 483.523438 C 754.421875 483.917969 753.933594 484 753.59375 484 C 752.964844 484 752.320312 483.714844 751.828125 483.226562 L 749.136719 480.53125 C 748.230469 479.625 748.09375 478.289062 748.832031 477.550781 L 752.269531 474.113281 L 753.121094 473.265625 L 752.472656 472.253906 C 750.855469 469.726562 749.714844 466.976562 749.082031 464.078125 L 748.828125 462.90625 L 742.769531 462.90625 C 741.722656 462.90625 740.871094 461.863281 740.871094 460.582031 L 740.871094 456.777344 C 740.871094 455.496094 741.722656 454.457031 742.769531 454.457031 L 748.828125 454.457031 L 749.082031 453.28125 C 749.714844 450.378906 750.855469 447.628906 752.472656 445.105469 L 753.121094 444.09375 L 752.269531 443.246094 L 748.832031 439.8125 C 748.496094 439.476562 748.332031 439 748.363281 438.46875 C 748.398438 437.875 748.671875 437.292969 749.136719 436.828125 L 751.824219 434.136719 C 752.320312 433.640625 752.964844 433.359375 753.597656 433.359375 C 753.933594 433.359375 754.417969 433.441406 754.8125 433.835938 L 759.09375 438.117188 L 760.105469 437.46875 C 762.628906 435.855469 765.378906 434.714844 768.28125 434.082031 L 769.453125 433.828125 L 769.453125 427.769531 C 769.453125 426.722656 770.496094 425.875 771.777344 425.875 L 775.582031 425.875 C 776.863281 425.875 777.90625 426.722656 777.90625 427.769531 L 777.90625 433.828125 L 779.078125 434.082031 C 781.980469 434.714844 784.730469 435.855469 787.257812 437.46875 L 788.265625 438.117188 L 789.113281 437.269531 L 792.550781 433.835938 C 792.941406 433.441406 793.429688 433.359375 793.765625 433.359375 C 794.394531 433.359375 795.039062 433.640625 795.535156 434.132812 L 798.226562 436.828125 C 799.128906 437.734375 799.261719 439.070312 798.523438 439.8125 L 795.089844 443.246094 L 794.242188 444.097656 L 794.890625 445.105469 C 796.503906 447.625 797.640625 450.375 798.277344 453.28125 L 798.535156 454.457031 L 804.589844 454.457031 C 805.632812 454.457031 806.484375 455.496094 806.484375 456.777344 Z M 806.484375 460.582031 " fill-opacity="1" fill-rule="nonzero"/><path fill="#07244b" d="M 773.679688 443.769531 C 765.441406 443.769531 758.765625 450.441406 758.765625 458.679688 C 758.765625 466.914062 765.441406 473.59375 773.679688 473.59375 C 781.914062 473.59375 788.589844 466.914062 788.589844 458.679688 C 788.589844 450.441406 781.914062 443.769531 773.679688 443.769531 Z M 773.679688 472.101562 C 766.277344 472.101562 760.257812 466.082031 760.257812 458.679688 C 760.257812 451.277344 766.277344 445.257812 773.679688 445.257812 C 781.082031 445.257812 787.101562 451.277344 787.101562 458.679688 C 787.101562 466.082031 781.082031 472.101562 773.679688 472.101562 Z M 773.679688 472.101562 " fill-opacity="1" fill-rule="nonzero"/></svg>