<svg xmlns="http://www.w3.org/2000/svg" xmlns:xlink="http://www.w3.org/1999/xlink" zoomAndPan="magnify" preserveAspectRatio="xMidYMid meet" version="1.0" viewBox="585.11 270.59 270 266.42"><defs><clipPath id="39b66487fc"><path d="M 585.085938 270.59375 L 855.085938 270.59375 L 855.085938 538 L 585.085938 538 Z M 585.085938 270.59375 " clip-rule="nonzero"/></clipPath></defs><path fill="#336667" d="M 589.175781 274.65625 L 851.03125 274.65625 L 851.03125 438.019531 L 589.175781 438.019531 Z M 589.175781 274.65625 " fill-opacity="1" fill-rule="evenodd"/><path fill="#013333" d="M 823.070312 274.65625 L 851.03125 274.65625 L 851.03125 438.019531 L 630.804688 438.019531 C 644.5 418.753906 661.683594 398.585938 682.222656 378.234375 C 725.144531 335.675781 775.203125 299.648438 823.070312 274.65625 Z M 823.070312 274.65625 " fill-opacity="1" fill-rule="evenodd"/><path fill="#ffffff" d="M 642.207031 289.851562 L 797.996094 289.851562 C 797.996094 306.757812 812.183594 320.558594 829.582031 320.558594 L 829.582031 392.132812 C 812.179688 392.132812 797.996094 405.929688 797.996094 422.84375 L 642.207031 422.84375 C 642.207031 405.933594 628 392.132812 610.601562 392.132812 L 610.601562 320.558594 C 628 320.558594 642.207031 306.757812 642.207031 289.851562 Z M 642.207031 289.851562 " fill-opacity="1" fill-rule="evenodd"/><path fill="#e6e6e6" d="M 795.988281 289.851562 L 798.003906 289.851562 C 798.003906 306.757812 812.191406 320.558594 829.589844 320.558594 L 829.589844 392.132812 C 812.183594 392.132812 798.003906 405.929688 798.003906 422.84375 L 642.207031 422.84375 L 642.207031 422.828125 C 653.667969 408.253906 667.03125 393.300781 682.222656 378.238281 C 717.109375 343.644531 756.695312 313.398438 795.988281 289.851562 Z M 795.988281 289.851562 " fill-opacity="1" fill-rule="evenodd"/><path fill="#fcb13b" d="M 749.175781 399.347656 L 753.761719 407.417969 C 755.59375 410.644531 758.464844 412.703125 762.125 413.410156 L 771.246094 415.152344 C 777.566406 416.371094 781.855469 422.199219 781.128906 428.570312 L 780.085938 437.789062 C 779.671875 441.476562 780.777344 444.816406 783.320312 447.535156 L 789.671875 454.304688 C 794.074219 458.996094 794.109375 466.222656 789.769531 470.96875 L 783.503906 477.796875 C 780.992188 480.546875 779.921875 483.910156 780.382812 487.597656 L 781.523438 496.804688 C 782.332031 503.175781 778.109375 509.054688 771.804688 510.339844 L 762.699219 512.195312 C 759.054688 512.941406 756.199219 515.03125 754.402344 518.273438 L 749.914062 526.386719 C 746.8125 532.015625 739.933594 534.292969 734.082031 531.636719 L 725.621094 527.789062 C 722.222656 526.253906 718.691406 526.269531 715.328125 527.851562 L 706.914062 531.785156 C 701.089844 534.519531 694.179688 532.3125 691.007812 526.730469 L 686.425781 518.660156 C 684.589844 515.433594 681.722656 513.375 678.0625 512.667969 L 668.9375 510.925781 C 662.617188 509.707031 658.332031 503.878906 659.058594 497.507812 L 660.097656 488.289062 C 660.53125 484.601562 659.40625 481.261719 656.863281 478.542969 L 650.515625 471.773438 C 646.128906 467.082031 646.074219 459.855469 650.417969 455.109375 L 656.683594 448.28125 C 659.207031 445.53125 660.28125 442.167969 659.820312 438.480469 L 658.667969 429.273438 C 657.875 422.902344 662.101562 417.023438 668.398438 415.738281 L 677.503906 413.898438 C 681.144531 413.144531 683.984375 411.0625 685.785156 407.804688 L 690.289062 399.691406 C 693.390625 394.0625 700.265625 391.785156 706.121094 394.457031 L 714.566406 398.289062 C 717.964844 399.824219 721.496094 399.808594 724.859375 398.226562 L 733.273438 394.292969 C 739.113281 391.574219 746.011719 393.765625 749.175781 399.347656 Z M 749.175781 399.347656 " fill-opacity="1" fill-rule="evenodd"/><path fill="#ffcd05" d="M 749.175781 399.347656 L 753.761719 407.417969 C 755.59375 410.644531 758.464844 412.703125 762.125 413.410156 L 771.246094 415.152344 C 777.566406 416.371094 781.855469 422.199219 781.128906 428.570312 L 780.085938 437.789062 C 779.671875 441.476562 780.777344 444.816406 783.320312 447.535156 L 789.671875 454.304688 C 794.074219 458.996094 794.109375 466.222656 789.769531 470.96875 L 783.503906 477.796875 C 780.992188 480.546875 779.921875 483.910156 780.382812 487.597656 L 781.523438 496.804688 C 782.332031 503.175781 778.109375 509.054688 771.804688 510.339844 L 762.699219 512.195312 C 759.054688 512.941406 756.199219 515.03125 754.402344 518.273438 L 749.914062 526.386719 C 748.332031 529.25 745.777344 531.242188 742.875 532.167969 C 699.628906 499.167969 672.0625 448.128906 678.035156 413.765625 C 681.414062 412.941406 684.085938 410.902344 685.785156 407.804688 L 690.289062 399.691406 C 693.390625 394.0625 700.265625 391.785156 706.121094 394.457031 L 714.566406 398.289062 C 717.964844 399.824219 721.496094 399.808594 724.859375 398.226562 L 733.273438 394.292969 C 739.113281 391.574219 746.011719 393.765625 749.175781 399.347656 Z M 749.175781 399.347656 " fill-opacity="1" fill-rule="evenodd"/><path fill="#e6e6e6" d="M 720.09375 421.738281 C 742.957031 421.738281 761.476562 440.230469 761.476562 463.050781 C 761.476562 485.855469 742.957031 504.359375 720.09375 504.359375 C 697.246094 504.359375 678.707031 485.855469 678.707031 463.050781 C 678.707031 440.230469 697.246094 421.738281 720.09375 421.738281 Z M 720.09375 421.738281 " fill-opacity="1" fill-rule="evenodd"/><path fill="#ffffff" d="M 720.09375 421.738281 C 742.957031 421.738281 761.476562 440.230469 761.476562 463.050781 C 761.476562 469.125 760.15625 474.886719 757.800781 480.09375 C 750.460938 486.726562 740.726562 490.761719 730.039062 490.761719 C 707.191406 490.761719 688.671875 472.273438 688.671875 449.453125 C 688.671875 443.378906 689.972656 437.597656 692.347656 432.410156 C 699.691406 425.769531 709.421875 421.738281 720.09375 421.738281 Z M 720.09375 421.738281 " fill-opacity="1" fill-rule="evenodd"/><g clip-path="url(#39b66487fc)"><path fill="#000000" d="M 678.5625 313.5625 C 676.304688 313.5625 674.488281 311.75 674.488281 309.496094 C 674.488281 307.257812 676.304688 305.429688 678.5625 305.429688 L 761.644531 305.429688 C 763.902344 305.429688 765.71875 307.257812 765.71875 309.496094 C 765.71875 311.75 763.902344 313.5625 761.644531 313.5625 Z M 623.683594 337.289062 C 623.683594 335.035156 625.515625 333.222656 627.757812 333.222656 C 629.996094 333.222656 631.832031 335.035156 631.832031 337.289062 L 631.832031 364.734375 L 647.746094 364.734375 C 649.984375 364.734375 651.820312 366.5625 651.820312 368.800781 C 651.820312 371.054688 649.984375 372.867188 647.746094 372.867188 L 627.75 372.867188 C 625.503906 372.867188 623.679688 371.054688 623.679688 368.800781 L 623.679688 337.289062 Z M 798.164062 350.03125 L 784.574219 337.339844 C 782.9375 335.824219 782.855469 333.257812 784.390625 331.625 C 785.929688 329.992188 788.484375 329.910156 790.117188 331.429688 L 802.238281 342.753906 L 814.347656 331.429688 C 815.984375 329.910156 818.554688 329.992188 820.085938 331.625 C 821.605469 333.257812 821.523438 335.824219 819.886719 337.339844 L 806.3125 350.03125 L 806.3125 369.9375 C 806.3125 372.175781 804.480469 374.003906 802.238281 374.003906 C 799.980469 374.003906 798.164062 372.175781 798.164062 369.9375 Z M 779.933594 331.246094 C 781.996094 332.121094 782.984375 334.507812 782.109375 336.582031 C 781.238281 338.636719 778.847656 339.613281 776.78125 338.753906 C 767.164062 334.722656 756.558594 341.785156 756.558594 352.152344 C 756.558594 362.542969 767.167969 369.609375 776.78125 365.570312 C 778.839844 364.699219 781.234375 365.667969 782.109375 367.742188 C 782.984375 369.816406 781.996094 372.1875 779.933594 373.0625 C 764.992188 379.335938 748.414062 368.273438 748.414062 352.152344 C 748.414062 336.050781 764.992188 324.988281 779.933594 331.246094 Z M 720.605469 370.117188 C 719.714844 372.175781 717.324219 373.117188 715.261719 372.226562 C 713.214844 371.320312 712.277344 368.933594 713.167969 366.894531 L 727.4375 334.191406 C 728.875 330.898438 733.503906 331.03125 734.871094 334.191406 L 742.902344 352.582031 C 743.152344 352.976562 743.351562 353.425781 743.460938 353.882812 L 749.136719 366.890625 C 750.027344 368.933594 749.089844 371.320312 747.023438 372.222656 C 744.972656 373.109375 742.582031 372.175781 741.679688 370.113281 L 736.78125 358.902344 L 725.5 358.902344 Z M 731.144531 345.96875 L 729.046875 350.777344 L 733.238281 350.777344 Z M 707.027344 331.015625 C 709.269531 331.015625 711.101562 332.84375 711.101562 335.082031 C 711.101562 337.335938 709.269531 339.148438 707.027344 339.148438 C 701.785156 339.148438 696.617188 339.542969 693.058594 341.5 C 689.992188 343.179688 687.960938 346.375 687.960938 352.234375 C 687.960938 361.964844 693.273438 364.484375 701.851562 365.160156 C 702.496094 365.203125 702.957031 364.78125 702.957031 364.136719 L 702.957031 357.1875 L 695.628906 357.1875 C 693.371094 357.1875 691.554688 355.375 691.554688 353.140625 C 691.554688 350.886719 693.371094 349.074219 695.628906 349.074219 L 707.027344 349.074219 C 709.269531 349.074219 711.101562 350.886719 711.101562 353.140625 L 711.101562 364.140625 C 711.101562 369.492188 706.515625 373.691406 701.203125 373.261719 C 688.769531 372.273438 679.808594 366.65625 679.808594 352.234375 C 679.808594 342.832031 683.539062 337.464844 689.140625 334.382812 C 694.246094 331.574219 700.664062 331.015625 707.027344 331.015625 Z M 674.933594 364.734375 C 677.171875 364.734375 679.003906 366.5625 679.003906 368.800781 C 679.003906 371.054688 677.171875 372.867188 674.933594 372.867188 L 656.789062 372.867188 C 654.546875 372.867188 652.714844 371.054688 652.714844 368.800781 L 652.714844 337.289062 C 652.714844 334.949219 654.578125 333.125 657.15625 333.242188 L 674.867188 333.242188 C 677.109375 333.242188 678.921875 335.050781 678.921875 337.289062 C 678.921875 339.523438 677.109375 341.335938 674.867188 341.335938 L 660.863281 341.335938 L 660.863281 348.617188 L 674.898438 348.617188 C 677.15625 348.617188 678.96875 350.429688 678.96875 352.683594 C 678.96875 354.917969 677.15625 356.746094 674.898438 356.746094 L 660.863281 356.746094 L 660.863281 364.734375 Z M 720.09375 417.675781 C 745.195312 417.675781 765.550781 437.992188 765.550781 463.050781 C 765.550781 488.109375 745.195312 508.410156 720.09375 508.410156 C 694.988281 508.410156 674.652344 488.109375 674.652344 463.050781 C 674.652344 437.992188 694.988281 417.675781 720.09375 417.675781 Z M 746.488281 436.703125 C 731.921875 422.164062 708.285156 422.164062 693.722656 436.703125 C 679.15625 451.242188 679.15625 474.835938 693.722656 489.375 C 708.285156 503.914062 731.921875 503.914062 746.488281 489.375 C 761.050781 474.84375 761.050781 451.242188 746.488281 436.703125 Z M 752.71875 397.339844 L 757.289062 405.40625 C 758.539062 407.632812 760.390625 408.945312 762.898438 409.425781 L 772.019531 411.167969 C 776.707031 412.074219 780.597656 414.902344 782.941406 418.777344 L 794.175781 418.777344 C 796.105469 402.660156 809.351562 390.113281 825.515625 388.300781 L 825.515625 324.394531 C 809.351562 322.582031 796.105469 310.019531 794.175781 293.917969 L 646.035156 293.917969 C 644.089844 310.019531 630.859375 322.582031 614.695312 324.394531 L 614.695312 388.292969 C 630.859375 390.105469 644.085938 402.652344 646.035156 418.773438 L 657.21875 418.773438 C 659.546875 415.261719 663.1875 412.679688 667.59375 411.773438 L 676.699219 409.914062 C 679.15625 409.421875 681.023438 408.054688 682.242188 405.847656 L 686.726562 397.726562 C 690.851562 390.25 700.003906 387.207031 707.792969 390.746094 L 716.253906 394.578125 C 718.578125 395.628906 720.835938 395.628906 723.164062 394.542969 L 731.578125 390.613281 C 739.296875 387 748.5 389.925781 752.71875 397.339844 Z M 785.28125 426.910156 C 785.316406 428.667969 784.824219 432.113281 784.625 433.957031 L 846.957031 433.957031 L 846.957031 278.722656 L 593.25 278.722656 L 593.25 433.957031 L 655.152344 433.957031 C 654.875 431.78125 654.410156 429.019531 654.523438 426.910156 L 642.207031 426.910156 C 639.960938 426.910156 638.132812 425.078125 638.132812 422.84375 C 638.132812 407.957031 625.582031 396.207031 610.621094 396.207031 C 608.363281 396.207031 606.546875 394.394531 606.546875 392.140625 L 606.546875 320.558594 C 606.546875 318.304688 608.363281 316.496094 610.621094 316.496094 C 625.582031 316.496094 638.132812 304.738281 638.132812 289.855469 C 638.132812 287.613281 639.964844 285.789062 642.207031 285.789062 L 797.996094 285.789062 C 800.242188 285.789062 802.070312 287.621094 802.070312 289.855469 C 802.070312 304.742188 814.621094 316.496094 829.582031 316.496094 C 831.839844 316.496094 833.65625 318.304688 833.65625 320.558594 L 833.65625 392.132812 C 833.65625 394.386719 831.839844 396.199219 829.582031 396.199219 C 814.621094 396.199219 802.070312 407.957031 802.070312 422.835938 C 802.070312 425.074219 800.238281 426.902344 797.996094 426.902344 L 785.28125 426.902344 Z M 784.589844 442.085938 C 784.949219 443.058594 785.53125 443.964844 786.289062 444.769531 L 792.636719 451.554688 C 798.472656 457.78125 798.542969 467.394531 792.773438 473.703125 L 786.503906 480.535156 C 784.769531 482.429688 784.113281 484.570312 784.425781 487.105469 L 785.578125 496.3125 C 786.632812 504.738281 780.992188 512.59375 772.613281 514.304688 L 763.507812 516.164062 C 761.050781 516.65625 759.183594 518.023438 757.96875 520.230469 L 753.480469 528.34375 C 749.355469 535.820312 740.203125 538.863281 732.417969 535.328125 L 723.957031 531.492188 C 721.628906 530.441406 719.371094 530.441406 717.042969 531.527344 L 708.628906 535.460938 C 700.894531 539.085938 691.707031 536.152344 687.484375 528.738281 L 682.898438 520.671875 C 681.648438 518.445312 679.8125 517.144531 677.304688 516.652344 L 668.183594 514.910156 C 659.785156 513.292969 654.066406 505.539062 655.019531 497.058594 L 656.0625 487.839844 C 656.359375 485.355469 655.613281 483.113281 653.914062 481.308594 L 647.566406 474.539062 C 641.730469 468.300781 641.660156 458.683594 647.429688 452.378906 L 653.699219 445.550781 C 654.640625 444.507812 655.316406 443.34375 655.628906 442.09375 L 589.175781 442.09375 C 586.9375 442.09375 585.105469 440.28125 585.105469 438.027344 L 585.105469 274.65625 C 585.105469 272.417969 586.9375 270.589844 589.175781 270.589844 L 851.03125 270.589844 C 853.277344 270.589844 855.105469 272.417969 855.105469 274.65625 L 855.105469 438.019531 C 855.105469 440.273438 853.269531 442.085938 851.03125 442.085938 Z M 750.230469 409.421875 L 745.644531 401.351562 C 743.515625 397.582031 738.917969 396.128906 735.007812 397.960938 L 726.59375 401.890625 C 722.152344 403.964844 717.359375 404 712.902344 401.972656 L 704.457031 398.140625 C 700.53125 396.363281 695.925781 397.878906 693.847656 401.628906 L 689.363281 409.746094 C 686.988281 414.0625 683.140625 416.871094 678.3125 417.859375 L 669.207031 419.71875 C 664.933594 420.589844 662.175781 424.546875 662.707031 428.773438 L 663.859375 437.980469 C 664.46875 442.808594 662.984375 447.398438 659.6875 451.003906 L 653.417969 457.835938 C 650.515625 461.011719 650.53125 465.851562 653.484375 469 L 659.832031 475.765625 C 663.210938 479.371094 664.695312 483.832031 664.15625 488.722656 L 663.101562 497.941406 C 662.625 502.222656 665.476562 506.109375 669.71875 506.933594 L 678.84375 508.675781 C 683.644531 509.601562 687.554688 512.402344 689.972656 516.664062 L 694.558594 524.730469 C 696.6875 528.484375 701.285156 529.9375 705.195312 528.105469 L 713.609375 524.175781 C 718.050781 522.101562 722.84375 522.066406 727.300781 524.09375 L 735.746094 527.925781 C 739.671875 529.703125 744.277344 528.1875 746.355469 524.4375 L 750.839844 516.320312 C 753.214844 512.003906 757.0625 509.195312 761.890625 508.207031 L 770.996094 506.367188 C 775.203125 505.492188 778.027344 501.609375 777.496094 497.292969 L 776.34375 488.085938 C 775.734375 483.257812 777.21875 478.679688 780.515625 475.082031 L 786.785156 468.230469 C 789.6875 465.070312 789.671875 460.214844 786.71875 457.066406 L 780.371094 450.300781 C 776.972656 446.675781 775.523438 442.25 776.046875 437.34375 L 777.101562 428.125 C 777.578125 423.90625 774.773438 419.957031 770.484375 419.132812 L 761.359375 417.390625 C 756.546875 416.472656 752.65625 413.671875 750.230469 409.421875 Z M 750.230469 409.421875 " fill-opacity="1" fill-rule="nonzero"/></g></svg>