<svg xmlns="http://www.w3.org/2000/svg" xmlns:xlink="http://www.w3.org/1999/xlink" zoomAndPan="magnify" preserveAspectRatio="xMidYMid meet" version="1.0" viewBox="-144 -81 1728 972"><defs><clipPath id="23bee1a2b4"><path d="M 629.625 315.753906 L 810.375 315.753906 L 810.375 494.253906 L 629.625 494.253906 Z M 629.625 315.753906 " clip-rule="nonzero"/></clipPath></defs><rect x="-144" width="1728" fill="#ffffff" y="-80.999999" height="971.999992" fill-opacity="1"/><rect x="-144" width="1728" fill="#ffffff" y="-80.999999" height="971.999992" fill-opacity="1"/><path fill="#07244b" d="M 752.421875 384.085938 C 751.378906 384.085938 750.332031 383.808594 749.382812 383.261719 C 747.476562 382.160156 746.339844 380.191406 746.339844 377.992188 L 746.339844 360.34375 C 746.339844 358.140625 747.476562 356.175781 749.382812 355.074219 C 751.285156 353.972656 753.558594 353.972656 755.460938 355.074219 L 770.75 363.902344 C 772.65625 365 773.789062 366.96875 773.789062 369.167969 C 773.789062 371.371094 772.65625 373.335938 770.75 374.4375 L 755.460938 383.265625 C 754.511719 383.8125 753.46875 384.085938 752.421875 384.085938 Z M 752.421875 360.140625 C 752.394531 360.140625 752.367188 360.152344 752.324219 360.179688 C 752.238281 360.226562 752.230469 360.242188 752.230469 360.347656 L 752.230469 377.996094 C 752.230469 378.097656 752.242188 378.113281 752.324219 378.164062 C 752.414062 378.214844 752.433594 378.214844 752.515625 378.164062 L 767.804688 369.339844 C 767.894531 369.289062 767.902344 369.273438 767.902344 369.167969 C 767.902344 369.066406 767.890625 369.050781 767.804688 369 L 752.515625 360.175781 C 752.476562 360.152344 752.449219 360.140625 752.421875 360.140625 Z M 752.421875 360.140625 " fill-opacity="1" fill-rule="nonzero"/><path fill="#07244b" d="M 775.796875 399.671875 L 744.335938 399.671875 C 734.5 399.671875 726.5 391.667969 726.5 381.839844 L 726.5 356.5 C 726.5 346.664062 734.503906 338.667969 744.335938 338.667969 L 775.796875 338.667969 C 785.628906 338.667969 793.628906 346.667969 793.628906 356.5 L 793.628906 381.839844 C 793.632812 391.667969 785.628906 399.671875 775.796875 399.671875 Z M 744.335938 344.558594 C 737.746094 344.558594 732.390625 349.917969 732.390625 356.5 L 732.390625 381.839844 C 732.390625 388.425781 737.75 393.78125 744.335938 393.78125 L 775.796875 393.78125 C 782.382812 393.78125 787.742188 388.421875 787.742188 381.839844 L 787.742188 356.5 C 787.742188 349.914062 782.382812 344.558594 775.796875 344.558594 Z M 744.335938 344.558594 " fill-opacity="1" fill-rule="nonzero"/><path fill="#07244b" d="M 676.75 456.863281 C 675.125 456.863281 673.804688 455.546875 673.804688 453.917969 L 673.804688 431.734375 C 673.804688 425.820312 678.613281 421.011719 684.527344 421.011719 L 687.902344 421.011719 C 689.527344 421.011719 690.847656 422.332031 690.847656 423.957031 C 690.847656 425.582031 689.527344 426.902344 687.902344 426.902344 L 684.527344 426.902344 C 681.863281 426.902344 679.695312 429.070312 679.695312 431.734375 L 679.695312 453.917969 C 679.695312 455.546875 678.382812 456.863281 676.75 456.863281 Z M 676.75 456.863281 " fill-opacity="1" fill-rule="nonzero"/><path fill="#07244b" d="M 681.574219 441.882812 L 671.929688 441.882812 C 670.304688 441.882812 668.988281 440.566406 668.988281 438.9375 C 668.988281 437.3125 670.304688 435.992188 671.929688 435.992188 L 681.574219 435.992188 C 683.199219 435.992188 684.519531 437.3125 684.519531 438.9375 C 684.519531 440.566406 683.199219 441.882812 681.574219 441.882812 Z M 681.574219 441.882812 " fill-opacity="1" fill-rule="nonzero"/><path fill="#07244b" d="M 695.648438 469.441406 L 664.1875 469.441406 C 654.351562 469.441406 646.351562 461.4375 646.351562 451.609375 L 646.351562 426.269531 C 646.351562 416.433594 654.355469 408.4375 664.1875 408.4375 L 695.648438 408.4375 C 705.480469 408.4375 713.480469 416.4375 713.480469 426.269531 L 713.480469 451.609375 C 713.480469 461.4375 705.480469 469.441406 695.648438 469.441406 Z M 664.1875 414.328125 C 657.597656 414.328125 652.242188 419.6875 652.242188 426.273438 L 652.242188 451.609375 C 652.242188 458.199219 657.601562 463.554688 664.1875 463.554688 L 695.648438 463.554688 C 702.234375 463.554688 707.589844 458.195312 707.589844 451.609375 L 707.589844 426.273438 C 707.589844 419.6875 702.230469 414.328125 695.648438 414.328125 Z M 664.1875 414.328125 " fill-opacity="1" fill-rule="nonzero"/><path fill="#07244b" d="M 746.21875 443.488281 C 745.335938 443.488281 744.464844 443.09375 743.886719 442.34375 C 742.890625 441.058594 743.128906 439.207031 744.410156 438.214844 L 755.042969 429.984375 C 756.171875 429.117188 757.757812 429.171875 758.816406 430.128906 L 763.429688 434.28125 L 772.113281 427.558594 C 773.398438 426.5625 775.25 426.800781 776.246094 428.082031 C 777.242188 429.367188 777.003906 431.21875 775.71875 432.214844 L 765.089844 440.441406 C 763.964844 441.3125 762.375 441.253906 761.316406 440.300781 L 756.703125 436.148438 L 748.019531 442.867188 C 747.480469 443.285156 746.847656 443.488281 746.21875 443.488281 Z M 746.21875 443.488281 " fill-opacity="1" fill-rule="nonzero"/><path fill="#07244b" d="M 739.492188 471.34375 C 738.910156 471.34375 738.335938 471.171875 737.835938 470.832031 C 736.988281 470.257812 736.5 469.28125 736.550781 468.257812 L 737.304688 452.664062 C 733.425781 447.628906 731.382812 441.617188 731.382812 435.210938 C 731.382812 419.394531 744.25 406.53125 760.0625 406.53125 C 775.875 406.53125 788.746094 419.394531 788.746094 435.210938 C 788.746094 451.027344 775.878906 463.894531 760.0625 463.894531 C 759.007812 463.894531 757.960938 463.839844 756.9375 463.730469 L 740.707031 471.082031 C 740.320312 471.257812 739.90625 471.34375 739.492188 471.34375 Z M 760.066406 412.421875 C 747.5 412.421875 737.277344 422.648438 737.277344 435.210938 C 737.277344 440.613281 739.105469 445.660156 742.5625 449.808594 C 743.035156 450.375 743.28125 451.101562 743.242188 451.835938 L 742.667969 463.730469 L 755.261719 458.03125 C 755.769531 457.800781 756.328125 457.71875 756.878906 457.796875 C 757.914062 457.9375 758.984375 458.011719 760.066406 458.011719 C 772.636719 458.011719 782.859375 447.785156 782.859375 435.21875 C 782.859375 422.648438 772.632812 412.421875 760.066406 412.421875 Z M 760.066406 412.421875 " fill-opacity="1" fill-rule="nonzero"/><path fill="#07244b" d="M 695.648438 399.671875 L 664.1875 399.671875 C 654.351562 399.671875 646.351562 391.667969 646.351562 381.839844 L 646.351562 356.5 C 646.351562 346.664062 654.355469 338.667969 664.1875 338.667969 L 695.648438 338.667969 C 705.480469 338.667969 713.480469 346.667969 713.480469 356.5 L 713.480469 381.839844 C 713.480469 391.667969 705.480469 399.671875 695.648438 399.671875 Z M 664.1875 344.558594 C 657.597656 344.558594 652.242188 349.917969 652.242188 356.5 L 652.242188 381.839844 C 652.242188 388.425781 657.601562 393.78125 664.1875 393.78125 L 695.648438 393.78125 C 702.234375 393.78125 707.589844 388.421875 707.589844 381.839844 L 707.589844 356.5 C 707.589844 349.914062 702.230469 344.558594 695.648438 344.558594 Z M 664.1875 344.558594 " fill-opacity="1" fill-rule="nonzero"/><path fill="#07244b" d="M 679.914062 382.863281 C 672.363281 382.863281 666.222656 376.71875 666.222656 369.167969 C 666.222656 361.621094 672.363281 355.476562 679.914062 355.476562 C 687.464844 355.476562 693.605469 361.621094 693.605469 369.167969 C 693.605469 376.71875 687.464844 382.863281 679.914062 382.863281 Z M 679.914062 361.367188 C 675.613281 361.367188 672.113281 364.867188 672.113281 369.167969 C 672.113281 373.472656 675.613281 376.972656 679.914062 376.972656 C 684.214844 376.972656 687.71875 373.472656 687.71875 369.167969 C 687.71875 364.867188 684.214844 361.367188 679.914062 361.367188 Z M 679.914062 361.367188 " fill-opacity="1" fill-rule="nonzero"/><path fill="#07244b" d="M 695.46875 355.585938 L 693.382812 355.585938 C 691.757812 355.585938 690.441406 354.265625 690.441406 352.640625 C 690.441406 351.015625 691.757812 349.695312 693.382812 349.695312 L 695.46875 349.695312 C 697.097656 349.695312 698.414062 351.015625 698.414062 352.640625 C 698.414062 354.265625 697.097656 355.585938 695.46875 355.585938 Z M 695.46875 355.585938 " fill-opacity="1" fill-rule="nonzero"/><g clip-path="url(#23bee1a2b4)"><path fill="#07244b" d="M 807.414062 494.199219 L 632.570312 494.199219 C 630.941406 494.199219 629.625 492.878906 629.625 491.253906 L 629.625 318.753906 C 629.625 317.128906 630.941406 315.8125 632.570312 315.8125 L 807.414062 315.8125 C 809.039062 315.8125 810.359375 317.128906 810.359375 318.753906 L 810.359375 491.25 C 810.359375 492.878906 809.039062 494.199219 807.414062 494.199219 Z M 635.511719 488.308594 L 804.46875 488.308594 L 804.46875 321.699219 L 635.511719 321.699219 Z M 635.511719 488.308594 " fill-opacity="1" fill-rule="nonzero"/></g></svg>