<svg xmlns="http://www.w3.org/2000/svg" xmlns:xlink="http://www.w3.org/1999/xlink" zoomAndPan="magnify" preserveAspectRatio="xMidYMid meet" version="1.0" viewBox="-144 -81 1728 972"><defs><clipPath id="0aabdc2a7c"><path d="M 633.1875 327.816406 L 806.4375 327.816406 L 806.4375 482 L 633.1875 482 Z M 633.1875 327.816406 " clip-rule="nonzero"/></clipPath></defs><rect x="-144" width="1728" fill="#ffffff" y="-80.999999" height="971.999992" fill-opacity="1"/><rect x="-144" width="1728" fill="#ffffff" y="-80.999999" height="971.999992" fill-opacity="1"/><path fill="#07244b" d="M 768.136719 383.40625 C 763.035156 383.269531 758.066406 383.40625 752.964844 383.40625 L 687.855469 383.40625 C 682.058594 383.40625 676.40625 383.40625 670.609375 383.40625 C 662.886719 383.269531 656.402344 389.617188 656.265625 397.339844 C 656.125 403.546875 660.265625 409.203125 666.195312 410.996094 C 668.402344 411.546875 670.75 411.6875 672.957031 411.546875 L 768 411.546875 C 768 411.546875 768.136719 411.546875 768.136719 411.546875 C 775.863281 411.546875 782.207031 405.203125 782.207031 397.476562 C 782.207031 389.753906 775.863281 383.40625 768.136719 383.40625 Z M 778.621094 398.582031 C 778.070312 403.960938 773.515625 408.101562 768.136719 408.238281 C 768.136719 408.238281 768 408.238281 768 408.238281 L 672.128906 408.238281 C 669.371094 408.511719 666.609375 407.824219 664.265625 406.445312 C 659.4375 402.996094 658.195312 396.375 661.644531 391.410156 C 662.472656 390.167969 663.714844 389.0625 664.953125 388.234375 C 667.160156 387.132812 669.78125 386.582031 672.265625 386.855469 L 764.6875 386.855469 C 766.066406 386.855469 767.585938 386.71875 768.964844 386.855469 C 774.894531 387.546875 779.171875 392.789062 778.621094 398.582031 Z M 778.621094 398.582031 " fill-opacity="1" fill-rule="nonzero"/><path fill="#07244b" d="M 765.242188 399.132812 C 766.757812 397.203125 766.894531 394.582031 765.515625 392.375 C 765.378906 392.097656 765.242188 391.960938 765.101562 391.824219 C 764.414062 391.132812 763.585938 390.441406 762.621094 390.167969 C 761.515625 389.753906 760.414062 389.753906 759.308594 390.027344 C 758.207031 390.304688 757.238281 390.996094 756.410156 391.824219 C 755.585938 392.789062 755.171875 393.890625 755.03125 395.269531 C 754.894531 397.617188 756.136719 399.824219 758.207031 400.789062 C 759.308594 401.339844 760.550781 401.476562 761.792969 401.339844 C 761.929688 401.339844 762.207031 401.203125 762.34375 401.203125 L 764.136719 403.824219 L 764.550781 404.375 C 764.828125 404.789062 765.101562 405.066406 765.652344 405.203125 C 766.066406 405.339844 766.621094 405.339844 767.035156 405.066406 C 767.449219 404.789062 767.722656 404.511719 767.859375 404.097656 C 768 403.6875 768 403.132812 767.722656 402.71875 Z M 762.621094 397.0625 C 762.480469 397.203125 762.34375 397.339844 762.621094 397.0625 Z M 761.101562 397.753906 C 760.964844 397.753906 760.964844 397.753906 761.101562 397.753906 C 760.964844 397.753906 760.964844 397.753906 761.101562 397.753906 L 760.273438 397.753906 L 760 397.617188 C 760 397.617188 759.859375 397.476562 759.859375 397.617188 C 759.859375 397.617188 759.722656 397.617188 759.722656 397.476562 L 759.445312 397.339844 C 759.171875 397.0625 759.171875 397.0625 759.03125 396.925781 C 759.03125 396.789062 758.894531 396.789062 758.894531 396.652344 C 758.894531 396.652344 758.757812 396.511719 758.757812 396.511719 C 758.757812 396.375 758.617188 396.238281 758.617188 395.960938 C 758.617188 395.960938 758.617188 395.824219 758.617188 395.824219 C 758.617188 395.683594 758.617188 395.546875 758.617188 395.410156 C 758.617188 395.410156 758.617188 395.269531 758.617188 395.269531 C 758.617188 395.132812 758.617188 394.996094 758.757812 394.855469 C 758.757812 394.71875 758.894531 394.71875 758.894531 394.582031 L 759.03125 394.304688 C 758.757812 394.582031 759.03125 394.304688 759.03125 394.167969 C 759.03125 394.03125 759.171875 394.03125 759.308594 393.890625 L 759.445312 393.753906 C 759.585938 393.617188 759.722656 393.617188 759.859375 393.476562 C 760 393.476562 760 393.476562 760.136719 393.339844 L 760.414062 393.339844 C 760.550781 393.339844 760.6875 393.339844 760.824219 393.339844 L 761.101562 393.339844 L 761.378906 393.476562 C 761.652344 393.476562 761.792969 393.617188 761.929688 393.753906 L 762.066406 393.890625 C 762.207031 394.03125 762.207031 394.03125 762.34375 394.167969 C 762.480469 394.304688 762.480469 394.441406 762.621094 394.582031 C 762.621094 394.71875 762.757812 394.71875 762.757812 394.855469 C 762.757812 394.996094 762.757812 395.410156 762.894531 395.410156 C 762.894531 395.410156 762.894531 395.546875 762.894531 395.546875 C 762.894531 395.546875 762.894531 395.546875 762.894531 395.683594 C 762.894531 395.683594 762.894531 395.824219 762.894531 395.824219 C 762.894531 395.824219 762.894531 395.824219 762.894531 395.960938 L 762.757812 396.238281 L 762.757812 396.375 C 762.621094 396.652344 762.621094 396.652344 762.480469 396.789062 C 762.480469 396.789062 762.34375 396.925781 762.34375 396.925781 L 762.207031 397.0625 C 762.207031 397.0625 762.207031 397.0625 762.066406 397.203125 C 762.066406 397.203125 761.929688 397.203125 761.929688 397.203125 L 761.652344 397.339844 C 761.652344 397.339844 761.652344 397.339844 761.515625 397.339844 C 761.515625 397.339844 761.378906 397.339844 761.378906 397.339844 C 761.515625 397.753906 761.378906 397.753906 761.101562 397.753906 Z M 761.101562 397.753906 " fill-opacity="1" fill-rule="nonzero"/><path fill="#07244b" d="M 687.441406 392.648438 C 687.300781 392.789062 687.027344 393.0625 687.027344 393.339844 C 686.886719 393.617188 686.75 393.890625 686.75 394.304688 L 685.785156 397.339844 L 685.09375 394.582031 C 684.957031 394.03125 684.820312 393.617188 684.679688 393.476562 C 684.542969 393.203125 684.265625 392.789062 683.992188 392.648438 C 683.164062 391.960938 682.058594 391.960938 681.230469 392.648438 C 680.957031 392.925781 680.679688 393.203125 680.542969 393.476562 C 680.40625 393.753906 680.265625 394.03125 680.128906 394.71875 L 679.4375 397.339844 L 678.613281 394.304688 C 678.472656 393.890625 678.335938 393.339844 678.058594 392.925781 C 677.785156 392.375 677.09375 392.097656 676.542969 392.234375 C 675.992188 392.234375 675.578125 392.375 675.164062 392.789062 C 674.75 393.0625 674.609375 393.617188 674.609375 394.03125 C 674.609375 394.441406 674.75 394.996094 674.886719 395.410156 L 676.957031 401.339844 L 677.230469 402.03125 C 677.371094 402.304688 677.507812 402.582031 677.644531 402.859375 C 677.785156 403.132812 678.058594 403.410156 678.335938 403.546875 C 678.613281 403.6875 679.023438 403.824219 679.4375 403.824219 C 680.128906 403.960938 680.957031 403.546875 681.371094 402.996094 C 681.644531 402.445312 681.921875 401.890625 682.058594 401.339844 L 682.75 398.996094 L 683.441406 401.339844 C 683.578125 401.753906 683.714844 402.167969 683.851562 402.445312 C 683.992188 402.859375 684.265625 403.132812 684.542969 403.410156 C 685.371094 403.960938 686.472656 403.960938 687.300781 403.410156 C 687.578125 403.132812 687.855469 402.859375 687.992188 402.582031 C 688.128906 402.304688 688.265625 402.03125 688.40625 401.476562 L 690.476562 395.546875 C 690.613281 395.132812 690.75 394.582031 690.75 394.167969 C 690.75 393.617188 690.476562 393.203125 690.0625 392.789062 C 689.371094 391.960938 688.265625 391.960938 687.441406 392.648438 Z M 687.441406 392.648438 " fill-opacity="1" fill-rule="nonzero"/><path fill="#07244b" d="M 705.234375 392.648438 C 704.957031 392.789062 704.820312 393.0625 704.683594 393.476562 C 704.683594 393.617188 704.546875 394.03125 704.40625 394.441406 L 703.441406 397.476562 L 702.75 394.71875 C 702.613281 394.304688 702.476562 393.890625 702.335938 393.617188 C 702.199219 393.339844 701.925781 392.925781 701.648438 392.789062 C 700.820312 392.234375 699.71875 392.234375 698.890625 392.789062 C 698.613281 393.0625 698.335938 393.339844 698.199219 393.617188 C 698.199219 393.890625 697.921875 394.167969 697.785156 394.855469 L 697.097656 397.476562 L 696.269531 394.441406 C 696.128906 394.03125 695.992188 393.476562 695.714844 393.0625 C 695.441406 392.511719 694.75 392.234375 694.199219 392.375 C 693.648438 392.375 693.234375 392.511719 692.820312 392.925781 C 692.542969 393.0625 692.40625 393.476562 692.40625 393.890625 C 692.40625 394.304688 692.542969 394.855469 692.683594 395.269531 L 694.75 401.203125 L 695.027344 401.890625 C 695.164062 402.167969 695.300781 402.445312 695.441406 402.71875 C 695.855469 403.410156 696.542969 403.6875 697.234375 403.6875 C 697.921875 403.6875 698.613281 403.410156 699.027344 402.859375 C 699.304688 402.304688 699.578125 401.753906 699.71875 401.203125 L 700.40625 398.859375 L 701.097656 401.203125 C 701.234375 401.617188 701.371094 402.03125 701.511719 402.304688 C 701.648438 402.71875 701.925781 402.996094 702.199219 403.273438 C 703.027344 403.824219 704.132812 403.824219 704.957031 403.273438 C 705.234375 402.996094 705.511719 402.71875 705.648438 402.445312 C 705.785156 402.167969 705.925781 401.890625 706.0625 401.339844 L 708.132812 395.410156 C 708.269531 394.996094 708.40625 394.441406 708.40625 394.03125 C 708.40625 393.617188 708.269531 393.203125 707.855469 392.789062 C 707.027344 392.097656 706.0625 392.097656 705.234375 392.648438 Z M 705.234375 392.648438 " fill-opacity="1" fill-rule="nonzero"/><path fill="#07244b" d="M 725.511719 392.789062 C 724.824219 392.097656 723.582031 392.097656 722.890625 392.789062 C 722.753906 392.925781 722.476562 393.203125 722.476562 393.476562 C 722.476562 393.617188 722.339844 394.03125 722.203125 394.441406 L 721.234375 397.476562 L 720.410156 394.71875 C 720.269531 394.304688 720.132812 393.890625 719.996094 393.617188 C 719.855469 393.339844 719.582031 392.925781 719.304688 392.789062 C 718.476562 392.234375 717.375 392.234375 716.546875 392.789062 C 716.269531 393.0625 715.996094 393.339844 715.855469 393.617188 C 715.71875 393.890625 715.71875 394.167969 715.441406 394.855469 L 714.613281 397.476562 L 713.789062 394.441406 C 713.648438 394.03125 713.511719 393.476562 713.234375 393.0625 C 712.960938 392.511719 712.269531 392.234375 711.71875 392.375 C 711.167969 392.375 710.753906 392.511719 710.339844 392.925781 C 709.925781 393.203125 709.785156 393.753906 709.785156 394.167969 C 709.785156 394.582031 709.925781 395.132812 710.0625 395.546875 L 712.132812 401.476562 L 712.40625 402.167969 C 712.546875 402.445312 712.683594 402.71875 712.820312 402.996094 C 713.234375 403.6875 713.925781 403.960938 714.613281 403.960938 C 715.304688 403.960938 715.996094 403.6875 716.40625 403.132812 C 716.683594 402.582031 716.960938 402.03125 717.097656 401.476562 L 717.789062 399.132812 L 718.476562 401.476562 C 718.613281 401.890625 718.753906 402.304688 718.890625 402.582031 C 719.027344 402.996094 719.304688 403.273438 719.582031 403.546875 C 719.996094 403.824219 720.410156 404.097656 720.960938 403.960938 C 721.511719 403.960938 721.925781 403.824219 722.339844 403.546875 C 722.617188 403.273438 722.890625 402.996094 723.03125 402.71875 C 723.167969 402.445312 723.304688 402.03125 723.441406 401.617188 L 725.511719 395.683594 C 725.648438 395.269531 725.789062 394.71875 725.789062 394.304688 C 726.0625 393.476562 725.925781 393.0625 725.511719 392.789062 Z M 725.511719 392.789062 " fill-opacity="1" fill-rule="nonzero"/><path fill="#07244b" d="M 726.476562 400.238281 C 726.0625 400.652344 725.789062 401.203125 725.925781 401.753906 C 725.925781 402.304688 726.203125 402.996094 726.617188 403.410156 C 727.03125 403.824219 727.582031 403.960938 728.132812 403.960938 C 728.683594 403.960938 729.238281 403.824219 729.652344 403.410156 C 730.066406 402.996094 730.339844 402.445312 730.339844 401.753906 C 730.339844 401.203125 730.066406 400.652344 729.652344 400.238281 C 728.546875 399.410156 727.304688 399.410156 726.476562 400.238281 Z M 726.476562 400.238281 " fill-opacity="1" fill-rule="nonzero"/><g clip-path="url(#0aabdc2a7c)"><path fill="#07244b" d="M 799.3125 328.230469 C 797.65625 327.953125 795.863281 327.816406 794.207031 327.953125 L 645.78125 327.953125 C 643.988281 327.816406 642.332031 327.953125 640.539062 328.367188 C 635.574219 329.746094 633.226562 334.300781 633.226562 339.128906 L 633.226562 440.929688 C 633.226562 445.621094 635.160156 449.898438 639.847656 451.550781 C 641.917969 452.105469 644.125 452.378906 646.332031 452.105469 L 756.550781 452.105469 L 759.171875 474.449219 L 759.722656 479.554688 C 759.859375 481.070312 762.207031 482.175781 762.894531 480.382812 L 770.894531 463 L 789.378906 464.792969 C 789.792969 465.070312 790.207031 464.933594 790.621094 464.792969 C 791.449219 464.519531 791.726562 463.691406 791.585938 462.863281 C 791.585938 462.449219 791.3125 462.035156 790.898438 461.621094 L 777.929688 451.964844 L 794.484375 451.964844 C 796.414062 452.105469 798.484375 451.828125 800.277344 451.277344 C 804.832031 449.484375 806.761719 445.207031 806.761719 440.65625 L 806.761719 338.988281 C 806.761719 334.023438 804.277344 329.472656 799.3125 328.230469 Z M 636.675781 337.886719 C 636.675781 334.4375 639.296875 331.539062 642.746094 331.265625 C 646.609375 330.988281 650.472656 331.265625 654.195312 331.265625 L 784.691406 331.265625 C 788.691406 331.265625 792.691406 331.128906 796.828125 331.265625 C 800.417969 331.265625 803.3125 334.160156 803.449219 337.886719 L 803.449219 350.578125 L 655.851562 350.578125 C 649.503906 350.578125 643.023438 350.300781 636.675781 350.578125 L 636.675781 339.542969 C 636.675781 338.988281 636.675781 338.4375 636.675781 337.886719 Z M 768.414062 460.242188 L 762.480469 473.070312 L 759.03125 443.414062 L 758.894531 442.035156 L 771.449219 451.414062 C 771.449219 451.414062 771.585938 451.550781 771.722656 451.550781 L 784 460.65625 L 769.792969 459.277344 C 769.242188 459.414062 768.6875 459.691406 768.414062 460.242188 Z M 803.3125 441.757812 C 803.3125 444.65625 801.382812 447.277344 798.621094 448.242188 C 796.96875 448.515625 795.3125 448.65625 793.65625 448.515625 L 773.242188 448.515625 L 761.652344 439.964844 L 757.515625 436.929688 C 756.6875 436.515625 755.585938 436.792969 755.171875 437.621094 C 755.03125 437.894531 754.894531 438.171875 754.894531 438.449219 L 756 448.65625 L 647.296875 448.65625 C 645.917969 448.65625 644.539062 448.65625 643.296875 448.65625 C 639.710938 448.65625 636.8125 445.757812 636.675781 442.035156 C 636.675781 441.621094 636.675781 441.070312 636.675781 440.65625 L 636.675781 354.027344 L 784.136719 354.027344 C 790.484375 354.027344 796.96875 354.300781 803.3125 354.027344 L 803.3125 439.964844 C 803.3125 440.65625 803.3125 441.207031 803.3125 441.757812 Z M 803.3125 441.757812 " fill-opacity="1" fill-rule="nonzero"/></g><path fill="#07244b" d="M 655.023438 345.472656 C 655.988281 344.371094 656.402344 343.128906 656.402344 341.75 C 656.402344 339.265625 654.886719 337.058594 652.539062 336.230469 C 650.332031 335.402344 647.710938 336.09375 646.195312 337.886719 C 644.125 340.371094 644.402344 343.957031 646.746094 346.164062 C 649.230469 348.230469 652.816406 347.957031 655.023438 345.472656 Z M 652.953125 341.335938 C 652.953125 341.472656 652.953125 341.472656 652.953125 341.472656 C 652.953125 341.472656 652.953125 341.472656 652.953125 341.335938 Z M 648.125 341.472656 C 648.125 341.335938 648.125 341.335938 648.125 341.195312 C 648.125 341.058594 648.265625 340.78125 648.265625 340.644531 C 648.265625 340.507812 648.402344 340.507812 648.402344 340.371094 C 648.402344 340.230469 648.539062 340.230469 648.539062 340.09375 C 648.675781 339.957031 648.816406 339.816406 648.953125 339.679688 L 649.089844 339.679688 C 648.953125 339.816406 649.089844 339.679688 649.230469 339.679688 C 649.367188 339.542969 649.644531 339.542969 649.78125 339.402344 C 649.78125 339.402344 649.367188 339.542969 649.644531 339.402344 L 649.917969 339.265625 L 650.058594 339.265625 C 650.058594 339.265625 650.058594 339.265625 650.195312 339.265625 C 650.195312 339.265625 650.332031 339.265625 650.332031 339.265625 L 650.882812 339.265625 L 651.574219 339.402344 C 651.851562 339.542969 651.851562 339.542969 651.851562 339.542969 L 652.402344 340.09375 L 652.539062 340.371094 C 652.539062 340.507812 652.679688 340.507812 652.679688 340.644531 C 652.679688 340.921875 652.816406 340.921875 652.816406 341.058594 C 652.816406 341.195312 652.679688 341.335938 652.679688 341.472656 C 652.679688 341.609375 652.679688 341.609375 652.679688 341.75 C 652.679688 341.75 652.539062 342.164062 652.539062 342.300781 C 652.539062 342.300781 652.539062 342.4375 652.539062 342.4375 C 652.539062 342.4375 652.539062 342.4375 652.402344 342.578125 C 652.265625 342.714844 652.125 342.988281 652.125 343.128906 C 652.125 343.128906 651.988281 343.265625 651.988281 343.265625 C 651.988281 343.265625 651.851562 343.402344 651.851562 343.402344 C 651.710938 343.402344 651.574219 343.679688 651.4375 343.679688 L 651.296875 343.816406 L 650.746094 343.957031 C 650.746094 343.957031 650.609375 343.957031 650.609375 343.957031 C 650.609375 343.957031 650.472656 343.957031 650.472656 343.957031 C 650.332031 343.957031 650.195312 343.957031 649.917969 343.957031 L 649.644531 343.957031 L 649.367188 343.816406 C 649.089844 343.679688 649.503906 343.816406 649.503906 343.816406 C 649.367188 343.679688 649.230469 343.679688 649.089844 343.542969 L 648.816406 343.402344 C 648.539062 343.128906 648.539062 343.128906 648.402344 342.988281 L 648.265625 342.714844 L 648.265625 342.4375 C 648.125 342.300781 648.265625 342.300781 648.265625 342.578125 C 648.265625 342.4375 648.125 342.164062 648.125 342.023438 L 648.125 341.75 C 648.125 341.75 648.125 341.609375 648.125 341.472656 Z M 648.125 341.472656 " fill-opacity="1" fill-rule="nonzero"/><path fill="#07244b" d="M 648.125 341.472656 C 648.265625 341.058594 648.125 341.335938 648.125 341.472656 Z M 648.125 341.472656 " fill-opacity="1" fill-rule="nonzero"/><path fill="#07244b" d="M 650.609375 344.09375 L 650.746094 344.09375 C 650.746094 343.957031 650.609375 343.957031 650.609375 344.09375 Z M 650.609375 344.09375 " fill-opacity="1" fill-rule="nonzero"/><path fill="#07244b" d="M 662.058594 341.335938 C 662.195312 340.921875 662.058594 341.195312 662.058594 341.335938 Z M 662.058594 341.335938 " fill-opacity="1" fill-rule="nonzero"/><path fill="#07244b" d="M 668.957031 345.472656 C 669.921875 344.371094 670.335938 343.128906 670.335938 341.75 C 670.335938 339.265625 668.679688 337.058594 666.472656 336.230469 C 664.265625 335.402344 661.644531 336.09375 660.128906 337.886719 C 658.058594 340.371094 658.332031 343.957031 660.679688 346.164062 C 663.160156 348.230469 666.886719 347.957031 668.957031 345.472656 Z M 666.886719 341.335938 C 666.886719 341.472656 666.886719 341.472656 666.886719 341.472656 C 666.886719 341.335938 666.886719 341.335938 666.886719 341.335938 Z M 662.058594 341.335938 C 662.058594 341.195312 662.058594 341.195312 662.058594 341.058594 C 662.058594 340.921875 662.195312 340.644531 662.195312 340.507812 L 662.335938 340.230469 L 662.472656 339.957031 C 662.609375 339.679688 662.472656 339.957031 662.472656 339.957031 C 662.609375 339.816406 662.746094 339.679688 662.886719 339.542969 C 662.886719 339.542969 663.023438 339.542969 663.023438 339.542969 C 663.160156 339.402344 663.4375 339.402344 663.574219 339.265625 C 663.574219 339.265625 663.160156 339.402344 663.4375 339.265625 L 663.714844 339.128906 L 663.851562 339.128906 C 663.851562 339.128906 663.851562 339.128906 663.988281 339.128906 C 663.988281 339.128906 664.128906 339.128906 664.128906 339.128906 L 664.816406 339.128906 L 665.507812 339.265625 C 665.78125 339.402344 665.78125 339.402344 665.78125 339.402344 L 665.921875 339.542969 L 666.058594 339.542969 L 666.472656 339.957031 L 666.609375 340.230469 L 666.75 340.507812 C 666.886719 340.78125 666.886719 340.921875 666.886719 341.058594 C 666.886719 341.195312 666.75 341.335938 666.75 341.472656 C 666.75 341.609375 666.75 341.609375 666.75 341.75 C 666.75 341.886719 666.609375 342.164062 666.609375 342.300781 C 666.609375 342.300781 666.609375 342.4375 666.609375 342.4375 C 666.609375 342.4375 666.609375 342.4375 666.472656 342.578125 C 666.335938 342.851562 666.195312 342.988281 666.195312 343.128906 C 666.195312 343.128906 666.058594 343.265625 666.058594 343.265625 L 665.921875 343.402344 C 665.78125 343.402344 665.507812 343.679688 665.507812 343.679688 L 665.367188 343.679688 L 664.816406 343.957031 C 664.816406 343.957031 664.679688 343.957031 664.679688 343.957031 C 664.679688 343.957031 664.542969 343.957031 664.542969 343.957031 C 664.402344 343.957031 664.128906 343.957031 663.988281 343.957031 L 663.714844 343.816406 L 663.4375 343.816406 C 663.160156 343.679688 663.574219 343.816406 663.574219 343.816406 C 663.4375 343.679688 663.300781 343.679688 663.023438 343.542969 C 663.023438 343.542969 662.886719 343.402344 662.746094 343.402344 C 662.746094 343.402344 662.335938 342.988281 662.335938 342.988281 L 662.195312 342.851562 L 662.058594 342.714844 C 662.058594 342.714844 661.921875 342.300781 661.921875 342.164062 C 661.921875 342.023438 661.921875 342.023438 661.921875 341.886719 C 662.058594 341.75 662.058594 341.472656 662.058594 341.335938 Z M 662.058594 341.335938 " fill-opacity="1" fill-rule="nonzero"/><path fill="#07244b" d="M 683.027344 345.472656 C 683.992188 344.371094 684.40625 343.128906 684.40625 341.75 C 684.40625 339.265625 682.886719 337.058594 680.542969 336.230469 C 678.335938 335.402344 675.714844 336.09375 674.195312 337.886719 C 672.128906 340.371094 672.402344 343.957031 674.75 346.164062 C 677.230469 348.230469 680.820312 347.957031 683.027344 345.472656 Z M 680.957031 341.335938 Z M 676.128906 341.335938 L 676.128906 341.058594 C 676.128906 340.921875 676.265625 340.644531 676.265625 340.507812 L 676.40625 340.230469 C 676.40625 340.09375 676.542969 340.09375 676.542969 339.957031 C 676.679688 339.816406 676.816406 339.679688 676.957031 339.542969 L 677.09375 339.402344 C 676.957031 339.542969 677.09375 339.402344 677.230469 339.402344 C 677.371094 339.265625 677.644531 339.265625 677.785156 339.128906 C 677.785156 339.128906 677.371094 339.265625 677.644531 339.128906 L 677.921875 338.988281 L 678.058594 338.988281 C 678.058594 338.988281 678.058594 338.988281 678.199219 338.988281 C 678.199219 338.988281 678.335938 338.988281 678.335938 338.988281 L 678.886719 338.988281 L 679.578125 339.128906 C 679.714844 339.128906 679.851562 339.265625 679.851562 339.265625 L 679.992188 339.679688 L 680.40625 340.09375 L 680.542969 340.371094 L 680.679688 340.644531 C 680.820312 340.921875 680.820312 341.058594 680.820312 341.195312 C 680.820312 341.335938 680.679688 341.472656 680.679688 341.609375 C 680.679688 341.75 680.679688 341.75 680.679688 341.886719 C 680.679688 342.023438 680.542969 342.300781 680.542969 342.4375 C 680.542969 342.4375 680.542969 342.578125 680.542969 342.578125 L 680.265625 343.128906 C 680.265625 343.128906 680.128906 343.265625 680.128906 343.265625 C 680.128906 343.265625 679.992188 343.402344 679.992188 343.402344 C 679.851562 343.402344 679.714844 343.679688 679.578125 343.679688 L 679.300781 343.816406 L 678.75 343.957031 C 678.75 343.957031 678.613281 343.957031 678.613281 343.957031 C 678.613281 343.957031 678.613281 343.957031 678.472656 343.957031 C 678.335938 343.957031 678.199219 343.957031 677.921875 343.957031 L 677.644531 343.816406 L 677.507812 343.816406 C 677.230469 343.679688 677.644531 343.816406 677.644531 343.816406 C 677.507812 343.679688 677.371094 343.679688 677.230469 343.542969 L 676.957031 343.402344 C 676.679688 343.128906 676.679688 343.128906 676.542969 342.988281 L 676.40625 342.714844 L 676.265625 342.578125 L 676.265625 342.4375 C 676.265625 342.300781 676.265625 342.300781 676.265625 342.4375 C 676.265625 342.300781 676.128906 342.164062 676.128906 342.023438 C 676.128906 341.886719 676.128906 341.886719 676.128906 341.75 C 676.128906 341.75 676.128906 341.472656 676.128906 341.335938 Z M 676.542969 340.09375 C 676.542969 339.957031 676.542969 339.957031 676.542969 340.09375 Z M 676.542969 340.09375 " fill-opacity="1" fill-rule="nonzero"/><path fill="#07244b" d="M 678.613281 344.09375 C 678.75 344.09375 678.75 344.09375 678.613281 344.09375 L 678.75 344.09375 C 678.75 343.957031 678.613281 343.957031 678.613281 344.09375 Z M 678.613281 344.09375 " fill-opacity="1" fill-rule="nonzero"/></svg>