<svg xmlns="http://www.w3.org/2000/svg" xmlns:xlink="http://www.w3.org/1999/xlink" width="1920" zoomAndPan="magnify" viewBox="0 0 1440 809.999993" height="1080" preserveAspectRatio="xMidYMid meet" version="1.0"><defs><clipPath id="7dc46ece3d"><path d="M 530.804688 243 L 900 243 L 900 567 L 530.804688 567 Z M 530.804688 243 " clip-rule="nonzero"/></clipPath><clipPath id="5efbab79ab"><path d="M 530.804688 409 L 648 409 L 648 473 L 530.804688 473 Z M 530.804688 409 " clip-rule="nonzero"/></clipPath></defs><g clip-path="url(#7dc46ece3d)"><path fill="#d4c2ef" d="M 882.964844 435.195312 C 888.070312 425.496094 890.996094 414.472656 890.996094 402.75 C 890.996094 372.957031 872.28125 347.59375 845.992188 337.597656 C 845.992188 337.566406 845.996094 337.535156 845.996094 337.5 C 845.996094 285.308594 803.6875 243 751.496094 243 C 707.46875 243 670.582031 273.15625 660.085938 313.90625 C 653.445312 311.722656 646.367188 310.5 638.996094 310.5 C 604.382812 310.5 575.894531 336.570312 571.992188 370.132812 C 548.574219 375.089844 530.996094 395.859375 530.996094 420.75 C 530.996094 449.328125 554.167969 472.5 582.746094 472.5 C 583.542969 472.5 584.332031 472.445312 585.113281 472.402344 C 585.09375 473.1875 584.996094 473.957031 584.996094 474.75 C 584.996094 525.699219 626.296875 567 677.246094 567 C 706.210938 567 732.035156 553.625 748.949219 532.738281 C 758.75 542.75 772.375 549 787.496094 549 C 808.421875 549 826.527344 537.074219 835.492188 519.667969 C 840.226562 521.175781 845.261719 522 850.496094 522 C 877.832031 522 899.996094 499.835938 899.996094 472.5 C 899.996094 457.601562 893.382812 444.273438 882.964844 435.195312 Z M 882.964844 435.195312 " fill-opacity="1" fill-rule="nonzero"/></g><path fill="#fdfcef" d="M 816.746094 344.25 L 816.746094 346.5 L 803.246094 346.5 L 803.246094 344.25 C 803.246094 344.25 784.15625 344.25 778.496094 344.25 C 767.3125 344.25 758.246094 335.183594 758.246094 324 C 758.246094 313.5 766.265625 304.96875 776.492188 303.953125 C 776.394531 303.136719 776.246094 302.339844 776.246094 301.5 C 776.246094 290.316406 785.3125 281.25 796.496094 281.25 C 802.96875 281.25 808.660156 284.335938 812.367188 289.0625 C 812.996094 277.199219 822.726562 267.75 834.746094 267.75 C 847.171875 267.75 857.246094 277.824219 857.246094 290.25 C 857.246094 292.257812 856.898438 294.164062 856.40625 296.019531 C 859.292969 292.523438 863.605469 290.25 868.496094 290.25 C 876.511719 290.25 883.050781 296.257812 884.042969 303.996094 C 884.859375 303.898438 885.65625 303.75 886.496094 303.75 C 897.679688 303.75 906.746094 312.816406 906.746094 324 C 906.746094 335.183594 897.679688 344.25 886.496094 344.25 C 875.3125 344.25 843.746094 344.25 843.746094 344.25 Z M 816.746094 344.25 " fill-opacity="1" fill-rule="nonzero"/><path fill="#472b29" d="M 834.746094 265.5 C 848.394531 265.5 859.496094 276.601562 859.496094 290.25 C 859.496094 290.320312 859.496094 290.390625 859.496094 290.460938 C 862.207031 288.863281 865.300781 288 868.496094 288 C 876.734375 288 883.847656 293.675781 885.855469 301.523438 C 886.070312 301.507812 886.28125 301.5 886.496094 301.5 C 898.902344 301.5 908.996094 311.59375 908.996094 324 C 908.996094 336.40625 898.902344 346.5 886.496094 346.5 L 816.746094 346.5 C 815.503906 346.5 814.496094 345.492188 814.496094 344.25 C 814.496094 343.007812 815.503906 342 816.746094 342 L 886.496094 342 C 896.421875 342 904.496094 333.925781 904.496094 324 C 904.496094 314.074219 896.421875 306 886.496094 306 C 885.96875 306 885.460938 306.078125 884.953125 306.144531 L 884.316406 306.230469 C 884.222656 306.242188 884.132812 306.246094 884.039062 306.246094 C 882.933594 306.246094 881.960938 305.414062 881.8125 304.28125 C 880.953125 297.5625 875.226562 292.5 868.496094 292.5 C 864.515625 292.5 860.742188 294.304688 858.140625 297.449219 C 857.699219 297.980469 857.058594 298.269531 856.40625 298.269531 C 856.054688 298.269531 855.703125 298.1875 855.378906 298.015625 C 854.4375 297.535156 853.964844 296.460938 854.234375 295.4375 C 854.753906 293.480469 854.996094 291.835938 854.996094 290.25 C 854.996094 279.085938 845.910156 270 834.746094 270 C 824.03125 270 815.183594 278.425781 814.613281 289.183594 C 814.5625 290.121094 813.9375 290.925781 813.042969 291.207031 C 812.816406 291.28125 812.589844 291.316406 812.359375 291.316406 C 811.683594 291.316406 811.027344 291.007812 810.59375 290.453125 C 807.125 286.035156 801.992188 283.5 796.496094 283.5 C 786.570312 283.5 778.496094 291.574219 778.496094 301.5 C 778.496094 302.027344 778.574219 302.535156 778.640625 303.042969 L 778.726562 303.679688 C 778.796875 304.28125 778.625 304.882812 778.25 305.355469 C 777.871094 305.828125 777.316406 306.128906 776.71875 306.1875 C 767.464844 307.113281 760.496094 314.769531 760.496094 324 C 760.496094 333.925781 768.570312 342 778.496094 342 L 803.246094 342 C 804.488281 342 805.496094 343.007812 805.496094 344.25 C 805.496094 345.492188 804.488281 346.5 803.246094 346.5 L 778.496094 346.5 C 766.089844 346.5 755.996094 336.40625 755.996094 324 C 755.996094 313.214844 763.597656 304.140625 774.007812 302.054688 C 774 301.867188 773.996094 301.683594 773.996094 301.5 C 773.996094 289.09375 784.089844 279 796.496094 279 C 801.789062 279 806.816406 280.871094 810.820312 284.238281 C 813.511719 273.421875 823.25 265.5 834.746094 265.5 Z M 834.746094 265.5 " fill-opacity="1" fill-rule="nonzero"/><path fill="#472b29" d="M 841.496094 297 C 847.808594 297 853.238281 301.496094 854.605469 307.535156 C 856.257812 306.535156 858.140625 306 860.058594 306 C 865.46875 306 869.949219 310.035156 870.648438 315.304688 C 871.5625 315.097656 872.429688 315 873.28125 315 C 880.160156 315 885.929688 320.398438 886.410156 327.292969 C 886.453125 327.914062 885.984375 328.453125 885.367188 328.5 C 885.339844 328.5 885.3125 328.5 885.285156 328.5 C 884.699219 328.5 884.207031 328.046875 884.164062 327.457031 C 883.765625 321.738281 878.984375 317.25 873.28125 317.25 C 872.25 317.25 871.164062 317.4375 869.957031 317.820312 C 869.859375 317.851562 869.757812 317.867188 869.65625 317.867188 C 869.410156 317.867188 869.164062 317.777344 868.957031 317.625 C 868.667969 317.417969 868.496094 317.046875 868.496094 316.6875 C 868.496094 312.035156 864.710938 308.25 860.058594 308.25 C 858.046875 308.25 856.078125 309.007812 854.519531 310.378906 C 854.308594 310.5625 854.042969 310.660156 853.777344 310.660156 C 853.632812 310.660156 853.492188 310.636719 853.359375 310.578125 C 852.960938 310.417969 852.691406 310.050781 852.660156 309.621094 C 852.191406 303.804688 847.292969 299.25 841.496094 299.25 C 840.558594 299.25 839.582031 299.402344 838.425781 299.730469 C 838.324219 299.761719 838.214844 299.777344 838.113281 299.777344 C 837.621094 299.777344 837.179688 299.449219 837.035156 298.957031 C 836.867188 298.359375 837.210938 297.738281 837.8125 297.566406 C 839.167969 297.179688 840.34375 297 841.496094 297 Z M 841.496094 297 " fill-opacity="1" fill-rule="nonzero"/><path fill="#472b29" d="M 779.023438 303.75 C 784.988281 303.75 790.308594 307.785156 791.957031 313.570312 C 792.125 314.167969 791.78125 314.789062 791.183594 314.960938 C 791.074219 314.988281 790.96875 315 790.871094 315 C 790.378906 315 789.929688 314.675781 789.792969 314.179688 C 788.417969 309.367188 783.992188 306 779.023438 306 C 778.496094 306 777.988281 306.0625 777.484375 306.128906 C 777.429688 306.140625 777.378906 306.144531 777.328125 306.144531 C 776.78125 306.144531 776.296875 305.730469 776.21875 305.167969 C 776.132812 304.550781 776.566406 303.984375 777.183594 303.902344 C 777.785156 303.820312 778.398438 303.75 779.023438 303.75 Z M 779.023438 303.75 " fill-opacity="1" fill-rule="nonzero"/><path fill="#ffffff" d="M 632.246094 544.5 L 587.246094 544.5 C 586.003906 544.5 584.996094 543.492188 584.996094 542.25 C 584.996094 541.007812 586.003906 540 587.246094 540 L 632.246094 540 C 633.488281 540 634.496094 541.007812 634.496094 542.25 C 634.496094 543.492188 633.492188 544.5 632.246094 544.5 Z M 632.246094 544.5 " fill-opacity="1" fill-rule="nonzero"/><path fill="#ffffff" d="M 645.746094 544.5 L 641.246094 544.5 C 640.003906 544.5 638.996094 543.492188 638.996094 542.25 C 638.996094 541.007812 640.003906 540 641.246094 540 L 645.746094 540 C 646.988281 540 647.996094 541.007812 647.996094 542.25 C 647.996094 543.492188 646.992188 544.5 645.746094 544.5 Z M 645.746094 544.5 " fill-opacity="1" fill-rule="nonzero"/><path fill="#ffffff" d="M 668.207031 553.5 L 627.746094 553.5 C 626.503906 553.5 625.496094 552.492188 625.496094 551.25 C 625.496094 550.007812 626.503906 549 627.746094 549 L 668.207031 549 C 669.449219 549 670.457031 550.007812 670.457031 551.25 C 670.457031 552.492188 669.449219 553.5 668.207031 553.5 Z M 668.207031 553.5 " fill-opacity="1" fill-rule="nonzero"/><path fill="#ffffff" d="M 618.746094 553.5 L 614.246094 553.5 C 613.003906 553.5 611.996094 552.492188 611.996094 551.25 C 611.996094 550.007812 613.003906 549 614.246094 549 L 618.746094 549 C 619.988281 549 620.996094 550.007812 620.996094 551.25 C 620.996094 552.492188 619.992188 553.5 618.746094 553.5 Z M 618.746094 553.5 " fill-opacity="1" fill-rule="nonzero"/><path fill="#ffffff" d="M 605.246094 553.5 L 596.246094 553.5 C 595.003906 553.5 593.996094 552.492188 593.996094 551.25 C 593.996094 550.007812 595.003906 549 596.246094 549 L 605.246094 549 C 606.488281 549 607.496094 550.007812 607.496094 551.25 C 607.496094 552.492188 606.492188 553.5 605.246094 553.5 Z M 605.246094 553.5 " fill-opacity="1" fill-rule="nonzero"/><path fill="#ffffff" d="M 632.246094 562.5 L 623.246094 562.5 C 622.003906 562.5 620.996094 561.492188 620.996094 560.25 C 620.996094 559.007812 622.003906 558 623.246094 558 L 632.246094 558 C 633.488281 558 634.496094 559.007812 634.496094 560.25 C 634.496094 561.492188 633.488281 562.5 632.246094 562.5 Z M 632.246094 562.5 " fill-opacity="1" fill-rule="nonzero"/><path fill="#ffffff" d="M 645.746094 522 C 644.949219 522 642.042969 522 641.246094 522 C 640.003906 522 638.996094 523.007812 638.996094 524.25 C 638.996094 525.492188 640.003906 526.5 641.246094 526.5 C 642.042969 526.5 644.949219 526.5 645.746094 526.5 C 646.988281 526.5 647.996094 525.492188 647.996094 524.25 C 647.996094 523.007812 646.988281 522 645.746094 522 Z M 645.746094 522 " fill-opacity="1" fill-rule="nonzero"/><path fill="#ffffff" d="M 645.746094 531 C 644.949219 531 624.042969 531 623.246094 531 C 622.003906 531 620.996094 532.007812 620.996094 533.25 C 620.996094 534.492188 622.003906 535.5 623.246094 535.5 C 624.042969 535.5 644.949219 535.5 645.746094 535.5 C 646.988281 535.5 647.996094 534.492188 647.996094 533.25 C 647.996094 532.007812 646.988281 531 645.746094 531 Z M 645.746094 531 " fill-opacity="1" fill-rule="nonzero"/><path fill="#ffffff" d="M 668.246094 540 C 667.449219 540 655.542969 540 654.746094 540 C 653.503906 540 652.496094 541.007812 652.496094 542.25 C 652.496094 543.492188 653.503906 544.5 654.746094 544.5 C 655.542969 544.5 667.449219 544.5 668.246094 544.5 C 669.488281 544.5 670.496094 543.492188 670.496094 542.25 C 670.496094 541.007812 669.488281 540 668.246094 540 Z M 668.246094 540 " fill-opacity="1" fill-rule="nonzero"/><path fill="#ffffff" d="M 708.746094 283.5 L 663.746094 283.5 C 662.503906 283.5 661.496094 282.492188 661.496094 281.25 C 661.496094 280.007812 662.503906 279 663.746094 279 L 708.746094 279 C 709.988281 279 710.996094 280.007812 710.996094 281.25 C 710.996094 282.492188 709.988281 283.5 708.746094 283.5 Z M 708.746094 283.5 " fill-opacity="1" fill-rule="nonzero"/><path fill="#ffffff" d="M 726.746094 283.5 L 717.746094 283.5 C 716.503906 283.5 715.496094 282.492188 715.496094 281.25 C 715.496094 280.007812 716.503906 279 717.746094 279 L 726.746094 279 C 727.988281 279 728.996094 280.007812 728.996094 281.25 C 728.996094 282.492188 727.988281 283.5 726.746094 283.5 Z M 726.746094 283.5 " fill-opacity="1" fill-rule="nonzero"/><path fill="#ffffff" d="M 749.246094 292.5 L 704.246094 292.5 C 703.003906 292.5 701.996094 291.492188 701.996094 290.25 C 701.996094 289.007812 703.003906 288 704.246094 288 L 749.246094 288 C 750.488281 288 751.496094 289.007812 751.496094 290.25 C 751.496094 291.492188 750.492188 292.5 749.246094 292.5 Z M 749.246094 292.5 " fill-opacity="1" fill-rule="nonzero"/><path fill="#ffffff" d="M 695.246094 292.5 L 690.746094 292.5 C 689.503906 292.5 688.496094 291.492188 688.496094 290.25 C 688.496094 289.007812 689.503906 288 690.746094 288 L 695.246094 288 C 696.488281 288 697.496094 289.007812 697.496094 290.25 C 697.496094 291.492188 696.488281 292.5 695.246094 292.5 Z M 695.246094 292.5 " fill-opacity="1" fill-rule="nonzero"/><path fill="#ffffff" d="M 681.609375 292.5 L 672.746094 292.5 C 671.503906 292.5 670.496094 291.492188 670.496094 290.25 C 670.496094 289.007812 671.503906 288 672.746094 288 L 681.609375 288 C 682.851562 288 683.859375 289.007812 683.859375 290.25 C 683.859375 291.492188 682.851562 292.5 681.609375 292.5 Z M 681.609375 292.5 " fill-opacity="1" fill-rule="nonzero"/><path fill="#ffffff" d="M 722.246094 274.5 L 699.746094 274.5 C 698.503906 274.5 697.496094 273.492188 697.496094 272.25 C 697.496094 271.007812 698.503906 270 699.746094 270 L 722.246094 270 C 723.488281 270 724.496094 271.007812 724.496094 272.25 C 724.496094 273.492188 723.492188 274.5 722.246094 274.5 Z M 722.246094 274.5 " fill-opacity="1" fill-rule="nonzero"/><path fill="#ffffff" d="M 708.746094 301.5 L 699.746094 301.5 C 698.503906 301.5 697.496094 300.492188 697.496094 299.25 C 697.496094 298.007812 698.503906 297 699.746094 297 L 708.746094 297 C 709.988281 297 710.996094 298.007812 710.996094 299.25 C 710.996094 300.492188 709.988281 301.5 708.746094 301.5 Z M 708.746094 301.5 " fill-opacity="1" fill-rule="nonzero"/><path fill="#d4c2ef" d="M 821.359375 504 L 641.132812 504 C 627.527344 504 616.496094 492.96875 616.496094 479.363281 L 616.496094 348.636719 C 616.496094 335.03125 627.527344 324 641.132812 324 L 821.355469 324 C 834.964844 324 845.996094 335.03125 845.996094 348.636719 L 845.996094 479.359375 C 845.996094 492.96875 834.964844 504 821.359375 504 Z M 821.359375 504 " fill-opacity="1" fill-rule="nonzero"/><path fill="#472b29" d="M 769.496094 486 L 647.996094 486 C 640.554688 486 634.496094 479.941406 634.496094 472.5 L 634.496094 355.5 C 634.496094 348.058594 640.554688 342 647.996094 342 L 659.996094 342 C 661.238281 342 662.246094 343.007812 662.246094 344.25 C 662.246094 345.492188 661.238281 346.5 659.996094 346.5 L 647.996094 346.5 C 643.03125 346.5 638.996094 350.535156 638.996094 355.5 L 638.996094 472.5 C 638.996094 477.464844 643.03125 481.5 647.996094 481.5 L 769.496094 481.5 C 770.738281 481.5 771.746094 482.507812 771.746094 483.75 C 771.746094 484.992188 770.738281 486 769.496094 486 Z M 769.496094 486 " fill-opacity="1" fill-rule="nonzero"/><path fill="#472b29" d="M 814.496094 486 L 785.246094 486 C 784.003906 486 782.996094 484.992188 782.996094 483.75 C 782.996094 482.507812 784.003906 481.5 785.246094 481.5 L 814.496094 481.5 C 819.460938 481.5 823.496094 477.464844 823.496094 472.5 L 823.496094 355.5 C 823.496094 350.535156 819.460938 346.5 814.496094 346.5 L 739.871094 346.5 C 738.628906 346.5 737.621094 345.492188 737.621094 344.25 C 737.621094 343.007812 738.628906 342 739.871094 342 L 814.496094 342 C 821.9375 342 827.996094 348.058594 827.996094 355.5 L 827.996094 472.5 C 827.996094 479.941406 821.9375 486 814.496094 486 Z M 814.496094 486 " fill-opacity="1" fill-rule="nonzero"/><path fill="#472b29" d="M 722.621094 346.5 L 676.121094 346.5 C 674.878906 346.5 673.871094 345.492188 673.871094 344.25 C 673.871094 343.007812 674.878906 342 676.121094 342 L 722.621094 342 C 723.863281 342 724.871094 343.007812 724.871094 344.25 C 724.871094 345.492188 723.863281 346.5 722.621094 346.5 Z M 722.621094 346.5 " fill-opacity="1" fill-rule="nonzero"/><path fill="#472b29" d="M 821.359375 330.300781 C 831.46875 330.300781 839.695312 338.53125 839.695312 348.640625 L 839.695312 479.363281 C 839.695312 489.472656 831.46875 497.703125 821.359375 497.703125 L 641.132812 497.703125 C 631.023438 497.703125 622.796875 489.472656 622.796875 479.363281 L 622.796875 348.640625 C 622.796875 338.53125 631.023438 330.300781 641.132812 330.300781 L 821.359375 330.300781 M 821.359375 324 L 641.132812 324 C 627.527344 324 616.496094 335.03125 616.496094 348.640625 L 616.496094 479.363281 C 616.496094 492.96875 627.527344 504 641.132812 504 L 821.355469 504 C 834.964844 504 845.996094 492.96875 845.996094 479.359375 L 845.996094 348.640625 C 845.996094 335.03125 834.964844 324 821.359375 324 Z M 821.359375 324 " fill-opacity="1" fill-rule="nonzero"/><path fill="#472b29" d="M 662.269531 448.34375 C 662.269531 447.9375 662.300781 447.632812 662.371094 447.429688 L 682.523438 381.648438 C 683.390625 379.21875 685.792969 378 689.742188 378 C 693.765625 378 696.199219 379.132812 697.070312 381.402344 L 717.164062 447.175781 C 717.296875 447.601562 717.363281 447.917969 717.363281 448.132812 C 717.363281 449.40625 716.582031 450.507812 715 451.425781 C 713.421875 452.347656 711.746094 452.808594 709.980469 452.808594 C 707.847656 452.808594 706.519531 452.074219 706.003906 450.597656 L 701.804688 436.058594 L 676.859375 436.058594 L 672.707031 450.558594 C 672.234375 452.054688 670.976562 452.804688 668.957031 452.804688 C 667.335938 452.804688 665.820312 452.367188 664.398438 451.484375 C 662.980469 450.609375 662.269531 449.5625 662.269531 448.34375 Z M 679.292969 427.53125 L 699.441406 427.53125 L 689.265625 392.695312 Z M 679.292969 427.53125 " fill-opacity="1" fill-rule="nonzero"/><path fill="#472b29" d="M 724.558594 449.253906 L 724.558594 382.058594 C 724.558594 381.113281 724.945312 380.300781 725.726562 379.625 C 726.503906 378.949219 727.503906 378.609375 728.722656 378.609375 L 748.511719 378.609375 C 755.277344 378.609375 760.671875 380.402344 764.703125 383.984375 C 768.726562 387.570312 770.742188 393.21875 770.742188 400.9375 L 770.742188 401.746094 C 770.742188 409.460938 768.660156 415.128906 764.496094 418.746094 C 760.34375 422.371094 754.808594 424.179688 747.902344 424.179688 L 735.320312 424.179688 L 735.320312 449.25 C 735.320312 450.332031 734.792969 451.191406 733.738281 451.835938 C 732.691406 452.480469 731.417969 452.800781 729.933594 452.800781 C 728.511719 452.800781 727.265625 452.480469 726.183594 451.835938 C 725.09375 451.195312 724.558594 450.332031 724.558594 449.253906 Z M 735.320312 415.65625 L 747.902344 415.65625 C 751.757812 415.65625 754.742188 414.558594 756.835938 412.359375 C 758.925781 410.160156 759.984375 406.859375 759.984375 402.460938 L 759.984375 401.242188 C 759.984375 396.847656 758.925781 393.566406 756.835938 391.398438 C 754.742188 389.230469 751.757812 388.148438 747.902344 388.148438 L 735.320312 388.148438 Z M 735.320312 415.65625 " fill-opacity="1" fill-rule="nonzero"/><path fill="#472b29" d="M 779.875 449.253906 L 779.875 382.058594 C 779.875 380.910156 780.394531 380.046875 781.445312 379.472656 C 782.492188 378.894531 783.765625 378.609375 785.25 378.609375 C 786.734375 378.609375 788.007812 378.894531 789.058594 379.472656 C 790.105469 380.046875 790.636719 380.910156 790.636719 382.058594 L 790.636719 449.25 C 790.636719 450.332031 790.109375 451.191406 789.058594 451.835938 C 788.007812 452.480469 786.734375 452.800781 785.25 452.800781 C 783.828125 452.800781 782.582031 452.480469 781.503906 451.835938 C 780.410156 451.195312 779.875 450.332031 779.875 449.253906 Z M 779.875 449.253906 " fill-opacity="1" fill-rule="nonzero"/><path fill="#fdfcef" d="M 564.746094 470.25 C 564.746094 470.25 557.695312 470.25 548.996094 470.25 C 540.296875 470.25 533.246094 463.199219 533.246094 454.5 C 533.246094 446.484375 539.253906 439.945312 546.992188 438.953125 C 546.867188 438.148438 546.746094 437.339844 546.746094 436.5 C 546.746094 427.800781 553.796875 420.75 562.496094 420.75 C 567.140625 420.75 571.269531 422.796875 574.152344 425.992188 C 575.878906 417.855469 583.09375 411.75 591.746094 411.75 C 601.6875 411.75 609.746094 419.808594 609.746094 429.75 C 609.746094 430.609375 609.609375 431.433594 609.496094 432.261719 C 611.421875 430.714844 613.832031 429.75 616.496094 429.75 C 622.023438 429.75 626.597656 433.742188 627.542969 438.996094 C 628.347656 438.871094 629.15625 438.75 629.996094 438.75 C 638.695312 438.75 645.746094 445.800781 645.746094 454.5 C 645.746094 463.199219 638.695312 470.25 629.996094 470.25 C 621.296875 470.25 596.246094 470.25 596.246094 470.25 L 596.246094 472.5 L 564.746094 472.5 Z M 564.746094 470.25 " fill-opacity="1" fill-rule="nonzero"/><path fill="#472b29" d="M 556.871094 450 C 557.492188 450 557.996094 449.496094 557.996094 448.875 C 557.996094 443.371094 553.519531 438.894531 548.015625 438.894531 C 547.863281 438.933594 544.699219 438.890625 542.417969 439.507812 C 541.820312 439.667969 541.464844 440.285156 541.625 440.882812 C 541.789062 441.484375 542.402344 441.839844 543.003906 441.675781 C 545 441.136719 547.953125 441.136719 548.011719 441.144531 C 552.277344 441.144531 555.746094 444.613281 555.746094 448.875 C 555.746094 449.496094 556.25 450 556.871094 450 Z M 556.871094 450 " fill-opacity="1" fill-rule="nonzero"/><path fill="#472b29" d="M 589.496094 470.25 C 589.496094 470.546875 589.4375 470.835938 589.324219 471.109375 C 589.210938 471.386719 589.046875 471.628906 588.835938 471.839844 C 588.625 472.050781 588.382812 472.214844 588.105469 472.328125 C 587.832031 472.441406 587.542969 472.5 587.246094 472.5 C 586.949219 472.5 586.660156 472.441406 586.386719 472.328125 C 586.109375 472.214844 585.867188 472.050781 585.65625 471.839844 C 585.445312 471.628906 585.28125 471.386719 585.167969 471.109375 C 585.054688 470.835938 584.996094 470.546875 584.996094 470.25 C 584.996094 469.953125 585.054688 469.664062 585.167969 469.390625 C 585.28125 469.113281 585.445312 468.871094 585.65625 468.660156 C 585.867188 468.449219 586.109375 468.285156 586.386719 468.171875 C 586.660156 468.058594 586.949219 468 587.246094 468 C 587.542969 468 587.832031 468.058594 588.105469 468.171875 C 588.382812 468.285156 588.625 468.449219 588.835938 468.660156 C 589.046875 468.871094 589.210938 469.113281 589.324219 469.390625 C 589.4375 469.664062 589.496094 469.953125 589.496094 470.25 Z M 589.496094 470.25 " fill-opacity="1" fill-rule="nonzero"/><g clip-path="url(#5efbab79ab)"><path fill="#472b29" d="M 548.996094 472.5 L 564.746094 472.5 C 565.988281 472.5 566.996094 471.492188 566.996094 470.25 C 566.996094 469.007812 565.988281 468 564.746094 468 L 548.996094 468 C 541.554688 468 535.496094 461.941406 535.496094 454.5 C 535.496094 447.769531 540.558594 442.042969 547.277344 441.183594 C 547.878906 441.101562 548.425781 440.789062 548.789062 440.300781 C 549.152344 439.816406 549.308594 439.203125 549.210938 438.605469 C 549.109375 437.914062 548.996094 437.21875 548.996094 436.5 C 548.996094 429.058594 555.054688 423 562.496094 423 C 566.320312 423 569.867188 424.597656 572.480469 427.5 C 573.042969 428.125 573.925781 428.390625 574.730469 428.164062 C 575.550781 427.945312 576.175781 427.289062 576.351562 426.460938 C 577.886719 419.242188 584.363281 414 591.746094 414 C 600.429688 414 607.496094 421.066406 607.496094 429.75 C 607.496094 430.394531 607.402344 431.011719 607.3125 431.632812 C 607.179688 432.542969 607.59375 433.601562 608.402344 434.0625 C 609.207031 434.519531 610.183594 434.59375 610.902344 434.015625 C 612.546875 432.699219 614.476562 432 616.496094 432 C 620.84375 432 624.558594 435.109375 625.328125 439.398438 C 625.546875 440.597656 626.660156 441.40625 627.890625 441.21875 C 628.582031 441.113281 629.277344 441 629.996094 441 C 637.4375 441 643.496094 447.058594 643.496094 454.5 C 643.496094 461.941406 637.4375 468 629.996094 468 L 596.246094 468 C 595.003906 468 593.996094 469.007812 593.996094 470.25 C 593.996094 471.492188 595.003906 472.5 596.246094 472.5 L 629.996094 472.5 C 639.921875 472.5 647.996094 464.425781 647.996094 454.5 C 647.996094 444.574219 639.921875 436.5 629.996094 436.5 C 629.730469 436.5 629.472656 436.507812 629.214844 436.527344 C 627.351562 431.191406 622.296875 427.5 616.496094 427.5 C 614.925781 427.5 613.394531 427.773438 611.945312 428.308594 C 611.203125 417.8125 602.429688 409.5 591.746094 409.5 C 583.507812 409.5 576.148438 414.570312 573.058594 421.984375 C 569.996094 419.742188 566.296875 418.5 562.496094 418.5 C 552.570312 418.5 544.496094 426.574219 544.496094 436.5 C 544.496094 436.714844 544.5 436.925781 544.515625 437.140625 C 536.671875 439.15625 530.996094 446.261719 530.996094 454.5 C 530.996094 464.425781 539.070312 472.5 548.996094 472.5 Z M 548.996094 472.5 " fill-opacity="1" fill-rule="nonzero"/></g><path fill="#472b29" d="M 573.746094 468 C 574.460938 468 577.53125 468 578.246094 468 C 579.488281 468 580.496094 469.007812 580.496094 470.25 C 580.496094 471.492188 579.488281 472.5 578.246094 472.5 C 577.53125 472.5 574.460938 472.5 573.746094 472.5 C 572.503906 472.5 571.496094 471.492188 571.496094 470.25 C 571.496094 469.007812 572.503906 468 573.746094 468 Z M 573.746094 468 " fill-opacity="1" fill-rule="nonzero"/></svg>