<svg xmlns="http://www.w3.org/2000/svg" xmlns:xlink="http://www.w3.org/1999/xlink" width="1920" zoomAndPan="magnify" viewBox="0 0 1440 809.999993" height="1080" preserveAspectRatio="xMidYMid meet" version="1.0"><defs><clipPath id="f9bdddfa73"><path d="M 557.113281 243 L 843 243 L 843 528 L 557.113281 528 Z M 557.113281 243 " clip-rule="nonzero"/></clipPath><clipPath id="d483e46e85"><path d="M 642 327 L 882.613281 327 L 882.613281 567 L 642 567 Z M 642 327 " clip-rule="nonzero"/></clipPath></defs><g clip-path="url(#f9bdddfa73)"><path fill="#6549a4" d="M 762.988281 498.632812 C 762.90625 497.871094 762.554688 497.152344 762 496.625 C 747.8125 483.015625 733.46875 468.84375 720.425781 455.765625 C 719.617188 454.957031 718.449219 454.632812 717.339844 454.902344 C 716.511719 455.113281 715.890625 455.3125 715.429688 455.410156 L 715.421875 455.410156 C 710.460938 456.503906 705.324219 457.0625 700 457.0625 C 680.054688 457.0625 662.03125 448.984375 648.960938 435.914062 C 635.890625 422.839844 627.820312 404.8125 627.816406 384.871094 C 627.820312 364.921875 635.890625 346.898438 648.957031 333.824219 C 662.03125 320.757812 680.054688 312.6875 700 312.6875 C 719.941406 312.6875 737.972656 320.761719 751.050781 333.828125 C 764.125 346.898438 772.203125 364.925781 772.203125 384.871094 C 772.203125 390.582031 771.484375 396.125 770.214844 401.492188 C 769.953125 402.59375 770.285156 403.753906 771.089844 404.550781 C 782.3125 415.6875 794.335938 427.777344 806.140625 439.925781 C 806.722656 440.519531 807.492188 440.867188 808.324219 440.90625 L 828.789062 441.878906 C 830.234375 441.949219 831.546875 441.0625 832.019531 439.695312 L 837.398438 424.234375 C 837.871094 422.878906 837.390625 421.363281 836.226562 420.523438 L 821.242188 409.722656 C 822.484375 403.640625 823.269531 397.417969 823.582031 391.058594 L 840.832031 384.335938 C 842.179688 383.8125 843.019531 382.457031 842.894531 381.019531 L 841.46875 364.675781 C 841.347656 363.246094 840.292969 362.058594 838.886719 361.769531 L 820.910156 358.050781 C 819.542969 351.816406 817.667969 345.796875 815.398438 339.984375 L 828.316406 326.867188 C 829.332031 325.835938 829.546875 324.269531 828.847656 323.003906 L 820.898438 308.648438 C 820.199219 307.382812 818.761719 306.734375 817.347656 307.046875 L 799.253906 311.035156 C 795.507812 306.003906 791.402344 301.273438 786.953125 296.867188 L 793.421875 279.496094 C 793.925781 278.140625 793.484375 276.621094 792.328125 275.753906 L 779.234375 265.917969 C 778.078125 265.046875 776.5 265.042969 775.339844 265.902344 L 760.484375 276.910156 C 755.027344 273.839844 749.335938 271.207031 743.433594 269.011719 L 742.242188 250.535156 C 742.148438 249.089844 741.121094 247.886719 739.710938 247.566406 L 723.738281 243.945312 C 722.335938 243.628906 720.882812 244.269531 720.179688 245.523438 L 711.148438 261.550781 C 707.484375 261.222656 703.769531 261.023438 699.996094 261.023438 C 697.367188 261.023438 694.816406 261.164062 692.308594 261.347656 L 683.703125 245 C 683.027344 243.71875 681.605469 243.039062 680.183594 243.320312 L 664.078125 246.519531 C 662.660156 246.800781 661.601562 247.980469 661.46875 249.417969 L 659.796875 267.753906 C 653.800781 269.804688 648 272.296875 642.453125 275.1875 L 628.003906 263.851562 C 626.867188 262.957031 625.285156 262.921875 624.105469 263.757812 L 610.726562 273.25 C 609.546875 274.089844 609.0625 275.59375 609.53125 276.960938 L 615.527344 294.496094 C 610.953125 298.765625 606.699219 303.378906 602.816406 308.304688 L 584.84375 303.8125 C 583.441406 303.460938 581.988281 304.070312 581.25 305.316406 L 572.90625 319.433594 C 572.171875 320.679688 572.34375 322.253906 573.328125 323.3125 L 585.910156 336.8125 C 583.488281 342.570312 581.511719 348.539062 579.980469 354.667969 L 561.789062 357.90625 C 560.367188 358.160156 559.285156 359.308594 559.125 360.746094 L 557.28125 377.0625 C 557.117188 378.5 557.917969 379.867188 559.25 380.429688 L 576.203125 387.585938 C 576.351562 393.984375 576.992188 400.242188 578.074219 406.359375 L 562.828125 416.71875 C 561.632812 417.53125 561.113281 419.023438 561.554688 420.402344 L 566.53125 436.019531 C 566.972656 437.398438 568.257812 438.316406 569.703125 438.289062 L 588.179688 437.910156 C 590.882812 443.609375 594 449.058594 597.503906 454.242188 L 587.796875 469.96875 C 587.035156 471.199219 587.175781 472.769531 588.136719 473.851562 L 599.054688 486.082031 C 600.019531 487.164062 601.570312 487.476562 602.878906 486.859375 L 619.625 478.945312 C 624.382812 483.007812 629.449219 486.703125 634.78125 490.019531 L 632.324219 508.371094 C 632.132812 509.804688 632.902344 511.191406 634.222656 511.78125 L 649.210938 518.46875 C 650.53125 519.058594 652.070312 518.710938 653.011719 517.613281 L 664.960938 503.679688 C 670.953125 505.425781 677.125 506.714844 683.429688 507.5625 L 688.667969 525.242188 C 689.078125 526.628906 690.34375 527.574219 691.789062 527.574219 L 708.199219 527.574219 C 709.644531 527.574219 710.910156 526.628906 711.324219 525.242188 L 716.558594 507.585938 C 719.894531 507.152344 723.203125 506.59375 726.460938 505.890625 L 726.472656 505.890625 C 728.261719 505.496094 729.984375 505.03125 731.675781 504.554688 L 743.277344 518.886719 C 744.1875 520.011719 745.722656 520.402344 747.058594 519.847656 L 762.214844 513.550781 C 763.550781 512.996094 764.359375 511.640625 764.207031 510.199219 L 762.984375 498.632812 Z M 746.8125 512.894531 L 735.394531 498.785156 C 734.570312 497.769531 733.21875 497.34375 731.964844 497.707031 C 729.628906 498.375 727.347656 499.027344 725.085938 499.519531 C 721.355469 500.328125 717.539062 500.941406 713.679688 501.378906 C 712.378906 501.523438 711.292969 502.433594 710.921875 503.6875 L 705.769531 521.058594 L 694.226562 521.058594 L 689.074219 503.675781 C 688.703125 502.421875 687.632812 501.519531 686.332031 501.367188 C 678.929688 500.492188 671.738281 498.992188 664.839844 496.84375 C 663.597656 496.457031 662.242188 496.847656 661.394531 497.832031 L 649.648438 511.527344 L 639.105469 506.820312 L 641.523438 488.785156 C 641.695312 487.496094 641.082031 486.222656 639.96875 485.554688 C 633.667969 481.785156 627.761719 477.480469 622.3125 472.652344 C 621.335938 471.785156 619.945312 471.585938 618.761719 472.144531 L 602.296875 479.925781 L 594.617188 471.324219 L 604.160156 455.863281 C 604.839844 454.757812 604.800781 453.34375 604.054688 452.28125 C 599.867188 446.308594 596.238281 439.964844 593.199219 433.261719 C 592.660156 432.074219 591.472656 431.324219 590.164062 431.351562 L 572 431.722656 L 568.5 420.738281 L 583.488281 410.554688 C 584.570312 409.820312 585.105469 408.523438 584.855469 407.238281 C 583.480469 400.148438 582.722656 392.871094 582.675781 385.386719 C 582.671875 384.082031 581.890625 382.914062 580.6875 382.40625 L 564.027344 375.371094 L 565.324219 363.890625 L 583.210938 360.710938 C 584.496094 360.480469 585.519531 359.511719 585.8125 358.238281 C 587.480469 351.042969 589.789062 344.085938 592.71875 337.457031 C 593.246094 336.261719 593.011719 334.875 592.121094 333.921875 L 579.753906 320.648438 L 585.625 310.71875 L 603.292969 315.136719 C 604.558594 315.453125 605.882812 314.988281 606.671875 313.949219 C 611.097656 308.132812 616.0625 302.75 621.476562 297.867188 C 622.449219 296.992188 622.800781 295.632812 622.378906 294.394531 L 616.484375 277.152344 L 625.894531 270.472656 L 640.09375 281.617188 C 641.113281 282.417969 642.519531 282.535156 643.660156 281.914062 C 650.046875 278.441406 656.816406 275.53125 663.847656 273.265625 C 665.089844 272.863281 665.972656 271.761719 666.089844 270.460938 L 667.738281 252.433594 L 679.070312 250.183594 L 687.539062 266.269531 C 688.144531 267.417969 689.382812 268.101562 690.675781 268 C 693.839844 267.75 696.921875 267.535156 699.996094 267.535156 C 704.242188 267.535156 708.449219 267.792969 712.605469 268.230469 C 713.898438 268.367188 715.148438 267.71875 715.785156 266.589844 L 724.664062 250.832031 L 735.894531 253.378906 L 737.066406 271.546875 C 737.152344 272.851562 738 273.972656 739.234375 274.40625 C 746.171875 276.855469 752.792969 279.917969 759.0625 283.601562 C 760.1875 284.261719 761.601562 284.1875 762.652344 283.410156 L 777.261719 272.582031 L 786.464844 279.496094 L 780.117188 296.550781 C 779.664062 297.765625 779.980469 299.144531 780.917969 300.042969 C 786.199219 305.089844 790.992188 310.613281 795.265625 316.5625 C 796.023438 317.617188 797.347656 318.121094 798.613281 317.84375 L 816.375 313.929688 L 821.96875 324.027344 L 809.269531 336.921875 C 808.351562 337.855469 808.078125 339.230469 808.574219 340.441406 C 811.332031 347.183594 813.523438 354.175781 814.972656 361.441406 C 815.230469 362.726562 816.226562 363.730469 817.507812 363.996094 L 835.191406 367.652344 L 836.191406 379.148438 L 819.238281 385.753906 C 818.019531 386.230469 817.207031 387.378906 817.164062 388.6875 C 816.929688 396.136719 816.003906 403.371094 814.4375 410.417969 C 814.152344 411.691406 814.652344 413 815.710938 413.765625 L 830.445312 424.382812 L 826.664062 435.25 L 809.914062 434.457031 C 798.808594 423.042969 787.546875 411.714844 776.953125 401.191406 C 778.078125 395.9375 778.71875 390.484375 778.71875 384.867188 C 778.722656 363.140625 769.898438 343.445312 755.65625 329.214844 C 741.421875 314.980469 721.71875 306.167969 700 306.167969 C 678.277344 306.164062 658.582031 314.980469 644.351562 329.214844 C 630.113281 343.445312 621.300781 363.140625 621.300781 384.867188 C 621.300781 406.585938 630.113281 426.28125 644.351562 440.515625 C 658.582031 454.757812 678.277344 463.574219 699.996094 463.574219 C 705.773438 463.574219 711.390625 462.96875 716.816406 461.773438 C 716.929688 461.746094 717.03125 461.722656 717.140625 461.695312 C 729.585938 474.164062 743.152344 487.550781 756.628906 500.496094 L 757.472656 508.460938 L 746.808594 512.890625 Z M 746.8125 512.894531 " fill-opacity="1" fill-rule="nonzero"/></g><path fill="#6549a4" d="M 716.824219 461.773438 L 716.820312 461.773438 L 716.816406 461.777344 Z M 716.824219 461.773438 " fill-opacity="1" fill-rule="nonzero"/><g clip-path="url(#d483e46e85)"><path fill="#6549a4" d="M 882.824219 523.789062 C 882.792969 511.863281 877.917969 501.039062 870.085938 493.230469 C 862.257812 485.414062 851.421875 480.570312 839.503906 480.574219 C 834.664062 480.574219 830.058594 481.433594 825.761719 482.898438 L 750.617188 407.929688 C 753.996094 400.703125 755.925781 392.632812 755.925781 384.117188 L 755.925781 383.90625 C 755.925781 383.90625 755.925781 383.910156 755.925781 383.910156 C 755.886719 368.511719 749.671875 354.535156 739.652344 344.359375 C 729.636719 334.179688 715.777344 327.757812 700.464844 327.433594 C 699.136719 327.40625 697.917969 328.191406 697.398438 329.414062 C 696.875 330.636719 697.152344 332.058594 698.09375 332.996094 L 717.816406 352.671875 L 707.417969 391.914062 L 668.226562 402.421875 L 648.503906 382.75 C 647.566406 381.8125 646.140625 381.539062 644.917969 382.0625 C 643.699219 382.585938 642.914062 383.804688 642.949219 385.132812 C 643.3125 400.453125 649.769531 414.296875 659.976562 424.285156 C 670.171875 434.28125 684.160156 440.457031 699.554688 440.460938 C 708.140625 440.460938 716.269531 438.515625 723.542969 435.082031 L 798.691406 510.0625 C 797.25 514.324219 796.40625 518.898438 796.410156 523.691406 L 796.410156 523.808594 C 796.441406 535.726562 801.3125 546.550781 809.144531 554.359375 C 816.964844 562.167969 827.78125 567.011719 839.683594 567.019531 C 839.808594 567.023438 839.890625 567.019531 839.933594 567.015625 C 843.273438 566.996094 846.4375 566.523438 849.4375 565.835938 C 850.59375 565.574219 851.515625 564.699219 851.84375 563.5625 C 852.171875 562.421875 851.851562 561.191406 851.015625 560.355469 L 831.113281 540.5 L 836.398438 520.585938 L 856.289062 515.242188 L 876.1875 535.09375 C 877.027344 535.929688 878.257812 536.246094 879.398438 535.917969 C 880.535156 535.585938 881.40625 534.660156 881.667969 533.503906 C 882.351562 530.46875 882.828125 527.265625 882.828125 523.886719 L 882.828125 523.789062 Z M 856.414062 508.464844 L 832.890625 514.78125 C 831.765625 515.085938 830.882812 515.96875 830.585938 517.09375 L 824.335938 540.644531 C 824.035156 541.769531 824.359375 542.964844 825.183594 543.785156 L 841.867188 560.429688 C 841.15625 560.480469 840.445312 560.507812 839.726562 560.507812 C 829.585938 560.503906 820.417969 556.402344 813.75 549.75 C 807.082031 543.09375 802.957031 533.933594 802.925781 523.789062 L 802.925781 523.691406 C 802.925781 519.015625 803.871094 514.5625 805.496094 510.410156 C 805.96875 509.203125 805.683594 507.832031 804.765625 506.917969 L 726.492188 428.820312 C 725.484375 427.8125 723.941406 427.582031 722.679688 428.242188 C 715.765625 431.875 707.921875 433.941406 699.558594 433.945312 C 685.921875 433.9375 673.582031 428.488281 664.535156 419.632812 C 657.535156 412.773438 652.550781 403.894531 650.496094 393.9375 L 664.957031 408.363281 C 665.78125 409.183594 666.976562 409.503906 668.101562 409.203125 L 710.929688 397.714844 C 712.054688 397.414062 712.9375 396.53125 713.234375 395.40625 L 724.597656 352.527344 C 724.894531 351.402344 724.574219 350.210938 723.75 349.386719 L 709.285156 334.957031 C 719.246094 336.984375 728.136719 341.945312 735.011719 348.929688 C 743.890625 357.957031 749.375 370.285156 749.414062 383.929688 C 749.414062 383.929688 749.414062 384.117188 749.414062 384.117188 C 749.414062 392.414062 747.355469 400.199219 743.777344 407.089844 C 743.121094 408.355469 743.355469 409.890625 744.367188 410.898438 L 822.632812 488.976562 C 823.550781 489.890625 824.917969 490.175781 826.125 489.699219 C 830.320312 488.050781 834.792969 487.089844 839.507812 487.089844 C 849.648438 487.09375 858.816406 491.195312 865.488281 497.84375 C 872.15625 504.5 876.285156 513.660156 876.3125 523.808594 L 876.3125 523.804688 L 876.3125 523.890625 C 876.3125 524.578125 876.289062 525.261719 876.246094 525.945312 L 859.5625 509.304688 C 858.738281 508.480469 857.542969 508.160156 856.417969 508.464844 Z M 856.414062 508.464844 " fill-opacity="1" fill-rule="nonzero"/></g></svg>