<svg xmlns="http://www.w3.org/2000/svg" xmlns:xlink="http://www.w3.org/1999/xlink" width="1920" zoomAndPan="magnify" viewBox="0 0 1440 809.999993" height="1080" preserveAspectRatio="xMidYMid meet" version="1.0"><defs><clipPath id="5a82f57933"><path d="M 585.742188 243 L 854.242188 243 L 854.242188 567 L 585.742188 567 Z M 585.742188 243 " clip-rule="nonzero"/></clipPath><clipPath id="45bafa1662"><path d="M 720 243 L 854.242188 243 L 854.242188 567 L 720 567 Z M 720 243 " clip-rule="nonzero"/></clipPath></defs><g clip-path="url(#5a82f57933)"><path fill="#6549a4" d="M 720 243 L 585.929688 287.691406 L 585.929688 375.671875 C 585.929688 451.871094 628.9375 521.480469 697.085938 555.542969 L 720 567 L 742.886719 555.542969 C 811.058594 521.480469 854.066406 451.871094 854.066406 375.671875 L 854.066406 287.691406 L 720 243 " fill-opacity="1" fill-rule="nonzero"/></g><g clip-path="url(#45bafa1662)"><path fill="#573696" d="M 720 243 L 720 567 L 742.886719 555.542969 C 811.058594 521.480469 854.066406 451.871094 854.066406 375.671875 L 854.066406 287.691406 L 720 243 " fill-opacity="1" fill-rule="nonzero"/></g><path fill="#573696" d="M 720 278.304688 L 619.445312 311.824219 L 619.445312 375.671875 C 619.445312 439.585938 654.929688 496.996094 712.078125 525.5625 L 720 529.511719 L 727.917969 525.5625 C 785.089844 496.996094 820.550781 439.585938 820.550781 375.671875 L 820.550781 311.824219 L 720 278.304688 " fill-opacity="1" fill-rule="nonzero"/><path fill="#6549a4" d="M 720 278.304688 L 720 529.511719 L 727.917969 525.5625 C 785.089844 496.996094 820.550781 439.585938 820.550781 375.671875 L 820.550781 311.824219 L 720 278.304688 " fill-opacity="1" fill-rule="nonzero"/><path fill="#ffd259" d="M 791.089844 367.425781 L 775.292969 351.625 L 708.824219 418.09375 L 677.230469 386.496094 L 661.429688 402.292969 L 708.824219 449.691406 L 791.089844 367.425781 " fill-opacity="1" fill-rule="nonzero"/></svg>