<svg xmlns="http://www.w3.org/2000/svg" xmlns:xlink="http://www.w3.org/1999/xlink" zoomAndPan="magnify" preserveAspectRatio="xMidYMid meet" version="1.0" viewBox="492.63 243.11 454.74 323.77"><path fill="#6549a4" d="M 562.585938 404.984375 C 606.046875 461.183594 663.054688 489.214844 719.996094 489.214844 C 776.9375 489.214844 833.941406 461.183594 877.40625 404.984375 C 790.480469 292.71875 649.578125 292.71875 562.585938 404.984375 Z M 719.996094 474.929688 C 681.316406 474.929688 650.050781 443.660156 650.050781 404.984375 C 650.050781 366.371094 681.316406 335.105469 719.996094 335.105469 C 758.605469 335.105469 789.875 366.371094 789.875 404.984375 C 789.875 443.660156 758.605469 474.929688 719.996094 474.929688 Z M 719.996094 474.929688 " fill-opacity="1" fill-rule="nonzero"/><path fill="#6549a4" d="M 719.984375 357.65625 C 693.820312 357.65625 672.632812 378.839844 672.632812 405.003906 C 672.632812 431.171875 693.824219 452.359375 719.984375 452.359375 C 746.148438 452.359375 767.335938 431.171875 767.335938 405.003906 C 767.335938 378.839844 746.148438 357.65625 719.984375 357.65625 Z M 719.976562 426.910156 C 707.898438 426.910156 698.066406 417.078125 698.066406 405 C 698.066406 392.921875 707.898438 383.085938 719.976562 383.085938 C 732.132812 383.085938 741.890625 392.921875 741.890625 405 C 741.890625 417.078125 732.132812 426.910156 719.976562 426.910156 Z M 719.976562 426.910156 " fill-opacity="1" fill-rule="nonzero"/><path fill="#6549a4" d="M 585.367188 270.363281 L 629.867188 270.363281 L 629.867188 261.371094 L 576.371094 261.371094 L 576.371094 314.867188 L 585.367188 314.867188 Z M 585.367188 270.363281 " fill-opacity="1" fill-rule="nonzero"/><path fill="#6549a4" d="M 585.367188 495.128906 L 576.371094 495.128906 L 576.371094 548.628906 L 629.867188 548.628906 L 629.867188 539.636719 L 585.367188 539.636719 Z M 585.367188 495.128906 " fill-opacity="1" fill-rule="nonzero"/><path fill="#6549a4" d="M 854.625 314.867188 L 863.621094 314.867188 L 863.621094 261.371094 L 810.117188 261.371094 L 810.117188 270.363281 L 854.625 270.363281 Z M 854.625 314.867188 " fill-opacity="1" fill-rule="nonzero"/><path fill="#6549a4" d="M 854.625 539.636719 L 810.117188 539.636719 L 810.117188 548.628906 L 863.621094 548.628906 L 863.621094 495.128906 L 854.625 495.128906 Z M 854.625 539.636719 " fill-opacity="1" fill-rule="nonzero"/><path fill="#6549a4" d="M 885.503906 400.261719 L 947.367188 400.261719 L 947.367188 409.738281 L 885.503906 409.738281 Z M 885.503906 400.261719 " fill-opacity="1" fill-rule="nonzero"/><path fill="#6549a4" d="M 492.628906 400.261719 L 554.484375 400.261719 L 554.484375 409.738281 L 492.628906 409.738281 Z M 492.628906 400.261719 " fill-opacity="1" fill-rule="nonzero"/><path fill="#6549a4" d="M 715.261719 243.113281 L 724.734375 243.113281 L 724.734375 300.515625 L 715.261719 300.515625 Z M 715.261719 243.113281 " fill-opacity="1" fill-rule="nonzero"/><path fill="#6549a4" d="M 715.261719 509.484375 L 724.734375 509.484375 L 724.734375 566.886719 L 715.261719 566.886719 Z M 715.261719 509.484375 " fill-opacity="1" fill-rule="nonzero"/></svg>