<svg xmlns="http://www.w3.org/2000/svg" xmlns:xlink="http://www.w3.org/1999/xlink" zoomAndPan="magnify" preserveAspectRatio="xMidYMid meet" version="1.0" viewBox="484.56 183.91 475.05 475.05"><defs><clipPath id="18cfd48e8a"><path d="M 590 183.789062 L 865 183.789062 L 865 519 L 590 519 Z M 590 183.789062 " clip-rule="nonzero"/></clipPath></defs><path fill="#d4c2ef" d="M 631.90625 236.640625 C 620.785156 241.476562 536.625 280.210938 500.847656 378.097656 C 466.550781 471.941406 487.441406 599.425781 553.957031 638.019531 C 608.5 669.667969 646.109375 613.921875 768.097656 636.25 C 831.480469 647.855469 852.167969 668.519531 885.453125 653.933594 C 943.746094 628.386719 954.375 532.730469 957.082031 508.421875 C 960.191406 480.4375 973.457031 361.125 884.550781 278.398438 C 813.902344 212.65625 712.621094 201.550781 631.90625 236.640625 " fill-opacity="1" fill-rule="nonzero"/><path fill="#000000" d="M 900.199219 264.699219 L 540.402344 250.808594 C 531.847656 250.808594 524.886719 257.765625 524.886719 266.324219 L 524.886719 517.5 C 524.886719 526.054688 531.847656 533.019531 540.402344 533.019531 L 670.40625 524.210938 L 653.71875 585.132812 L 636.058594 585.269531 C 630.550781 585.269531 626.070312 589.75 626.070312 595.257812 C 626.070312 600.765625 630.550781 605.246094 636.058594 605.246094 L 783.957031 598.191406 C 789.46875 598.191406 779.15625 533.019531 779.15625 533.019531 C 779.15625 533.019531 908.753906 264.699219 900.199219 264.699219 " fill-opacity="1" fill-rule="nonzero"/><path fill="#ffffff" d="M 776.835938 500.90625 L 685.085938 500.90625 L 659.058594 595.910156 L 802.863281 595.910156 L 776.835938 500.90625 " fill-opacity="1" fill-rule="nonzero"/><path fill="#000000" d="M 660.183594 595.050781 L 801.738281 595.050781 L 776.179688 501.765625 L 685.742188 501.765625 Z M 802.863281 596.769531 L 659.058594 596.769531 C 658.789062 596.769531 658.535156 596.644531 658.375 596.429688 C 658.210938 596.21875 658.15625 595.941406 658.230469 595.683594 L 684.257812 500.679688 C 684.359375 500.304688 684.699219 500.046875 685.085938 500.046875 L 776.835938 500.046875 C 777.21875 500.046875 777.5625 500.304688 777.664062 500.679688 L 803.691406 595.683594 C 803.761719 595.941406 803.707031 596.21875 803.546875 596.429688 C 803.382812 596.644531 803.132812 596.769531 802.863281 596.769531 " fill-opacity="1" fill-rule="nonzero"/><path fill="#ffffff" d="M 914.136719 251.6875 L 547.785156 251.6875 C 539.699219 251.6875 533.144531 258.238281 533.144531 266.324219 L 533.144531 517.5 C 533.144531 525.585938 539.699219 532.140625 547.785156 532.140625 L 914.136719 532.140625 C 922.222656 532.140625 928.777344 525.585938 928.777344 517.5 L 928.777344 266.324219 C 928.777344 258.238281 922.222656 251.6875 914.136719 251.6875 " fill-opacity="1" fill-rule="nonzero"/><path fill="#000000" d="M 547.785156 252.542969 C 540.1875 252.542969 534.003906 258.726562 534.003906 266.324219 L 534.003906 517.5 C 534.003906 525.097656 540.1875 531.28125 547.785156 531.28125 L 914.136719 531.28125 C 921.730469 531.28125 927.917969 525.097656 927.917969 517.5 L 927.917969 266.324219 C 927.917969 258.726562 921.730469 252.542969 914.136719 252.542969 Z M 914.136719 532.996094 L 547.785156 532.996094 C 539.238281 532.996094 532.285156 526.046875 532.285156 517.5 L 532.285156 266.324219 C 532.285156 257.78125 539.238281 250.828125 547.785156 250.828125 L 914.136719 250.828125 C 922.679688 250.828125 929.636719 257.78125 929.636719 266.324219 L 929.636719 517.5 C 929.636719 526.046875 922.679688 532.996094 914.136719 532.996094 " fill-opacity="1" fill-rule="nonzero"/><path fill="#ffffff" d="M 818.480469 586.148438 L 643.4375 586.148438 C 638.40625 586.148438 634.328125 590.230469 634.328125 595.257812 C 634.328125 600.292969 638.40625 604.371094 643.4375 604.371094 L 818.480469 604.371094 C 823.507812 604.371094 827.585938 600.292969 827.585938 595.257812 C 827.585938 590.230469 823.507812 586.148438 818.480469 586.148438 " fill-opacity="1" fill-rule="nonzero"/><path fill="#000000" d="M 643.441406 587.003906 C 638.890625 587.003906 635.191406 590.707031 635.191406 595.257812 C 635.191406 599.808594 638.890625 603.511719 643.441406 603.511719 L 818.484375 603.511719 C 823.03125 603.511719 826.730469 599.808594 826.730469 595.257812 C 826.730469 590.707031 823.03125 587.003906 818.484375 587.003906 Z M 818.484375 605.226562 L 643.441406 605.226562 C 637.945312 605.226562 633.472656 600.753906 633.472656 595.257812 C 633.472656 589.761719 637.945312 585.289062 643.441406 585.289062 L 818.484375 585.289062 C 823.980469 585.289062 828.449219 589.761719 828.449219 595.257812 C 828.449219 600.753906 823.980469 605.226562 818.484375 605.226562 " fill-opacity="1" fill-rule="nonzero"/><path fill="#ffffff" d="M 546.160156 451.5 L 546.160156 511.847656 C 546.160156 515.867188 549.417969 519.125 553.4375 519.125 L 908.484375 519.125 C 912.503906 519.125 915.761719 515.867188 915.761719 511.847656 L 915.761719 412.882812 L 546.160156 451.5 " fill-opacity="1" fill-rule="nonzero"/><path fill="#000000" d="M 908.480469 519.984375 L 553.4375 519.984375 C 548.953125 519.984375 545.300781 516.332031 545.300781 511.847656 L 545.300781 451.5 C 545.300781 451.023438 545.683594 450.640625 546.160156 450.640625 C 546.632812 450.640625 547.019531 451.023438 547.019531 451.5 L 547.019531 511.847656 C 547.019531 515.386719 549.898438 518.269531 553.4375 518.269531 L 908.480469 518.269531 C 912.023438 518.269531 914.902344 515.386719 914.902344 511.847656 L 914.902344 412.882812 C 914.902344 412.40625 915.289062 412.023438 915.761719 412.023438 C 916.234375 412.023438 916.621094 412.40625 916.621094 412.882812 L 916.621094 511.847656 C 916.621094 516.332031 912.96875 519.984375 908.480469 519.984375 " fill-opacity="1" fill-rule="nonzero"/><path fill="#000000" d="M 546.160156 300.535156 C 545.683594 300.535156 545.300781 300.148438 545.300781 299.675781 L 545.300781 284.234375 C 545.300781 283.761719 545.683594 283.375 546.160156 283.375 C 546.632812 283.375 547.019531 283.761719 547.019531 284.234375 L 547.019531 299.675781 C 547.019531 300.148438 546.632812 300.535156 546.160156 300.535156 " fill-opacity="1" fill-rule="nonzero"/><path fill="#ffffff" d="M 574.554688 264.695312 L 553.4375 264.695312 C 549.417969 264.695312 546.160156 267.957031 546.160156 271.976562 L 574.554688 264.695312 " fill-opacity="1" fill-rule="nonzero"/><path fill="#000000" d="M 546.160156 272.835938 C 545.683594 272.835938 545.300781 272.449219 545.300781 271.976562 C 545.300781 267.488281 548.953125 263.839844 553.4375 263.839844 L 574.554688 263.839844 C 575.027344 263.839844 575.414062 264.222656 575.414062 264.695312 C 575.414062 265.171875 575.027344 265.554688 574.554688 265.554688 L 553.4375 265.554688 C 549.898438 265.554688 547.019531 268.4375 547.019531 271.976562 C 547.019531 272.449219 546.632812 272.835938 546.160156 272.835938 " fill-opacity="1" fill-rule="nonzero"/><path fill="#ffffff" d="M 915.761719 284.234375 L 915.761719 271.980469 C 915.761719 267.957031 912.503906 264.699219 908.484375 264.699219 L 886.765625 264.699219 L 915.761719 284.234375 " fill-opacity="1" fill-rule="nonzero"/><path fill="#000000" d="M 915.761719 285.09375 C 915.289062 285.09375 914.902344 284.710938 914.902344 284.234375 L 914.902344 271.980469 C 914.902344 268.4375 912.023438 265.558594 908.480469 265.558594 L 886.765625 265.558594 C 886.292969 265.558594 885.90625 265.175781 885.90625 264.699219 C 885.90625 264.226562 886.292969 263.839844 886.765625 263.839844 L 908.480469 263.839844 C 912.96875 263.839844 916.621094 267.492188 916.621094 271.980469 L 916.621094 284.234375 C 916.621094 284.710938 916.234375 285.09375 915.761719 285.09375 " fill-opacity="1" fill-rule="nonzero"/><path fill="#000000" d="M 915.761719 319.304688 C 915.289062 319.304688 914.902344 318.917969 914.902344 318.445312 L 914.902344 301.375 C 914.902344 300.902344 915.289062 300.515625 915.761719 300.515625 C 916.234375 300.515625 916.621094 300.902344 916.621094 301.375 L 916.621094 318.445312 C 916.621094 318.917969 916.234375 319.304688 915.761719 319.304688 " fill-opacity="1" fill-rule="nonzero"/><g clip-path="url(#18cfd48e8a)"><path fill="#d4c2ef" d="M 864.777344 518.171875 L 590.832031 518.171875 L 590.832031 183.90625 L 864.777344 183.90625 L 864.777344 518.171875 " fill-opacity="1" fill-rule="nonzero"/></g><path fill="#6549a4" d="M 743.304688 212.226562 L 611.0625 212.226562 L 611.0625 203.882812 L 743.304688 203.882812 L 743.304688 212.226562 " fill-opacity="1" fill-rule="nonzero"/><path fill="#ffffff" d="M 810.128906 226.71875 L 655.546875 226.71875 L 655.546875 218.03125 L 810.128906 218.03125 L 810.128906 226.71875 " fill-opacity="1" fill-rule="nonzero"/><path fill="#ffffff" d="M 844.554688 241.039062 L 689.972656 241.039062 L 689.972656 232.351562 L 844.554688 232.351562 L 844.554688 241.039062 " fill-opacity="1" fill-rule="nonzero"/><path fill="#ffffff" d="M 825.917969 255.355469 L 746.011719 255.355469 L 746.011719 246.671875 L 825.917969 246.671875 L 825.917969 255.355469 " fill-opacity="1" fill-rule="nonzero"/><path fill="#6549a4" d="M 743.300781 326.789062 L 611.058594 326.789062 L 611.058594 318.445312 L 743.300781 318.445312 L 743.300781 326.789062 " fill-opacity="1" fill-rule="nonzero"/><path fill="#ffffff" d="M 810.125 341.28125 L 655.546875 341.28125 L 655.546875 332.59375 L 810.125 332.59375 L 810.125 341.28125 " fill-opacity="1" fill-rule="nonzero"/><path fill="#ffffff" d="M 844.554688 355.601562 L 689.972656 355.601562 L 689.972656 346.914062 L 844.554688 346.914062 L 844.554688 355.601562 " fill-opacity="1" fill-rule="nonzero"/><path fill="#ffffff" d="M 844.554688 369.917969 L 746.011719 369.917969 L 746.011719 361.234375 L 844.554688 361.234375 L 844.554688 369.917969 " fill-opacity="1" fill-rule="nonzero"/><path fill="#ffffff" d="M 810.125 269.679688 L 655.546875 269.679688 L 655.546875 260.992188 L 810.125 260.992188 L 810.125 269.679688 " fill-opacity="1" fill-rule="nonzero"/><path fill="#ffffff" d="M 844.550781 284 L 689.972656 284 L 689.972656 275.316406 L 844.550781 275.316406 L 844.550781 284 " fill-opacity="1" fill-rule="nonzero"/><path fill="#ffffff" d="M 807.273438 312.640625 L 746.011719 312.640625 L 746.011719 303.957031 L 807.273438 303.957031 L 807.273438 312.640625 " fill-opacity="1" fill-rule="nonzero"/><path fill="#ffffff" d="M 844.550781 298.316406 L 746.011719 298.316406 L 746.011719 289.632812 L 844.550781 289.632812 L 844.550781 298.316406 " fill-opacity="1" fill-rule="nonzero"/><path fill="#6549a4" d="M 743.304688 384.070312 L 611.0625 384.070312 L 611.0625 375.722656 L 743.304688 375.722656 L 743.304688 384.070312 " fill-opacity="1" fill-rule="nonzero"/><path fill="#ffffff" d="M 810.125 398.558594 L 655.546875 398.558594 L 655.546875 389.875 L 810.125 389.875 L 810.125 398.558594 " fill-opacity="1" fill-rule="nonzero"/><path fill="#ffffff" d="M 839.585938 412.878906 L 689.972656 412.878906 L 689.972656 404.191406 L 839.585938 404.191406 L 839.585938 412.878906 " fill-opacity="1" fill-rule="nonzero"/><path fill="#6549a4" d="M 844.554688 427.203125 L 746.011719 427.203125 L 746.011719 418.515625 L 844.554688 418.515625 L 844.554688 427.203125 " fill-opacity="1" fill-rule="nonzero"/><path fill="#6549a4" d="M 773.5 498.800781 L 689.972656 498.800781 L 689.972656 490.117188 L 773.5 490.117188 L 773.5 498.800781 " fill-opacity="1" fill-rule="nonzero"/><path fill="#ffffff" d="M 810.125 441.523438 L 655.546875 441.523438 L 655.546875 432.835938 L 810.125 432.835938 L 810.125 441.523438 " fill-opacity="1" fill-rule="nonzero"/><path fill="#ffffff" d="M 844.554688 455.839844 L 689.972656 455.839844 L 689.972656 447.15625 L 844.554688 447.15625 L 844.554688 455.839844 " fill-opacity="1" fill-rule="nonzero"/><path fill="#ffffff" d="M 844.554688 484.480469 L 746.011719 484.480469 L 746.011719 475.796875 L 844.554688 475.796875 L 844.554688 484.480469 " fill-opacity="1" fill-rule="nonzero"/><path fill="#ffffff" d="M 802.429688 470.160156 L 746.011719 470.160156 L 746.011719 461.476562 L 802.429688 461.476562 L 802.429688 470.160156 " fill-opacity="1" fill-rule="nonzero"/><path fill="#000000" d="M 789.765625 620.898438 L 785.847656 620.898438 C 785.375 620.898438 784.988281 620.511719 784.988281 620.039062 C 784.988281 619.5625 785.375 619.179688 785.847656 619.179688 L 789.765625 619.179688 C 790.238281 619.179688 790.621094 619.5625 790.621094 620.039062 C 790.621094 620.511719 790.238281 620.898438 789.765625 620.898438 " fill-opacity="1" fill-rule="nonzero"/><path fill="#000000" d="M 778.847656 620.898438 L 757.828125 620.898438 C 757.355469 620.898438 756.96875 620.511719 756.96875 620.039062 C 756.96875 619.5625 757.355469 619.179688 757.828125 619.179688 L 778.847656 619.179688 C 779.320312 619.179688 779.707031 619.5625 779.707031 620.039062 C 779.707031 620.511719 779.320312 620.898438 778.847656 620.898438 " fill-opacity="1" fill-rule="nonzero"/><path fill="#000000" d="M 748.050781 620.898438 L 616.753906 620.898438 C 612.054688 620.898438 608.234375 617.074219 608.234375 612.378906 L 608.234375 552.90625 C 608.234375 549.15625 605.1875 546.105469 601.4375 546.105469 L 517.246094 546.105469 C 512.550781 546.105469 508.730469 542.289062 508.730469 537.59375 L 508.730469 504.820312 C 508.730469 504.34375 509.117188 503.960938 509.589844 503.960938 C 510.066406 503.960938 510.449219 504.34375 510.449219 504.820312 L 510.449219 537.59375 C 510.449219 541.339844 513.496094 544.390625 517.246094 544.390625 L 601.4375 544.390625 C 606.132812 544.390625 609.953125 548.210938 609.953125 552.90625 L 609.953125 612.378906 C 609.953125 616.128906 613.003906 619.179688 616.753906 619.179688 L 748.050781 619.179688 C 748.523438 619.179688 748.910156 619.5625 748.910156 620.039062 C 748.910156 620.511719 748.523438 620.898438 748.050781 620.898438 " fill-opacity="1" fill-rule="nonzero"/><path fill="#000000" d="M 509.589844 492.214844 C 509.117188 492.214844 508.730469 491.832031 508.730469 491.355469 L 508.730469 484.574219 C 508.730469 484.101562 509.117188 483.714844 509.589844 483.714844 C 510.066406 483.714844 510.449219 484.101562 510.449219 484.574219 L 510.449219 491.355469 C 510.449219 491.832031 510.066406 492.214844 509.589844 492.214844 " fill-opacity="1" fill-rule="nonzero"/><path fill="#000000" d="M 509.589844 478.046875 C 509.117188 478.046875 508.730469 477.660156 508.730469 477.1875 L 508.730469 462.894531 C 508.730469 462.421875 509.117188 462.035156 509.589844 462.035156 C 510.066406 462.035156 510.449219 462.421875 510.449219 462.894531 L 510.449219 477.1875 C 510.449219 477.660156 510.066406 478.046875 509.589844 478.046875 " fill-opacity="1" fill-rule="nonzero"/><path fill="#ffffff" d="M 641.320312 619.078125 C 642.554688 617.832031 649.675781 595.683594 649.675781 595.683594 L 663.742188 605.71875 L 648.320312 626.453125 L 641.320312 619.078125 " fill-opacity="1" fill-rule="nonzero"/><path fill="#000000" d="M 642.386719 618.949219 L 648.238281 625.121094 L 662.53125 605.910156 L 650.132812 597.0625 C 648.320312 602.671875 644.074219 615.59375 642.386719 618.949219 Z M 648.320312 627.308594 C 648.085938 627.308594 647.859375 627.214844 647.695312 627.042969 L 640.699219 619.667969 C 640.382812 619.335938 640.386719 618.816406 640.699219 618.488281 C 641.617188 617.3125 646.1875 603.722656 648.855469 595.417969 C 648.941406 595.15625 649.144531 594.953125 649.40625 594.867188 C 649.664062 594.777344 649.949219 594.824219 650.171875 594.980469 L 664.242188 605.019531 C 664.429688 605.15625 664.558594 605.359375 664.589844 605.585938 C 664.628906 605.816406 664.570312 606.046875 664.433594 606.230469 L 649.007812 626.960938 C 648.855469 627.167969 648.625 627.292969 648.371094 627.308594 C 648.351562 627.308594 648.335938 627.308594 648.320312 627.308594 " fill-opacity="1" fill-rule="nonzero"/><path fill="#000000" d="M 666.675781 647.082031 L 657.320312 647.027344 C 651.128906 646.992188 645.371094 643.847656 641.996094 638.65625 L 632.742188 624.007812 C 630.1875 619.960938 631.617188 614.597656 635.84375 612.351562 C 639.707031 610.296875 643.753906 608.300781 644.699219 608.386719 C 646.625 608.570312 647.402344 617.679688 647.402344 617.679688 L 655.738281 618 C 655.738281 618 659.855469 635.125 663.480469 637.070312 C 666.121094 638.488281 667.964844 640.570312 669.203125 642.472656 C 670.5 644.464844 669.054688 647.097656 666.675781 647.082031 " fill-opacity="1" fill-rule="nonzero"/><path fill="#ffffff" d="M 665.738281 644.289062 C 665.695312 644.289062 665.652344 644.285156 665.609375 644.277344 L 652.808594 642.351562 C 649.671875 641.878906 646.941406 640.046875 645.3125 637.324219 L 634.003906 618.433594 C 633.757812 618.027344 633.890625 617.5 634.296875 617.253906 C 634.703125 617.011719 635.234375 617.144531 635.476562 617.550781 L 646.785156 636.445312 C 648.148438 638.722656 650.4375 640.257812 653.066406 640.652344 L 665.863281 642.578125 C 666.332031 642.652344 666.65625 643.085938 666.582031 643.558594 C 666.519531 643.984375 666.152344 644.289062 665.738281 644.289062 " fill-opacity="1" fill-rule="nonzero"/><path fill="#ffffff" d="M 649.9375 630.082031 C 649.5625 630.082031 649.214844 629.828125 649.109375 629.449219 C 648.984375 628.988281 649.253906 628.515625 649.710938 628.394531 L 656.84375 626.453125 C 657.300781 626.328125 657.769531 626.597656 657.898438 627.054688 C 658.023438 627.511719 657.753906 627.984375 657.292969 628.109375 L 650.164062 630.050781 C 650.089844 630.070312 650.011719 630.082031 649.9375 630.082031 " fill-opacity="1" fill-rule="nonzero"/><path fill="#ffffff" d="M 653.652344 633.742188 C 653.265625 633.742188 652.914062 633.480469 652.820312 633.085938 C 652.707031 632.628906 652.988281 632.160156 653.449219 632.050781 L 658.230469 630.878906 C 658.691406 630.769531 659.152344 631.046875 659.265625 631.511719 C 659.378906 631.972656 659.097656 632.4375 658.636719 632.546875 L 653.855469 633.71875 C 653.789062 633.734375 653.71875 633.742188 653.652344 633.742188 " fill-opacity="1" fill-rule="nonzero"/><path fill="#ffffff" d="M 689.328125 614.851562 L 705.664062 631.265625 L 714.324219 628.082031 L 699.269531 607.085938 L 689.328125 614.851562 " fill-opacity="1" fill-rule="nonzero"/><path fill="#000000" d="M 690.621094 614.929688 L 705.886719 630.269531 L 712.96875 627.664062 L 699.089844 608.3125 Z M 705.664062 632.121094 C 705.441406 632.121094 705.222656 632.035156 705.054688 631.867188 L 688.722656 615.457031 C 688.546875 615.285156 688.457031 615.042969 688.472656 614.796875 C 688.488281 614.550781 688.609375 614.324219 688.800781 614.175781 L 698.738281 606.410156 C 698.921875 606.265625 699.15625 606.203125 699.390625 606.234375 C 699.621094 606.269531 699.828125 606.394531 699.964844 606.585938 L 715.023438 627.582031 C 715.179688 627.800781 715.226562 628.078125 715.144531 628.335938 C 715.066406 628.589844 714.871094 628.796875 714.621094 628.890625 L 705.960938 632.070312 C 705.863281 632.105469 705.761719 632.121094 705.664062 632.121094 " fill-opacity="1" fill-rule="nonzero"/><path fill="#000000" d="M 700.503906 628.695312 C 700.503906 628.695312 699.714844 635.679688 701.054688 641.847656 C 701.769531 645.136719 704.730469 647.449219 708.097656 647.449219 L 748.1875 647.449219 C 751.054688 647.449219 752.351562 643.871094 750.152344 642.03125 C 743.027344 636.058594 729.914062 626.941406 713.789062 624.265625 L 709.292969 630.558594 L 700.503906 628.695312 " fill-opacity="1" fill-rule="nonzero"/><path fill="#ffffff" d="M 746.28125 642.796875 L 704.730469 642.796875 C 704.257812 642.796875 703.871094 642.410156 703.871094 641.9375 C 703.871094 641.464844 704.257812 641.078125 704.730469 641.078125 L 746.28125 641.078125 C 746.753906 641.078125 747.140625 641.464844 747.140625 641.9375 C 747.140625 642.410156 746.753906 642.796875 746.28125 642.796875 " fill-opacity="1" fill-rule="nonzero"/><path fill="#ffffff" d="M 723.097656 635.414062 C 722.988281 635.414062 722.878906 635.394531 722.769531 635.351562 C 722.328125 635.167969 722.125 634.667969 722.304688 634.230469 L 724.503906 628.894531 C 724.683594 628.457031 725.183594 628.246094 725.625 628.429688 C 726.0625 628.609375 726.269531 629.109375 726.089844 629.546875 L 723.890625 634.882812 C 723.753906 635.214844 723.433594 635.414062 723.097656 635.414062 " fill-opacity="1" fill-rule="nonzero"/><path fill="#ffffff" d="M 730.328125 636.816406 C 730.238281 636.816406 730.148438 636.804688 730.058594 636.773438 C 729.605469 636.625 729.363281 636.140625 729.511719 635.6875 L 731.101562 630.875 C 731.25 630.425781 731.738281 630.183594 732.1875 630.332031 C 732.640625 630.480469 732.882812 630.964844 732.734375 631.417969 L 731.144531 636.226562 C 731.023438 636.589844 730.6875 636.816406 730.328125 636.816406 " fill-opacity="1" fill-rule="nonzero"/><path fill="#000000" d="M 602.863281 500.003906 C 602.863281 500.003906 677.519531 491.3125 699.71875 510.527344 C 721.917969 529.746094 664.671875 612.378906 664.671875 612.378906 L 646.574219 598.957031 L 663.742188 540.550781 L 594.734375 520.949219 L 602.863281 500.003906 " fill-opacity="1" fill-rule="nonzero"/><path fill="#000000" d="M 561.777344 538.035156 C 572.621094 541.476562 592.023438 545.925781 619.144531 545.554688 C 626.851562 545.453125 633.964844 549.710938 637.464844 556.574219 C 645.496094 572.328125 662.882812 600.695312 691.207031 619.078125 L 704.730469 611.789062 L 670.207031 534.078125 C 667.054688 526.980469 661.160156 521.464844 653.871094 518.792969 L 585.453125 493.703125 C 585.453125 493.703125 564.238281 487.773438 553.835938 506.714844 C 551.976562 510.09375 550.714844 513.144531 549.894531 515.875 C 547.078125 525.230469 552.460938 535.078125 561.777344 538.035156 " fill-opacity="1" fill-rule="nonzero"/><path fill="#ffffff" d="M 685.808594 570.054688 C 685.480469 570.054688 685.164062 569.863281 685.027344 569.542969 L 669.425781 534.425781 C 666.382812 527.582031 660.605469 522.179688 653.578125 519.597656 L 620.8125 507.582031 C 620.367188 507.421875 620.136719 506.925781 620.300781 506.484375 C 620.464844 506.035156 620.957031 505.808594 621.402344 505.972656 L 654.167969 517.988281 C 661.632812 520.726562 667.765625 526.460938 670.992188 533.726562 L 686.59375 568.84375 C 686.789062 569.277344 686.589844 569.785156 686.15625 569.976562 C 686.046875 570.03125 685.925781 570.054688 685.808594 570.054688 " fill-opacity="1" fill-rule="nonzero"/><path fill="#ffffff" d="M 667.59375 600.242188 C 667.371094 600.242188 667.144531 600.152344 666.976562 599.976562 C 663.832031 596.707031 660.734375 593.195312 657.78125 589.539062 C 657.480469 589.171875 657.539062 588.632812 657.910156 588.332031 C 658.277344 588.035156 658.816406 588.09375 659.113281 588.460938 C 662.042969 592.078125 665.101562 595.550781 668.210938 598.789062 C 668.542969 599.128906 668.53125 599.671875 668.1875 600 C 668.023438 600.160156 667.808594 600.242188 667.59375 600.242188 " fill-opacity="1" fill-rule="nonzero"/><path fill="#ffffff" d="M 658.449219 589.859375 C 658.195312 589.859375 657.949219 589.75 657.78125 589.539062 C 656.324219 587.742188 654.878906 585.878906 653.476562 583.996094 C 653.195312 583.617188 653.273438 583.078125 653.652344 582.796875 C 654.035156 582.511719 654.570312 582.589844 654.855469 582.972656 C 656.242188 584.835938 657.675781 586.683594 659.113281 588.460938 C 659.414062 588.832031 659.355469 589.371094 658.988281 589.667969 C 658.828125 589.796875 658.636719 589.859375 658.449219 589.859375 " fill-opacity="1" fill-rule="nonzero"/><path fill="#000000" d="M 590.789062 398 C 590.789062 398 599.683594 387.207031 608.828125 392.585938 C 614.160156 395.730469 618.757812 401.050781 626.027344 404.363281 C 629.046875 405.742188 630.808594 406.054688 630.808594 406.054688 C 630.808594 406.054688 625.796875 409.078125 611.433594 409.578125 C 597.074219 410.078125 590.789062 398 590.789062 398 " fill-opacity="1" fill-rule="nonzero"/><path fill="#000000" d="M 616.175781 388.59375 C 608.863281 387.417969 604.417969 380.164062 603.082031 376.179688 C 602.164062 373.445312 602.628906 371.992188 602.917969 371.34375 C 603.902344 369.144531 606.40625 368.324219 607.410156 367.964844 C 616.691406 364.625 617.023438 357.601562 624.265625 356.820312 C 630.140625 356.1875 630.261719 360.773438 639.996094 361.621094 C 641.972656 361.792969 644.992188 361.867188 648.046875 363.835938 C 649.503906 364.78125 651.558594 366.105469 651.847656 367.933594 C 652.140625 369.777344 650.691406 372.554688 631.574219 382.746094 C 620.644531 388.574219 618.636719 388.992188 616.175781 388.59375 " fill-opacity="1" fill-rule="nonzero"/><path fill="#ffffff" d="M 635.429688 375.847656 C 635.429688 375.847656 624.753906 371.929688 621.035156 372.148438 C 617.3125 372.363281 617.464844 381.828125 617.464844 381.828125 C 617.464844 381.828125 613.640625 377.484375 611.378906 380.28125 C 609.117188 383.082031 615.050781 386.210938 615.050781 386.210938 L 596.28125 403.410156 L 613.671875 407.925781 L 622.507812 398.300781 C 622.507812 398.300781 625.464844 401.714844 628.164062 401.011719 C 630.863281 400.308594 634.792969 393.21875 634.792969 393.21875 C 636.261719 392.992188 637.203125 391.542969 636.820312 390.113281 L 636.132812 387.558594 C 635.710938 386.007812 635.691406 384.367188 636.070312 382.804688 C 636.578125 380.714844 636.441406 378.523438 635.679688 376.515625 L 635.429688 375.847656 " fill-opacity="1" fill-rule="nonzero"/><path fill="#000000" d="M 598.027344 402.976562 L 613.390625 406.964844 L 621.875 397.71875 C 622.042969 397.539062 622.277344 397.445312 622.519531 397.441406 C 622.765625 397.445312 622.996094 397.550781 623.15625 397.738281 C 623.886719 398.574219 626.167969 400.644531 627.949219 400.179688 C 629.65625 399.738281 632.59375 395.421875 634.042969 392.804688 C 634.171875 392.570312 634.402344 392.414062 634.664062 392.371094 C 635.128906 392.300781 635.523438 392.042969 635.78125 391.648438 C 636.039062 391.257812 636.109375 390.789062 635.988281 390.335938 L 635.300781 387.78125 C 634.847656 386.09375 634.824219 384.300781 635.238281 382.601562 C 635.703125 380.675781 635.578125 378.675781 634.878906 376.816406 L 634.765625 376.519531 C 631.574219 375.371094 623.859375 372.839844 621.082031 373.003906 C 618.898438 373.128906 618.28125 378.996094 618.324219 381.816406 C 618.328125 382.175781 618.109375 382.5 617.777344 382.628906 C 617.441406 382.761719 617.058594 382.667969 616.820312 382.398438 C 616.273438 381.777344 614.554688 380.167969 613.195312 380.203125 C 612.746094 380.210938 612.382812 380.410156 612.046875 380.824219 C 611.765625 381.171875 611.671875 381.511719 611.75 381.898438 C 612.019531 383.199219 614.164062 384.769531 615.453125 385.453125 C 615.699219 385.585938 615.867188 385.828125 615.902344 386.105469 C 615.9375 386.382812 615.835938 386.65625 615.632812 386.847656 Z M 613.671875 408.785156 C 613.601562 408.785156 613.53125 408.777344 613.457031 408.757812 L 596.066406 404.242188 C 595.761719 404.164062 595.523438 403.925781 595.449219 403.617188 C 595.371094 403.3125 595.46875 402.988281 595.703125 402.777344 L 613.621094 386.359375 C 612.375 385.546875 610.4375 384.027344 610.070312 382.246094 C 609.886719 381.355469 610.109375 380.488281 610.710938 379.742188 C 611.359375 378.941406 612.207031 378.507812 613.164062 378.484375 C 614.445312 378.453125 615.722656 379.191406 616.65625 379.910156 C 616.835938 376.875 617.625 371.484375 620.984375 371.289062 C 624.835938 371.058594 635.28125 374.878906 635.726562 375.039062 C 635.960938 375.125 636.144531 375.308594 636.234375 375.542969 L 636.484375 376.210938 C 637.308594 378.390625 637.453125 380.742188 636.90625 383.007812 C 636.5625 384.425781 636.578125 385.925781 636.960938 387.335938 L 637.648438 389.890625 C 637.894531 390.808594 637.738281 391.789062 637.21875 392.585938 C 636.78125 393.257812 636.117188 393.75 635.355469 393.972656 C 634.457031 395.539062 631.085938 401.136719 628.378906 401.84375 C 626.027344 402.457031 623.652344 400.609375 622.527344 399.546875 L 614.304688 408.507812 C 614.140625 408.6875 613.910156 408.785156 613.671875 408.785156 " fill-opacity="1" fill-rule="nonzero"/><path fill="#000000" d="M 622.511719 399.160156 C 622.269531 399.160156 622.027344 399.058594 621.859375 398.859375 C 619.421875 396.023438 618.882812 393.28125 618.859375 393.167969 C 618.773438 392.703125 619.078125 392.253906 619.542969 392.164062 C 620.007812 392.074219 620.457031 392.382812 620.546875 392.847656 C 620.554688 392.886719 621.046875 395.28125 623.160156 397.738281 C 623.46875 398.097656 623.429688 398.640625 623.066406 398.949219 C 622.90625 399.089844 622.707031 399.160156 622.511719 399.160156 " fill-opacity="1" fill-rule="nonzero"/><path fill="#ffffff" d="M 700.335938 382.324219 C 700.710938 381.578125 702.574219 379.363281 703.421875 378.726562 L 712.390625 370.386719 C 712.390625 370.386719 713.558594 374.402344 712.140625 376.773438 C 714.894531 376.867188 717.074219 377.332031 717.074219 377.332031 C 717.074219 377.332031 721.171875 373.726562 722.191406 373.101562 C 723.210938 372.480469 724.542969 371.492188 725.914062 371.511719 C 727.289062 371.53125 728.65625 372.582031 728.65625 372.582031 L 720.777344 382.566406 L 706.453125 386.507812 L 703.476562 411.171875 L 696.945312 402.425781 L 700.335938 382.324219 " fill-opacity="1" fill-rule="nonzero"/><path fill="#000000" d="M 697.855469 402.207031 L 702.882812 408.941406 L 705.601562 386.40625 C 705.640625 386.058594 705.890625 385.773438 706.226562 385.679688 L 720.277344 381.8125 L 727.382812 372.804688 C 726.949219 372.582031 726.402344 372.375 725.90625 372.371094 C 725 372.371094 723.976562 372.992188 723.097656 373.550781 C 722.9375 373.648438 722.785156 373.746094 722.640625 373.832031 C 721.9375 374.265625 719.265625 376.546875 717.644531 377.980469 C 717.4375 378.160156 717.164062 378.230469 716.894531 378.171875 C 716.871094 378.167969 714.75 377.71875 712.113281 377.632812 C 711.8125 377.621094 711.535156 377.453125 711.390625 377.1875 C 711.246094 376.917969 711.25 376.59375 711.40625 376.335938 C 712.09375 375.179688 712.050781 373.390625 711.859375 372.054688 L 704.011719 379.355469 C 703.988281 379.375 703.964844 379.394531 703.941406 379.410156 C 703.230469 379.941406 701.589844 381.878906 701.160156 382.605469 Z M 703.476562 412.03125 C 703.210938 412.03125 702.953125 411.90625 702.792969 411.683594 L 696.257812 402.9375 C 696.117188 402.75 696.0625 402.511719 696.101562 402.28125 L 699.492188 382.179688 C 699.503906 382.097656 699.53125 382.015625 699.570312 381.9375 C 699.992188 381.097656 701.882812 378.832031 702.871094 378.066406 L 711.808594 369.757812 C 712.027344 369.554688 712.332031 369.480469 712.621094 369.5625 C 712.910156 369.640625 713.132812 369.863281 713.214844 370.148438 C 713.261719 370.300781 714.144531 373.417969 713.40625 375.980469 C 714.953125 376.09375 716.199219 376.296875 716.824219 376.410156 C 717.859375 375.507812 720.824219 372.929688 721.742188 372.371094 C 721.882812 372.285156 722.027344 372.195312 722.175781 372.097656 C 723.207031 371.445312 724.484375 370.628906 725.925781 370.652344 C 727.542969 370.671875 729.015625 371.777344 729.179688 371.902344 C 729.359375 372.039062 729.476562 372.25 729.503906 372.476562 C 729.535156 372.707031 729.46875 372.933594 729.328125 373.113281 L 721.453125 383.097656 C 721.335938 383.242188 721.179688 383.34375 721.003906 383.394531 L 707.238281 387.179688 L 704.332031 411.277344 C 704.289062 411.625 704.039062 411.910156 703.699219 412 C 703.625 412.023438 703.550781 412.03125 703.476562 412.03125 " fill-opacity="1" fill-rule="nonzero"/><path fill="#573696" d="M 627.210938 408.683594 C 627.210938 408.683594 641.789062 422.980469 669.457031 419.753906 C 697.125 416.523438 697.941406 387.644531 697.941406 387.644531 L 707.023438 387.644531 C 707.023438 387.644531 720.445312 438.117188 672.566406 454.003906 C 624.683594 469.890625 609.09375 442.03125 609.09375 442.03125 L 627.210938 408.683594 " fill-opacity="1" fill-rule="nonzero"/><path fill="#573696" d="M 588.675781 525.832031 C 588.675781 525.832031 559.242188 537.59375 542.628906 526.253906 C 521.667969 511.941406 532.605469 471.167969 540.054688 454.003906 C 546.632812 438.835938 556.730469 428.160156 571.523438 412.523438 C 575.746094 408.0625 578.304688 405.730469 582.199219 403.871094 C 597.625 396.480469 616.335938 404.847656 625.535156 408.964844 C 632.519531 412.09375 637.894531 415.5625 641.5 418.15625 C 641.5 418.15625 611.957031 454.589844 612.558594 476.710938 C 613.15625 498.832031 622.246094 497.910156 622.246094 497.910156 C 622.246094 497.910156 609.699219 518.0625 588.675781 525.832031 " fill-opacity="1" fill-rule="nonzero"/><path fill="#573696" d="M 613.15625 422.515625 C 613.996094 429.09375 616.007812 437.460938 620.78125 446.046875 C 636.007812 473.445312 666.546875 480.09375 672.574219 481.28125 L 666.535156 488.007812 C 666.535156 488.007812 601.65625 498.652344 582.84375 439.382812 C 582.84375 439.382812 575.699219 417.253906 591.585938 411.785156 C 594.894531 410.648438 599.246094 409.984375 603.402344 411.605469 C 610.613281 414.414062 612.871094 421.5625 613.15625 422.515625 " fill-opacity="1" fill-rule="nonzero"/><path fill="#ffffff" d="M 665.878906 486.695312 C 666.371094 486.402344 670.898438 479.386719 675.875 477.921875 C 680.84375 476.460938 691.664062 487.378906 691.664062 487.378906 L 665.878906 486.695312 " fill-opacity="1" fill-rule="nonzero"/><path fill="#000000" d="M 665.441406 485.957031 Z M 667.664062 485.882812 L 689.472656 486.460938 C 685.816406 483.082031 679.25 477.824219 676.113281 478.75 C 672.671875 479.761719 669.328125 483.789062 667.664062 485.882812 Z M 691.664062 488.238281 C 691.65625 488.238281 691.648438 488.238281 691.640625 488.238281 L 665.855469 487.554688 C 665.472656 487.546875 665.144531 487.28125 665.046875 486.914062 C 664.960938 486.574219 665.085938 486.21875 665.363281 486.011719 C 665.464844 485.90625 665.746094 485.546875 666 485.222656 C 667.625 483.164062 671.425781 478.335938 675.628906 477.101562 C 680.941406 475.539062 691.128906 485.621094 692.273438 486.773438 C 692.519531 487.023438 692.589844 487.398438 692.453125 487.71875 C 692.316406 488.03125 692.007812 488.238281 691.664062 488.238281 " fill-opacity="1" fill-rule="nonzero"/><path fill="#573696" d="M 570.488281 413.617188 C 570.488281 413.617188 561.179688 396.902344 594.734375 394.882812 C 600.277344 394.546875 602.070312 395.296875 609.882812 399.761719 C 626.652344 409.351562 630.808594 406.054688 630.808594 406.054688 L 627.210938 417.636719 L 570.488281 413.617188 " fill-opacity="1" fill-rule="nonzero"/><path fill="#000000" d="M 574.554688 411.617188 C 574.414062 411.617188 574.273438 411.582031 574.144531 411.511719 C 573.726562 411.28125 573.574219 410.765625 573.800781 410.347656 C 573.890625 410.179688 583.070312 393.8125 602.613281 401.871094 C 603.050781 402.054688 603.261719 402.554688 603.078125 402.992188 C 602.898438 403.429688 602.394531 403.640625 601.957031 403.460938 C 583.863281 395.996094 575.648438 410.546875 575.308594 411.167969 C 575.152344 411.453125 574.855469 411.617188 574.554688 411.617188 " fill-opacity="1" fill-rule="nonzero"/><path fill="#ffffff" d="M 612.554688 477.570312 C 612.378906 477.570312 612.203125 477.515625 612.050781 477.40625 C 610.90625 476.570312 583.960938 456.667969 579.9375 434.527344 C 579.851562 434.058594 580.160156 433.613281 580.625 433.527344 C 581.09375 433.445312 581.539062 433.753906 581.625 434.222656 C 585.53125 455.695312 612.789062 475.816406 613.0625 476.019531 C 613.445312 476.296875 613.53125 476.832031 613.25 477.21875 C 613.082031 477.449219 612.820312 477.570312 612.554688 477.570312 " fill-opacity="1" fill-rule="nonzero"/><path fill="#000000" d="M 624.058594 453.679688 C 623.855469 453.679688 623.648438 453.609375 623.484375 453.460938 C 623.132812 453.144531 623.101562 452.601562 623.417969 452.25 C 633.054688 441.46875 631.324219 426.234375 631.304688 426.085938 C 631.25 425.613281 631.582031 425.183594 632.054688 425.128906 C 632.527344 425.070312 632.953125 425.40625 633.011719 425.875 C 633.089844 426.527344 634.867188 442.015625 624.695312 453.390625 C 624.527344 453.582031 624.292969 453.679688 624.058594 453.679688 " fill-opacity="1" fill-rule="nonzero"/><path fill="#ffffff" d="M 622.527344 450.625 C 622.210938 450.625 621.910156 450.449219 621.757812 450.148438 L 612.542969 431.773438 C 612.332031 431.351562 612.503906 430.832031 612.925781 430.621094 C 613.347656 430.410156 613.867188 430.578125 614.078125 431.003906 L 623.292969 449.378906 C 623.507812 449.804688 623.335938 450.320312 622.910156 450.535156 C 622.785156 450.59375 622.65625 450.625 622.527344 450.625 " fill-opacity="1" fill-rule="nonzero"/><path fill="#000000" d="M 755.59375 485.5625 L 700.664062 485.5625 L 741.386719 422.933594 C 742.660156 420.976562 744.875 419.789062 747.257812 419.789062 L 791.835938 419.789062 C 794.667969 419.789062 796.390625 422.820312 794.878906 425.144531 L 755.59375 485.5625 " fill-opacity="1" fill-rule="nonzero"/><path fill="#ffffff" d="M 767.3125 441.75 C 765.527344 444.496094 761.691406 446.722656 758.738281 446.722656 C 755.789062 446.722656 754.84375 444.496094 756.628906 441.75 C 758.414062 439.003906 762.253906 436.78125 765.203125 436.78125 C 768.152344 436.78125 769.097656 439.003906 767.3125 441.75 " fill-opacity="1" fill-rule="nonzero"/><path fill="#000000" d="M 754.027344 490.792969 L 654.753906 490.792969 C 653.777344 490.792969 652.984375 490 652.984375 489.023438 L 652.984375 485.113281 L 755.792969 485.113281 L 755.792969 489.023438 C 755.792969 490 755 490.792969 754.027344 490.792969 " fill-opacity="1" fill-rule="nonzero"/><path fill="#ffffff" d="M 752.738281 486.476562 L 705.5625 486.476562 C 705.089844 486.476562 704.703125 486.09375 704.703125 485.621094 C 704.703125 485.144531 705.089844 484.761719 705.5625 484.761719 L 752.738281 484.761719 C 753.210938 484.761719 753.597656 485.144531 753.597656 485.621094 C 753.597656 486.09375 753.210938 486.476562 752.738281 486.476562 " fill-opacity="1" fill-rule="nonzero"/><path fill="#573696" d="M 743.515625 349.574219 C 734.828125 351.953125 725.867188 346.839844 723.488281 338.164062 C 721.113281 329.480469 726.222656 320.519531 734.902344 318.140625 C 743.585938 315.761719 752.546875 320.875 754.929688 329.554688 C 757.304688 338.234375 752.195312 347.199219 743.515625 349.574219 Z M 771.632812 328.261719 L 769.960938 322.15625 L 763.054688 322.46875 C 762.414062 321.125 761.667969 319.851562 760.832031 318.65625 L 764.492188 312.800781 L 759.992188 308.347656 L 754.164062 312.074219 C 752.949219 311.242188 751.671875 310.511719 750.339844 309.890625 L 750.570312 302.980469 L 744.449219 301.375 L 741.273438 307.507812 C 739.820312 307.390625 738.34375 307.40625 736.863281 307.539062 L 733.613281 301.4375 L 727.507812 303.105469 L 727.820312 310.015625 C 726.472656 310.65625 725.203125 311.394531 724.007812 312.234375 L 718.148438 308.578125 L 713.699219 313.078125 L 717.425781 318.902344 C 716.59375 320.117188 715.863281 321.398438 715.242188 322.730469 L 708.332031 322.492188 L 706.726562 328.617188 L 712.859375 331.792969 C 712.746094 333.246094 712.753906 334.722656 712.886719 336.207031 L 706.785156 339.453125 L 708.457031 345.5625 L 715.363281 345.246094 C 716.003906 346.589844 716.746094 347.863281 717.585938 349.058594 L 713.925781 354.917969 L 718.425781 359.367188 L 724.257812 355.640625 C 725.46875 356.472656 726.746094 357.203125 728.082031 357.824219 L 727.84375 364.734375 L 733.96875 366.339844 L 737.144531 360.210938 C 738.597656 360.324219 740.074219 360.3125 741.554688 360.175781 L 744.808594 366.28125 L 750.910156 364.609375 L 750.597656 357.703125 C 751.941406 357.0625 753.21875 356.320312 754.410156 355.484375 L 760.269531 359.140625 L 764.71875 354.636719 L 760.992188 348.8125 C 761.824219 347.601562 762.554688 346.320312 763.171875 344.984375 L 770.085938 345.222656 L 771.691406 339.101562 L 765.558594 335.921875 C 765.675781 334.46875 765.664062 332.992188 765.527344 331.511719 L 771.632812 328.261719 " fill-opacity="1" fill-rule="nonzero"/><path fill="#000000" d="M 736.527344 316.871094 C 735.15625 316.871094 733.78125 317.054688 732.425781 317.425781 C 728.449219 318.515625 725.132812 321.089844 723.09375 324.671875 C 721.046875 328.253906 720.523438 332.414062 721.613281 336.394531 C 722.699219 340.371094 725.273438 343.6875 728.855469 345.730469 C 732.4375 347.769531 736.601562 348.296875 740.582031 347.207031 C 744.554688 346.117188 747.871094 343.542969 749.917969 339.964844 C 751.957031 336.382812 752.480469 332.21875 751.390625 328.242188 C 750.300781 324.261719 747.730469 320.945312 744.148438 318.90625 C 741.789062 317.558594 739.175781 316.871094 736.527344 316.871094 Z M 740.808594 348.035156 L 740.8125 348.035156 Z M 736.472656 349.476562 C 733.53125 349.476562 730.628906 348.714844 728.003906 347.21875 C 724.027344 344.949219 721.167969 341.265625 719.957031 336.847656 C 718.746094 332.429688 719.332031 327.800781 721.597656 323.820312 C 723.867188 319.839844 727.550781 316.980469 731.972656 315.769531 C 736.390625 314.558594 741.019531 315.144531 745 317.414062 C 748.980469 319.683594 751.835938 323.367188 753.050781 327.785156 C 754.257812 332.207031 753.675781 336.832031 751.40625 340.8125 C 749.136719 344.792969 745.453125 347.652344 741.03125 348.863281 C 739.523438 349.277344 737.996094 349.476562 736.472656 349.476562 Z M 726.019531 362.539062 L 730.8125 363.792969 L 733.675781 358.273438 C 733.835938 357.964844 734.164062 357.785156 734.503906 357.8125 C 735.902344 357.917969 737.335938 357.910156 738.769531 357.777344 C 739.113281 357.75 739.445312 357.925781 739.605469 358.234375 L 742.53125 363.730469 L 747.316406 362.417969 L 747.03125 356.199219 C 747.019531 355.855469 747.210938 355.535156 747.519531 355.386719 C 748.824219 354.761719 750.0625 354.042969 751.207031 353.238281 C 751.488281 353.039062 751.863281 353.027344 752.15625 353.210938 L 757.433594 356.507812 L 760.917969 352.980469 L 757.5625 347.730469 C 757.378906 347.441406 757.382812 347.070312 757.574219 346.785156 C 758.382812 345.617188 759.089844 344.367188 759.6875 343.082031 C 759.835938 342.769531 760.140625 342.566406 760.496094 342.585938 L 766.722656 342.800781 L 767.976562 338.003906 L 762.460938 335.140625 C 762.152344 334.984375 761.972656 334.65625 761.996094 334.3125 C 762.105469 332.917969 762.09375 331.484375 761.964844 330.046875 C 761.933594 329.703125 762.113281 329.371094 762.417969 329.210938 L 767.917969 326.285156 L 766.609375 321.503906 L 760.382812 321.789062 C 760.023438 321.796875 759.71875 321.609375 759.570312 321.296875 C 758.953125 319.996094 758.226562 318.757812 757.425781 317.609375 C 757.226562 317.328125 757.214844 316.953125 757.398438 316.660156 L 760.691406 311.386719 L 757.167969 307.902344 L 751.917969 311.257812 C 751.628906 311.441406 751.253906 311.433594 750.972656 311.238281 C 749.800781 310.441406 748.554688 309.730469 747.265625 309.128906 C 746.957031 308.984375 746.757812 308.664062 746.773438 308.324219 L 746.984375 302.097656 L 742.1875 300.839844 L 739.328125 306.359375 C 739.171875 306.667969 738.859375 306.851562 738.5 306.820312 C 737.101562 306.710938 735.667969 306.722656 734.230469 306.851562 C 733.890625 306.882812 733.558594 306.707031 733.398438 306.402344 L 730.472656 300.902344 L 725.6875 302.214844 L 725.972656 308.433594 C 725.984375 308.777344 725.792969 309.097656 725.484375 309.246094 C 724.183594 309.867188 722.945312 310.589844 721.796875 311.394531 C 721.515625 311.59375 721.140625 311.605469 720.847656 311.421875 L 715.570312 308.125 L 712.085938 311.652344 L 715.441406 316.898438 C 715.628906 317.191406 715.621094 317.5625 715.425781 317.847656 C 714.625 319.019531 713.914062 320.265625 713.316406 321.550781 C 713.171875 321.863281 712.855469 322.0625 712.507812 322.046875 L 706.28125 321.835938 L 705.023438 326.628906 L 710.546875 329.488281 C 710.851562 329.648438 711.03125 329.976562 711.007812 330.320312 C 710.898438 331.714844 710.910156 333.148438 711.039062 334.585938 C 711.070312 334.933594 710.890625 335.261719 710.582031 335.421875 L 705.085938 338.347656 L 706.398438 343.128906 L 712.617188 342.847656 C 712.957031 342.832031 713.285156 343.023438 713.433594 343.335938 C 714.054688 344.636719 714.777344 345.878906 715.582031 347.023438 C 715.777344 347.304688 715.789062 347.675781 715.609375 347.96875 L 712.3125 353.25 L 715.839844 356.734375 L 721.085938 353.375 C 721.375 353.191406 721.75 353.199219 722.035156 353.394531 C 723.203125 354.195312 724.449219 354.90625 725.738281 355.503906 C 726.050781 355.648438 726.246094 355.96875 726.234375 356.3125 Z M 731.261719 365.660156 C 731.1875 365.660156 731.113281 365.648438 731.042969 365.628906 L 724.921875 364.023438 C 724.53125 363.921875 724.265625 363.566406 724.277344 363.164062 L 724.496094 356.8125 C 723.476562 356.316406 722.488281 355.75 721.539062 355.125 L 716.183594 358.550781 C 715.847656 358.765625 715.402344 358.71875 715.117188 358.4375 L 710.617188 353.984375 C 710.335938 353.703125 710.28125 353.261719 710.492188 352.917969 L 713.851562 347.539062 C 713.226562 346.605469 712.648438 345.617188 712.132812 344.589844 L 705.792969 344.875 C 705.375 344.894531 705.027344 344.632812 704.921875 344.246094 L 703.25 338.140625 C 703.144531 337.75 703.320312 337.34375 703.675781 337.15625 L 709.28125 334.167969 C 709.203125 333.023438 709.195312 331.878906 709.257812 330.757812 L 703.625 327.835938 C 703.269531 327.652344 703.085938 327.246094 703.1875 326.859375 L 704.792969 320.734375 C 704.894531 320.34375 705.257812 320.074219 705.65625 320.09375 L 712.003906 320.3125 C 712.503906 319.292969 713.070312 318.300781 713.691406 317.351562 L 710.269531 312 C 710.050781 311.660156 710.097656 311.21875 710.382812 310.933594 L 714.835938 306.433594 C 715.117188 306.148438 715.558594 306.09375 715.898438 306.308594 L 721.28125 309.667969 C 722.214844 309.039062 723.207031 308.460938 724.230469 307.949219 L 723.941406 301.605469 C 723.925781 301.203125 724.183594 300.84375 724.570312 300.738281 L 730.679688 299.066406 C 731.066406 298.960938 731.476562 299.136719 731.664062 299.492188 L 734.648438 305.097656 C 735.792969 305.015625 736.9375 305.007812 738.0625 305.070312 L 740.980469 299.4375 C 741.167969 299.082031 741.574219 298.902344 741.960938 299.003906 L 748.085938 300.609375 C 748.472656 300.710938 748.738281 301.066406 748.722656 301.46875 L 748.507812 307.820312 C 749.527344 308.320312 750.515625 308.886719 751.46875 309.507812 L 756.820312 306.082031 C 757.15625 305.867188 757.601562 305.914062 757.886719 306.195312 L 762.386719 310.648438 C 762.671875 310.929688 762.722656 311.375 762.507812 311.714844 L 759.152344 317.09375 C 759.777344 318.03125 760.355469 319.019531 760.867188 320.042969 L 767.210938 319.757812 C 767.609375 319.742188 767.972656 320 768.078125 320.386719 L 769.753906 326.496094 C 769.859375 326.878906 769.683594 327.289062 769.328125 327.476562 L 763.71875 330.464844 C 763.800781 331.609375 763.8125 332.75 763.746094 333.875 L 769.382812 336.796875 C 769.734375 336.980469 769.917969 337.386719 769.816406 337.777344 L 768.210938 343.902344 C 768.109375 344.285156 767.746094 344.554688 767.351562 344.539062 L 761 344.320312 C 760.5 345.339844 759.9375 346.332031 759.3125 347.28125 L 762.738281 352.632812 C 762.949219 352.96875 762.902344 353.414062 762.621094 353.699219 L 758.171875 358.203125 C 757.886719 358.484375 757.445312 358.539062 757.105469 358.328125 L 751.722656 354.964844 C 750.789062 355.59375 749.800781 356.167969 748.773438 356.683594 L 749.0625 363.027344 C 749.082031 363.429688 748.816406 363.789062 748.429688 363.894531 L 742.328125 365.566406 C 741.9375 365.671875 741.527344 365.496094 741.339844 365.140625 L 738.355469 359.535156 C 737.207031 359.613281 736.066406 359.625 734.941406 359.558594 L 732.023438 365.195312 C 731.875 365.484375 731.574219 365.660156 731.261719 365.660156 " fill-opacity="1" fill-rule="nonzero"/><path fill="#573696" d="M 893.167969 236.910156 C 889.148438 238.011719 885 235.644531 883.902344 231.625 C 882.800781 227.609375 885.164062 223.460938 889.183594 222.363281 C 893.199219 221.261719 897.347656 223.628906 898.449219 227.644531 C 899.546875 231.660156 897.183594 235.8125 893.167969 236.910156 Z M 906.175781 227.046875 L 905.402344 224.222656 L 902.207031 224.367188 C 901.914062 223.746094 901.570312 223.15625 901.179688 222.601562 L 902.871094 219.890625 L 900.792969 217.832031 L 898.09375 219.554688 C 897.535156 219.171875 896.941406 218.835938 896.324219 218.546875 L 896.433594 215.347656 L 893.601562 214.605469 L 892.128906 217.445312 C 891.457031 217.390625 890.773438 217.394531 890.089844 217.457031 L 888.585938 214.632812 L 885.761719 215.40625 L 885.902344 218.605469 C 885.28125 218.898438 884.691406 219.242188 884.140625 219.628906 L 881.429688 217.9375 L 879.371094 220.019531 L 881.09375 222.714844 C 880.707031 223.28125 880.371094 223.871094 880.085938 224.488281 L 876.886719 224.378906 L 876.140625 227.210938 L 878.980469 228.683594 C 878.929688 229.351562 878.933594 230.035156 878.996094 230.722656 L 876.171875 232.226562 L 876.945312 235.050781 L 880.140625 234.90625 C 880.441406 235.527344 880.78125 236.117188 881.167969 236.667969 L 879.476562 239.378906 L 881.5625 241.441406 L 884.253906 239.714844 C 884.816406 240.101562 885.410156 240.4375 886.027344 240.726562 L 885.914062 243.925781 L 888.75 244.667969 L 890.21875 241.828125 C 890.890625 241.882812 891.574219 241.875 892.261719 241.816406 L 893.765625 244.636719 L 896.589844 243.863281 L 896.441406 240.667969 C 897.0625 240.371094 897.65625 240.03125 898.207031 239.640625 L 900.917969 241.332031 L 902.976562 239.25 L 901.253906 236.558594 C 901.636719 235.992188 901.976562 235.402344 902.265625 234.785156 L 905.464844 234.894531 L 906.203125 232.0625 L 903.367188 230.589844 C 903.421875 229.921875 903.414062 229.234375 903.351562 228.550781 L 906.175781 227.046875 " fill-opacity="1" fill-rule="nonzero"/><path fill="#000000" d="M 889.917969 222.238281 C 889.335938 222.238281 888.746094 222.316406 888.15625 222.476562 C 886.433594 222.949219 885 224.0625 884.117188 225.613281 C 883.230469 227.164062 883.003906 228.96875 883.476562 230.6875 C 884.445312 234.242188 888.136719 236.34375 891.6875 235.371094 C 893.40625 234.898438 894.84375 233.785156 895.726562 232.234375 C 896.609375 230.683594 896.835938 228.882812 896.367188 227.160156 C 895.554688 224.195312 892.855469 222.238281 889.917969 222.238281 Z M 891.914062 236.195312 L 891.917969 236.195312 Z M 889.925781 237.324219 C 886.230469 237.324219 882.839844 234.867188 881.820312 231.144531 C 881.226562 228.980469 881.511719 226.714844 882.625 224.761719 C 883.734375 222.816406 885.542969 221.417969 887.703125 220.820312 C 892.171875 219.597656 896.796875 222.238281 898.019531 226.703125 C 898.617188 228.867188 898.332031 231.132812 897.21875 233.085938 C 896.105469 235.03125 894.304688 236.429688 892.140625 237.027344 C 891.402344 237.230469 890.65625 237.324219 889.925781 237.324219 Z M 885.542969 242.554688 L 887.050781 242.949219 L 888.207031 240.722656 C 888.363281 240.414062 888.691406 240.230469 889.03125 240.261719 C 889.652344 240.3125 890.289062 240.304688 890.929688 240.246094 C 891.273438 240.214844 891.601562 240.390625 891.765625 240.699219 L 892.945312 242.914062 L 894.445312 242.507812 L 894.332031 239.996094 C 894.316406 239.652344 894.507812 239.332031 894.824219 239.179688 C 895.402344 238.90625 895.953125 238.585938 896.457031 238.230469 C 896.742188 238.027344 897.117188 238.019531 897.410156 238.203125 L 899.539062 239.53125 L 900.632812 238.425781 L 899.277344 236.308594 C 899.09375 236.015625 899.097656 235.644531 899.292969 235.359375 C 899.652344 234.835938 899.964844 234.28125 900.230469 233.710938 C 900.375 233.398438 900.679688 233.203125 901.039062 233.214844 L 903.550781 233.300781 L 903.945312 231.796875 L 901.71875 230.640625 C 901.414062 230.484375 901.230469 230.15625 901.257812 229.8125 C 901.308594 229.191406 901.300781 228.550781 901.242188 227.914062 C 901.210938 227.570312 901.390625 227.242188 901.695312 227.082031 L 903.917969 225.898438 L 903.503906 224.398438 L 900.992188 224.511719 C 900.632812 224.527344 900.328125 224.335938 900.179688 224.023438 C 899.902344 223.441406 899.578125 222.890625 899.222656 222.382812 C 899.023438 222.101562 899.015625 221.730469 899.199219 221.433594 L 900.527344 219.308594 L 899.417969 218.214844 L 897.300781 219.566406 C 897.011719 219.753906 896.636719 219.746094 896.355469 219.554688 C 895.835938 219.195312 895.28125 218.878906 894.710938 218.613281 C 894.394531 218.46875 894.199219 218.148438 894.210938 217.804688 L 894.296875 215.292969 L 892.796875 214.898438 L 891.636719 217.125 C 891.476562 217.433594 891.160156 217.613281 890.8125 217.585938 C 890.191406 217.539062 889.550781 217.542969 888.910156 217.597656 C 888.5625 217.632812 888.238281 217.453125 888.078125 217.148438 L 886.898438 214.933594 L 885.394531 215.339844 L 885.511719 217.851562 C 885.527344 218.195312 885.332031 218.515625 885.023438 218.664062 C 884.445312 218.941406 883.890625 219.261719 883.382812 219.621094 C 883.101562 219.816406 882.726562 219.828125 882.433594 219.644531 L 880.304688 218.320312 L 879.210938 219.421875 L 880.566406 221.539062 C 880.75 221.832031 880.742188 222.207031 880.546875 222.492188 C 880.191406 223.011719 879.878906 223.5625 879.609375 224.136719 C 879.464844 224.449219 879.179688 224.644531 878.800781 224.632812 L 876.289062 224.546875 L 875.894531 226.050781 L 878.121094 227.207031 C 878.429688 227.363281 878.613281 227.691406 878.582031 228.035156 C 878.535156 228.65625 878.542969 229.296875 878.601562 229.933594 C 878.628906 230.277344 878.449219 230.609375 878.144531 230.765625 L 875.925781 231.945312 L 876.339844 233.449219 L 878.851562 233.335938 C 879.203125 233.316406 879.515625 233.511719 879.664062 233.824219 C 879.941406 234.40625 880.261719 234.957031 880.617188 235.464844 C 880.816406 235.746094 880.824219 236.117188 880.644531 236.410156 L 879.316406 238.539062 L 880.425781 239.632812 L 882.539062 238.28125 C 882.828125 238.09375 883.203125 238.101562 883.484375 238.292969 C 884.007812 238.652344 884.5625 238.96875 885.132812 239.234375 C 885.445312 239.378906 885.640625 239.695312 885.628906 240.042969 Z M 887.496094 244.8125 C 887.425781 244.8125 887.351562 244.800781 887.277344 244.785156 L 884.445312 244.039062 C 884.058594 243.9375 883.789062 243.582031 883.804688 243.179688 L 883.894531 240.535156 C 883.589844 240.378906 883.289062 240.207031 882.996094 240.027344 L 880.769531 241.453125 C 880.429688 241.667969 879.988281 241.621094 879.703125 241.335938 L 877.621094 239.277344 C 877.335938 238.996094 877.285156 238.550781 877.496094 238.210938 L 878.894531 235.972656 C 878.710938 235.683594 878.535156 235.382812 878.371094 235.074219 L 875.730469 235.195312 C 875.335938 235.214844 874.96875 234.953125 874.863281 234.566406 L 874.089844 231.742188 C 873.984375 231.351562 874.160156 230.945312 874.515625 230.753906 L 876.847656 229.511719 C 876.832031 229.164062 876.828125 228.820312 876.839844 228.476562 L 874.496094 227.261719 C 874.140625 227.078125 873.957031 226.667969 874.058594 226.28125 L 874.804688 223.445312 C 874.902344 223.058594 875.261719 222.792969 875.664062 222.804688 L 878.304688 222.898438 C 878.464844 222.59375 878.636719 222.292969 878.820312 221.996094 L 877.394531 219.773438 C 877.179688 219.433594 877.222656 218.992188 877.503906 218.703125 L 879.566406 216.621094 C 879.847656 216.335938 880.289062 216.285156 880.632812 216.496094 L 882.871094 217.894531 C 883.164062 217.710938 883.464844 217.539062 883.769531 217.371094 L 883.648438 214.730469 C 883.628906 214.332031 883.894531 213.972656 884.28125 213.867188 L 887.105469 213.089844 C 887.492188 212.988281 887.902344 213.164062 888.09375 213.515625 L 889.332031 215.851562 C 889.679688 215.832031 890.027344 215.832031 890.371094 215.84375 L 891.585938 213.496094 C 891.769531 213.140625 892.175781 212.960938 892.5625 213.0625 L 895.398438 213.808594 C 895.785156 213.910156 896.054688 214.265625 896.035156 214.667969 L 895.945312 217.308594 C 896.253906 217.46875 896.554688 217.636719 896.847656 217.820312 L 899.074219 216.394531 C 899.414062 216.179688 899.855469 216.226562 900.140625 216.511719 L 902.222656 218.570312 C 902.507812 218.851562 902.558594 219.296875 902.347656 219.636719 L 900.949219 221.875 C 901.136719 222.164062 901.308594 222.460938 901.472656 222.773438 L 904.109375 222.652344 C 904.511719 222.632812 904.871094 222.894531 904.980469 223.28125 L 905.75 226.105469 C 905.859375 226.496094 905.683594 226.902344 905.324219 227.09375 L 902.996094 228.335938 C 903.007812 228.683594 903.011719 229.027344 903 229.371094 L 905.347656 230.585938 C 905.699219 230.769531 905.882812 231.179688 905.78125 231.566406 L 905.039062 234.402344 C 904.9375 234.789062 904.574219 235.054688 904.179688 235.039062 L 901.539062 234.949219 C 901.375 235.253906 901.203125 235.554688 901.023438 235.847656 L 902.445312 238.074219 C 902.664062 238.414062 902.621094 238.855469 902.335938 239.144531 L 900.277344 241.226562 C 899.992188 241.511719 899.550781 241.5625 899.210938 241.351562 L 896.972656 239.953125 C 896.679688 240.136719 896.382812 240.3125 896.074219 240.472656 L 896.195312 243.117188 C 896.210938 243.511719 895.949219 243.875 895.5625 243.980469 L 892.734375 244.757812 C 892.347656 244.859375 891.941406 244.683594 891.753906 244.332031 L 890.511719 241.996094 C 890.164062 242.015625 889.816406 242.015625 889.472656 242.003906 L 888.257812 244.347656 C 888.109375 244.636719 887.808594 244.8125 887.496094 244.8125 " fill-opacity="1" fill-rule="nonzero"/><path fill="#573696" d="M 826.675781 302.585938 C 811.820312 306.648438 796.480469 297.90625 792.414062 283.050781 C 788.34375 268.195312 797.089844 252.859375 811.945312 248.789062 C 826.800781 244.722656 842.140625 253.46875 846.203125 268.320312 C 850.273438 283.175781 841.527344 298.515625 826.675781 302.585938 Z M 874.789062 266.113281 L 871.929688 255.664062 L 860.109375 256.199219 C 859.011719 253.898438 857.746094 251.714844 856.3125 249.675781 L 862.570312 239.652344 L 854.871094 232.035156 L 844.898438 238.414062 C 842.820312 236.988281 840.628906 235.738281 838.347656 234.679688 L 838.757812 222.851562 L 828.277344 220.101562 L 822.839844 230.597656 C 820.355469 230.398438 817.828125 230.417969 815.292969 230.648438 L 809.734375 220.203125 L 799.285156 223.066406 L 799.824219 234.886719 C 797.519531 235.980469 795.339844 237.246094 793.300781 238.683594 L 783.273438 232.425781 L 775.65625 240.128906 L 782.03125 250.097656 C 780.609375 252.175781 779.359375 254.363281 778.300781 256.648438 L 766.476562 256.238281 L 763.726562 266.71875 L 774.21875 272.152344 C 774.023438 274.640625 774.042969 277.164062 774.273438 279.703125 L 763.828125 285.261719 L 766.6875 295.710938 L 778.507812 295.175781 C 779.601562 297.472656 780.871094 299.65625 782.304688 301.695312 L 776.046875 311.71875 L 783.75 319.339844 L 793.71875 312.960938 C 795.796875 314.386719 797.988281 315.632812 800.269531 316.695312 L 799.863281 328.523438 L 810.34375 331.269531 L 815.777344 320.777344 C 818.265625 320.972656 820.789062 320.953125 823.324219 320.722656 L 828.886719 331.167969 L 839.332031 328.304688 L 838.796875 316.488281 C 841.09375 315.390625 843.277344 314.125 845.316406 312.691406 L 855.34375 318.949219 L 862.964844 311.246094 L 856.585938 301.273438 C 858.007812 299.199219 859.257812 297.007812 860.320312 294.726562 L 872.148438 295.136719 L 874.894531 284.65625 L 864.398438 279.214844 C 864.59375 276.730469 864.574219 274.207031 864.347656 271.671875 L 874.789062 266.113281 " fill-opacity="1" fill-rule="nonzero"/><path fill="#000000" d="M 814.671875 246.015625 C 812.316406 246.015625 809.921875 246.328125 807.542969 246.976562 C 793.167969 250.914062 784.675781 265.808594 788.609375 280.183594 C 792.542969 294.558594 807.441406 303.050781 821.816406 299.113281 L 822.046875 299.941406 L 821.816406 299.113281 C 836.195312 295.179688 844.683594 280.28125 840.75 265.910156 C 837.460938 253.914062 826.546875 246.015625 814.671875 246.015625 Z M 814.683594 301.796875 C 802.058594 301.796875 790.449219 293.394531 786.953125 280.636719 C 782.769531 265.351562 791.800781 249.507812 807.089844 245.320312 C 822.378906 241.136719 838.21875 250.167969 842.402344 265.453125 C 846.59375 280.742188 837.5625 296.585938 822.273438 300.769531 C 819.738281 301.464844 817.191406 301.796875 814.683594 301.796875 Z M 796.113281 325.226562 L 805.265625 327.625 L 810.386719 317.742188 C 810.542969 317.4375 810.875 317.253906 811.214844 317.28125 C 813.636719 317.472656 816.128906 317.453125 818.621094 317.230469 C 818.960938 317.195312 819.292969 317.375 819.457031 317.679688 L 824.691406 327.519531 L 833.8125 325.019531 L 833.308594 313.886719 C 833.292969 313.542969 833.484375 313.21875 833.796875 313.074219 C 836.058594 311.996094 838.210938 310.742188 840.195312 309.347656 C 840.480469 309.148438 840.851562 309.136719 841.144531 309.320312 L 850.585938 315.214844 L 857.238281 308.488281 L 851.230469 299.097656 C 851.046875 298.808594 851.050781 298.4375 851.246094 298.148438 C 852.640625 296.121094 853.875 293.957031 854.910156 291.726562 C 855.054688 291.414062 855.355469 291.214844 855.71875 291.230469 L 866.859375 291.613281 L 869.257812 282.464844 L 859.375 277.339844 C 859.066406 277.179688 858.890625 276.851562 858.914062 276.507812 C 859.105469 274.085938 859.085938 271.597656 858.859375 269.105469 C 858.832031 268.761719 859.007812 268.433594 859.3125 268.273438 L 869.152344 263.035156 L 866.65625 253.910156 L 855.519531 254.417969 C 855.152344 254.433594 854.855469 254.242188 854.703125 253.929688 C 853.628906 251.667969 852.378906 249.515625 850.980469 247.53125 C 850.78125 247.246094 850.773438 246.875 850.957031 246.582031 L 856.847656 237.136719 L 850.125 230.488281 L 840.730469 236.492188 C 840.441406 236.679688 840.066406 236.675781 839.785156 236.480469 C 837.75 235.082031 835.589844 233.851562 833.355469 232.816406 C 833.046875 232.671875 832.851562 232.351562 832.863281 232.003906 L 833.246094 220.863281 L 824.097656 218.46875 L 818.972656 228.351562 C 818.816406 228.65625 818.496094 228.835938 818.144531 228.8125 C 815.722656 228.621094 813.226562 228.640625 810.742188 228.863281 C 810.398438 228.894531 810.066406 228.71875 809.90625 228.414062 L 804.667969 218.570312 L 795.542969 221.070312 L 796.050781 232.207031 C 796.066406 232.550781 795.875 232.871094 795.558594 233.019531 C 793.304688 234.09375 791.152344 235.347656 789.160156 236.746094 C 788.882812 236.945312 788.507812 236.953125 788.21875 236.773438 L 778.773438 230.875 L 772.121094 237.601562 L 778.128906 246.996094 C 778.316406 247.285156 778.304688 247.65625 778.109375 247.941406 C 776.722656 249.972656 775.488281 252.132812 774.449219 254.367188 C 774.304688 254.679688 774.011719 254.878906 773.640625 254.863281 L 762.5 254.476562 L 760.101562 263.628906 L 769.984375 268.753906 C 770.289062 268.914062 770.472656 269.238281 770.441406 269.582031 C 770.253906 272.003906 770.269531 274.496094 770.496094 276.984375 C 770.53125 277.332031 770.347656 277.65625 770.046875 277.820312 L 760.207031 283.058594 L 762.703125 292.183594 L 773.839844 291.675781 C 774.191406 291.660156 774.507812 291.851562 774.652344 292.164062 C 775.726562 294.421875 776.984375 296.574219 778.378906 298.5625 C 778.578125 298.84375 778.589844 299.21875 778.40625 299.507812 L 772.511719 308.953125 L 779.234375 315.605469 L 788.628906 309.601562 C 788.917969 309.414062 789.292969 309.417969 789.578125 309.613281 C 791.605469 311.007812 793.769531 312.238281 796.003906 313.277344 C 796.3125 313.421875 796.507812 313.738281 796.496094 314.082031 Z M 805.710938 329.488281 C 805.636719 329.488281 805.566406 329.480469 805.496094 329.457031 L 795.011719 326.710938 C 794.625 326.613281 794.359375 326.253906 794.375 325.851562 L 794.761719 314.589844 C 792.796875 313.644531 790.886719 312.558594 789.078125 311.351562 L 779.582031 317.421875 C 779.242188 317.640625 778.800781 317.589844 778.515625 317.308594 L 770.8125 309.691406 C 770.53125 309.40625 770.480469 308.96875 770.6875 308.625 L 776.648438 299.082031 C 775.433594 297.300781 774.324219 295.398438 773.351562 293.417969 L 762.097656 293.929688 C 761.703125 293.941406 761.335938 293.6875 761.234375 293.296875 L 758.367188 282.847656 C 758.261719 282.464844 758.441406 282.054688 758.792969 281.863281 L 768.738281 276.570312 C 768.566406 274.371094 768.554688 272.171875 768.691406 270.015625 L 758.699219 264.835938 C 758.347656 264.65625 758.164062 264.246094 758.265625 263.859375 L 761.011719 253.378906 C 761.113281 252.992188 761.476562 252.726562 761.871094 252.742188 L 773.136719 253.128906 C 774.078125 251.164062 775.167969 249.253906 776.378906 247.445312 L 770.304688 237.949219 C 770.089844 237.613281 770.132812 237.167969 770.417969 236.882812 L 778.035156 229.179688 C 778.316406 228.894531 778.757812 228.84375 779.101562 229.058594 L 788.644531 235.015625 C 790.425781 233.796875 792.328125 232.691406 794.3125 231.71875 L 793.796875 220.464844 C 793.78125 220.0625 794.042969 219.703125 794.425781 219.597656 L 804.875 216.734375 C 805.265625 216.628906 805.671875 216.804688 805.863281 217.160156 L 811.152344 227.105469 C 813.359375 226.933594 815.554688 226.917969 817.707031 227.058594 L 822.886719 217.070312 C 823.070312 216.710938 823.480469 216.53125 823.867188 216.628906 L 834.347656 219.378906 C 834.734375 219.480469 835 219.839844 834.984375 220.238281 L 834.597656 231.503906 C 836.5625 232.445312 838.46875 233.53125 840.28125 234.742188 L 849.777344 228.671875 C 850.117188 228.453125 850.554688 228.503906 850.84375 228.78125 L 858.546875 236.402344 C 858.832031 236.683594 858.882812 237.125 858.667969 237.46875 L 852.710938 247.011719 C 853.925781 248.789062 855.03125 250.691406 856.007812 252.675781 L 867.261719 252.164062 C 867.660156 252.144531 868.027344 252.40625 868.128906 252.796875 L 870.988281 263.242188 C 871.097656 263.628906 870.917969 264.039062 870.566406 264.226562 L 860.621094 269.523438 C 860.792969 271.722656 860.808594 273.921875 860.664062 276.074219 L 870.65625 281.253906 C 871.015625 281.4375 871.195312 281.847656 871.09375 282.230469 L 868.347656 292.710938 C 868.246094 293.097656 867.910156 293.367188 867.488281 293.351562 L 856.226562 292.964844 C 855.28125 294.929688 854.191406 296.835938 852.984375 298.648438 L 859.054688 308.140625 C 859.269531 308.480469 859.222656 308.925781 858.941406 309.207031 L 851.324219 316.910156 C 851.042969 317.195312 850.597656 317.25 850.257812 317.035156 L 840.714844 311.078125 C 838.933594 312.292969 837.035156 313.398438 835.046875 314.371094 L 835.5625 325.628906 C 835.578125 326.027344 835.320312 326.386719 834.933594 326.496094 L 824.484375 329.355469 C 824.09375 329.460938 823.683594 329.289062 823.496094 328.933594 L 818.203125 318.984375 C 816.003906 319.15625 813.800781 319.175781 811.648438 319.035156 L 806.476562 329.023438 C 806.324219 329.3125 806.023438 329.488281 805.710938 329.488281 " fill-opacity="1" fill-rule="nonzero"/><path fill="#000000" d="M 874.660156 514.40625 L 799.613281 514.40625 C 794.996094 514.40625 791.246094 510.652344 791.246094 506.042969 L 791.246094 496.253906 C 791.246094 492.59375 788.265625 489.609375 784.601562 489.609375 L 761.96875 489.609375 C 761.496094 489.609375 761.113281 489.226562 761.113281 488.75 C 761.113281 488.277344 761.496094 487.890625 761.96875 487.890625 L 784.601562 487.890625 C 789.210938 487.890625 792.964844 491.644531 792.964844 496.253906 L 792.964844 506.042969 C 792.964844 509.707031 795.945312 512.691406 799.613281 512.691406 L 874.660156 512.691406 C 878.324219 512.691406 881.308594 509.707031 881.308594 506.042969 L 881.308594 393.007812 C 881.308594 392.535156 881.691406 392.148438 882.164062 392.148438 C 882.636719 392.148438 883.023438 392.535156 883.023438 393.007812 L 883.023438 506.042969 C 883.023438 510.652344 879.273438 514.40625 874.660156 514.40625 " fill-opacity="1" fill-rule="nonzero"/><path fill="#ffffff" d="M 902.289062 590.464844 L 856.203125 590.464844 C 856.203125 590.464844 849.882812 628.894531 877.390625 631.964844 C 904.898438 635.03125 902.289062 590.464844 902.289062 590.464844 " fill-opacity="1" fill-rule="nonzero"/><path fill="#000000" d="M 856.953125 591.324219 C 856.464844 595.070312 854.730469 612.566406 862.695312 623.074219 C 866.203125 627.703125 871.179688 630.40625 877.484375 631.109375 C 883.191406 631.746094 887.972656 630.273438 891.699219 626.738281 C 901.679688 617.273438 901.59375 595.757812 901.464844 591.324219 Z M 880.03125 632.972656 C 879.140625 632.972656 878.230469 632.921875 877.296875 632.816406 C 870.503906 632.058594 865.128906 629.128906 861.320312 624.105469 C 851.960938 611.753906 855.214844 591.191406 855.355469 590.324219 C 855.421875 589.910156 855.78125 589.605469 856.203125 589.605469 L 902.292969 589.605469 C 902.746094 589.605469 903.121094 589.957031 903.148438 590.414062 C 903.210938 591.492188 904.554688 616.910156 892.882812 627.984375 C 889.386719 631.300781 885.074219 632.972656 880.03125 632.972656 " fill-opacity="1" fill-rule="nonzero"/><path fill="#573696" d="M 888.042969 582.269531 C 890.5625 582.34375 895.929688 582.425781 900.980469 578.984375 C 902.851562 577.710938 907.984375 574.210938 907.503906 569.617188 C 907.09375 565.671875 902.671875 562.039062 896.679688 561.390625 C 903.789062 562.230469 909.515625 556.898438 909.527344 551.390625 C 909.53125 547.171875 906.183594 542.976562 901.238281 541.59375 C 908.902344 535.800781 912.933594 526.460938 911.660156 517.191406 C 910.421875 508.179688 904.179688 499.304688 894.753906 496.566406 C 893.566406 496.222656 883.332031 493.417969 875.960938 499.699219 C 869.769531 504.972656 869.699219 513.152344 869.652344 518.730469 C 869.570312 528.652344 873.554688 536.195312 875.960938 539.976562 C 875.457031 539.941406 870.367188 538.269531 865.609375 542.496094 C 860.765625 546.800781 860.527344 556.695312 862.890625 560.613281 C 865.359375 564.710938 871.316406 563.847656 872.382812 564.144531 C 867.921875 568.082031 868.082031 571.359375 868.128906 571.976562 C 868.632812 578.378906 880.238281 582.042969 888.042969 582.269531 " fill-opacity="1" fill-rule="nonzero"/><path fill="#ffffff" d="M 885.496094 587.039062 C 885.074219 587.039062 884.703125 586.722656 884.644531 586.292969 C 880.113281 552.820312 890.691406 515.101562 890.796875 514.722656 C 890.925781 514.269531 891.402344 514.003906 891.859375 514.132812 C 892.316406 514.261719 892.582031 514.738281 892.449219 515.195312 C 892.34375 515.566406 881.863281 552.949219 886.351562 586.0625 C 886.410156 586.535156 886.082031 586.964844 885.613281 587.03125 C 885.574219 587.035156 885.535156 587.039062 885.496094 587.039062 " fill-opacity="1" fill-rule="nonzero"/><path fill="#ffffff" d="M 878.503906 583.070312 C 879.550781 580.507812 884.082031 568.683594 878.203125 558.714844 C 876.992188 556.667969 872.949219 549.816406 867.078125 550.300781 C 862.703125 550.660156 859.941406 554.886719 859.332031 555.867188 C 861.097656 549.4375 857.933594 542.929688 852.648438 540.679688 C 846.40625 538.023438 838.113281 541.699219 835.8125 549.398438 C 834.273438 548.960938 830.101562 548.011719 825.894531 550 C 820.351562 552.617188 817.019531 559.238281 817.777344 566.53125 C 820.082031 574.359375 827.230469 579.148438 834.011719 578.257812 C 841.375 577.292969 844.886719 570.066406 845.136719 569.539062 C 843.984375 571.34375 842.300781 574.699219 843.328125 577.957031 C 845.0625 583.433594 853.679688 586.148438 859.863281 584.574219 C 865.605469 583.105469 867.265625 578.441406 871.890625 578.859375 C 874.933594 579.136719 877.191406 581.425781 878.503906 583.070312 " fill-opacity="1" fill-rule="nonzero"/><path fill="#d4c2ef" d="M 878.960938 586.539062 C 878.554688 586.539062 878.191406 586.246094 878.117188 585.832031 C 877.992188 585.125 874.886719 568.457031 859.347656 562.550781 C 848.191406 558.308594 838.164062 562.554688 835.355469 563.960938 C 834.929688 564.171875 834.414062 564 834.207031 563.574219 C 833.992188 563.152344 834.160156 562.632812 834.585938 562.425781 C 837.554688 560.941406 848.148438 556.453125 859.953125 560.945312 C 876.394531 567.199219 879.679688 584.785156 879.8125 585.53125 C 879.890625 585.996094 879.582031 586.445312 879.113281 586.527344 C 879.0625 586.535156 879.011719 586.539062 878.960938 586.539062 " fill-opacity="1" fill-rule="nonzero"/><path fill="#000000" d="M 567.605469 222.113281 C 565.144531 222.113281 563.140625 224.113281 563.140625 226.578125 C 563.140625 229.039062 565.144531 231.042969 567.605469 231.042969 C 570.070312 231.042969 572.070312 229.039062 572.070312 226.578125 C 572.070312 224.113281 570.070312 222.113281 567.605469 222.113281 Z M 567.605469 232.761719 C 564.195312 232.761719 561.421875 229.984375 561.421875 226.578125 C 561.421875 223.167969 564.195312 220.394531 567.605469 220.394531 C 571.015625 220.394531 573.789062 223.167969 573.789062 226.578125 C 573.789062 229.984375 571.015625 232.761719 567.605469 232.761719 " fill-opacity="1" fill-rule="nonzero"/><path fill="#000000" d="M 915.453125 584.101562 C 914.976562 584.101562 914.59375 583.71875 914.59375 583.242188 L 914.59375 578.730469 C 914.59375 578.257812 914.976562 577.871094 915.453125 577.871094 C 915.925781 577.871094 916.3125 578.257812 916.3125 578.730469 L 916.3125 583.242188 C 916.3125 583.71875 915.925781 584.101562 915.453125 584.101562 " fill-opacity="1" fill-rule="nonzero"/><path fill="#000000" d="M 915.453125 594.617188 C 914.976562 594.617188 914.59375 594.230469 914.59375 593.757812 L 914.59375 589.242188 C 914.59375 588.769531 914.976562 588.382812 915.453125 588.382812 C 915.925781 588.382812 916.3125 588.769531 916.3125 589.242188 L 916.3125 593.757812 C 916.3125 594.230469 915.925781 594.617188 915.453125 594.617188 " fill-opacity="1" fill-rule="nonzero"/><path fill="#000000" d="M 912.453125 587.101562 L 907.941406 587.101562 C 907.464844 587.101562 907.082031 586.714844 907.082031 586.242188 C 907.082031 585.769531 907.464844 585.386719 907.941406 585.386719 L 912.453125 585.386719 C 912.925781 585.386719 913.3125 585.769531 913.3125 586.242188 C 913.3125 586.714844 912.925781 587.101562 912.453125 587.101562 " fill-opacity="1" fill-rule="nonzero"/><path fill="#000000" d="M 922.96875 587.101562 L 918.453125 587.101562 C 917.980469 587.101562 917.59375 586.714844 917.59375 586.242188 C 917.59375 585.769531 917.980469 585.386719 918.453125 585.386719 L 922.96875 585.386719 C 923.441406 585.386719 923.824219 585.769531 923.824219 586.242188 C 923.824219 586.714844 923.441406 587.101562 922.96875 587.101562 " fill-opacity="1" fill-rule="nonzero"/><path fill="#000000" d="M 851.695312 209.527344 C 851.222656 209.527344 850.835938 209.144531 850.835938 208.667969 L 850.835938 204.15625 C 850.835938 203.683594 851.222656 203.296875 851.695312 203.296875 C 852.167969 203.296875 852.550781 203.683594 852.550781 204.15625 L 852.550781 208.667969 C 852.550781 209.144531 852.167969 209.527344 851.695312 209.527344 " fill-opacity="1" fill-rule="nonzero"/><path fill="#000000" d="M 851.691406 220.039062 C 851.222656 220.039062 850.832031 219.65625 850.832031 219.183594 L 850.832031 214.667969 C 850.832031 214.195312 851.222656 213.8125 851.691406 213.8125 C 852.167969 213.8125 852.554688 214.195312 852.554688 214.667969 L 852.554688 219.183594 C 852.554688 219.65625 852.167969 220.039062 851.691406 220.039062 " fill-opacity="1" fill-rule="nonzero"/><path fill="#000000" d="M 848.691406 212.527344 L 844.179688 212.527344 C 843.703125 212.527344 843.320312 212.144531 843.320312 211.671875 C 843.320312 211.195312 843.703125 210.8125 844.179688 210.8125 L 848.691406 210.8125 C 849.164062 210.8125 849.554688 211.195312 849.554688 211.671875 C 849.554688 212.144531 849.164062 212.527344 848.691406 212.527344 " fill-opacity="1" fill-rule="nonzero"/><path fill="#000000" d="M 859.203125 212.527344 L 854.695312 212.527344 C 854.21875 212.527344 853.835938 212.144531 853.835938 211.671875 C 853.835938 211.195312 854.21875 210.8125 854.695312 210.8125 L 859.203125 210.8125 C 859.679688 210.8125 860.0625 211.195312 860.0625 211.671875 C 860.0625 212.144531 859.679688 212.527344 859.203125 212.527344 " fill-opacity="1" fill-rule="nonzero"/><path fill="#000000" d="M 566.757812 606.105469 C 564.113281 606.105469 561.964844 608.253906 561.964844 610.898438 C 561.964844 613.542969 564.113281 615.691406 566.757812 615.691406 C 569.402344 615.691406 571.554688 613.542969 571.554688 610.898438 C 571.554688 608.253906 569.402344 606.105469 566.757812 606.105469 Z M 566.757812 617.410156 C 563.167969 617.410156 560.25 614.488281 560.25 610.898438 C 560.25 607.308594 563.167969 604.386719 566.757812 604.386719 C 570.347656 604.386719 573.269531 607.308594 573.269531 610.898438 C 573.269531 614.488281 570.347656 617.410156 566.757812 617.410156 " fill-opacity="1" fill-rule="nonzero"/><path fill="#000000" d="M 589.867188 606.597656 C 589.675781 606.597656 589.480469 606.53125 589.320312 606.402344 C 589.132812 606.25 570.347656 590.558594 550.03125 562.152344 C 549.753906 561.769531 549.84375 561.234375 550.226562 560.957031 C 550.613281 560.679688 551.148438 560.773438 551.425781 561.15625 C 571.605469 589.363281 590.230469 604.925781 590.417969 605.082031 C 590.78125 605.378906 590.832031 605.925781 590.53125 606.289062 C 590.359375 606.496094 590.117188 606.597656 589.867188 606.597656 " fill-opacity="1" fill-rule="nonzero"/><path fill="#000000" d="M 540.722656 562.511719 C 540.457031 562.511719 540.195312 562.390625 540.027344 562.15625 C 538.839844 560.515625 537.65625 558.839844 536.5 557.167969 C 536.230469 556.777344 536.324219 556.246094 536.714844 555.972656 C 537.105469 555.703125 537.640625 555.800781 537.910156 556.191406 C 539.058594 557.851562 540.238281 559.519531 541.417969 561.152344 C 541.695312 561.535156 541.609375 562.074219 541.226562 562.351562 C 541.074219 562.460938 540.898438 562.511719 540.722656 562.511719 " fill-opacity="1" fill-rule="nonzero"/><path fill="#000000" d="M 569.394531 595.996094 C 569.1875 595.996094 568.980469 595.921875 568.816406 595.773438 C 568.6875 595.65625 555.585938 583.6875 540.027344 562.15625 C 539.75 561.773438 539.835938 561.234375 540.21875 560.957031 C 540.605469 560.679688 541.140625 560.769531 541.417969 561.152344 C 556.863281 582.523438 569.839844 594.386719 569.972656 594.5 C 570.320312 594.820312 570.347656 595.363281 570.03125 595.714844 C 569.859375 595.902344 569.628906 595.996094 569.394531 595.996094 " fill-opacity="1" fill-rule="nonzero"/><path fill="#000000" d="M 494.210938 287.351562 C 494.109375 287.351562 494.003906 287.335938 493.90625 287.296875 C 493.460938 287.125 493.238281 286.632812 493.410156 286.1875 C 493.449219 286.082031 497.589844 275.367188 506.066406 263.160156 C 513.90625 251.863281 527.171875 236.925781 545.855469 229.878906 C 546.300781 229.710938 546.796875 229.9375 546.960938 230.378906 C 547.128906 230.820312 546.90625 231.320312 546.460938 231.484375 C 511.460938 244.6875 495.171875 286.382812 495.011719 286.800781 C 494.882812 287.144531 494.554688 287.351562 494.210938 287.351562 " fill-opacity="1" fill-rule="nonzero"/><path fill="#000000" d="M 494.210938 269.128906 C 494.113281 269.128906 494.015625 269.109375 493.917969 269.074219 C 493.472656 268.914062 493.242188 268.421875 493.402344 267.976562 C 493.558594 267.546875 497.347656 257.292969 507.722656 244.96875 C 517.285156 233.609375 534.46875 218.363281 562.039062 210.234375 C 562.496094 210.097656 562.972656 210.359375 563.105469 210.816406 C 563.238281 211.269531 562.980469 211.746094 562.523438 211.878906 C 535.363281 219.890625 518.445312 234.898438 509.039062 246.074219 C 498.855469 258.167969 495.054688 268.460938 495.015625 268.5625 C 494.890625 268.910156 494.5625 269.128906 494.210938 269.128906 " fill-opacity="1" fill-rule="nonzero"/></svg>