<svg xmlns="http://www.w3.org/2000/svg" xmlns:xlink="http://www.w3.org/1999/xlink" zoomAndPan="magnify" preserveAspectRatio="xMidYMid meet" version="1.0" viewBox="550.59 243.52 339.46 315.73"><defs><clipPath id="78af819559"><path d="M 550 243 L 890.648438 243 L 890.648438 560 L 550 560 Z M 550 243 " clip-rule="nonzero"/></clipPath></defs><g clip-path="url(#78af819559)"><path fill="#6549a4" d="M 787.878906 437.941406 C 793.582031 439.867188 798.769531 442.832031 803.21875 446.832031 L 814.257812 443.203125 C 815.667969 442.757812 817.222656 443.425781 817.890625 444.757812 L 826.710938 460.023438 C 827.449219 461.210938 827.152344 462.765625 826.117188 463.730469 L 817.445312 471.4375 C 818.039062 474.328125 818.335938 477.292969 818.335938 480.332031 C 818.335938 483.292969 818.039062 486.257812 817.445312 489.222656 L 826.117188 496.929688 C 827.226562 497.96875 827.449219 499.597656 826.5625 500.859375 L 817.742188 516.125 C 817 517.382812 815.59375 517.902344 814.257812 517.457031 L 803.21875 513.828125 C 798.769531 517.753906 793.582031 520.792969 787.878906 522.71875 L 785.503906 534.058594 C 785.210938 535.464844 784.023438 536.429688 782.617188 536.429688 L 764.753906 536.429688 C 763.273438 536.429688 762.011719 535.316406 761.792969 533.835938 L 759.492188 522.71875 C 753.789062 520.792969 748.601562 517.828125 744.152344 513.828125 L 733.1875 517.457031 C 731.703125 517.902344 730.148438 517.234375 729.554688 515.902344 L 720.734375 500.636719 C 720.070312 499.375 720.289062 497.894531 721.328125 496.929688 L 729.925781 489.222656 C 729.332031 486.257812 729.035156 483.292969 729.035156 480.332031 C 729.035156 477.367188 729.332031 474.402344 729.925781 471.4375 L 721.328125 463.730469 C 720.21875 462.765625 719.996094 461.136719 720.808594 459.875 L 729.703125 444.535156 C 730.445312 443.277344 731.851562 442.757812 733.1875 443.203125 L 744.152344 446.832031 C 748.601562 442.90625 753.789062 439.867188 759.492188 437.941406 L 761.867188 426.601562 C 762.160156 425.195312 763.421875 424.230469 764.753906 424.230469 L 782.691406 424.230469 C 784.171875 424.230469 785.429688 425.34375 785.652344 426.824219 Z M 793.066406 446.757812 C 790.472656 445.277344 787.65625 444.019531 784.691406 443.203125 C 783.652344 442.90625 782.765625 442.089844 782.46875 440.90625 L 780.242188 430.234375 L 767.128906 430.234375 L 764.902344 440.90625 C 764.679688 441.941406 763.941406 442.832031 762.828125 443.128906 C 757.34375 444.757812 750.972656 448.167969 747.042969 452.167969 C 746.304688 452.984375 745.042969 453.355469 743.929688 452.984375 L 733.554688 449.574219 L 727.035156 460.914062 L 735.113281 468.175781 C 735.925781 468.84375 736.296875 469.957031 736 471.066406 C 735.261719 474.105469 734.890625 477.21875 734.890625 480.257812 C 734.890625 483.292969 735.261719 486.332031 735.925781 489.296875 C 736.296875 490.335938 736 491.59375 735.039062 492.410156 L 726.886719 499.671875 L 733.40625 511.011719 L 743.78125 507.601562 C 744.820312 507.304688 745.933594 507.527344 746.746094 508.269531 C 750.898438 512.269531 756.898438 515.902344 762.53125 517.457031 C 763.570312 517.753906 764.535156 518.570312 764.753906 519.753906 L 766.980469 530.425781 L 780.097656 530.425781 L 782.320312 519.753906 C 782.542969 518.71875 783.28125 517.828125 784.394531 517.53125 C 789.878906 515.902344 796.25 512.492188 800.179688 508.492188 C 800.921875 507.675781 802.179688 507.304688 803.292969 507.675781 L 813.667969 511.085938 L 820.1875 499.746094 L 812.035156 492.484375 C 811.222656 491.816406 810.851562 490.707031 811.148438 489.59375 C 811.886719 486.554688 812.257812 483.515625 812.257812 480.40625 C 812.257812 477.367188 811.886719 474.328125 811.222656 471.363281 C 810.851562 470.324219 811.148438 469.066406 812.109375 468.25 L 820.261719 460.988281 L 813.742188 449.648438 L 803.367188 453.058594 C 802.328125 453.429688 801.214844 453.132812 800.402344 452.390625 C 798.253906 450.167969 795.734375 448.316406 793.066406 446.757812 Z M 773.648438 454.394531 C 787.953125 454.394531 799.511719 465.953125 799.511719 480.257812 C 799.511719 494.558594 787.953125 506.121094 773.648438 506.121094 C 759.34375 506.121094 747.785156 494.558594 747.785156 480.257812 C 747.785156 466.027344 759.417969 454.394531 773.648438 454.394531 Z M 787.804688 466.175781 C 775.277344 453.652344 753.714844 462.542969 753.714844 480.257812 C 753.714844 497.96875 775.277344 506.933594 787.804688 494.335938 C 795.585938 486.628906 795.585938 473.957031 787.804688 466.175781 Z M 773.648438 401.332031 C 775.796875 401.332031 777.945312 401.40625 780.023438 401.554688 L 780.023438 380.210938 L 764.976562 395.253906 C 763.792969 396.441406 761.9375 396.441406 760.828125 395.253906 L 755.417969 389.84375 L 755.417969 403.40625 C 761.273438 402.074219 767.421875 401.332031 773.648438 401.332031 Z M 786.023438 402.296875 C 798.03125 404.222656 809.070312 408.742188 818.632812 415.339844 L 818.632812 341.675781 L 786.023438 374.28125 Z M 824.558594 419.859375 C 859.984375 449.722656 862.28125 503.378906 829.527344 536.132812 C 798.695312 566.960938 748.675781 566.960938 717.84375 536.132812 C 711.101562 529.390625 705.617188 521.460938 701.617188 512.714844 C 688.945312 540.800781 661.003906 559.253906 629.582031 559.253906 C 585.933594 559.328125 550.585938 523.90625 550.585938 480.332031 C 550.585938 465.285156 554.808594 451.207031 562.070312 439.273438 L 552.808594 429.9375 C 551.621094 428.75 551.621094 426.898438 552.808594 425.789062 L 569.703125 408.890625 C 570.890625 407.703125 572.742188 407.703125 573.855469 408.890625 L 582.082031 417.117188 C 592.085938 409.632812 603.867188 404.445312 616.761719 402.296875 L 616.761719 393.550781 C 611.128906 393.550781 606.757812 394.070312 602.238281 389.621094 C 593.789062 381.175781 599.941406 366.871094 611.648438 366.871094 L 647.296875 366.871094 C 650.183594 366.871094 652.925781 367.835938 655.152344 369.464844 L 719.773438 304.84375 C 720.957031 303.65625 722.8125 303.65625 723.996094 304.84375 L 762.902344 343.75 L 825.226562 281.425781 L 812.628906 268.753906 C 811.074219 267.195312 811.589844 264.378906 814.183594 263.789062 L 886.292969 243.628906 C 888.515625 243.039062 890.589844 245.039062 889.921875 247.335938 L 869.691406 319.589844 C 869.097656 321.8125 866.355469 322.480469 864.726562 320.925781 L 852.054688 308.253906 L 824.558594 335.746094 Z M 698.503906 504.636719 C 695.984375 497.003906 694.648438 488.777344 694.648438 480.257812 C 694.648438 471.734375 695.984375 463.582031 698.503906 455.875 C 696.578125 450.464844 694.058594 445.277344 690.945312 440.535156 C 690.871094 440.460938 690.796875 440.3125 690.722656 440.164062 C 686.570312 433.789062 681.382812 428.085938 675.457031 423.339844 C 670.714844 419.636719 666.785156 416.96875 661.152344 414.300781 C 632.992188 400.8125 599.71875 406.816406 577.929688 428.527344 C 549.398438 457.0625 549.398438 503.304688 577.929688 531.835938 C 603.199219 557.105469 643.070312 560.441406 672.121094 539.617188 C 684.199219 531.09375 693.464844 518.867188 698.503906 504.636719 Z M 701.617188 447.871094 C 704.136719 442.3125 707.246094 437.050781 710.953125 432.308594 L 710.953125 367.464844 L 686.277344 392.140625 L 686.277344 408.296875 C 687.3125 407.925781 688.574219 408.148438 689.386719 408.964844 L 706.285156 425.859375 C 707.46875 427.046875 707.46875 428.898438 706.285156 430.011719 L 697.019531 439.273438 C 698.800781 442.015625 700.28125 444.90625 701.617188 447.871094 Z M 716.882812 425.417969 C 725.847656 416.152344 736.964844 409.113281 749.488281 405.109375 L 749.488281 383.992188 L 721.921875 356.421875 L 716.808594 361.535156 L 716.808594 425.417969 Z M 825.375 428.675781 L 819.667969 423.488281 C 809.367188 415.117188 796.695312 409.558594 782.835938 407.851562 C 771.648438 406.667969 764.164062 407.261719 753.195312 410.222656 C 741.261719 413.707031 730.59375 420.15625 722.070312 428.675781 C 693.613281 457.132812 693.464844 503.378906 722.070312 531.984375 C 750.601562 560.515625 796.84375 560.515625 825.375 531.984375 C 853.90625 503.453125 853.90625 457.132812 825.375 428.675781 Z M 632.546875 466.027344 C 641.292969 467.804688 646.480469 477.144531 643.21875 485.59375 L 652.410156 491.519531 C 655.667969 493.59375 652.484375 498.636719 649.222656 496.484375 L 640.03125 490.558594 C 630.769531 499.894531 614.984375 493.300781 614.984375 480.332031 C 614.984375 473.363281 619.949219 467.4375 626.617188 466.027344 L 626.617188 446.980469 C 626.617188 443.128906 632.546875 443.128906 632.546875 446.980469 Z M 635.734375 474.179688 C 630.324219 468.769531 620.914062 472.625 620.914062 480.332031 C 620.914062 488.039062 630.25 491.890625 635.734375 486.480469 C 639.070312 483.074219 639.070312 477.515625 635.734375 474.179688 Z M 626.617188 433.050781 C 626.617188 429.121094 632.546875 429.121094 632.546875 433.050781 L 632.546875 436.679688 C 632.546875 440.535156 626.617188 440.535156 626.617188 436.679688 Z M 671.972656 501.375 C 675.308594 503.304688 672.34375 508.492188 669.007812 506.492188 L 665.820312 504.636719 C 662.488281 502.710938 665.378906 497.597656 668.785156 499.523438 Z M 676.789062 477.367188 C 680.644531 477.367188 680.644531 483.292969 676.789062 483.292969 L 673.160156 483.292969 C 669.230469 483.292969 669.230469 477.367188 673.160156 477.367188 Z M 669.007812 454.097656 C 672.34375 452.167969 675.308594 457.28125 671.972656 459.210938 L 668.785156 460.988281 C 665.378906 462.914062 662.488281 457.800781 665.820312 455.875 Z M 603.421875 440.90625 C 601.496094 437.570312 606.609375 434.605469 608.535156 437.941406 L 610.316406 441.128906 C 612.242188 444.460938 607.128906 447.425781 605.203125 444.089844 Z M 587.195312 459.285156 C 583.785156 457.355469 586.75 452.242188 590.15625 454.171875 L 593.34375 456.023438 C 596.679688 457.949219 593.789062 463.0625 590.378906 461.136719 Z M 582.375 483.292969 C 578.449219 483.292969 578.449219 477.367188 582.375 477.367188 L 586.007812 477.367188 C 589.9375 477.367188 589.9375 483.292969 586.007812 483.292969 Z M 590.15625 506.492188 C 586.824219 508.417969 583.859375 503.304688 587.195312 501.375 L 590.378906 499.597656 C 593.714844 497.671875 596.679688 502.785156 593.34375 504.710938 Z M 608.535156 522.644531 C 606.609375 526.054688 601.421875 523.089844 603.421875 519.679688 L 605.203125 516.496094 C 607.128906 513.160156 612.316406 516.125 610.316406 519.460938 Z M 632.546875 527.535156 C 632.546875 531.464844 626.617188 531.464844 626.617188 527.535156 L 626.617188 523.90625 C 626.617188 519.976562 632.546875 519.976562 632.546875 523.90625 Z M 655.742188 519.679688 C 657.671875 523.089844 652.554688 526.054688 650.628906 522.644531 L 648.777344 519.460938 C 646.851562 516.125 651.964844 513.160156 653.890625 516.496094 Z M 650.628906 437.941406 C 652.554688 434.53125 657.671875 437.496094 655.742188 440.90625 L 653.964844 444.089844 C 652.039062 447.425781 646.851562 444.460938 648.851562 441.128906 Z M 629.582031 420.453125 C 662.636719 420.453125 689.386719 447.203125 689.386719 480.257812 C 689.386719 513.308594 662.636719 540.0625 629.582031 540.0625 C 596.53125 540.0625 569.777344 513.308594 569.777344 480.257812 C 569.777344 447.277344 596.53125 420.453125 629.582031 420.453125 Z M 667.675781 442.164062 C 646.628906 421.117188 612.464844 421.117188 591.417969 442.164062 C 570.371094 463.210938 570.371094 497.300781 591.417969 518.347656 C 612.464844 539.394531 646.628906 539.394531 667.675781 518.347656 C 688.722656 497.375 688.722656 463.210938 667.675781 442.164062 Z M 565.40625 434.234375 C 568.964844 429.34375 573.039062 424.898438 577.558594 420.894531 L 571.851562 415.191406 L 559.105469 427.9375 Z M 622.765625 401.554688 C 627.285156 401.183594 631.804688 401.183594 636.402344 401.554688 L 636.402344 393.550781 L 622.765625 393.550781 Z M 642.328125 402.296875 C 649.148438 403.40625 655.667969 405.40625 661.820312 408.148438 L 719.847656 350.125 C 721.03125 348.9375 722.882812 348.9375 724.070312 350.125 L 762.976562 389.03125 L 849.980469 301.953125 C 851.164062 300.769531 853.019531 300.769531 854.203125 301.953125 L 865.394531 313.144531 L 882.808594 250.746094 L 820.410156 268.234375 L 831.601562 279.425781 C 832.785156 280.609375 832.785156 282.464844 831.601562 283.648438 L 765.125 350.125 C 763.941406 351.308594 762.085938 351.308594 760.976562 350.125 L 722.070312 311.21875 L 659.152344 373.984375 C 663.96875 382.804688 657.449219 393.625 647.441406 393.625 L 642.328125 393.625 Z M 667.453125 410.964844 C 670.785156 412.816406 673.972656 414.820312 677.011719 417.117188 L 680.421875 413.707031 L 680.421875 397.996094 Z M 681.605469 420.894531 C 686.128906 424.898438 690.203125 429.34375 693.761719 434.234375 L 700.058594 427.9375 L 687.3125 415.191406 Z M 647.441406 372.875 L 611.796875 372.875 C 605.277344 372.875 601.867188 380.804688 606.535156 385.472656 C 607.871094 386.804688 609.722656 387.621094 611.796875 387.621094 L 647.441406 387.621094 C 653.964844 387.621094 657.375 379.691406 652.703125 375.023438 C 651.296875 373.691406 649.445312 372.875 647.441406 372.875 Z M 647.441406 372.875 " fill-opacity="1" fill-rule="nonzero"/></g></svg>