<svg xmlns="http://www.w3.org/2000/svg" xmlns:xlink="http://www.w3.org/1999/xlink" width="1920" zoomAndPan="magnify" viewBox="0 0 1440 809.999993" height="1080" preserveAspectRatio="xMidYMid meet" version="1.0"><defs><clipPath id="668763afe3"><path d="M 747 274 L 837.953125 274 L 837.953125 428 L 747 428 Z M 747 274 " clip-rule="nonzero"/></clipPath><clipPath id="b1738d8995"><path d="M 747 274 L 837.953125 274 L 837.953125 428 L 747 428 Z M 747 274 " clip-rule="nonzero"/></clipPath></defs><path fill="#000000" d="M 652.972656 370.304688 C 652.589844 370.304688 652.28125 369.992188 652.28125 369.613281 C 652.28125 365.832031 652.246094 362.0625 652.1875 358.285156 C 652.183594 357.902344 652.488281 357.585938 652.867188 357.582031 C 653.21875 357.648438 653.566406 357.878906 653.570312 358.261719 C 653.628906 362.046875 653.664062 365.828125 653.664062 369.613281 C 653.664062 369.992188 653.351562 370.304688 652.972656 370.304688 Z M 652.664062 347.632812 C 652.289062 347.632812 651.980469 347.335938 651.972656 346.957031 C 651.871094 342.242188 651.789062 338.640625 651.730469 335.625 C 651.710938 334.6875 653.101562 334.714844 653.113281 335.597656 C 653.171875 338.628906 653.246094 341.894531 653.355469 346.925781 C 653.363281 347.308594 653.0625 347.625 652.679688 347.632812 C 652.675781 347.632812 652.671875 347.632812 652.664062 347.632812 Z M 761.289062 320.296875 L 756.355469 320.296875 C 755.441406 320.296875 755.441406 318.914062 756.355469 318.914062 L 761.289062 318.914062 C 761.667969 318.914062 761.980469 319.222656 761.980469 319.605469 C 761.980469 319.984375 761.667969 320.296875 761.289062 320.296875 Z M 745.03125 320.296875 L 733.707031 320.296875 C 732.792969 320.296875 732.792969 318.914062 733.707031 318.914062 L 745.03125 318.914062 C 745.945312 318.914062 745.945312 320.296875 745.03125 320.296875 Z M 722.382812 320.296875 L 711.058594 320.296875 C 710.144531 320.296875 710.144531 318.914062 711.058594 318.914062 L 722.382812 318.914062 C 723.296875 318.914062 723.296875 320.296875 722.382812 320.296875 Z M 699.734375 320.296875 L 688.410156 320.296875 C 687.496094 320.296875 687.496094 318.914062 688.410156 318.914062 L 699.734375 318.914062 C 700.648438 318.914062 700.648438 320.296875 699.734375 320.296875 Z M 677.085938 320.296875 L 665.761719 320.296875 C 664.84375 320.296875 664.847656 318.914062 665.761719 318.914062 L 677.085938 318.914062 C 678 318.914062 678 320.296875 677.085938 320.296875 Z M 677.085938 320.296875 " fill-opacity="1" fill-rule="nonzero"/><path fill="#000000" d="M 787.710938 497.226562 L 785.820312 497.226562 C 784.90625 497.226562 784.90625 495.84375 785.820312 495.84375 L 787.019531 495.84375 L 787.019531 487.089844 C 787.019531 486.710938 787.332031 486.398438 787.710938 486.398438 C 788.09375 486.398438 788.402344 486.710938 788.402344 487.089844 L 788.402344 496.535156 C 788.402344 496.917969 788.09375 497.226562 787.710938 497.226562 Z M 774.496094 497.226562 L 763.171875 497.226562 C 762.257812 497.226562 762.257812 495.84375 763.171875 495.84375 L 774.496094 495.84375 C 775.410156 495.84375 775.410156 497.226562 774.496094 497.226562 Z M 787.710938 476.449219 C 787.332031 476.449219 787.019531 476.136719 787.019531 475.757812 L 787.019531 464.421875 C 787.019531 464.039062 787.332031 463.730469 787.710938 463.730469 C 788.09375 463.730469 788.402344 464.039062 788.402344 464.421875 L 788.402344 475.757812 C 788.402344 476.136719 788.09375 476.449219 787.710938 476.449219 Z M 787.019531 453.085938 L 787.019531 441.746094 C 787.019531 440.832031 788.402344 440.832031 788.402344 441.746094 L 788.402344 453.085938 C 788.402344 454 787.019531 454 787.019531 453.085938 Z M 787.019531 430.414062 L 787.019531 419.078125 C 787.019531 418.164062 788.402344 418.164062 788.402344 419.078125 L 788.402344 430.414062 C 788.402344 431.328125 787.019531 431.328125 787.019531 430.414062 Z M 787.019531 430.414062 " fill-opacity="1" fill-rule="nonzero"/><path fill="#19345d" d="M 767.171875 521.667969 C 767.03125 526.449219 766.855469 532.476562 766.871094 531.902344 C 766.785156 533.96875 764.898438 535.601562 762.8125 534.566406 L 588.917969 533.574219 L 583.484375 534.570312 C 582.914062 534.566406 572.496094 534.523438 573.132812 534.527344 C 571.457031 534.527344 570.167969 533.28125 570.210938 531.816406 L 570.855469 521.023438 C 570.855469 520.808594 570.855469 520.59375 570.898438 520.421875 L 578.589844 522.230469 C 579.148438 522.234375 588.503906 522.320312 587.910156 522.316406 C 588.480469 522.3125 621.226562 522.175781 619.183594 522.183594 C 765.320312 521.6875 547.101562 522.4375 767.171875 521.667969 Z M 767.171875 521.667969 " fill-opacity="1" fill-rule="nonzero"/><path fill="#000000" d="M 587.953125 523 C 587.867188 523.777344 587.480469 524.421875 586.921875 524.9375 C 586.835938 525.066406 586.707031 525.195312 586.578125 525.238281 C 584.722656 527.109375 580.417969 526.351562 577.859375 527.773438 C 575.96875 528.894531 574.9375 531.257812 575.367188 533.40625 C 575.453125 533.796875 575.582031 534.183594 575.796875 534.527344 L 573.132812 534.527344 C 571.457031 534.527344 570.167969 533.28125 570.210938 531.816406 C 571.15625 516.355469 570.25 522.046875 573.304688 513.929688 L 573.347656 513.929688 C 578.289062 513.089844 583.609375 515.652344 586.664062 519.648438 C 587.265625 520.421875 587.824219 521.324219 587.910156 522.316406 C 587.953125 522.527344 587.996094 522.789062 587.953125 523 Z M 587.953125 523 " fill-opacity="1" fill-rule="nonzero"/><path fill="#095da4" d="M 747.066406 367.019531 L 747.066406 473.238281 C 747.066406 473.890625 746.972656 474.355469 746.789062 474.914062 C 746.230469 476.121094 745.023438 476.957031 743.632812 476.957031 C 743.632812 476.957031 592.488281 476.957031 592.027344 476.957031 C 586.261719 476.957031 588.007812 465.789062 587.664062 457.8125 C 587.664062 414.007812 587.640625 397.480469 587.757812 379.007812 C 587.757812 374.730469 587.199219 369.621094 588.777344 365.625 C 589.984375 362.464844 594.160156 363.207031 596.945312 363.207031 L 743.632812 363.207031 C 745.582031 363.207031 747.066406 364.878906 747.066406 367.019531 Z M 747.066406 367.019531 " fill-opacity="1" fill-rule="nonzero"/><path fill="#19345d" d="M 747.066406 460.507812 L 747.066406 473.238281 C 747.066406 473.890625 746.972656 474.355469 746.789062 474.914062 C 746.230469 476.121094 745.023438 476.957031 743.632812 476.957031 C 743.632812 476.957031 592.488281 476.957031 592.027344 476.957031 C 586.261719 476.957031 588.007812 465.789062 587.664062 457.8125 C 587.664062 414.007812 587.640625 397.480469 587.757812 379.007812 C 587.757812 374.730469 587.199219 369.621094 588.777344 365.625 C 589.984375 362.464844 594.160156 363.207031 596.945312 363.207031 L 602.144531 363.207031 C 605.582031 383.09375 612.171875 402.519531 624.425781 418.410156 C 637.238281 435.136719 655.804688 447.03125 675.765625 453.722656 C 695.820312 460.507812 717.171875 462.273438 738.246094 461.160156 C 741.125 460.972656 744.09375 460.785156 747.066406 460.507812 Z M 747.066406 460.507812 " fill-opacity="1" fill-rule="nonzero"/><path fill="#f2f8fd" d="M 740.136719 375 L 740.136719 461.941406 C 740.136719 464.796875 737.757812 467.117188 734.90625 467.117188 L 597.933594 467.117188 C 597.15625 464.589844 597.597656 457.933594 597.339844 454.027344 C 597.339844 421.625 597.320312 406.578125 597.398438 393.03125 L 597.398438 386.660156 C 597.457031 382.972656 596.980469 378.628906 598.410156 375.117188 C 599.480469 372.4375 603.285156 373.09375 605.898438 373.09375 L 738.175781 373.09375 C 739.246094 373.09375 740.136719 373.925781 740.136719 375 Z M 740.136719 375 " fill-opacity="1" fill-rule="nonzero"/><path fill="#ffca28" d="M 740.136719 374.445312 L 740.136719 387.421875 L 597.398438 387.421875 L 597.398438 382.839844 C 597.457031 380.183594 596.980469 377.058594 598.410156 374.53125 C 599.480469 372.601562 603.285156 373.074219 605.898438 373.074219 L 738.175781 373.074219 C 739.246094 373.074219 740.136719 373.671875 740.136719 374.445312 Z M 740.136719 374.445312 " fill-opacity="1" fill-rule="nonzero"/><path fill="#d0dcee" d="M 767.171875 522.058594 L 767.171875 522.269531 C 767.085938 524.292969 765.453125 526.097656 763.179688 526.097656 C 762.234375 526.09375 573.996094 524.847656 574.722656 524.851562 C 571.871094 524.851562 570.109375 521.828125 571.113281 519.476562 C 571.335938 518.914062 588.117188 476.71875 587.050781 479.398438 L 588.855469 474.839844 L 588.855469 474.796875 L 589.027344 474.367188 C 589.625 472.785156 591.160156 471.832031 592.722656 471.832031 L 741.914062 471.832031 C 743.417969 471.832031 744.707031 472.691406 745.394531 473.980469 C 745.4375 474.023438 745.4375 474.066406 745.480469 474.109375 L 745.480469 474.152344 L 746.210938 475.699219 L 746.210938 475.746094 L 746.25 475.746094 C 746.335938 475.871094 746.382812 476.003906 746.421875 476.171875 C 767.953125 523.078125 767.128906 520.804688 767.128906 521.667969 C 767.171875 521.796875 767.171875 521.925781 767.171875 522.058594 Z M 767.171875 522.058594 " fill-opacity="1" fill-rule="nonzero"/><path fill="#000000" d="M 763.179688 526.621094 L 574.71875 525.375 C 571.527344 525.375 569.492188 521.984375 570.632812 519.269531 C 570.863281 518.6875 589.511719 471.773438 588.34375 474.714844 C 588.347656 474.675781 588.355469 474.632812 588.371094 474.601562 L 588.542969 474.171875 C 589.207031 472.417969 590.9375 471.304688 592.71875 471.304688 L 741.914062 471.304688 C 743.5625 471.304688 745.027344 472.207031 745.84375 473.710938 C 745.871094 473.75 745.890625 473.785156 745.90625 473.808594 C 745.980469 473.890625 745.996094 473.945312 746.003906 474.035156 L 746.652344 475.410156 C 746.660156 475.421875 746.671875 475.4375 746.683594 475.449219 C 746.8125 475.640625 746.875 475.824219 746.929688 476.042969 C 768.867188 523.871094 767.695312 520.523438 767.695312 522.058594 L 767.695312 522.269531 C 767.59375 524.71875 765.609375 526.621094 763.179688 526.621094 Z M 763.183594 525.574219 C 765.265625 525.574219 766.582031 523.882812 766.648438 522.25 L 766.648438 522.058594 C 766.648438 520.953125 768.265625 524.933594 745.953125 476.390625 C 745.90625 476.246094 745.878906 476.167969 745.859375 476.113281 C 745.777344 476.039062 745.71875 475.945312 745.699219 475.839844 L 745.007812 474.378906 C 744.996094 474.351562 744.984375 474.320312 744.976562 474.292969 C 744.972656 474.289062 744.972656 474.28125 744.96875 474.277344 C 744.304688 473.054688 743.175781 472.351562 741.914062 472.351562 C 585.949219 472.390625 592.714844 472.25 591.964844 472.460938 C 590.84375 472.695312 589.917969 473.492188 589.511719 474.550781 L 589.367188 474.921875 C 589.140625 475.492188 571.496094 519.878906 571.414062 520.484375 C 571.035156 522.1875 572.546875 524.328125 574.722656 524.328125 C 832.988281 526.039062 743.910156 525.449219 763.183594 525.574219 Z M 763.183594 525.574219 " fill-opacity="1" fill-rule="nonzero"/><path fill="#ffca28" d="M 727.363281 512.472656 L 727.363281 512.808594 C 727.308594 513.980469 726.359375 515.097656 724.96875 515.097656 C 724.367188 515.09375 630.875 514.476562 631.535156 514.484375 L 620.164062 514.425781 L 613.027344 514.316406 C 611.632812 514.316406 610.6875 513.3125 610.6875 512.082031 L 610.6875 511.75 C 610.6875 511.523438 610.796875 511.359375 610.796875 511.191406 C 611.023438 510.617188 620.890625 485.808594 620.273438 487.363281 L 621.386719 484.628906 L 621.445312 484.40625 C 621.722656 483.625 622.390625 483.121094 623.0625 482.898438 L 623.230469 482.898438 C 623.800781 482.707031 625.089844 482.84375 712.3125 482.84375 C 713.257812 482.84375 714.039062 483.34375 714.375 484.125 C 714.484375 484.125 714.484375 484.125 714.484375 484.183594 L 714.875 485.128906 C 714.988281 485.242188 714.988281 485.296875 715.042969 485.410156 C 715.300781 485.972656 727.402344 512.308594 727.140625 511.75 C 727.308594 512.027344 727.363281 512.195312 727.363281 512.472656 Z M 727.363281 512.472656 " fill-opacity="1" fill-rule="nonzero"/><path fill="#ff9f1c" d="M 727.378906 512.441406 L 727.378906 512.785156 C 727.292969 513.984375 726.351562 515.09375 724.984375 515.09375 C 722.9375 515.082031 630.988281 514.492188 631.550781 514.496094 C 630.976562 514.492188 611.800781 514.3125 613 514.324219 C 611.628906 514.324219 610.691406 513.296875 610.691406 512.101562 L 610.691406 511.757812 C 610.691406 511.5 610.777344 511.328125 610.777344 511.160156 C 611.007812 510.582031 620.882812 485.816406 620.265625 487.371094 L 621.375 484.632812 L 621.460938 484.375 C 621.773438 483.4375 622.746094 482.835938 623.683594 482.835938 L 628.214844 482.835938 C 634.96875 491.050781 645.566406 496.097656 656 499.605469 C 678.136719 507.136719 701.988281 509.875 725.242188 507.648438 L 727.121094 511.757812 C 727.292969 512.015625 727.378906 512.183594 727.378906 512.441406 Z M 727.378906 512.441406 " fill-opacity="1" fill-rule="nonzero"/><path fill="#f72f43" d="M 834.382812 284.726562 L 834.382812 417.449219 C 834.382812 423.070312 829.90625 427.617188 824.289062 427.617188 L 754.714844 427.617188 C 749.101562 427.617188 744.625 423.070312 744.625 417.449219 L 744.625 284.726562 C 744.625 279.171875 749.101562 274.625 754.714844 274.625 L 824.289062 274.625 C 829.90625 274.625 834.382812 279.171875 834.382812 284.726562 Z M 834.382812 284.726562 " fill-opacity="1" fill-rule="nonzero"/><path fill="#000000" d="M 771.683594 427.617188 L 754.714844 427.617188 C 749.101562 427.617188 744.625 423.070312 744.625 417.449219 L 744.625 406.96875 C 748.09375 393.582031 745.695312 378.683594 750.550781 365.613281 C 752.894531 359.355469 756.78125 356.222656 762.976562 358.476562 C 767.078125 359.992188 770.421875 363.210938 772.757812 367 C 775.027344 370.726562 776.351562 375.019531 777.359375 379.25 C 781.359375 395.84375 781.078125 413.367188 771.683594 427.617188 Z M 771.683594 427.617188 " fill-opacity="1" fill-rule="nonzero"/><g clip-path="url(#668763afe3)"><path fill="#095da4" d="M 837.777344 284.597656 L 837.777344 417.664062 C 837.777344 423.132812 833.371094 427.609375 827.84375 427.609375 L 757.929688 427.609375 C 752.46875 427.609375 747.996094 423.132812 747.996094 417.664062 L 747.996094 284.597656 C 747.996094 279.125 752.46875 274.652344 757.929688 274.652344 L 827.84375 274.652344 C 833.371094 274.652344 837.777344 279.125 837.777344 284.597656 Z M 837.777344 284.597656 " fill-opacity="1" fill-rule="nonzero"/><path fill="#19345d" d="M 837.777344 417.355469 L 837.777344 417.664062 C 837.777344 423.132812 833.371094 427.609375 827.84375 427.609375 L 757.929688 427.609375 C 752.46875 427.609375 747.996094 423.132812 747.996094 417.664062 L 747.996094 284.597656 C 747.996094 279.125 752.46875 274.652344 757.929688 274.652344 L 759.855469 274.652344 C 759.792969 297.648438 760.351562 320.769531 766.125 342.957031 C 772.707031 368.253906 786.867188 392.742188 809.402344 406.105469 C 818.21875 411.324219 827.84375 414.679688 837.777344 417.355469 Z M 837.777344 417.355469 " fill-opacity="1" fill-rule="nonzero"/></g><path fill="#000000" d="M 798 417.257812 C 798 417.703125 797.957031 418.140625 797.871094 418.578125 C 797.78125 419.015625 797.652344 419.4375 797.484375 419.847656 C 797.3125 420.261719 797.105469 420.652344 796.859375 421.019531 C 796.613281 421.390625 796.332031 421.734375 796.015625 422.046875 C 795.703125 422.363281 795.359375 422.644531 794.992188 422.890625 C 794.621094 423.136719 794.230469 423.34375 793.820312 423.515625 C 793.410156 423.6875 792.988281 423.816406 792.550781 423.902344 C 792.117188 423.988281 791.675781 424.03125 791.230469 424.03125 C 790.789062 424.03125 790.347656 423.988281 789.910156 423.902344 C 789.476562 423.8125 789.050781 423.6875 788.640625 423.515625 C 788.230469 423.34375 787.839844 423.136719 787.472656 422.890625 C 787.101562 422.640625 786.761719 422.363281 786.445312 422.046875 C 786.132812 421.734375 785.851562 421.390625 785.605469 421.019531 C 785.359375 420.652344 785.148438 420.261719 784.980469 419.847656 C 784.808594 419.4375 784.679688 419.015625 784.59375 418.578125 C 784.507812 418.140625 784.464844 417.703125 784.464844 417.257812 C 784.464844 416.8125 784.507812 416.371094 784.59375 415.933594 C 784.679688 415.5 784.808594 415.074219 784.980469 414.664062 C 785.148438 414.253906 785.359375 413.863281 785.605469 413.492188 C 785.851562 413.125 786.132812 412.78125 786.445312 412.464844 C 786.761719 412.152344 787.101562 411.871094 787.472656 411.625 C 787.839844 411.375 788.230469 411.167969 788.640625 410.996094 C 789.050781 410.828125 789.476562 410.699219 789.910156 410.613281 C 790.347656 410.527344 790.789062 410.480469 791.230469 410.480469 C 791.675781 410.480469 792.117188 410.527344 792.550781 410.613281 C 792.988281 410.699219 793.410156 410.828125 793.820312 410.996094 C 794.230469 411.167969 794.621094 411.375 794.992188 411.625 C 795.359375 411.871094 795.703125 412.152344 796.015625 412.464844 C 796.332031 412.78125 796.613281 413.125 796.859375 413.492188 C 797.105469 413.863281 797.3125 414.253906 797.484375 414.664062 C 797.652344 415.074219 797.78125 415.5 797.871094 415.933594 C 797.957031 416.371094 798 416.8125 798 417.257812 Z M 798 417.257812 " fill-opacity="1" fill-rule="nonzero"/><path fill="#f2f8fd" d="M 797.359375 420.957031 C 793.636719 426.546875 784.941406 423.941406 784.941406 417.230469 C 784.941406 413.472656 788.023438 410.457031 791.707031 410.457031 C 797.019531 410.457031 800.324219 416.359375 797.359375 420.957031 Z M 797.359375 420.957031 " fill-opacity="1" fill-rule="nonzero"/><path fill="#d0dcee" d="M 797.359375 420.957031 C 793.636719 426.546875 784.941406 423.941406 784.941406 417.230469 C 784.941406 414.621094 786.429688 412.320312 788.667969 411.199219 C 789.074219 417.488281 791.339844 419.324219 794.5625 420.398438 C 795.433594 420.710938 796.425781 420.898438 797.359375 420.957031 Z M 797.359375 420.957031 " fill-opacity="1" fill-rule="nonzero"/><g clip-path="url(#b1738d8995)"><path fill="#000000" d="M 828.871094 427.902344 L 756.929688 427.902344 C 751.832031 427.902344 747.6875 423.753906 747.6875 418.652344 L 747.6875 283.578125 C 747.6875 278.476562 751.832031 274.328125 756.929688 274.328125 L 828.871094 274.328125 C 833.964844 274.328125 838.109375 278.476562 838.109375 283.578125 L 838.109375 418.652344 C 838.109375 423.753906 833.964844 427.902344 828.871094 427.902344 Z M 756.929688 274.957031 C 752.183594 274.957031 748.320312 278.824219 748.320312 283.578125 L 748.320312 418.652344 C 748.320312 423.40625 752.183594 427.269531 756.929688 427.269531 L 828.871094 427.269531 C 833.617188 427.269531 837.480469 423.40625 837.480469 418.652344 L 837.480469 283.578125 C 837.480469 278.824219 833.617188 274.957031 828.871094 274.957031 Z M 756.929688 274.957031 " fill-opacity="1" fill-rule="nonzero"/></g><path fill="#f2f8fd" d="M 828.992188 292.664062 L 828.992188 399.75 C 828.992188 404.160156 825.480469 407.730469 821.019531 407.730469 L 764.769531 407.730469 C 760.367188 407.730469 756.742188 404.160156 756.742188 399.75 L 756.742188 292.664062 C 756.742188 288.253906 760.367188 284.628906 764.769531 284.628906 L 821.019531 284.628906 C 825.480469 284.628906 828.992188 288.253906 828.992188 292.664062 Z M 828.992188 292.664062 " fill-opacity="1" fill-rule="nonzero"/><path fill="#f2f8fd" d="M 732.511719 380.226562 C 732.511719 380.679688 732.425781 381.117188 732.253906 381.539062 C 732.078125 381.960938 731.832031 382.332031 731.507812 382.652344 C 731.1875 382.972656 730.816406 383.222656 730.398438 383.394531 C 729.976562 383.570312 729.539062 383.65625 729.085938 383.65625 C 728.628906 383.65625 728.191406 383.570312 727.773438 383.394531 C 727.351562 383.222656 726.980469 382.972656 726.660156 382.652344 C 726.339844 382.332031 726.089844 381.960938 725.917969 381.539062 C 725.742188 381.117188 725.65625 380.679688 725.65625 380.226562 C 725.65625 379.769531 725.742188 379.332031 725.917969 378.914062 C 726.089844 378.492188 726.339844 378.121094 726.660156 377.800781 C 726.980469 377.476562 727.351562 377.230469 727.773438 377.054688 C 728.191406 376.882812 728.628906 376.792969 729.085938 376.792969 C 729.539062 376.792969 729.976562 376.882812 730.398438 377.054688 C 730.816406 377.230469 731.1875 377.476562 731.507812 377.800781 C 731.832031 378.121094 732.078125 378.492188 732.253906 378.914062 C 732.425781 379.332031 732.511719 379.769531 732.511719 380.226562 Z M 732.511719 380.226562 " fill-opacity="1" fill-rule="nonzero"/><path fill="#f2f8fd" d="M 721.230469 380.226562 C 721.230469 380.679688 721.144531 381.117188 720.96875 381.539062 C 720.796875 381.960938 720.546875 382.332031 720.226562 382.652344 C 719.90625 382.972656 719.535156 383.222656 719.113281 383.394531 C 718.695312 383.570312 718.257812 383.65625 717.800781 383.65625 C 717.347656 383.65625 716.910156 383.570312 716.488281 383.394531 C 716.070312 383.222656 715.699219 382.972656 715.378906 382.652344 C 715.054688 382.332031 714.808594 381.960938 714.632812 381.539062 C 714.460938 381.117188 714.375 380.679688 714.375 380.226562 C 714.375 379.769531 714.460938 379.332031 714.632812 378.914062 C 714.808594 378.492188 715.054688 378.121094 715.378906 377.800781 C 715.699219 377.476562 716.070312 377.230469 716.488281 377.054688 C 716.910156 376.882812 717.347656 376.792969 717.800781 376.792969 C 718.257812 376.792969 718.695312 376.882812 719.113281 377.054688 C 719.535156 377.230469 719.90625 377.476562 720.226562 377.800781 C 720.546875 378.121094 720.796875 378.492188 720.96875 378.914062 C 721.144531 379.332031 721.230469 379.769531 721.230469 380.226562 Z M 721.230469 380.226562 " fill-opacity="1" fill-rule="nonzero"/><path fill="#f2f8fd" d="M 709.953125 380.226562 C 709.953125 380.679688 709.867188 381.117188 709.691406 381.539062 C 709.515625 381.960938 709.269531 382.332031 708.949219 382.652344 C 708.625 382.972656 708.257812 383.222656 707.835938 383.394531 C 707.414062 383.570312 706.980469 383.65625 706.523438 383.65625 C 706.070312 383.65625 705.632812 383.570312 705.210938 383.394531 C 704.792969 383.222656 704.421875 382.972656 704.097656 382.652344 C 703.777344 382.332031 703.53125 381.960938 703.355469 381.539062 C 703.183594 381.117188 703.09375 380.679688 703.09375 380.226562 C 703.09375 379.769531 703.183594 379.332031 703.355469 378.914062 C 703.53125 378.492188 703.777344 378.121094 704.101562 377.800781 C 704.421875 377.476562 704.792969 377.230469 705.210938 377.054688 C 705.632812 376.882812 706.070312 376.792969 706.523438 376.792969 C 706.980469 376.792969 707.414062 376.882812 707.835938 377.054688 C 708.257812 377.230469 708.625 377.476562 708.949219 377.800781 C 709.269531 378.121094 709.515625 378.492188 709.691406 378.914062 C 709.867188 379.332031 709.953125 379.769531 709.953125 380.226562 Z M 709.953125 380.226562 " fill-opacity="1" fill-rule="nonzero"/><path fill="#00c6c5" d="M 605.828125 400.253906 L 690.902344 400.253906 L 690.902344 429.105469 L 605.828125 429.105469 Z M 605.828125 400.253906 " fill-opacity="1" fill-rule="nonzero"/><path fill="#f72f43" d="M 695.3125 400.253906 L 734.765625 400.253906 L 734.765625 429.105469 L 695.3125 429.105469 Z M 695.3125 400.253906 " fill-opacity="1" fill-rule="nonzero"/><path fill="#d0dcee" d="M 607.019531 433.246094 L 690.183594 433.246094 L 690.183594 437.667969 L 607.019531 437.667969 Z M 607.019531 433.246094 " fill-opacity="1" fill-rule="nonzero"/><path fill="#d0dcee" d="M 607.019531 443.183594 L 670.039062 443.183594 L 670.039062 447.609375 L 607.019531 447.609375 Z M 607.019531 443.183594 " fill-opacity="1" fill-rule="nonzero"/><path fill="#d0dcee" d="M 607.019531 453.121094 L 646.980469 453.121094 L 646.980469 457.546875 L 607.019531 457.546875 Z M 607.019531 453.121094 " fill-opacity="1" fill-rule="nonzero"/><path fill="#d0dcee" d="M 695.3125 433.910156 L 734.765625 433.910156 L 734.765625 437.140625 L 695.3125 437.140625 Z M 695.3125 433.910156 " fill-opacity="1" fill-rule="nonzero"/><path fill="#d0dcee" d="M 695.3125 444.378906 L 734.765625 444.378906 L 734.765625 447.609375 L 695.3125 447.609375 Z M 695.3125 444.378906 " fill-opacity="1" fill-rule="nonzero"/><path fill="#d0dcee" d="M 695.3125 454.847656 L 734.765625 454.847656 L 734.765625 458.078125 L 695.3125 458.078125 Z M 695.3125 454.847656 " fill-opacity="1" fill-rule="nonzero"/><path fill="#00c6c5" d="M 762.785156 313.804688 L 822.03125 313.804688 L 822.03125 333.890625 L 762.785156 333.890625 Z M 762.785156 313.804688 " fill-opacity="1" fill-rule="nonzero"/><path fill="#f72f43" d="M 762.617188 373.765625 L 789.566406 373.765625 L 789.566406 393.46875 L 762.617188 393.46875 Z M 762.617188 373.765625 " fill-opacity="1" fill-rule="nonzero"/><path fill="#d0dcee" d="M 763.613281 346.179688 L 821.523438 346.179688 L 821.523438 349.261719 L 763.613281 349.261719 Z M 763.613281 346.179688 " fill-opacity="1" fill-rule="nonzero"/><path fill="#d0dcee" d="M 763.613281 353.101562 L 807.5 353.101562 L 807.5 356.179688 L 763.613281 356.179688 Z M 763.613281 353.101562 " fill-opacity="1" fill-rule="nonzero"/><path fill="#d0dcee" d="M 763.613281 360.023438 L 791.445312 360.023438 L 791.445312 363.105469 L 763.613281 363.105469 Z M 763.613281 360.023438 " fill-opacity="1" fill-rule="nonzero"/><path fill="#d0dcee" d="M 793.851562 375.367188 L 820.800781 375.367188 L 820.800781 377.574219 L 793.851562 377.574219 Z M 793.851562 375.367188 " fill-opacity="1" fill-rule="nonzero"/><path fill="#d0dcee" d="M 793.851562 382.511719 L 820.800781 382.511719 L 820.800781 384.722656 L 793.851562 384.722656 Z M 793.851562 382.511719 " fill-opacity="1" fill-rule="nonzero"/><path fill="#d0dcee" d="M 793.851562 389.660156 L 820.800781 389.660156 L 820.800781 391.871094 L 793.851562 391.871094 Z M 793.851562 389.660156 " fill-opacity="1" fill-rule="nonzero"/><path fill="#ffca28" d="M 828.992188 292.664062 L 828.992188 299.082031 L 756.742188 299.082031 L 756.742188 292.664062 C 756.742188 288.253906 760.367188 284.628906 764.769531 284.628906 L 821.019531 284.628906 C 825.480469 284.628906 828.992188 288.253906 828.992188 292.664062 Z M 828.992188 292.664062 " fill-opacity="1" fill-rule="nonzero"/><path fill="#f2f8fd" d="M 824.285156 292.089844 C 824.285156 292.453125 824.214844 292.800781 824.074219 293.136719 C 823.9375 293.472656 823.738281 293.765625 823.484375 294.023438 C 823.226562 294.28125 822.933594 294.476562 822.597656 294.617188 C 822.261719 294.753906 821.914062 294.824219 821.550781 294.824219 C 821.191406 294.824219 820.839844 294.753906 820.507812 294.617188 C 820.171875 294.476562 819.878906 294.28125 819.621094 294.023438 C 819.363281 293.765625 819.167969 293.472656 819.027344 293.136719 C 818.890625 292.800781 818.820312 292.453125 818.820312 292.089844 C 818.820312 291.726562 818.890625 291.378906 819.027344 291.042969 C 819.167969 290.707031 819.363281 290.414062 819.621094 290.15625 C 819.878906 289.898438 820.171875 289.703125 820.507812 289.5625 C 820.84375 289.425781 821.191406 289.355469 821.550781 289.355469 C 821.914062 289.355469 822.261719 289.425781 822.597656 289.5625 C 822.933594 289.703125 823.226562 289.898438 823.484375 290.15625 C 823.738281 290.414062 823.9375 290.707031 824.074219 291.042969 C 824.214844 291.378906 824.285156 291.726562 824.285156 292.089844 Z M 824.285156 292.089844 " fill-opacity="1" fill-rule="nonzero"/><path fill="#f2f8fd" d="M 814.214844 292.089844 C 814.214844 292.453125 814.148438 292.800781 814.007812 293.136719 C 813.871094 293.472656 813.671875 293.765625 813.417969 294.023438 C 813.160156 294.28125 812.863281 294.476562 812.53125 294.617188 C 812.195312 294.753906 811.847656 294.824219 811.484375 294.824219 C 811.121094 294.824219 810.773438 294.753906 810.4375 294.617188 C 810.105469 294.476562 809.808594 294.28125 809.554688 294.023438 C 809.296875 293.765625 809.097656 293.472656 808.960938 293.136719 C 808.820312 292.800781 808.753906 292.453125 808.753906 292.089844 C 808.753906 291.726562 808.820312 291.378906 808.960938 291.042969 C 809.097656 290.707031 809.296875 290.414062 809.554688 290.15625 C 809.808594 289.898438 810.105469 289.703125 810.4375 289.5625 C 810.773438 289.425781 811.121094 289.355469 811.484375 289.355469 C 811.847656 289.355469 812.195312 289.425781 812.53125 289.5625 C 812.863281 289.703125 813.160156 289.898438 813.417969 290.15625 C 813.671875 290.414062 813.871094 290.707031 814.007812 291.042969 C 814.148438 291.378906 814.214844 291.726562 814.214844 292.089844 Z M 814.214844 292.089844 " fill-opacity="1" fill-rule="nonzero"/><path fill="#f2f8fd" d="M 804.144531 292.089844 C 804.144531 292.453125 804.074219 292.800781 803.933594 293.136719 C 803.796875 293.472656 803.597656 293.765625 803.34375 294.023438 C 803.085938 294.28125 802.792969 294.476562 802.457031 294.617188 C 802.121094 294.753906 801.773438 294.824219 801.410156 294.824219 C 801.046875 294.824219 800.699219 294.753906 800.367188 294.617188 C 800.03125 294.476562 799.734375 294.28125 799.480469 294.023438 C 799.222656 293.765625 799.027344 293.472656 798.886719 293.136719 C 798.75 292.800781 798.679688 292.453125 798.679688 292.089844 C 798.679688 291.726562 798.75 291.378906 798.886719 291.042969 C 799.027344 290.707031 799.222656 290.414062 799.480469 290.15625 C 799.734375 289.898438 800.03125 289.703125 800.367188 289.5625 C 800.699219 289.425781 801.046875 289.355469 801.410156 289.355469 C 801.773438 289.355469 802.121094 289.425781 802.457031 289.5625 C 802.792969 289.703125 803.085938 289.898438 803.34375 290.15625 C 803.597656 290.414062 803.796875 290.707031 803.933594 291.042969 C 804.074219 291.378906 804.144531 291.726562 804.144531 292.089844 Z M 804.144531 292.089844 " fill-opacity="1" fill-rule="nonzero"/><path fill="#28b6f4" d="M 668.160156 328.546875 C 656.675781 342.558594 633.933594 334.398438 633.933594 316.269531 C 633.933594 305.515625 642.679688 296.960938 653.21875 296.960938 C 669.363281 296.960938 678.417969 315.707031 668.160156 328.546875 Z M 668.160156 328.546875 " fill-opacity="1" fill-rule="nonzero"/><path fill="#095da4" d="M 668.160156 328.546875 C 656.675781 342.558594 633.933594 334.398438 633.933594 316.269531 C 633.933594 309.125 637.832031 302.820312 643.632812 299.527344 C 642.738281 303.769531 642.738281 308.175781 643.574219 312.417969 C 645.839844 324.324219 653.523438 329.210938 665.429688 328.714844 C 666.320312 328.65625 667.269531 328.601562 668.160156 328.546875 Z M 668.160156 328.546875 " fill-opacity="1" fill-rule="nonzero"/><path fill="#f2f8fd" d="M 649.464844 327.269531 L 642.488281 319.328125 C 641.90625 318.667969 641.972656 317.660156 642.632812 317.082031 C 643.289062 316.503906 644.292969 316.566406 644.878906 317.226562 L 650.527344 323.660156 L 661.292969 308.527344 C 661.800781 307.8125 662.789062 307.640625 663.511719 308.152344 C 664.226562 308.660156 664.394531 309.65625 663.886719 310.371094 L 651.953125 327.140625 C 651.363281 327.964844 650.152344 328.046875 649.464844 327.269531 Z M 649.464844 327.269531 " fill-opacity="1" fill-rule="nonzero"/><path fill="#000000" d="M 727.363281 512.472656 L 727.363281 512.808594 C 727.308594 513.980469 726.359375 515.097656 724.96875 515.097656 C 724.367188 515.09375 630.875 514.476562 631.535156 514.484375 L 620.164062 514.425781 L 613.027344 514.316406 C 611.632812 514.316406 610.6875 513.3125 610.6875 512.082031 L 610.6875 511.75 C 610.6875 511.523438 610.796875 511.359375 610.796875 511.191406 C 611.023438 510.617188 620.890625 485.808594 620.273438 487.363281 L 621.386719 484.628906 L 621.445312 484.40625 C 621.722656 483.625 622.390625 483.121094 623.0625 482.898438 L 623.230469 482.898438 C 632.257812 496.066406 646.921875 504.941406 662.585938 508.007812 C 671.148438 509.722656 675.390625 509.632812 727.027344 511.46875 L 727.140625 511.75 C 727.308594 512.027344 727.363281 512.195312 727.363281 512.472656 Z M 727.363281 512.472656 " fill-opacity="1" fill-rule="nonzero"/></svg>