<svg xmlns="http://www.w3.org/2000/svg" xmlns:xlink="http://www.w3.org/1999/xlink" width="1920" zoomAndPan="magnify" viewBox="0 0 1440 809.999993" height="1080" preserveAspectRatio="xMidYMid meet" version="1.0"><defs><clipPath id="32db3703b0"><path d="M 630.8125 312.097656 L 809.3125 312.097656 L 809.3125 498 L 630.8125 498 Z M 630.8125 312.097656 " clip-rule="nonzero"/></clipPath></defs><rect x="-144" width="1728" fill="#ffffff" y="-80.999999" height="971.999992" fill-opacity="1"/><rect x="-144" width="1728" fill="#ffffff" y="-80.999999" height="971.999992" fill-opacity="1"/><path fill="#07244b" d="M 683.597656 399.535156 L 703.617188 399.535156 C 705.628906 399.535156 707.257812 397.90625 707.257812 395.898438 C 707.257812 393.886719 705.628906 392.257812 703.617188 392.257812 L 683.597656 392.257812 C 681.585938 392.257812 679.957031 393.886719 679.957031 395.898438 C 679.957031 397.90625 681.585938 399.535156 683.597656 399.535156 Z M 683.597656 399.535156 " fill-opacity="1" fill-rule="nonzero"/><path fill="#07244b" d="M 672.675781 395.898438 C 672.675781 393.886719 671.046875 392.257812 669.035156 392.257812 L 649.015625 392.257812 C 647.003906 392.257812 645.375 393.886719 645.375 395.898438 C 645.375 397.90625 647.003906 399.535156 649.015625 399.535156 L 669.035156 399.535156 C 671.046875 399.535156 672.675781 397.90625 672.675781 395.898438 Z M 672.675781 395.898438 " fill-opacity="1" fill-rule="nonzero"/><g clip-path="url(#32db3703b0)"><path fill="#07244b" d="M 809.183594 348.574219 C 809.183594 328.5 792.855469 312.171875 772.78125 312.171875 C 770.746094 312.171875 685.121094 312.171875 681.777344 312.171875 C 673.746094 312.171875 667.214844 318.703125 667.214844 326.734375 L 667.214844 363.136719 L 634.453125 363.136719 C 632.441406 363.136719 630.8125 364.765625 630.8125 366.773438 L 630.8125 410.457031 C 630.8125 412.46875 632.441406 414.097656 634.453125 414.097656 L 667.214844 414.097656 L 667.214844 483.261719 C 667.214844 491.292969 673.746094 497.824219 681.777344 497.824219 L 765.5 497.824219 C 773.53125 497.824219 780.0625 491.292969 780.0625 483.261719 L 780.0625 384.242188 C 796.65625 380.863281 809.183594 366.152344 809.183594 348.574219 Z M 681.777344 319.453125 L 750.964844 319.453125 C 743.96875 324.707031 738.921875 332.417969 737.113281 341.292969 L 674.496094 341.292969 L 674.496094 326.734375 C 674.496094 322.71875 677.761719 319.453125 681.777344 319.453125 Z M 714.539062 370.414062 L 714.539062 377.695312 L 638.09375 377.695312 L 638.09375 370.414062 Z M 638.09375 384.976562 L 714.539062 384.976562 L 714.539062 406.816406 L 638.09375 406.816406 Z M 765.5 490.542969 L 681.777344 490.542969 C 677.761719 490.542969 674.496094 487.277344 674.496094 483.261719 L 674.496094 468.703125 L 772.78125 468.703125 L 772.78125 483.261719 C 772.78125 487.277344 769.515625 490.542969 765.5 490.542969 Z M 772.78125 461.421875 L 674.496094 461.421875 L 674.496094 414.097656 L 718.179688 414.097656 C 720.1875 414.097656 721.820312 412.46875 721.820312 410.457031 L 721.820312 366.773438 C 721.820312 364.765625 720.1875 363.136719 718.179688 363.136719 L 674.496094 363.136719 L 674.496094 348.574219 L 736.378906 348.574219 C 736.378906 368.648438 752.710938 384.976562 772.78125 384.976562 Z M 772.78125 377.695312 C 756.722656 377.695312 743.660156 364.632812 743.660156 348.574219 C 743.660156 332.515625 756.722656 319.453125 772.78125 319.453125 C 788.839844 319.453125 801.902344 332.515625 801.902344 348.574219 C 801.902344 364.632812 788.839844 377.695312 772.78125 377.695312 Z M 772.78125 377.695312 " fill-opacity="1" fill-rule="nonzero"/></g><path fill="#07244b" d="M 783.859375 336.445312 L 767.320312 352.980469 L 761.703125 347.363281 C 760.28125 345.945312 757.980469 345.945312 756.558594 347.363281 C 755.136719 348.785156 755.136719 351.089844 756.558594 352.511719 L 764.746094 360.703125 C 766.167969 362.125 768.472656 362.125 769.894531 360.703125 L 789.007812 341.59375 C 790.429688 340.171875 790.429688 337.867188 789.007812 336.445312 C 787.585938 335.023438 785.28125 335.023438 783.859375 336.445312 Z M 783.859375 336.445312 " fill-opacity="1" fill-rule="nonzero"/><path fill="#07244b" d="M 732.738281 475.980469 L 714.539062 475.980469 C 712.527344 475.980469 710.898438 477.613281 710.898438 479.621094 C 710.898438 481.632812 712.527344 483.261719 714.539062 483.261719 L 732.738281 483.261719 C 734.75 483.261719 736.378906 481.632812 736.378906 479.621094 C 736.378906 477.613281 734.75 475.980469 732.738281 475.980469 Z M 732.738281 475.980469 " fill-opacity="1" fill-rule="nonzero"/><path fill="#07244b" d="M 710.898438 334.011719 L 729.097656 334.011719 C 731.109375 334.011719 732.738281 332.382812 732.738281 330.371094 C 732.738281 328.363281 731.109375 326.734375 729.097656 326.734375 L 710.898438 326.734375 C 708.886719 326.734375 707.257812 328.363281 707.257812 330.371094 C 707.257812 332.382812 708.886719 334.011719 710.898438 334.011719 Z M 710.898438 334.011719 " fill-opacity="1" fill-rule="nonzero"/></svg>