<svg xmlns="http://www.w3.org/2000/svg" xmlns:xlink="http://www.w3.org/1999/xlink" width="1920" zoomAndPan="magnify" viewBox="0 0 1440 809.999993" height="1080" preserveAspectRatio="xMidYMid meet" version="1.0"><defs><clipPath id="21510c2d74"><path d="M 674.847656 359.847656 L 765.152344 359.847656 L 765.152344 450.152344 L 674.847656 450.152344 Z M 674.847656 359.847656 " clip-rule="nonzero"/></clipPath><clipPath id="dbe9a3ef30"><path d="M 720 359.847656 C 695.0625 359.847656 674.847656 380.0625 674.847656 405 C 674.847656 429.9375 695.0625 450.152344 720 450.152344 C 744.9375 450.152344 765.152344 429.9375 765.152344 405 C 765.152344 380.0625 744.9375 359.847656 720 359.847656 Z M 720 359.847656 " clip-rule="nonzero"/></clipPath><clipPath id="5553e6e776"><path d="M 0.847656 0.847656 L 91.152344 0.847656 L 91.152344 91.152344 L 0.847656 91.152344 Z M 0.847656 0.847656 " clip-rule="nonzero"/></clipPath><clipPath id="b1d917a4dc"><path d="M 46 0.847656 C 21.0625 0.847656 0.847656 21.0625 0.847656 46 C 0.847656 70.9375 21.0625 91.152344 46 91.152344 C 70.9375 91.152344 91.152344 70.9375 91.152344 46 C 91.152344 21.0625 70.9375 0.847656 46 0.847656 Z M 46 0.847656 " clip-rule="nonzero"/></clipPath><clipPath id="003a72fcf4"><rect x="0" width="92" y="0" height="92"/></clipPath></defs><g clip-path="url(#21510c2d74)"><g clip-path="url(#dbe9a3ef30)"><g transform="matrix(1, 0, 0, 1, 674, 359)"><g clip-path="url(#003a72fcf4)"><g clip-path="url(#5553e6e776)"><g clip-path="url(#b1d917a4dc)"><path fill="#f6d46b" d="M 0.847656 0.847656 L 91.152344 0.847656 L 91.152344 91.152344 L 0.847656 91.152344 Z M 0.847656 0.847656 " fill-opacity="1" fill-rule="nonzero"/></g></g></g></g></g></g></svg>