<svg xmlns="http://www.w3.org/2000/svg" xmlns:xlink="http://www.w3.org/1999/xlink" width="1920" zoomAndPan="magnify" viewBox="0 0 1440 809.999993" height="1080" preserveAspectRatio="xMidYMid meet" version="1.0"><defs><clipPath id="9f9eb7b4d3"><path d="M 637 264 L 886.738281 264 L 886.738281 482 L 637 482 Z M 637 264 " clip-rule="nonzero"/></clipPath></defs><path fill="#36474a" d="M 875.550781 430.382812 C 876.292969 430.9375 876.660156 431.902344 876.476562 432.789062 C 874.808594 442.609375 872.21875 452.316406 868.777344 461.765625 C 868.441406 462.617188 867.664062 463.25 866.738281 463.398438 L 845.5625 466.363281 C 842.117188 473.699219 838.046875 480.8125 833.304688 487.628906 L 841.304688 507.453125 C 841.675781 508.304688 841.527344 509.308594 840.933594 510.011719 C 837.75 513.828125 834.378906 517.53125 830.824219 521.089844 C 827.273438 524.648438 823.570312 528.054688 819.753906 531.207031 C 819.050781 531.796875 818.050781 531.945312 817.199219 531.613281 L 797.394531 523.574219 C 790.582031 528.316406 783.472656 532.429688 776.140625 535.875 L 773.214844 557.070312 C 773.066406 557.996094 772.476562 558.773438 771.585938 559.109375 C 762.144531 562.589844 752.484375 565.183594 742.632812 566.851562 C 741.746094 567 740.785156 566.628906 740.226562 565.886719 L 727.085938 548.992188 C 718.9375 549.695312 710.71875 549.695312 702.574219 548.992188 L 689.429688 565.886719 C 688.875 566.628906 687.914062 567 687.023438 566.851562 C 677.214844 565.183594 667.511719 562.589844 658.109375 559.109375 C 657.21875 558.773438 656.589844 557.996094 656.480469 557.070312 L 653.554688 535.875 C 646.222656 532.429688 639.113281 528.316406 632.300781 523.574219 L 612.496094 531.578125 C 611.644531 531.945312 610.644531 531.796875 609.941406 531.207031 C 606.125 528.019531 602.425781 524.648438 598.871094 521.089844 C 595.316406 517.53125 591.910156 513.828125 588.761719 510.011719 C 588.171875 509.308594 588.023438 508.304688 588.390625 507.453125 L 596.390625 487.628906 C 591.648438 480.847656 587.539062 473.734375 584.097656 466.363281 L 562.917969 463.398438 C 561.992188 463.285156 561.214844 462.65625 560.882812 461.765625 C 557.402344 452.316406 554.847656 442.648438 553.183594 432.828125 C 553.035156 431.902344 553.40625 430.976562 554.109375 430.417969 L 570.953125 417.265625 C 570.289062 409.113281 570.289062 400.886719 570.953125 392.734375 L 554.109375 379.582031 C 553.367188 379.023438 552.996094 378.097656 553.144531 377.171875 C 554.8125 367.351562 557.402344 357.644531 560.882812 348.195312 C 561.214844 347.308594 561.992188 346.675781 562.917969 346.566406 L 584.097656 343.601562 C 587.539062 336.265625 591.648438 329.152344 596.390625 322.332031 L 588.390625 302.507812 C 588.023438 301.65625 588.171875 300.65625 588.761719 299.953125 C 591.945312 296.136719 595.316406 292.46875 598.871094 288.871094 C 602.425781 285.316406 606.125 281.945312 609.941406 278.757812 C 610.644531 278.164062 611.644531 278.015625 612.496094 278.386719 L 632.304688 286.390625 C 639.113281 281.648438 646.222656 277.535156 653.554688 274.125 L 656.480469 252.929688 C 656.589844 252.003906 657.21875 251.226562 658.109375 250.890625 C 667.550781 247.410156 677.214844 244.851562 687.0625 243.183594 C 687.988281 243.035156 688.914062 243.40625 689.46875 244.148438 L 702.613281 261.007812 C 710.757812 260.304688 718.976562 260.304688 727.121094 261.007812 L 740.265625 244.113281 C 740.820312 243.371094 741.746094 243 742.671875 243.183594 C 752.484375 244.851562 762.183594 247.445312 771.585938 250.890625 C 772.476562 251.226562 773.105469 252.003906 773.214844 252.929688 L 776.140625 274.125 C 783.507812 277.570312 790.582031 281.683594 797.394531 286.425781 L 817.199219 278.386719 C 818.015625 278.054688 818.976562 278.164062 819.679688 278.71875 C 818.125 279.867188 816.644531 280.980469 815.203125 282.09375 C 810.757812 285.539062 806.796875 288.722656 803.167969 291.875 C 798.097656 296.246094 793.0625 300.878906 788.210938 305.621094 L 787.988281 305.84375 C 783.398438 310.328125 779.027344 314.882812 774.585938 319.703125 C 774.511719 319.777344 774.476562 319.8125 774.402344 319.886719 C 733.933594 291.390625 677.65625 295.28125 641.449219 331.523438 C 600.90625 372.097656 600.90625 437.867188 641.449219 478.402344 C 663.179688 500.15625 692.171875 510.234375 720.640625 508.675781 C 721.234375 508.640625 721.828125 508.601562 722.382812 508.566406 C 746.375 506.824219 769.882812 496.78125 788.210938 478.402344 C 815.941406 450.652344 824.679688 411.113281 814.5 375.914062 C 825.347656 364.871094 836.34375 355.164062 847.300781 347.121094 C 848.558594 346.160156 849.855469 345.269531 851.113281 344.34375 L 866.738281 346.527344 C 867.664062 346.675781 868.441406 347.269531 868.777344 348.160156 C 872.253906 357.609375 874.808594 367.277344 876.511719 377.097656 C 876.660156 378.023438 876.292969 378.949219 875.550781 379.507812 L 858.667969 392.660156 C 859.371094 400.8125 859.371094 409.039062 858.667969 417.191406 Z M 875.550781 430.382812 " fill-opacity="1" fill-rule="nonzero"/><g clip-path="url(#9f9eb7b4d3)"><path fill="#1c8e9a" d="M 886.730469 312.585938 L 881.882812 314.476562 C 868.8125 319.628906 855.445312 327.148438 842.15625 336.785156 C 841.636719 337.152344 841.082031 337.5625 840.527344 337.96875 C 830.417969 345.417969 820.273438 354.160156 810.242188 364.054688 C 808.277344 365.980469 806.316406 367.984375 804.355469 369.984375 L 804.207031 370.132812 C 773.808594 399.183594 748.375 433.347656 728.566406 471.695312 L 723.308594 481.886719 L 719.53125 471.03125 C 709.980469 443.683594 694.28125 422.453125 672.917969 407.890625 C 656.921875 396.996094 643.558594 394.144531 643.410156 394.105469 L 637.042969 392.773438 L 640.003906 386.992188 L 664.292969 339.96875 L 675.992188 348.121094 C 676.769531 348.679688 677.546875 349.269531 678.324219 349.828125 L 679.324219 350.566406 C 680.027344 351.125 680.730469 351.640625 681.46875 352.199219 C 683.246094 353.605469 685.023438 355.050781 686.726562 356.460938 C 686.988281 356.679688 687.246094 356.867188 687.503906 357.089844 C 689.429688 358.71875 691.394531 360.425781 693.316406 362.164062 C 693.6875 362.535156 694.058594 362.832031 694.390625 363.167969 C 694.984375 363.722656 695.578125 364.277344 696.167969 364.832031 L 697.09375 365.722656 C 697.722656 366.316406 698.355469 366.910156 698.945312 367.5 L 699.910156 368.464844 C 700.5 369.058594 701.09375 369.652344 701.6875 370.207031 L 704.386719 373.023438 L 707.015625 375.839844 L 709.609375 378.730469 L 712.125 381.65625 L 714.570312 384.65625 L 716.941406 387.695312 L 719.199219 390.695312 C 719.789062 391.511719 720.347656 392.253906 720.902344 393.03125 L 721.492188 393.847656 C 722.050781 394.625 722.566406 395.402344 723.046875 396.144531 L 723.679688 397.070312 C 724.195312 397.847656 724.675781 398.625 725.160156 399.367188 L 725.789062 400.332031 C 726.308594 401.144531 726.824219 402 727.34375 402.8125 L 727.75 403.480469 C 730.75 398.332031 733.824219 393.21875 737.007812 388.214844 C 742.191406 380.027344 747.484375 372.097656 752.816406 364.722656 C 755.554688 360.90625 758.40625 357.089844 761.257812 353.308594 C 764.183594 349.492188 767.179688 345.75 770.144531 342.121094 C 774.4375 336.933594 778.695312 332.003906 782.953125 327.335938 C 783.066406 327.1875 783.210938 327.039062 783.324219 326.925781 C 787.46875 322.371094 791.652344 318.070312 795.949219 313.882812 L 796.132812 313.699219 C 800.835938 309.066406 805.722656 304.621094 810.574219 300.433594 C 814.015625 297.46875 817.792969 294.394531 822.089844 291.058594 C 824.085938 289.539062 826.125 287.984375 828.308594 286.425781 C 830.195312 285.054688 832.195312 283.683594 834.304688 282.277344 C 838.339844 279.574219 842.671875 276.832031 847.226562 274.164062 C 851.632812 271.605469 856.222656 269.160156 860.890625 266.898438 L 865.480469 264.640625 Z M 886.730469 312.585938 " fill-opacity="1" fill-rule="nonzero"/></g></svg>