<svg xmlns="http://www.w3.org/2000/svg" xmlns:xlink="http://www.w3.org/1999/xlink" width="1920" zoomAndPan="magnify" viewBox="0 0 1440 809.999993" height="1080" preserveAspectRatio="xMidYMid meet" version="1.0"><path fill="#ffa91a" d="M 720 542.8125 C 643.972656 542.8125 582.1875 480.953125 582.1875 405 C 582.1875 329.046875 643.972656 267.1875 720 267.1875 C 796.027344 267.1875 857.8125 328.972656 857.8125 405 C 857.8125 481.027344 796.027344 542.8125 720 542.8125 Z M 720 282.257812 C 652.335938 282.257812 597.257812 337.335938 597.257812 405 C 597.257812 472.664062 652.335938 527.742188 720 527.742188 C 787.664062 527.742188 842.742188 472.664062 842.742188 405 C 842.742188 337.335938 787.664062 282.257812 720 282.257812 Z M 720 282.257812 " fill-opacity="1" fill-rule="nonzero"/><path fill="#478cf7" d="M 751.722656 274.722656 C 751.722656 275.761719 751.671875 276.796875 751.570312 277.832031 C 751.46875 278.863281 751.316406 279.890625 751.113281 280.910156 C 750.910156 281.929688 750.65625 282.9375 750.355469 283.929688 C 750.054688 284.925781 749.703125 285.902344 749.308594 286.859375 C 748.910156 287.820312 748.464844 288.757812 747.976562 289.675781 C 747.488281 290.589844 746.953125 291.480469 746.375 292.34375 C 745.796875 293.210938 745.179688 294.042969 744.519531 294.847656 C 743.863281 295.648438 743.164062 296.417969 742.429688 297.152344 C 741.695312 297.886719 740.925781 298.585938 740.125 299.242188 C 739.320312 299.902344 738.488281 300.519531 737.625 301.097656 C 736.761719 301.675781 735.871094 302.207031 734.953125 302.699219 C 734.039062 303.1875 733.097656 303.632812 732.140625 304.027344 C 731.179688 304.425781 730.203125 304.777344 729.207031 305.078125 C 728.214844 305.378906 727.207031 305.632812 726.1875 305.835938 C 725.167969 306.035156 724.144531 306.1875 723.109375 306.289062 C 722.074219 306.394531 721.039062 306.445312 720 306.445312 C 718.960938 306.445312 717.925781 306.394531 716.890625 306.289062 C 715.855469 306.1875 714.832031 306.035156 713.8125 305.835938 C 712.792969 305.632812 711.785156 305.378906 710.792969 305.078125 C 709.796875 304.777344 708.820312 304.425781 707.859375 304.027344 C 706.902344 303.632812 705.960938 303.1875 705.046875 302.699219 C 704.128906 302.207031 703.238281 301.675781 702.375 301.097656 C 701.511719 300.519531 700.679688 299.902344 699.875 299.242188 C 699.074219 298.585938 698.304688 297.886719 697.570312 297.152344 C 696.835938 296.417969 696.136719 295.648438 695.480469 294.847656 C 694.820312 294.042969 694.203125 293.210938 693.625 292.34375 C 693.046875 291.480469 692.511719 290.589844 692.023438 289.675781 C 691.535156 288.757812 691.089844 287.820312 690.691406 286.859375 C 690.296875 285.902344 689.945312 284.925781 689.644531 283.929688 C 689.34375 282.9375 689.089844 281.929688 688.886719 280.910156 C 688.683594 279.890625 688.53125 278.863281 688.429688 277.832031 C 688.328125 276.796875 688.277344 275.761719 688.277344 274.722656 C 688.277344 273.683594 688.328125 272.648438 688.429688 271.613281 C 688.53125 270.578125 688.683594 269.550781 688.886719 268.535156 C 689.089844 267.515625 689.34375 266.507812 689.644531 265.511719 C 689.945312 264.519531 690.296875 263.542969 690.691406 262.582031 C 691.089844 261.621094 691.535156 260.683594 692.023438 259.769531 C 692.511719 258.851562 693.046875 257.960938 693.625 257.097656 C 694.203125 256.234375 694.820312 255.402344 695.480469 254.597656 C 696.136719 253.792969 696.835938 253.027344 697.570312 252.292969 C 698.304688 251.554688 699.074219 250.859375 699.875 250.199219 C 700.679688 249.542969 701.511719 248.921875 702.375 248.347656 C 703.238281 247.769531 704.128906 247.234375 705.046875 246.746094 C 705.960938 246.257812 706.902344 245.8125 707.859375 245.414062 C 708.820312 245.015625 709.796875 244.667969 710.792969 244.367188 C 711.785156 244.0625 712.792969 243.8125 713.8125 243.609375 C 714.832031 243.40625 715.855469 243.253906 716.890625 243.152344 C 717.925781 243.050781 718.960938 243 720 243 C 721.039062 243 722.074219 243.050781 723.109375 243.152344 C 724.144531 243.253906 725.167969 243.40625 726.1875 243.609375 C 727.207031 243.8125 728.214844 244.0625 729.207031 244.367188 C 730.203125 244.667969 731.179688 245.015625 732.140625 245.414062 C 733.097656 245.8125 734.039062 246.257812 734.953125 246.746094 C 735.871094 247.234375 736.761719 247.769531 737.625 248.347656 C 738.488281 248.921875 739.320312 249.542969 740.125 250.199219 C 740.925781 250.859375 741.695312 251.554688 742.429688 252.292969 C 743.164062 253.027344 743.863281 253.792969 744.519531 254.597656 C 745.179688 255.402344 745.796875 256.234375 746.375 257.097656 C 746.953125 257.960938 747.488281 258.851562 747.976562 259.769531 C 748.464844 260.683594 748.910156 261.621094 749.308594 262.582031 C 749.703125 263.542969 750.054688 264.519531 750.355469 265.511719 C 750.65625 266.507812 750.910156 267.515625 751.113281 268.535156 C 751.316406 269.550781 751.46875 270.578125 751.570312 271.613281 C 751.671875 272.648438 751.722656 273.683594 751.722656 274.722656 Z M 751.722656 274.722656 " fill-opacity="1" fill-rule="nonzero"/><path fill="#478cf7" d="M 751.722656 535.277344 C 751.722656 536.316406 751.671875 537.351562 751.570312 538.386719 C 751.46875 539.421875 751.316406 540.449219 751.113281 541.464844 C 750.910156 542.484375 750.65625 543.492188 750.355469 544.488281 C 750.054688 545.480469 749.703125 546.457031 749.308594 547.417969 C 748.910156 548.378906 748.464844 549.316406 747.976562 550.230469 C 747.488281 551.148438 746.953125 552.039062 746.375 552.902344 C 745.796875 553.765625 745.179688 554.597656 744.519531 555.402344 C 743.863281 556.207031 743.164062 556.972656 742.429688 557.707031 C 741.695312 558.445312 740.925781 559.140625 740.125 559.800781 C 739.320312 560.457031 738.488281 561.078125 737.625 561.652344 C 736.761719 562.230469 735.871094 562.765625 734.953125 563.253906 C 734.039062 563.742188 733.097656 564.1875 732.140625 564.585938 C 731.179688 564.984375 730.203125 565.332031 729.207031 565.632812 C 728.214844 565.9375 727.207031 566.1875 726.1875 566.390625 C 725.167969 566.59375 724.144531 566.746094 723.109375 566.847656 C 722.074219 566.949219 721.039062 567 720 567 C 718.960938 567 717.925781 566.949219 716.890625 566.847656 C 715.855469 566.746094 714.832031 566.59375 713.8125 566.390625 C 712.792969 566.1875 711.785156 565.9375 710.792969 565.632812 C 709.796875 565.332031 708.820312 564.984375 707.859375 564.585938 C 706.902344 564.1875 705.960938 563.742188 705.046875 563.253906 C 704.128906 562.765625 703.238281 562.230469 702.375 561.652344 C 701.511719 561.078125 700.679688 560.457031 699.875 559.800781 C 699.074219 559.140625 698.304688 558.445312 697.570312 557.707031 C 696.835938 556.972656 696.136719 556.207031 695.480469 555.402344 C 694.820312 554.597656 694.203125 553.765625 693.625 552.902344 C 693.046875 552.039062 692.511719 551.148438 692.023438 550.230469 C 691.535156 549.316406 691.089844 548.378906 690.691406 547.417969 C 690.296875 546.457031 689.945312 545.480469 689.644531 544.488281 C 689.34375 543.492188 689.089844 542.484375 688.886719 541.464844 C 688.683594 540.449219 688.53125 539.421875 688.429688 538.386719 C 688.328125 537.351562 688.277344 536.316406 688.277344 535.277344 C 688.277344 534.238281 688.328125 533.203125 688.429688 532.167969 C 688.53125 531.136719 688.683594 530.109375 688.886719 529.089844 C 689.089844 528.070312 689.34375 527.0625 689.644531 526.070312 C 689.945312 525.074219 690.296875 524.097656 690.691406 523.136719 C 691.089844 522.179688 691.535156 521.242188 692.023438 520.324219 C 692.511719 519.410156 693.046875 518.519531 693.625 517.65625 C 694.203125 516.789062 694.820312 515.957031 695.480469 515.152344 C 696.136719 514.351562 696.835938 513.582031 697.570312 512.847656 C 698.304688 512.113281 699.074219 511.414062 699.875 510.757812 C 700.679688 510.097656 701.511719 509.480469 702.375 508.902344 C 703.238281 508.324219 704.128906 507.792969 705.046875 507.300781 C 705.960938 506.8125 706.902344 506.367188 707.859375 505.972656 C 708.820312 505.574219 709.796875 505.222656 710.792969 504.921875 C 711.785156 504.621094 712.792969 504.367188 713.8125 504.164062 C 714.832031 503.964844 715.855469 503.8125 716.890625 503.710938 C 717.925781 503.605469 718.960938 503.554688 720 503.554688 C 721.039062 503.554688 722.074219 503.605469 723.109375 503.710938 C 724.144531 503.8125 725.167969 503.964844 726.1875 504.164062 C 727.207031 504.367188 728.214844 504.621094 729.207031 504.921875 C 730.203125 505.222656 731.179688 505.574219 732.140625 505.972656 C 733.097656 506.367188 734.039062 506.8125 734.953125 507.300781 C 735.871094 507.792969 736.761719 508.324219 737.625 508.902344 C 738.488281 509.480469 739.320312 510.097656 740.125 510.757812 C 740.925781 511.414062 741.695312 512.113281 742.429688 512.847656 C 743.164062 513.582031 743.863281 514.351562 744.519531 515.152344 C 745.179688 515.957031 745.796875 516.789062 746.375 517.65625 C 746.953125 518.519531 747.488281 519.410156 747.976562 520.324219 C 748.464844 521.242188 748.910156 522.179688 749.308594 523.136719 C 749.703125 524.097656 750.054688 525.074219 750.355469 526.070312 C 750.65625 527.0625 750.910156 528.070312 751.113281 529.089844 C 751.316406 530.109375 751.46875 531.136719 751.570312 532.167969 C 751.671875 533.203125 751.722656 534.238281 751.722656 535.277344 Z M 751.722656 535.277344 " fill-opacity="1" fill-rule="nonzero"/><path fill="#478cf7" d="M 882 404.925781 C 882 405.964844 881.949219 407 881.847656 408.035156 C 881.746094 409.066406 881.59375 410.09375 881.390625 411.113281 C 881.1875 412.132812 880.9375 413.140625 880.632812 414.132812 C 880.332031 415.128906 879.984375 416.105469 879.585938 417.0625 C 879.1875 418.023438 878.742188 418.960938 878.253906 419.878906 C 877.765625 420.792969 877.230469 421.683594 876.652344 422.546875 C 876.078125 423.414062 875.457031 424.246094 874.800781 425.046875 C 874.140625 425.851562 873.445312 426.621094 872.707031 427.355469 C 871.972656 428.089844 871.207031 428.785156 870.402344 429.445312 C 869.597656 430.105469 868.765625 430.722656 867.902344 431.300781 C 867.039062 431.878906 866.148438 432.410156 865.230469 432.902344 C 864.316406 433.390625 863.378906 433.835938 862.417969 434.230469 C 861.457031 434.628906 860.480469 434.980469 859.488281 435.28125 C 858.492188 435.582031 857.484375 435.835938 856.464844 436.035156 C 855.449219 436.238281 854.421875 436.390625 853.386719 436.492188 C 852.351562 436.59375 851.316406 436.648438 850.277344 436.648438 C 849.238281 436.648438 848.203125 436.59375 847.167969 436.492188 C 846.136719 436.390625 845.109375 436.238281 844.089844 436.035156 C 843.070312 435.835938 842.0625 435.582031 841.070312 435.28125 C 840.074219 434.980469 839.097656 434.628906 838.136719 434.230469 C 837.179688 433.835938 836.242188 433.390625 835.324219 432.902344 C 834.410156 432.410156 833.519531 431.878906 832.65625 431.300781 C 831.789062 430.722656 830.957031 430.105469 830.152344 429.445312 C 829.351562 428.785156 828.582031 428.089844 827.847656 427.355469 C 827.113281 426.621094 826.414062 425.851562 825.757812 425.046875 C 825.097656 424.246094 824.480469 423.414062 823.902344 422.546875 C 823.324219 421.683594 822.792969 420.792969 822.300781 419.878906 C 821.8125 418.960938 821.367188 418.023438 820.972656 417.0625 C 820.574219 416.105469 820.222656 415.128906 819.921875 414.132812 C 819.621094 413.140625 819.367188 412.132812 819.164062 411.113281 C 818.964844 410.09375 818.8125 409.066406 818.710938 408.035156 C 818.605469 407 818.554688 405.964844 818.554688 404.925781 C 818.554688 403.886719 818.605469 402.847656 818.710938 401.816406 C 818.8125 400.78125 818.964844 399.753906 819.164062 398.734375 C 819.367188 397.71875 819.621094 396.710938 819.921875 395.714844 C 820.222656 394.722656 820.574219 393.746094 820.972656 392.785156 C 821.367188 391.824219 821.8125 390.886719 822.300781 389.972656 C 822.792969 389.054688 823.324219 388.164062 823.902344 387.300781 C 824.480469 386.4375 825.097656 385.605469 825.757812 384.800781 C 826.414062 383.996094 827.113281 383.230469 827.847656 382.492188 C 828.582031 381.757812 829.351562 381.0625 830.152344 380.402344 C 830.957031 379.746094 831.789062 379.125 832.65625 378.550781 C 833.519531 377.972656 834.410156 377.4375 835.324219 376.949219 C 836.242188 376.457031 837.179688 376.015625 838.136719 375.617188 C 839.097656 375.21875 840.074219 374.871094 841.070312 374.570312 C 842.0625 374.265625 843.070312 374.015625 844.089844 373.8125 C 845.109375 373.609375 846.136719 373.457031 847.167969 373.355469 C 848.203125 373.253906 849.238281 373.203125 850.277344 373.203125 C 851.316406 373.203125 852.351562 373.253906 853.386719 373.355469 C 854.421875 373.457031 855.449219 373.609375 856.464844 373.8125 C 857.484375 374.015625 858.492188 374.265625 859.488281 374.570312 C 860.480469 374.871094 861.457031 375.21875 862.417969 375.617188 C 863.378906 376.015625 864.316406 376.457031 865.230469 376.949219 C 866.148438 377.4375 867.039062 377.972656 867.902344 378.550781 C 868.765625 379.125 869.597656 379.746094 870.402344 380.402344 C 871.207031 381.0625 871.972656 381.757812 872.707031 382.492188 C 873.445312 383.230469 874.140625 383.996094 874.800781 384.800781 C 875.457031 385.605469 876.078125 386.4375 876.652344 387.300781 C 877.230469 388.164062 877.765625 389.054688 878.253906 389.972656 C 878.742188 390.886719 879.1875 391.824219 879.585938 392.785156 C 879.984375 393.746094 880.332031 394.722656 880.632812 395.714844 C 880.9375 396.710938 881.1875 397.71875 881.390625 398.734375 C 881.59375 399.753906 881.746094 400.78125 881.847656 401.816406 C 881.949219 402.847656 882 403.886719 882 404.925781 Z M 882 404.925781 " fill-opacity="1" fill-rule="nonzero"/><path fill="#478cf7" d="M 621.445312 405.074219 C 621.445312 406.113281 621.394531 407.152344 621.289062 408.183594 C 621.1875 409.21875 621.035156 410.246094 620.835938 411.265625 C 620.632812 412.28125 620.378906 413.289062 620.078125 414.285156 C 619.777344 415.277344 619.425781 416.253906 619.027344 417.214844 C 618.632812 418.175781 618.1875 419.113281 617.699219 420.027344 C 617.207031 420.945312 616.675781 421.835938 616.097656 422.699219 C 615.519531 423.5625 614.902344 424.394531 614.242188 425.199219 C 613.585938 426.003906 612.886719 426.769531 612.152344 427.507812 C 611.417969 428.242188 610.648438 428.9375 609.847656 429.597656 C 609.042969 430.253906 608.210938 430.875 607.34375 431.449219 C 606.480469 432.027344 605.589844 432.5625 604.675781 433.050781 C 603.757812 433.542969 602.820312 433.984375 601.859375 434.382812 C 600.902344 434.78125 599.925781 435.128906 598.929688 435.429688 C 597.9375 435.734375 596.929688 435.984375 595.910156 436.1875 C 594.890625 436.390625 593.863281 436.542969 592.832031 436.644531 C 591.796875 436.746094 590.761719 436.796875 589.722656 436.796875 C 588.683594 436.796875 587.648438 436.746094 586.613281 436.644531 C 585.578125 436.542969 584.550781 436.390625 583.535156 436.1875 C 582.515625 435.984375 581.507812 435.734375 580.511719 435.429688 C 579.519531 435.128906 578.542969 434.78125 577.582031 434.382812 C 576.621094 433.984375 575.683594 433.542969 574.769531 433.050781 C 573.851562 432.5625 572.960938 432.027344 572.097656 431.449219 C 571.234375 430.875 570.402344 430.253906 569.597656 429.597656 C 568.792969 428.9375 568.027344 428.242188 567.292969 427.507812 C 566.554688 426.769531 565.859375 426.003906 565.199219 425.199219 C 564.542969 424.394531 563.921875 423.5625 563.347656 422.699219 C 562.769531 421.835938 562.234375 420.945312 561.746094 420.027344 C 561.257812 419.113281 560.8125 418.175781 560.414062 417.214844 C 560.015625 416.253906 559.667969 415.277344 559.367188 414.285156 C 559.0625 413.289062 558.8125 412.28125 558.609375 411.265625 C 558.40625 410.246094 558.253906 409.21875 558.152344 408.183594 C 558.050781 407.152344 558 406.113281 558 405.074219 C 558 404.035156 558.050781 403 558.152344 401.964844 C 558.253906 400.933594 558.40625 399.90625 558.609375 398.886719 C 558.8125 397.867188 559.0625 396.859375 559.367188 395.867188 C 559.667969 394.871094 560.015625 393.894531 560.414062 392.9375 C 560.8125 391.976562 561.257812 391.039062 561.746094 390.121094 C 562.234375 389.207031 562.769531 388.316406 563.347656 387.453125 C 563.921875 386.585938 564.542969 385.753906 565.199219 384.953125 C 565.859375 384.148438 566.554688 383.378906 567.292969 382.644531 C 568.027344 381.910156 568.792969 381.214844 569.597656 380.554688 C 570.402344 379.894531 571.234375 379.277344 572.097656 378.699219 C 572.960938 378.121094 573.851562 377.589844 574.769531 377.097656 C 575.683594 376.609375 576.621094 376.164062 577.582031 375.769531 C 578.542969 375.371094 579.519531 375.019531 580.511719 374.71875 C 581.507812 374.417969 582.515625 374.164062 583.535156 373.964844 C 584.550781 373.761719 585.578125 373.609375 586.613281 373.507812 C 587.648438 373.40625 588.683594 373.351562 589.722656 373.351562 C 590.761719 373.351562 591.796875 373.40625 592.832031 373.507812 C 593.863281 373.609375 594.890625 373.761719 595.910156 373.964844 C 596.929688 374.164062 597.9375 374.417969 598.929688 374.71875 C 599.925781 375.019531 600.902344 375.371094 601.859375 375.769531 C 602.820312 376.164062 603.757812 376.609375 604.675781 377.097656 C 605.589844 377.589844 606.480469 378.121094 607.34375 378.699219 C 608.210938 379.277344 609.042969 379.894531 609.847656 380.554688 C 610.648438 381.214844 611.417969 381.910156 612.152344 382.644531 C 612.886719 383.378906 613.585938 384.148438 614.242188 384.953125 C 614.902344 385.753906 615.519531 386.585938 616.097656 387.453125 C 616.675781 388.316406 617.207031 389.207031 617.699219 390.121094 C 618.1875 391.039062 618.632812 391.976562 619.027344 392.9375 C 619.425781 393.894531 619.777344 394.871094 620.078125 395.867188 C 620.378906 396.859375 620.632812 397.867188 620.835938 398.886719 C 621.035156 399.90625 621.1875 400.933594 621.289062 401.964844 C 621.394531 403 621.445312 404.035156 621.445312 405.074219 Z M 621.445312 405.074219 " fill-opacity="1" fill-rule="nonzero"/><path fill="#478cf7" d="M 843.875 312.847656 C 843.875 313.886719 843.824219 314.921875 843.71875 315.957031 C 843.617188 316.992188 843.464844 318.019531 843.265625 319.035156 C 843.0625 320.054688 842.808594 321.0625 842.507812 322.058594 C 842.207031 323.050781 841.855469 324.027344 841.457031 324.988281 C 841.0625 325.949219 840.617188 326.886719 840.128906 327.800781 C 839.636719 328.71875 839.105469 329.609375 838.527344 330.472656 C 837.949219 331.335938 837.332031 332.167969 836.671875 332.972656 C 836.015625 333.777344 835.316406 334.542969 834.582031 335.277344 C 833.847656 336.015625 833.078125 336.710938 832.277344 337.371094 C 831.472656 338.027344 830.640625 338.648438 829.773438 339.222656 C 828.910156 339.800781 828.019531 340.335938 827.105469 340.824219 C 826.1875 341.3125 825.25 341.757812 824.292969 342.15625 C 823.332031 342.554688 822.355469 342.902344 821.359375 343.203125 C 820.367188 343.507812 819.359375 343.757812 818.339844 343.960938 C 817.320312 344.164062 816.292969 344.316406 815.261719 344.417969 C 814.226562 344.519531 813.191406 344.570312 812.152344 344.570312 C 811.113281 344.570312 810.078125 344.519531 809.042969 344.417969 C 808.007812 344.316406 806.980469 344.164062 805.964844 343.960938 C 804.945312 343.757812 803.9375 343.507812 802.941406 343.203125 C 801.949219 342.902344 800.972656 342.554688 800.011719 342.15625 C 799.050781 341.757812 798.113281 341.3125 797.199219 340.824219 C 796.28125 340.335938 795.390625 339.800781 794.527344 339.222656 C 793.664062 338.648438 792.832031 338.027344 792.027344 337.371094 C 791.222656 336.710938 790.457031 336.015625 789.722656 335.277344 C 788.984375 334.542969 788.289062 333.777344 787.628906 332.972656 C 786.972656 332.167969 786.351562 331.335938 785.777344 330.472656 C 785.199219 329.609375 784.664062 328.71875 784.175781 327.800781 C 783.6875 326.886719 783.242188 325.949219 782.84375 324.988281 C 782.445312 324.027344 782.097656 323.050781 781.796875 322.058594 C 781.492188 321.0625 781.242188 320.054688 781.039062 319.035156 C 780.835938 318.019531 780.683594 316.992188 780.582031 315.957031 C 780.480469 314.921875 780.429688 313.886719 780.429688 312.847656 C 780.429688 311.808594 780.480469 310.773438 780.582031 309.738281 C 780.683594 308.707031 780.835938 307.679688 781.039062 306.660156 C 781.242188 305.640625 781.492188 304.632812 781.796875 303.640625 C 782.097656 302.644531 782.445312 301.667969 782.84375 300.707031 C 783.242188 299.75 783.6875 298.8125 784.175781 297.894531 C 784.664062 296.980469 785.199219 296.089844 785.777344 295.226562 C 786.351562 294.359375 786.972656 293.527344 787.628906 292.722656 C 788.289062 291.921875 788.984375 291.152344 789.722656 290.417969 C 790.457031 289.683594 791.222656 288.984375 792.027344 288.328125 C 792.832031 287.667969 793.664062 287.050781 794.527344 286.472656 C 795.390625 285.894531 796.28125 285.363281 797.199219 284.871094 C 798.113281 284.382812 799.050781 283.9375 800.011719 283.542969 C 800.972656 283.144531 801.949219 282.792969 802.941406 282.492188 C 803.9375 282.191406 804.945312 281.9375 805.964844 281.734375 C 806.980469 281.535156 808.007812 281.382812 809.042969 281.277344 C 810.078125 281.175781 811.113281 281.125 812.152344 281.125 C 813.191406 281.125 814.226562 281.175781 815.261719 281.277344 C 816.292969 281.382812 817.320312 281.535156 818.339844 281.734375 C 819.359375 281.9375 820.367188 282.191406 821.359375 282.492188 C 822.355469 282.792969 823.332031 283.144531 824.289062 283.542969 C 825.25 283.9375 826.1875 284.382812 827.105469 284.871094 C 828.019531 285.363281 828.910156 285.894531 829.773438 286.472656 C 830.640625 287.050781 831.472656 287.667969 832.277344 288.328125 C 833.078125 288.984375 833.847656 289.683594 834.582031 290.417969 C 835.316406 291.152344 836.015625 291.921875 836.671875 292.722656 C 837.332031 293.527344 837.949219 294.359375 838.527344 295.226562 C 839.105469 296.089844 839.636719 296.980469 840.128906 297.894531 C 840.617188 298.8125 841.0625 299.75 841.457031 300.707031 C 841.855469 301.667969 842.207031 302.644531 842.507812 303.640625 C 842.808594 304.632812 843.0625 305.640625 843.265625 306.660156 C 843.464844 307.679688 843.617188 308.707031 843.722656 309.738281 C 843.824219 310.773438 843.875 311.808594 843.875 312.847656 Z M 843.875 312.847656 " fill-opacity="1" fill-rule="nonzero"/><path fill="#478cf7" d="M 659.570312 497.152344 C 659.570312 498.191406 659.519531 499.226562 659.417969 500.261719 C 659.316406 501.292969 659.164062 502.320312 658.960938 503.339844 C 658.757812 504.359375 658.503906 505.367188 658.203125 506.359375 C 657.902344 507.355469 657.554688 508.332031 657.15625 509.289062 C 656.757812 510.25 656.3125 511.1875 655.824219 512.105469 C 655.335938 513.019531 654.800781 513.910156 654.222656 514.773438 C 653.648438 515.640625 653.027344 516.472656 652.371094 517.277344 C 651.710938 518.078125 651.015625 518.847656 650.277344 519.582031 C 649.542969 520.316406 648.777344 521.015625 647.972656 521.671875 C 647.167969 522.332031 646.335938 522.949219 645.472656 523.527344 C 644.609375 524.105469 643.71875 524.636719 642.800781 525.128906 C 641.886719 525.617188 640.949219 526.0625 639.988281 526.457031 C 639.027344 526.855469 638.050781 527.207031 637.058594 527.507812 C 636.0625 527.808594 635.054688 528.0625 634.035156 528.265625 C 633.019531 528.464844 631.992188 528.617188 630.957031 528.722656 C 629.921875 528.824219 628.886719 528.875 627.847656 528.875 C 626.808594 528.875 625.773438 528.824219 624.738281 528.722656 C 623.707031 528.617188 622.679688 528.464844 621.660156 528.265625 C 620.640625 528.0625 619.632812 527.808594 618.640625 527.507812 C 617.644531 527.207031 616.667969 526.855469 615.707031 526.457031 C 614.75 526.0625 613.8125 525.617188 612.894531 525.128906 C 611.976562 524.636719 611.089844 524.105469 610.226562 523.527344 C 609.359375 522.949219 608.527344 522.332031 607.722656 521.671875 C 606.921875 521.015625 606.152344 520.316406 605.417969 519.582031 C 604.683594 518.847656 603.984375 518.078125 603.328125 517.277344 C 602.667969 516.472656 602.050781 515.640625 601.472656 514.773438 C 600.894531 513.910156 600.363281 513.019531 599.871094 512.105469 C 599.382812 511.1875 598.9375 510.25 598.542969 509.292969 C 598.144531 508.332031 597.792969 507.355469 597.492188 506.359375 C 597.191406 505.367188 596.9375 504.359375 596.734375 503.339844 C 596.535156 502.320312 596.382812 501.292969 596.277344 500.261719 C 596.175781 499.226562 596.125 498.191406 596.125 497.152344 C 596.125 496.113281 596.175781 495.078125 596.277344 494.042969 C 596.382812 493.007812 596.535156 491.980469 596.734375 490.964844 C 596.9375 489.945312 597.191406 488.9375 597.492188 487.941406 C 597.792969 486.949219 598.144531 485.972656 598.542969 485.011719 C 598.9375 484.050781 599.382812 483.113281 599.871094 482.199219 C 600.363281 481.28125 600.894531 480.390625 601.472656 479.527344 C 602.050781 478.664062 602.667969 477.832031 603.328125 477.027344 C 603.984375 476.222656 604.683594 475.457031 605.417969 474.722656 C 606.152344 473.984375 606.921875 473.289062 607.722656 472.628906 C 608.527344 471.972656 609.359375 471.351562 610.226562 470.777344 C 611.089844 470.199219 611.980469 469.664062 612.894531 469.175781 C 613.8125 468.6875 614.75 468.242188 615.707031 467.84375 C 616.667969 467.445312 617.644531 467.097656 618.640625 466.796875 C 619.632812 466.492188 620.640625 466.242188 621.660156 466.039062 C 622.679688 465.835938 623.707031 465.683594 624.738281 465.582031 C 625.773438 465.480469 626.808594 465.429688 627.847656 465.429688 C 628.886719 465.429688 629.921875 465.480469 630.957031 465.582031 C 631.992188 465.683594 633.019531 465.835938 634.035156 466.039062 C 635.054688 466.242188 636.0625 466.492188 637.058594 466.796875 C 638.050781 467.097656 639.027344 467.445312 639.988281 467.84375 C 640.949219 468.242188 641.886719 468.6875 642.800781 469.175781 C 643.71875 469.664062 644.609375 470.199219 645.472656 470.777344 C 646.335938 471.351562 647.167969 471.972656 647.972656 472.628906 C 648.777344 473.289062 649.542969 473.984375 650.277344 474.722656 C 651.015625 475.457031 651.710938 476.222656 652.371094 477.027344 C 653.027344 477.832031 653.648438 478.664062 654.222656 479.527344 C 654.800781 480.390625 655.335938 481.28125 655.824219 482.199219 C 656.3125 483.113281 656.757812 484.050781 657.15625 485.011719 C 657.554688 485.972656 657.902344 486.949219 658.203125 487.941406 C 658.507812 488.9375 658.757812 489.945312 658.960938 490.964844 C 659.164062 491.980469 659.316406 493.007812 659.417969 494.042969 C 659.519531 495.078125 659.570312 496.113281 659.570312 497.152344 Z M 659.570312 497.152344 " fill-opacity="1" fill-rule="nonzero"/><path fill="#478cf7" d="M 843.875 497.078125 C 843.875 498.117188 843.824219 499.152344 843.71875 500.1875 C 843.617188 501.21875 843.464844 502.246094 843.265625 503.265625 C 843.0625 504.285156 842.808594 505.289062 842.507812 506.285156 C 842.207031 507.277344 841.855469 508.253906 841.457031 509.214844 C 841.0625 510.175781 840.617188 511.113281 840.128906 512.03125 C 839.636719 512.945312 839.105469 513.835938 838.527344 514.699219 C 837.949219 515.5625 837.332031 516.398438 836.671875 517.199219 C 836.015625 518.003906 835.316406 518.773438 834.582031 519.507812 C 833.847656 520.242188 833.078125 520.9375 832.277344 521.597656 C 831.472656 522.257812 830.640625 522.875 829.773438 523.453125 C 828.910156 524.027344 828.019531 524.5625 827.105469 525.050781 C 826.1875 525.542969 825.25 525.984375 824.292969 526.382812 C 823.332031 526.78125 822.355469 527.128906 821.359375 527.433594 C 820.367188 527.734375 819.359375 527.984375 818.339844 528.1875 C 817.320312 528.390625 816.292969 528.542969 815.261719 528.644531 C 814.226562 528.746094 813.191406 528.796875 812.152344 528.796875 C 811.113281 528.796875 810.078125 528.746094 809.042969 528.644531 C 808.007812 528.542969 806.980469 528.390625 805.964844 528.1875 C 804.945312 527.984375 803.9375 527.734375 802.941406 527.433594 C 801.949219 527.128906 800.972656 526.78125 800.011719 526.382812 C 799.050781 525.984375 798.113281 525.542969 797.199219 525.050781 C 796.28125 524.5625 795.390625 524.027344 794.527344 523.453125 C 793.664062 522.875 792.832031 522.257812 792.027344 521.597656 C 791.222656 520.9375 790.457031 520.242188 789.722656 519.507812 C 788.984375 518.773438 788.289062 518.003906 787.628906 517.199219 C 786.972656 516.398438 786.351562 515.5625 785.777344 514.699219 C 785.199219 513.835938 784.664062 512.945312 784.175781 512.03125 C 783.6875 511.113281 783.242188 510.175781 782.84375 509.214844 C 782.445312 508.257812 782.097656 507.277344 781.796875 506.285156 C 781.492188 505.289062 781.242188 504.285156 781.039062 503.265625 C 780.835938 502.246094 780.683594 501.21875 780.582031 500.1875 C 780.480469 499.152344 780.429688 498.117188 780.429688 497.078125 C 780.429688 496.039062 780.480469 495 780.582031 493.96875 C 780.683594 492.933594 780.835938 491.90625 781.039062 490.886719 C 781.242188 489.867188 781.492188 488.863281 781.796875 487.867188 C 782.097656 486.875 782.445312 485.898438 782.84375 484.9375 C 783.242188 483.976562 783.6875 483.039062 784.175781 482.121094 C 784.664062 481.207031 785.199219 480.316406 785.777344 479.453125 C 786.351562 478.589844 786.972656 477.753906 787.628906 476.953125 C 788.289062 476.148438 788.984375 475.378906 789.722656 474.644531 C 790.457031 473.910156 791.222656 473.214844 792.027344 472.554688 C 792.832031 471.894531 793.664062 471.277344 794.527344 470.699219 C 795.390625 470.125 796.28125 469.589844 797.199219 469.101562 C 798.113281 468.609375 799.050781 468.167969 800.011719 467.769531 C 800.972656 467.371094 801.949219 467.023438 802.941406 466.71875 C 803.9375 466.417969 804.945312 466.167969 805.964844 465.964844 C 806.980469 465.761719 808.007812 465.609375 809.042969 465.507812 C 810.078125 465.40625 811.113281 465.355469 812.152344 465.355469 C 813.191406 465.355469 814.226562 465.40625 815.261719 465.507812 C 816.292969 465.609375 817.320312 465.761719 818.339844 465.964844 C 819.359375 466.167969 820.367188 466.417969 821.359375 466.71875 C 822.355469 467.023438 823.332031 467.371094 824.289062 467.769531 C 825.25 468.167969 826.1875 468.609375 827.105469 469.101562 C 828.019531 469.589844 828.910156 470.125 829.773438 470.699219 C 830.640625 471.277344 831.472656 471.894531 832.277344 472.554688 C 833.078125 473.214844 833.847656 473.910156 834.582031 474.644531 C 835.316406 475.378906 836.015625 476.148438 836.671875 476.953125 C 837.332031 477.753906 837.949219 478.589844 838.527344 479.453125 C 839.105469 480.316406 839.636719 481.207031 840.128906 482.121094 C 840.617188 483.039062 841.0625 483.976562 841.457031 484.9375 C 841.855469 485.898438 842.207031 486.875 842.507812 487.867188 C 842.808594 488.863281 843.0625 489.867188 843.265625 490.886719 C 843.464844 491.90625 843.617188 492.933594 843.722656 493.96875 C 843.824219 495 843.875 496.039062 843.875 497.078125 Z M 843.875 497.078125 " fill-opacity="1" fill-rule="nonzero"/><path fill="#478cf7" d="M 659.570312 312.921875 C 659.570312 313.960938 659.519531 315 659.417969 316.03125 C 659.316406 317.066406 659.164062 318.09375 658.960938 319.113281 C 658.757812 320.132812 658.503906 321.136719 658.203125 322.132812 C 657.902344 323.125 657.554688 324.101562 657.15625 325.0625 C 656.757812 326.023438 656.3125 326.960938 655.824219 327.878906 C 655.335938 328.792969 654.800781 329.683594 654.222656 330.546875 C 653.648438 331.410156 653.027344 332.246094 652.371094 333.046875 C 651.710938 333.851562 651.015625 334.621094 650.277344 335.355469 C 649.542969 336.089844 648.777344 336.785156 647.972656 337.445312 C 647.167969 338.105469 646.335938 338.722656 645.472656 339.300781 C 644.609375 339.875 643.71875 340.410156 642.800781 340.898438 C 641.886719 341.390625 640.949219 341.832031 639.988281 342.230469 C 639.027344 342.628906 638.050781 342.976562 637.058594 343.28125 C 636.0625 343.582031 635.054688 343.832031 634.035156 344.035156 C 633.019531 344.238281 631.992188 344.390625 630.957031 344.492188 C 629.921875 344.59375 628.886719 344.644531 627.847656 344.644531 C 626.808594 344.644531 625.773438 344.59375 624.738281 344.492188 C 623.707031 344.390625 622.679688 344.238281 621.660156 344.035156 C 620.640625 343.832031 619.632812 343.582031 618.640625 343.28125 C 617.644531 342.976562 616.667969 342.628906 615.707031 342.230469 C 614.75 341.832031 613.8125 341.390625 612.894531 340.898438 C 611.976562 340.410156 611.089844 339.875 610.226562 339.300781 C 609.359375 338.722656 608.527344 338.105469 607.722656 337.445312 C 606.921875 336.785156 606.152344 336.089844 605.417969 335.355469 C 604.683594 334.621094 603.984375 333.851562 603.328125 333.046875 C 602.667969 332.246094 602.050781 331.410156 601.472656 330.546875 C 600.894531 329.683594 600.363281 328.792969 599.871094 327.878906 C 599.382812 326.960938 598.9375 326.023438 598.542969 325.0625 C 598.144531 324.101562 597.792969 323.125 597.492188 322.132812 C 597.191406 321.136719 596.9375 320.132812 596.734375 319.113281 C 596.535156 318.09375 596.382812 317.066406 596.277344 316.03125 C 596.175781 315 596.125 313.960938 596.125 312.921875 C 596.125 311.886719 596.175781 310.847656 596.277344 309.8125 C 596.382812 308.78125 596.535156 307.753906 596.734375 306.734375 C 596.9375 305.714844 597.191406 304.710938 597.492188 303.714844 C 597.792969 302.722656 598.144531 301.742188 598.542969 300.785156 C 598.9375 299.824219 599.382812 298.886719 599.871094 297.96875 C 600.363281 297.054688 600.894531 296.164062 601.472656 295.300781 C 602.050781 294.4375 602.667969 293.601562 603.328125 292.800781 C 603.984375 291.996094 604.683594 291.226562 605.417969 290.492188 C 606.152344 289.757812 606.921875 289.0625 607.722656 288.402344 C 608.527344 287.742188 609.359375 287.125 610.226562 286.546875 C 611.089844 285.972656 611.980469 285.4375 612.894531 284.949219 C 613.8125 284.457031 614.75 284.015625 615.707031 283.617188 C 616.667969 283.21875 617.644531 282.871094 618.640625 282.566406 C 619.632812 282.265625 620.640625 282.015625 621.660156 281.8125 C 622.679688 281.609375 623.707031 281.457031 624.738281 281.355469 C 625.773438 281.253906 626.808594 281.203125 627.847656 281.203125 C 628.886719 281.203125 629.921875 281.253906 630.957031 281.355469 C 631.992188 281.457031 633.019531 281.609375 634.035156 281.8125 C 635.054688 282.015625 636.0625 282.265625 637.058594 282.566406 C 638.050781 282.871094 639.027344 283.21875 639.988281 283.617188 C 640.949219 284.015625 641.886719 284.457031 642.800781 284.949219 C 643.71875 285.4375 644.609375 285.972656 645.472656 286.546875 C 646.335938 287.125 647.167969 287.742188 647.972656 288.402344 C 648.777344 289.0625 649.542969 289.757812 650.277344 290.492188 C 651.015625 291.226562 651.710938 291.996094 652.371094 292.800781 C 653.027344 293.601562 653.648438 294.4375 654.222656 295.300781 C 654.800781 296.164062 655.335938 297.054688 655.824219 297.96875 C 656.3125 298.886719 656.757812 299.824219 657.15625 300.785156 C 657.554688 301.742188 657.902344 302.722656 658.203125 303.714844 C 658.507812 304.710938 658.757812 305.714844 658.960938 306.734375 C 659.164062 307.753906 659.316406 308.78125 659.417969 309.8125 C 659.519531 310.847656 659.570312 311.886719 659.570312 312.921875 Z M 659.570312 312.921875 " fill-opacity="1" fill-rule="nonzero"/><path fill="#ffffff" d="M 709.527344 290.320312 L 709.527344 259.125 C 709.527344 257.691406 710.65625 256.5625 712.089844 256.5625 C 712.617188 256.5625 713.144531 256.714844 713.59375 257.015625 L 735.21875 272.613281 C 736.351562 273.441406 736.652344 275.097656 735.824219 276.230469 C 735.671875 276.453125 735.445312 276.679688 735.21875 276.832031 L 713.59375 292.429688 C 712.464844 293.257812 710.808594 293.03125 709.980469 291.824219 C 709.675781 291.375 709.527344 290.847656 709.527344 290.320312 Z M 709.527344 290.320312 " fill-opacity="1" fill-rule="nonzero"/><path fill="#d1d3d4" d="M 799.792969 319.707031 L 794.292969 319.707031 C 792.636719 319.707031 791.28125 318.347656 791.28125 316.691406 L 791.28125 309.082031 C 791.28125 307.421875 792.636719 306.066406 794.292969 306.066406 L 799.792969 306.066406 Z M 799.792969 319.707031 " fill-opacity="1" fill-rule="nonzero"/><path fill="#ffffff" d="M 812.226562 326.335938 L 799.792969 319.707031 L 799.792969 306.066406 L 812.226562 299.4375 C 814.261719 298.382812 816.671875 299.8125 816.671875 302.074219 L 816.671875 323.773438 C 816.671875 325.960938 814.1875 327.464844 812.226562 326.335938 Z M 812.226562 326.335938 " fill-opacity="1" fill-rule="nonzero"/><path fill="#ffffff" d="M 830.839844 315.410156 L 821.945312 315.410156 C 820.816406 315.410156 819.914062 314.507812 819.914062 313.375 C 819.914062 312.246094 820.816406 311.339844 821.945312 311.339844 L 830.839844 311.339844 C 831.96875 311.339844 832.871094 312.246094 832.871094 313.375 C 832.949219 314.507812 831.96875 315.410156 830.839844 315.410156 Z M 830.839844 315.410156 " fill-opacity="1" fill-rule="nonzero"/><path fill="#ffffff" d="M 830.988281 304.785156 L 822.777344 308.101562 C 821.722656 308.554688 820.515625 308.027344 820.0625 306.972656 C 819.609375 305.917969 820.136719 304.710938 821.195312 304.257812 L 829.40625 300.941406 C 830.460938 300.492188 831.667969 301.019531 832.117188 302.074219 C 832.570312 303.128906 832.042969 304.332031 830.988281 304.785156 Z M 830.988281 304.785156 " fill-opacity="1" fill-rule="nonzero"/><path fill="#ffffff" d="M 821.195312 322.417969 L 829.40625 325.734375 C 830.460938 326.183594 831.667969 325.65625 832.117188 324.601562 C 832.570312 323.546875 832.042969 322.34375 830.988281 321.890625 L 822.777344 318.574219 C 821.722656 318.121094 820.515625 318.648438 820.0625 319.707031 C 819.609375 320.761719 820.136719 321.964844 821.195312 322.417969 Z M 821.195312 322.417969 " fill-opacity="1" fill-rule="nonzero"/><path fill="#ffffff" d="M 611.800781 300.71875 L 643.898438 300.71875 C 645.40625 300.71875 646.609375 301.921875 646.609375 303.429688 L 646.609375 321.589844 C 646.609375 323.097656 645.40625 324.300781 643.898438 324.300781 L 642.238281 324.300781 C 641.488281 324.300781 640.882812 324.902344 640.882812 325.65625 L 640.882812 330.027344 C 640.882812 331.234375 639.453125 331.835938 638.625 331.007812 L 633.574219 325.960938 C 632.59375 324.980469 631.238281 324.375 629.808594 324.375 L 611.875 324.375 C 610.367188 324.375 609.160156 323.171875 609.160156 321.664062 L 609.160156 303.503906 C 609.085938 301.921875 610.292969 300.71875 611.800781 300.71875 Z M 611.800781 300.71875 " fill-opacity="1" fill-rule="nonzero"/><path fill="#d1d3d4" d="M 635.082031 311.945312 C 635.082031 313.601562 636.4375 314.882812 638.019531 314.882812 C 639.601562 314.882812 640.960938 313.527344 640.960938 311.945312 C 640.960938 310.285156 639.601562 309.003906 638.019531 309.003906 C 636.4375 308.929688 635.082031 310.285156 635.082031 311.945312 Z M 635.082031 311.945312 " fill-opacity="1" fill-rule="nonzero"/><path fill="#d1d3d4" d="M 630.257812 311.945312 C 630.257812 312.332031 630.183594 312.707031 630.035156 313.070312 C 629.886719 313.429688 629.675781 313.746094 629.398438 314.023438 C 629.125 314.296875 628.804688 314.511719 628.445312 314.660156 C 628.085938 314.808594 627.710938 314.882812 627.320312 314.882812 C 626.929688 314.882812 626.554688 314.808594 626.195312 314.660156 C 625.835938 314.511719 625.519531 314.296875 625.242188 314.023438 C 624.96875 313.746094 624.753906 313.429688 624.605469 313.070312 C 624.457031 312.707031 624.382812 312.332031 624.382812 311.945312 C 624.382812 311.554688 624.457031 311.179688 624.605469 310.820312 C 624.753906 310.460938 624.96875 310.140625 625.242188 309.867188 C 625.519531 309.589844 625.835938 309.378906 626.195312 309.230469 C 626.554688 309.082031 626.929688 309.003906 627.320312 309.003906 C 627.710938 309.003906 628.085938 309.082031 628.445312 309.230469 C 628.804688 309.378906 629.125 309.589844 629.398438 309.867188 C 629.675781 310.140625 629.886719 310.460938 630.035156 310.820312 C 630.183594 311.179688 630.257812 311.554688 630.257812 311.945312 Z M 630.257812 311.945312 " fill-opacity="1" fill-rule="nonzero"/><path fill="#d1d3d4" d="M 619.558594 311.945312 C 619.558594 312.332031 619.484375 312.707031 619.335938 313.070312 C 619.1875 313.429688 618.976562 313.746094 618.699219 314.023438 C 618.421875 314.296875 618.105469 314.511719 617.746094 314.660156 C 617.386719 314.808594 617.011719 314.882812 616.621094 314.882812 C 616.230469 314.882812 615.855469 314.808594 615.496094 314.660156 C 615.136719 314.511719 614.820312 314.296875 614.542969 314.023438 C 614.269531 313.746094 614.054688 313.429688 613.90625 313.070312 C 613.757812 312.707031 613.683594 312.332031 613.683594 311.945312 C 613.683594 311.554688 613.757812 311.179688 613.90625 310.820312 C 614.054688 310.460938 614.269531 310.140625 614.542969 309.867188 C 614.820312 309.589844 615.136719 309.378906 615.496094 309.230469 C 615.855469 309.082031 616.230469 309.003906 616.621094 309.003906 C 617.011719 309.003906 617.386719 309.082031 617.746094 309.230469 C 618.105469 309.378906 618.421875 309.589844 618.699219 309.867188 C 618.976562 310.140625 619.1875 310.460938 619.335938 310.820312 C 619.484375 311.179688 619.558594 311.554688 619.558594 311.945312 Z M 619.558594 311.945312 " fill-opacity="1" fill-rule="nonzero"/><path fill="#ffffff" d="M 863.085938 423.007812 L 837.542969 423.007812 C 836.113281 423.007812 834.980469 421.878906 834.980469 420.445312 L 834.980469 389.476562 C 834.980469 388.046875 836.113281 386.917969 837.542969 386.917969 L 863.085938 386.917969 C 864.519531 386.917969 865.648438 388.046875 865.648438 389.476562 L 865.648438 420.445312 C 865.574219 421.804688 864.445312 423.007812 863.085938 423.007812 Z M 863.085938 423.007812 " fill-opacity="1" fill-rule="nonzero"/><path fill="#d1d3d4" d="M 860.300781 404.773438 L 840.257812 404.773438 C 839.503906 404.773438 838.824219 404.171875 838.824219 403.34375 C 838.824219 402.511719 839.429688 401.910156 840.257812 401.910156 L 860.300781 401.910156 C 861.054688 401.910156 861.730469 402.511719 861.730469 403.34375 C 861.730469 404.171875 861.054688 404.773438 860.300781 404.773438 Z M 860.300781 404.773438 " fill-opacity="1" fill-rule="nonzero"/><path fill="#d1d3d4" d="M 860.300781 411.253906 L 840.257812 411.253906 C 839.503906 411.253906 838.824219 410.652344 838.824219 409.824219 C 838.824219 408.992188 839.429688 408.390625 840.257812 408.390625 L 860.300781 408.390625 C 861.054688 408.390625 861.730469 408.992188 861.730469 409.824219 C 861.730469 410.574219 861.054688 411.253906 860.300781 411.253906 Z M 860.300781 411.253906 " fill-opacity="1" fill-rule="nonzero"/><path fill="#d1d3d4" d="M 860.300781 417.660156 L 840.257812 417.660156 C 839.503906 417.660156 838.824219 417.054688 838.824219 416.226562 C 838.824219 415.398438 839.429688 414.796875 840.257812 414.796875 L 860.300781 414.796875 C 861.054688 414.796875 861.730469 415.398438 861.730469 416.226562 C 861.730469 417.054688 861.054688 417.660156 860.300781 417.660156 Z M 860.300781 417.660156 " fill-opacity="1" fill-rule="nonzero"/><path fill="#d1d3d4" d="M 860.675781 390.683594 L 839.878906 390.683594 C 839.351562 390.683594 838.824219 391.136719 838.824219 391.738281 L 838.824219 396.785156 C 838.824219 397.3125 839.277344 397.84375 839.878906 397.84375 L 860.675781 397.84375 C 861.203125 397.84375 861.730469 397.390625 861.730469 396.785156 L 861.730469 391.738281 C 861.730469 391.136719 861.203125 390.683594 860.675781 390.683594 Z M 860.675781 390.683594 " fill-opacity="1" fill-rule="nonzero"/><path fill="#e6e7e8" d="M 578.722656 399.800781 L 600.722656 399.800781 L 600.722656 403.039062 L 578.722656 403.039062 Z M 578.722656 399.800781 " fill-opacity="1" fill-rule="nonzero"/><path fill="#ffffff" d="M 588.96875 419.015625 C 580.980469 418.636719 574.804688 411.933594 574.804688 403.945312 L 574.804688 399.5 C 574.804688 398.972656 575.179688 398.59375 575.707031 398.59375 L 577.742188 398.59375 C 578.269531 398.59375 578.644531 398.972656 578.644531 399.5 L 578.644531 404.019531 C 578.644531 409.898438 583.167969 414.871094 589.042969 415.171875 C 595.371094 415.550781 600.648438 410.425781 600.648438 404.171875 L 600.648438 399.5 C 600.648438 398.972656 601.023438 398.59375 601.550781 398.59375 L 603.585938 398.59375 C 604.113281 398.59375 604.488281 398.972656 604.488281 399.5 L 604.488281 404.171875 C 604.566406 412.609375 597.558594 419.390625 588.96875 419.015625 Z M 588.96875 419.015625 " fill-opacity="1" fill-rule="nonzero"/><path fill="#e6e7e8" d="M 588.96875 419.015625 C 588.667969 419.015625 588.367188 419.015625 588.0625 418.941406 L 588.0625 423.386719 L 591.304688 423.386719 L 591.304688 418.941406 C 590.550781 419.015625 589.796875 419.015625 588.96875 419.015625 Z M 588.96875 419.015625 " fill-opacity="1" fill-rule="nonzero"/><path fill="#ffffff" d="M 589.722656 411.101562 C 585.199219 411.101562 581.507812 407.410156 581.507812 402.890625 L 581.507812 389.855469 C 581.507812 385.332031 585.199219 381.640625 589.722656 381.640625 C 594.242188 381.640625 597.933594 385.257812 597.933594 389.855469 L 597.933594 402.890625 C 597.933594 407.410156 594.242188 411.101562 589.722656 411.101562 Z M 589.722656 411.101562 " fill-opacity="1" fill-rule="nonzero"/><path fill="#d1d3d4" d="M 587.160156 391.4375 C 587.160156 392.191406 586.558594 392.867188 585.726562 392.867188 L 581.507812 392.867188 L 581.507812 390.003906 L 585.726562 390.003906 C 586.480469 390.003906 587.160156 390.683594 587.160156 391.4375 Z M 585.726562 394.902344 L 581.507812 394.902344 L 581.507812 397.765625 L 585.726562 397.765625 C 586.480469 397.765625 587.160156 397.164062 587.160156 396.335938 C 587.160156 395.507812 586.480469 394.902344 585.726562 394.902344 Z M 585.726562 399.800781 L 581.507812 399.800781 L 581.507812 402.664062 L 585.726562 402.664062 C 586.480469 402.664062 587.160156 402.0625 587.160156 401.234375 C 587.160156 400.402344 586.480469 399.800781 585.726562 399.800781 Z M 593.714844 390.003906 C 592.960938 390.003906 592.285156 390.609375 592.285156 391.4375 C 592.285156 392.265625 592.886719 392.867188 593.714844 392.867188 L 597.933594 392.867188 L 597.933594 390.003906 Z M 592.285156 396.335938 C 592.285156 397.089844 592.886719 397.765625 593.714844 397.765625 L 597.933594 397.765625 L 597.933594 394.902344 L 593.714844 394.902344 C 592.960938 394.902344 592.285156 395.582031 592.285156 396.335938 Z M 592.285156 401.234375 C 592.285156 401.984375 592.886719 402.664062 593.714844 402.664062 L 597.933594 402.664062 L 597.933594 399.800781 L 593.714844 399.800781 C 592.960938 399.800781 592.285156 400.480469 592.285156 401.234375 Z M 592.285156 401.234375 " fill-opacity="1" fill-rule="nonzero"/><path fill="#ffffff" d="M 597.933594 423.386719 L 581.507812 423.386719 C 580.605469 423.386719 579.851562 424.136719 579.851562 425.042969 C 579.851562 425.945312 580.605469 426.699219 581.507812 426.699219 L 597.933594 426.699219 C 598.839844 426.699219 599.59375 425.945312 599.59375 425.042969 C 599.59375 424.136719 598.765625 423.386719 597.933594 423.386719 Z M 597.933594 423.386719 " fill-opacity="1" fill-rule="nonzero"/><path fill="#ffffff" d="M 795.5 482.984375 L 828.878906 482.984375 C 830.460938 482.984375 831.816406 484.265625 831.816406 485.925781 L 831.816406 508.304688 C 831.816406 509.886719 830.535156 511.242188 828.878906 511.242188 L 795.5 511.242188 C 793.917969 511.242188 792.5625 509.960938 792.5625 508.304688 L 792.5625 485.925781 C 792.5625 484.265625 793.84375 482.984375 795.5 482.984375 Z M 795.5 482.984375 " fill-opacity="1" fill-rule="nonzero"/><path fill="#d1d3d4" d="M 828.878906 482.984375 L 795.5 482.984375 C 794.746094 482.984375 793.992188 483.289062 793.464844 483.816406 L 809.289062 496.324219 C 811.019531 497.679688 813.507812 497.679688 815.242188 496.324219 L 831.0625 483.816406 C 830.386719 483.289062 829.632812 482.984375 828.878906 482.984375 Z M 828.878906 482.984375 " fill-opacity="1" fill-rule="nonzero"/><path fill="#ffffff" d="M 720.226562 518.625 C 711.035156 518.625 703.574219 526.085938 703.574219 535.277344 C 703.574219 544.472656 711.035156 551.929688 720.226562 551.929688 C 729.417969 551.929688 736.878906 544.472656 736.878906 535.277344 C 736.878906 526.085938 729.417969 518.625 720.226562 518.625 Z M 720.226562 544.246094 C 715.328125 544.246094 711.257812 540.25 711.257812 535.277344 C 711.257812 530.304688 715.253906 526.3125 720.226562 526.3125 C 725.125 526.3125 729.191406 530.304688 729.191406 535.277344 C 729.191406 540.25 725.125 544.246094 720.226562 544.246094 Z M 720.226562 544.246094 " fill-opacity="1" fill-rule="nonzero"/><path fill="#d1d3d4" d="M 736.425781 531.511719 L 740.496094 527.96875 C 741.097656 527.441406 741.25 526.539062 740.871094 525.859375 L 738.6875 522.09375 C 738.308594 521.414062 737.40625 521.039062 736.652344 521.339844 L 731.453125 523.070312 C 733.941406 525.257812 735.671875 528.195312 736.425781 531.511719 Z M 736.425781 531.511719 " fill-opacity="1" fill-rule="nonzero"/><path fill="#d1d3d4" d="M 699.957031 527.894531 L 704.027344 531.433594 C 704.78125 528.121094 706.585938 525.179688 709 522.996094 L 703.800781 521.261719 C 703.046875 521.039062 702.21875 521.339844 701.765625 522.015625 L 699.582031 525.785156 C 699.203125 526.460938 699.355469 527.367188 699.957031 527.894531 Z M 699.957031 527.894531 " fill-opacity="1" fill-rule="nonzero"/><path fill="#d1d3d4" d="M 720.226562 518.625 C 721.960938 518.625 723.542969 518.851562 725.125 519.378906 L 724.070312 514.179688 C 723.917969 513.351562 723.238281 512.824219 722.410156 512.824219 L 718.117188 512.824219 C 717.289062 512.824219 716.609375 513.425781 716.457031 514.179688 L 715.402344 519.378906 C 716.910156 518.851562 718.492188 518.625 720.226562 518.625 Z M 720.226562 518.625 " fill-opacity="1" fill-rule="nonzero"/><path fill="#d1d3d4" d="M 740.34375 542.4375 L 736.425781 538.96875 C 735.671875 542.285156 733.941406 545.148438 731.605469 547.410156 L 736.5 549.066406 C 737.253906 549.292969 738.082031 548.992188 738.535156 548.3125 L 740.722656 544.546875 C 741.097656 543.867188 740.945312 542.964844 740.34375 542.4375 Z M 740.34375 542.4375 " fill-opacity="1" fill-rule="nonzero"/><path fill="#d1d3d4" d="M 720.226562 551.929688 C 718.492188 551.929688 716.910156 551.703125 715.328125 551.175781 L 716.382812 556.375 C 716.535156 557.203125 717.210938 557.730469 718.039062 557.730469 L 722.335938 557.730469 C 723.164062 557.730469 723.84375 557.128906 723.992188 556.375 L 725.046875 551.175781 C 723.542969 551.703125 721.882812 551.929688 720.226562 551.929688 Z M 720.226562 551.929688 " fill-opacity="1" fill-rule="nonzero"/><path fill="#d1d3d4" d="M 703.949219 538.96875 L 700.03125 542.4375 C 699.429688 542.964844 699.277344 543.867188 699.65625 544.546875 L 701.839844 548.3125 C 702.21875 548.992188 703.121094 549.367188 703.875 549.066406 L 708.773438 547.410156 C 706.4375 545.148438 704.703125 542.285156 703.949219 538.96875 Z M 703.949219 538.96875 " fill-opacity="1" fill-rule="nonzero"/><path fill="#d1d3d4" d="M 609.992188 510.035156 C 609.3125 510.035156 608.632812 509.660156 608.332031 509.058594 C 606.222656 505.515625 605.167969 501.523438 605.167969 497.378906 C 605.167969 484.792969 615.414062 474.621094 627.921875 474.621094 C 640.507812 474.621094 650.679688 484.871094 650.679688 497.378906 C 650.679688 501.523438 649.546875 505.515625 647.515625 509.058594 C 646.988281 509.960938 645.78125 510.261719 644.800781 509.734375 C 643.898438 509.207031 643.597656 508 644.125 507.023438 C 645.855469 504.082031 646.761719 500.769531 646.761719 497.378906 C 646.761719 486.980469 638.320312 478.539062 627.921875 478.539062 C 617.527344 478.539062 609.085938 486.980469 609.085938 497.378906 C 609.085938 500.769531 609.992188 504.082031 611.722656 507.023438 C 612.25 507.925781 611.949219 509.132812 611.046875 509.734375 C 610.667969 509.886719 610.292969 510.035156 609.992188 510.035156 Z M 609.992188 510.035156 " fill-opacity="1" fill-rule="nonzero"/><path fill="#ffffff" d="M 618.277344 516.441406 C 615.867188 517.195312 613.304688 515.839844 612.550781 513.425781 L 609.992188 505.289062 C 609.238281 502.878906 610.59375 500.316406 613.003906 499.5625 C 615.414062 498.808594 617.976562 500.164062 618.730469 502.578125 L 621.292969 510.714844 C 621.972656 513.050781 620.691406 515.613281 618.277344 516.441406 Z M 618.277344 516.441406 " fill-opacity="1" fill-rule="nonzero"/><path fill="#ffffff" d="M 637.492188 516.441406 C 639.902344 517.195312 642.464844 515.839844 643.21875 513.425781 L 645.78125 505.289062 C 646.535156 502.878906 645.179688 500.316406 642.765625 499.5625 C 640.355469 498.808594 637.792969 500.164062 637.039062 502.578125 L 634.480469 510.714844 C 633.726562 513.050781 635.082031 515.613281 637.492188 516.441406 Z M 637.492188 516.441406 " fill-opacity="1" fill-rule="nonzero"/><path fill="#ffa91a" d="M 787.058594 405 C 787.058594 406.097656 787.035156 407.195312 786.980469 408.289062 C 786.925781 409.386719 786.84375 410.480469 786.738281 411.574219 C 786.628906 412.664062 786.496094 413.753906 786.335938 414.839844 C 786.171875 415.925781 785.984375 417.007812 785.773438 418.082031 C 785.558594 419.160156 785.316406 420.230469 785.050781 421.292969 C 784.785156 422.359375 784.492188 423.417969 784.171875 424.464844 C 783.855469 425.515625 783.511719 426.558594 783.140625 427.59375 C 782.769531 428.625 782.375 429.648438 781.957031 430.664062 C 781.535156 431.675781 781.089844 432.679688 780.621094 433.671875 C 780.152344 434.664062 779.660156 435.644531 779.140625 436.613281 C 778.625 437.578125 778.082031 438.535156 777.519531 439.476562 C 776.957031 440.417969 776.367188 441.34375 775.757812 442.257812 C 775.148438 443.167969 774.515625 444.066406 773.863281 444.949219 C 773.210938 445.828125 772.535156 446.695312 771.839844 447.542969 C 771.140625 448.390625 770.425781 449.222656 769.6875 450.035156 C 768.953125 450.847656 768.195312 451.644531 767.417969 452.417969 C 766.644531 453.195312 765.847656 453.953125 765.035156 454.6875 C 764.222656 455.425781 763.390625 456.140625 762.542969 456.839844 C 761.695312 457.535156 760.828125 458.210938 759.949219 458.863281 C 759.066406 459.515625 758.167969 460.148438 757.257812 460.757812 C 756.34375 461.367188 755.417969 461.957031 754.476562 462.519531 C 753.535156 463.082031 752.578125 463.625 751.613281 464.140625 C 750.644531 464.660156 749.664062 465.152344 748.671875 465.621094 C 747.679688 466.089844 746.675781 466.535156 745.664062 466.957031 C 744.648438 467.375 743.625 467.769531 742.59375 468.140625 C 741.558594 468.511719 740.515625 468.855469 739.464844 469.171875 C 738.417969 469.492188 737.359375 469.785156 736.292969 470.050781 C 735.230469 470.316406 734.160156 470.558594 733.082031 470.773438 C 732.007812 470.984375 730.925781 471.171875 729.839844 471.335938 C 728.753906 471.496094 727.664062 471.628906 726.574219 471.738281 C 725.480469 471.84375 724.386719 471.925781 723.289062 471.980469 C 722.195312 472.035156 721.097656 472.058594 720 472.058594 C 718.902344 472.058594 717.804688 472.035156 716.710938 471.980469 C 715.613281 471.925781 714.519531 471.84375 713.425781 471.738281 C 712.335938 471.628906 711.246094 471.496094 710.160156 471.335938 C 709.074219 471.171875 707.992188 470.984375 706.917969 470.773438 C 705.839844 470.558594 704.769531 470.316406 703.707031 470.050781 C 702.640625 469.785156 701.582031 469.492188 700.535156 469.171875 C 699.484375 468.855469 698.441406 468.511719 697.40625 468.140625 C 696.375 467.769531 695.351562 467.375 694.335938 466.957031 C 693.324219 466.535156 692.320312 466.089844 691.328125 465.621094 C 690.335938 465.152344 689.355469 464.660156 688.386719 464.140625 C 687.421875 463.625 686.464844 463.082031 685.523438 462.519531 C 684.582031 461.957031 683.65625 461.367188 682.742188 460.757812 C 681.832031 460.148438 680.933594 459.515625 680.050781 458.863281 C 679.171875 458.210938 678.304688 457.535156 677.457031 456.839844 C 676.609375 456.140625 675.777344 455.425781 674.964844 454.6875 C 674.152344 453.953125 673.355469 453.195312 672.582031 452.417969 C 671.804688 451.644531 671.046875 450.847656 670.3125 450.035156 C 669.574219 449.222656 668.859375 448.390625 668.160156 447.542969 C 667.464844 446.695312 666.789062 445.828125 666.136719 444.949219 C 665.484375 444.066406 664.851562 443.167969 664.242188 442.257812 C 663.632812 441.34375 663.042969 440.417969 662.480469 439.476562 C 661.917969 438.535156 661.375 437.578125 660.859375 436.613281 C 660.339844 435.644531 659.847656 434.664062 659.378906 433.671875 C 658.910156 432.679688 658.464844 431.675781 658.042969 430.664062 C 657.625 429.648438 657.230469 428.625 656.859375 427.59375 C 656.488281 426.558594 656.144531 425.515625 655.828125 424.464844 C 655.507812 423.417969 655.214844 422.359375 654.949219 421.292969 C 654.683594 420.230469 654.441406 419.160156 654.226562 418.082031 C 654.015625 417.007812 653.828125 415.925781 653.664062 414.839844 C 653.503906 413.753906 653.371094 412.664062 653.261719 411.574219 C 653.15625 410.480469 653.074219 409.386719 653.019531 408.289062 C 652.964844 407.195312 652.941406 406.097656 652.941406 405 C 652.941406 403.902344 652.964844 402.804688 653.019531 401.710938 C 653.074219 400.613281 653.15625 399.519531 653.261719 398.425781 C 653.371094 397.335938 653.503906 396.246094 653.664062 395.160156 C 653.828125 394.074219 654.015625 392.992188 654.226562 391.917969 C 654.441406 390.839844 654.683594 389.769531 654.949219 388.707031 C 655.214844 387.640625 655.507812 386.582031 655.828125 385.535156 C 656.144531 384.484375 656.488281 383.441406 656.859375 382.40625 C 657.230469 381.375 657.625 380.351562 658.042969 379.335938 C 658.464844 378.324219 658.910156 377.320312 659.378906 376.328125 C 659.847656 375.335938 660.339844 374.355469 660.859375 373.386719 C 661.375 372.421875 661.917969 371.464844 662.480469 370.523438 C 663.042969 369.582031 663.632812 368.65625 664.242188 367.742188 C 664.851562 366.832031 665.484375 365.933594 666.136719 365.050781 C 666.789062 364.171875 667.464844 363.304688 668.160156 362.457031 C 668.859375 361.609375 669.574219 360.777344 670.3125 359.964844 C 671.046875 359.152344 671.804688 358.355469 672.582031 357.582031 C 673.355469 356.804688 674.152344 356.046875 674.964844 355.3125 C 675.777344 354.574219 676.609375 353.859375 677.457031 353.160156 C 678.304688 352.464844 679.171875 351.789062 680.050781 351.136719 C 680.933594 350.484375 681.832031 349.851562 682.742188 349.242188 C 683.65625 348.632812 684.582031 348.042969 685.523438 347.480469 C 686.464844 346.917969 687.421875 346.375 688.386719 345.859375 C 689.355469 345.339844 690.335938 344.847656 691.328125 344.378906 C 692.320312 343.910156 693.324219 343.464844 694.335938 343.042969 C 695.351562 342.625 696.375 342.230469 697.40625 341.859375 C 698.441406 341.488281 699.484375 341.144531 700.535156 340.828125 C 701.582031 340.507812 702.640625 340.214844 703.707031 339.949219 C 704.769531 339.683594 705.839844 339.441406 706.917969 339.226562 C 707.992188 339.015625 709.074219 338.828125 710.160156 338.664062 C 711.246094 338.503906 712.335938 338.371094 713.425781 338.261719 C 714.519531 338.15625 715.613281 338.074219 716.710938 338.019531 C 717.804688 337.964844 718.902344 337.941406 720 337.941406 C 721.097656 337.941406 722.195312 337.964844 723.289062 338.019531 C 724.386719 338.074219 725.480469 338.15625 726.574219 338.261719 C 727.664062 338.371094 728.753906 338.503906 729.839844 338.664062 C 730.925781 338.828125 732.007812 339.015625 733.082031 339.226562 C 734.160156 339.441406 735.230469 339.683594 736.292969 339.949219 C 737.359375 340.214844 738.417969 340.507812 739.464844 340.828125 C 740.515625 341.144531 741.558594 341.488281 742.59375 341.859375 C 743.625 342.230469 744.648438 342.625 745.664062 343.042969 C 746.675781 343.464844 747.679688 343.910156 748.671875 344.378906 C 749.664062 344.847656 750.644531 345.339844 751.613281 345.859375 C 752.578125 346.375 753.535156 346.917969 754.476562 347.480469 C 755.417969 348.042969 756.34375 348.632812 757.257812 349.242188 C 758.167969 349.851562 759.066406 350.484375 759.949219 351.136719 C 760.828125 351.789062 761.695312 352.464844 762.542969 353.160156 C 763.390625 353.859375 764.222656 354.574219 765.035156 355.3125 C 765.847656 356.046875 766.644531 356.804688 767.417969 357.582031 C 768.195312 358.355469 768.953125 359.152344 769.6875 359.964844 C 770.425781 360.777344 771.140625 361.609375 771.839844 362.457031 C 772.535156 363.304688 773.210938 364.171875 773.863281 365.050781 C 774.515625 365.933594 775.148438 366.832031 775.757812 367.742188 C 776.367188 368.65625 776.957031 369.582031 777.519531 370.523438 C 778.082031 371.464844 778.625 372.421875 779.140625 373.386719 C 779.660156 374.355469 780.152344 375.335938 780.621094 376.328125 C 781.089844 377.320312 781.535156 378.324219 781.957031 379.335938 C 782.375 380.351562 782.769531 381.375 783.140625 382.40625 C 783.511719 383.441406 783.855469 384.484375 784.171875 385.535156 C 784.492188 386.582031 784.785156 387.640625 785.050781 388.707031 C 785.316406 389.769531 785.558594 390.839844 785.773438 391.917969 C 785.984375 392.992188 786.171875 394.074219 786.335938 395.160156 C 786.496094 396.246094 786.628906 397.335938 786.738281 398.425781 C 786.84375 399.519531 786.925781 400.613281 786.980469 401.710938 C 787.035156 402.804688 787.058594 403.902344 787.058594 405 Z M 787.058594 405 " fill-opacity="1" fill-rule="nonzero"/><path fill="#ffc91d" d="M 676.070312 445.914062 C 675.167969 445.914062 674.339844 445.539062 673.8125 444.859375 C 664.242188 433.785156 658.96875 419.617188 658.96875 405 C 658.96875 371.394531 686.320312 343.96875 720 343.96875 C 726.480469 343.96875 732.808594 344.945312 738.914062 346.980469 C 739.667969 347.207031 740.269531 347.734375 740.644531 348.488281 C 741.023438 349.242188 741.097656 349.996094 740.796875 350.824219 C 740.269531 352.332031 738.535156 353.234375 737.027344 352.785156 C 731.527344 350.976562 725.800781 350.070312 720 350.070312 C 705.308594 350.070312 691.519531 355.796875 681.121094 366.195312 C 670.722656 376.519531 664.996094 390.308594 664.996094 405 C 664.996094 418.1875 669.742188 430.921875 678.332031 440.941406 C 679.386719 442.222656 679.3125 444.105469 678.03125 445.160156 C 677.503906 445.613281 676.824219 445.914062 676.070312 445.914062 Z M 748.933594 357.757812 C 748.40625 357.757812 747.878906 357.605469 747.425781 357.378906 C 745.996094 356.550781 745.46875 354.667969 746.296875 353.234375 C 747.125 351.878906 749.007812 351.351562 750.441406 352.105469 C 751.117188 352.480469 751.648438 353.160156 751.871094 353.914062 C 752.097656 354.667969 751.949219 355.496094 751.570312 356.175781 C 751.042969 357.152344 750.0625 357.757812 748.933594 357.757812 Z M 748.933594 357.757812 " fill-opacity="1" fill-rule="nonzero"/><path fill="#f79219" d="M 759.257812 350.671875 C 767.242188 361.675781 771.992188 375.3125 771.992188 389.929688 C 771.992188 426.925781 742 456.992188 704.929688 456.992188 C 690.238281 456.992188 676.675781 452.242188 665.671875 444.257812 C 677.804688 461.136719 697.621094 472.058594 720 472.058594 C 756.996094 472.058594 787.058594 442.070312 787.058594 405 C 787.058594 382.621094 776.136719 362.804688 759.257812 350.671875 Z M 759.257812 350.671875 " fill-opacity="1" fill-rule="nonzero"/><path fill="#ef7816" d="M 763.476562 353.988281 C 773.496094 365.667969 779.527344 380.886719 779.527344 397.464844 C 779.527344 434.460938 749.535156 464.527344 712.464844 464.527344 C 695.886719 464.527344 680.667969 458.496094 668.988281 448.476562 C 681.269531 462.867188 699.582031 472.058594 720 472.058594 C 756.996094 472.058594 787.058594 442.070312 787.058594 405 C 787.058594 384.582031 777.941406 366.269531 763.476562 353.988281 Z M 763.476562 353.988281 " fill-opacity="1" fill-rule="nonzero"/><path fill="#478cf7" d="M 697.773438 421.726562 L 675.695312 421.726562 C 673.585938 421.726562 671.851562 419.996094 671.851562 417.882812 L 671.851562 391.964844 C 671.851562 389.855469 673.585938 388.121094 675.695312 388.121094 L 697.773438 388.121094 Z M 697.773438 421.726562 " fill-opacity="1" fill-rule="nonzero"/><path fill="#478cf7" d="M 745.242188 415.851562 L 749.839844 415.851562 C 751.949219 415.851562 753.679688 414.117188 753.679688 412.007812 L 753.679688 397.992188 C 753.679688 395.882812 751.949219 394.148438 749.839844 394.148438 L 745.242188 394.148438 Z M 745.242188 415.851562 " fill-opacity="1" fill-rule="nonzero"/><path fill="#ffffff" d="M 671.851562 416.980469 L 670.796875 416.980469 C 667.03125 416.980469 663.941406 413.964844 663.941406 410.199219 L 663.941406 399.953125 C 663.941406 396.183594 666.953125 393.09375 670.722656 393.09375 L 671.777344 393.09375 Z M 671.851562 416.980469 " fill-opacity="1" fill-rule="nonzero"/><path fill="#ffffff" d="M 773.574219 407.410156 L 764.757812 407.410156 C 763.402344 407.410156 762.347656 406.355469 762.347656 405 C 762.347656 403.644531 763.402344 402.589844 764.757812 402.589844 L 773.574219 402.589844 C 774.929688 402.589844 775.984375 403.644531 775.984375 405 C 775.984375 406.355469 774.929688 407.410156 773.574219 407.410156 Z M 773.574219 407.410156 " fill-opacity="1" fill-rule="nonzero"/><path fill="#ffffff" d="M 767.09375 386.765625 L 760.839844 393.019531 C 759.933594 393.921875 758.351562 393.921875 757.449219 393.019531 C 756.542969 392.117188 756.542969 390.53125 757.449219 389.628906 L 763.703125 383.375 C 764.605469 382.472656 766.1875 382.472656 767.09375 383.375 C 767.996094 384.355469 767.996094 385.863281 767.09375 386.765625 Z M 767.09375 386.765625 " fill-opacity="1" fill-rule="nonzero"/><path fill="#ffffff" d="M 763.703125 426.550781 L 757.449219 420.296875 C 756.542969 419.390625 756.542969 417.808594 757.449219 416.90625 C 758.351562 416 759.933594 416 760.839844 416.90625 L 767.09375 423.160156 C 767.996094 424.0625 767.996094 425.644531 767.09375 426.550781 C 766.113281 427.453125 764.605469 427.453125 763.703125 426.550781 Z M 763.703125 426.550781 " fill-opacity="1" fill-rule="nonzero"/><path fill="#2266d3" d="M 678.785156 388.195312 L 682.402344 388.195312 L 682.402344 421.726562 L 678.785156 421.726562 Z M 678.785156 388.195312 " fill-opacity="1" fill-rule="nonzero"/><path fill="#2266d3" d="M 699.355469 430.617188 L 701.085938 430.617188 C 702.367188 430.617188 703.273438 429.335938 702.894531 428.132812 L 700.785156 421.726562 L 696.414062 421.726562 Z M 699.355469 430.617188 " fill-opacity="1" fill-rule="nonzero"/><path fill="#377de2" d="M 703.574219 438.90625 L 697.847656 421.726562 L 686.167969 421.726562 L 692.949219 442.148438 C 693.628906 444.105469 695.4375 445.386719 697.46875 445.386719 L 704.554688 445.386719 C 706.136719 445.386719 707.492188 444.105469 707.492188 442.449219 C 707.492188 440.867188 706.210938 439.511719 704.554688 439.511719 C 704.101562 439.660156 703.726562 439.359375 703.574219 438.90625 Z M 703.574219 438.90625 " fill-opacity="1" fill-rule="nonzero"/><path fill="#d1d3d4" d="M 671.851562 400.929688 L 668.460938 400.929688 C 667.632812 400.929688 666.878906 400.253906 666.878906 399.347656 C 666.878906 398.445312 667.558594 397.765625 668.460938 397.765625 L 671.851562 397.765625 Z M 671.851562 400.929688 " fill-opacity="1" fill-rule="nonzero"/><path fill="#d1d3d4" d="M 671.851562 406.507812 L 668.460938 406.507812 C 667.632812 406.507812 666.878906 405.828125 666.878906 404.925781 C 666.878906 404.019531 667.558594 403.34375 668.460938 403.34375 L 671.851562 403.34375 Z M 671.851562 406.507812 " fill-opacity="1" fill-rule="nonzero"/><path fill="#d1d3d4" d="M 671.851562 412.082031 L 668.460938 412.082031 C 667.632812 412.082031 666.878906 411.40625 666.878906 410.5 C 666.878906 409.597656 667.558594 408.917969 668.460938 408.917969 L 671.851562 408.917969 Z M 671.851562 412.082031 " fill-opacity="1" fill-rule="nonzero"/><path fill="#ffffff" d="M 697.773438 388.195312 L 697.773438 421.726562 C 710.203125 421.726562 722.488281 424.816406 733.488281 430.695312 L 745.242188 437.023438 L 745.242188 372.976562 L 733.488281 379.304688 C 722.5625 385.109375 710.28125 388.195312 697.773438 388.195312 Z M 697.773438 388.195312 " fill-opacity="1" fill-rule="nonzero"/><path fill="#e6e7e8" d="M 741.925781 440.789062 C 743.808594 440.789062 745.242188 439.285156 745.242188 437.476562 L 745.242188 372.523438 C 745.242188 370.640625 743.734375 369.210938 741.925781 369.210938 C 740.117188 369.210938 738.609375 370.714844 738.609375 372.523438 L 738.609375 437.476562 C 738.609375 439.285156 740.042969 440.789062 741.925781 440.789062 Z M 741.925781 440.789062 " fill-opacity="1" fill-rule="nonzero"/></svg>