<svg xmlns="http://www.w3.org/2000/svg" xmlns:xlink="http://www.w3.org/1999/xlink" width="1920" zoomAndPan="magnify" viewBox="0 0 1440 809.999993" height="1080" preserveAspectRatio="xMidYMid meet" version="1.0"><defs><clipPath id="11e2b725f9"><path d="M 558 243 L 882 243 L 882 567 L 558 567 Z M 558 243 " clip-rule="nonzero"/></clipPath><clipPath id="cd47204079"><path d="M 659 279 L 817 279 L 817 567 L 659 567 Z M 659 279 " clip-rule="nonzero"/></clipPath></defs><path fill="#4267b2" d="M 881.601562 404.964844 C 881.601562 407.609375 881.535156 410.25 881.40625 412.894531 C 881.277344 415.535156 881.082031 418.171875 880.820312 420.804688 C 880.5625 423.433594 880.238281 426.058594 879.851562 428.675781 C 879.460938 431.292969 879.011719 433.894531 878.496094 436.488281 C 877.980469 439.085938 877.398438 441.664062 876.757812 444.230469 C 876.113281 446.792969 875.410156 449.34375 874.640625 451.875 C 873.875 454.40625 873.042969 456.914062 872.152344 459.40625 C 871.261719 461.894531 870.3125 464.363281 869.300781 466.804688 C 868.285156 469.25 867.214844 471.664062 866.085938 474.054688 C 864.953125 476.449219 863.765625 478.808594 862.519531 481.140625 C 861.273438 483.472656 859.96875 485.773438 858.609375 488.042969 C 857.25 490.3125 855.835938 492.542969 854.367188 494.742188 C 852.894531 496.941406 851.375 499.105469 849.796875 501.230469 C 848.222656 503.351562 846.597656 505.4375 844.917969 507.480469 C 843.242188 509.527344 841.515625 511.527344 839.738281 513.488281 C 837.960938 515.445312 836.136719 517.363281 834.269531 519.230469 C 832.398438 521.101562 830.484375 522.925781 828.523438 524.703125 C 826.5625 526.476562 824.5625 528.203125 822.519531 529.882812 C 820.472656 531.558594 818.390625 533.1875 816.265625 534.761719 C 814.140625 536.335938 811.980469 537.859375 809.78125 539.328125 C 807.582031 540.796875 805.347656 542.210938 803.078125 543.574219 C 800.808594 544.933594 798.511719 546.234375 796.175781 547.480469 C 793.84375 548.730469 791.484375 549.917969 789.09375 551.046875 C 786.703125 552.179688 784.285156 553.25 781.839844 554.261719 C 779.398438 555.273438 776.929688 556.226562 774.441406 557.117188 C 771.953125 558.007812 769.441406 558.835938 766.910156 559.605469 C 764.378906 560.371094 761.832031 561.078125 759.265625 561.71875 C 756.699219 562.363281 754.121094 562.941406 751.527344 563.457031 C 748.933594 563.972656 746.328125 564.425781 743.710938 564.816406 C 741.09375 565.203125 738.472656 565.527344 735.839844 565.785156 C 733.207031 566.042969 730.570312 566.238281 727.929688 566.367188 C 725.289062 566.5 722.644531 566.5625 720 566.5625 C 717.355469 566.5625 714.710938 566.5 712.070312 566.367188 C 709.429688 566.238281 706.792969 566.042969 704.160156 565.785156 C 701.527344 565.527344 698.90625 565.203125 696.289062 564.816406 C 693.671875 564.425781 691.066406 563.972656 688.472656 563.457031 C 685.878906 562.941406 683.300781 562.363281 680.734375 561.71875 C 678.167969 561.078125 675.621094 560.371094 673.089844 559.605469 C 670.558594 558.835938 668.046875 558.007812 665.558594 557.117188 C 663.070312 556.226562 660.601562 555.273438 658.160156 554.261719 C 655.714844 553.25 653.296875 552.179688 650.90625 551.046875 C 648.515625 549.917969 646.15625 548.730469 643.824219 547.480469 C 641.488281 546.234375 639.1875 544.933594 636.921875 543.574219 C 634.652344 542.210938 632.417969 540.796875 630.21875 539.328125 C 628.019531 537.859375 625.859375 536.335938 623.734375 534.761719 C 621.609375 533.1875 619.527344 531.558594 617.480469 529.882812 C 615.4375 528.203125 613.4375 526.476562 611.476562 524.703125 C 609.515625 522.925781 607.601562 521.101562 605.730469 519.230469 C 603.863281 517.363281 602.039062 515.445312 600.261719 513.488281 C 598.484375 511.527344 596.757812 509.527344 595.082031 507.480469 C 593.402344 505.4375 591.777344 503.351562 590.203125 501.230469 C 588.625 499.105469 587.105469 496.941406 585.632812 494.742188 C 584.164062 492.542969 582.75 490.3125 581.390625 488.042969 C 580.03125 485.773438 578.726562 483.472656 577.480469 481.140625 C 576.234375 478.808594 575.046875 476.449219 573.914062 474.054688 C 572.785156 471.664062 571.714844 469.25 570.699219 466.804688 C 569.6875 464.363281 568.738281 461.894531 567.847656 459.40625 C 566.957031 456.914062 566.125 454.40625 565.359375 451.875 C 564.589844 449.34375 563.886719 446.792969 563.242188 444.230469 C 562.601562 441.664062 562.019531 439.085938 561.503906 436.488281 C 560.988281 433.894531 560.539062 431.292969 560.148438 428.675781 C 559.761719 426.058594 559.4375 423.433594 559.179688 420.804688 C 558.917969 418.171875 558.722656 415.535156 558.59375 412.894531 C 558.464844 410.25 558.398438 407.609375 558.398438 404.964844 C 558.398438 402.320312 558.464844 399.675781 558.59375 397.035156 C 558.722656 394.394531 558.917969 391.757812 559.179688 389.125 C 559.4375 386.492188 559.761719 383.867188 560.148438 381.253906 C 560.539062 378.636719 560.988281 376.03125 561.503906 373.4375 C 562.019531 370.84375 562.601562 368.261719 563.242188 365.699219 C 563.886719 363.132812 564.589844 360.585938 565.359375 358.054688 C 566.125 355.523438 566.957031 353.011719 567.847656 350.523438 C 568.738281 348.03125 569.6875 345.566406 570.699219 343.121094 C 571.714844 340.679688 572.785156 338.261719 573.914062 335.871094 C 575.046875 333.480469 576.234375 331.117188 577.480469 328.785156 C 578.726562 326.453125 580.03125 324.152344 581.390625 321.882812 C 582.75 319.617188 584.164062 317.382812 585.632812 315.183594 C 587.105469 312.984375 588.625 310.824219 590.203125 308.699219 C 591.777344 306.574219 593.402344 304.488281 595.082031 302.445312 C 596.757812 300.402344 598.484375 298.398438 600.261719 296.441406 C 602.039062 294.480469 603.863281 292.566406 605.730469 290.695312 C 607.601562 288.824219 609.515625 287.003906 611.476562 285.226562 C 613.4375 283.449219 615.4375 281.722656 617.480469 280.046875 C 619.527344 278.367188 621.609375 276.742188 623.734375 275.164062 C 625.859375 273.589844 628.019531 272.066406 630.21875 270.597656 C 632.417969 269.128906 634.652344 267.714844 636.921875 266.355469 C 639.1875 264.996094 641.488281 263.691406 643.824219 262.445312 C 646.15625 261.199219 648.515625 260.007812 650.90625 258.878906 C 653.296875 257.75 655.714844 256.675781 658.160156 255.664062 C 660.601562 254.652344 663.070312 253.699219 665.558594 252.808594 C 668.046875 251.917969 670.558594 251.089844 673.089844 250.320312 C 675.621094 249.554688 678.167969 248.847656 680.734375 248.207031 C 683.300781 247.5625 685.878906 246.984375 688.472656 246.46875 C 691.066406 245.953125 693.671875 245.5 696.289062 245.113281 C 698.90625 244.726562 701.527344 244.402344 704.160156 244.140625 C 706.792969 243.882812 709.429688 243.6875 712.070312 243.558594 C 714.710938 243.429688 717.355469 243.363281 720 243.363281 C 722.644531 243.363281 725.289062 243.429688 727.929688 243.558594 C 730.570312 243.6875 733.207031 243.882812 735.839844 244.140625 C 738.472656 244.402344 741.09375 244.726562 743.710938 245.113281 C 746.328125 245.5 748.933594 245.953125 751.527344 246.46875 C 754.121094 246.984375 756.699219 247.5625 759.265625 248.207031 C 761.832031 248.847656 764.378906 249.554688 766.910156 250.320312 C 769.441406 251.089844 771.953125 251.917969 774.441406 252.808594 C 776.929688 253.699219 779.398438 254.652344 781.839844 255.664062 C 784.285156 256.675781 786.703125 257.75 789.09375 258.878906 C 791.484375 260.007812 793.84375 261.199219 796.175781 262.445312 C 798.511719 263.691406 800.808594 264.996094 803.078125 266.355469 C 805.347656 267.714844 807.582031 269.128906 809.78125 270.597656 C 811.980469 272.066406 814.140625 273.589844 816.265625 275.164062 C 818.390625 276.742188 820.472656 278.367188 822.519531 280.046875 C 824.5625 281.722656 826.5625 283.449219 828.523438 285.226562 C 830.484375 287.003906 832.398438 288.824219 834.269531 290.695312 C 836.136719 292.566406 837.960938 294.480469 839.738281 296.441406 C 841.515625 298.398438 843.242188 300.402344 844.917969 302.445312 C 846.597656 304.488281 848.222656 306.574219 849.796875 308.699219 C 851.375 310.824219 852.894531 312.984375 854.367188 315.183594 C 855.835938 317.382812 857.25 319.617188 858.609375 321.882812 C 859.96875 324.152344 861.273438 326.453125 862.519531 328.785156 C 863.765625 331.117188 864.953125 333.480469 866.085938 335.871094 C 867.214844 338.261719 868.285156 340.679688 869.300781 343.121094 C 870.3125 345.566406 871.261719 348.03125 872.152344 350.523438 C 873.042969 353.011719 873.875 355.523438 874.640625 358.054688 C 875.410156 360.585938 876.113281 363.132812 876.757812 365.699219 C 877.398438 368.261719 877.980469 370.84375 878.496094 373.4375 C 879.011719 376.03125 879.460938 378.636719 879.851562 381.253906 C 880.238281 383.867188 880.5625 386.492188 880.820312 389.125 C 881.082031 391.757812 881.277344 394.394531 881.40625 397.035156 C 881.535156 399.675781 881.601562 402.320312 881.601562 404.964844 Z M 881.601562 404.964844 " fill-opacity="1" fill-rule="nonzero"/><g clip-path="url(#11e2b725f9)"><path stroke-linecap="butt" transform="matrix(0.727273, 0, 0, 0.727273, 545.090907, 234.345462)" fill="none" stroke-linejoin="miter" d="M 462.702179 234.601664 C 462.702179 238.237895 462.610871 241.868755 462.433625 245.504985 C 462.256379 249.135845 461.987824 252.761333 461.627961 256.381451 C 461.273468 259.996197 460.827668 263.605572 460.295929 267.204205 C 459.75882 270.802838 459.141144 274.379987 458.43216 277.946393 C 457.723175 281.518171 456.922882 285.063093 456.042023 288.591902 C 455.155792 292.11534 454.188995 295.622664 453.13089 299.103133 C 452.078155 302.583602 450.934112 306.031844 449.709503 309.458602 C 448.484893 312.879989 447.179718 316.274521 445.788604 319.631455 C 444.39212 322.993759 442.92044 326.313096 441.368194 329.600205 C 439.810577 332.892686 438.177764 336.136827 436.464385 339.34337 C 434.751006 342.549913 432.957061 345.713487 431.08792 348.834093 C 429.218779 351.954699 427.274443 355.021593 425.254912 358.045519 C 423.230009 361.069445 421.140654 364.045031 418.970732 366.966907 C 416.806181 369.883411 414.571805 372.751575 412.262235 375.560657 C 409.958036 378.37511 407.584012 381.125111 405.140164 383.8214 C 402.696316 386.512318 400.188016 389.149525 397.620633 391.716908 C 395.047879 394.289662 392.416042 396.797963 389.719753 399.241811 C 387.023464 401.680288 384.273464 404.054311 381.464382 406.363882 C 378.649928 408.668081 375.787135 410.907827 372.86526 413.072378 C 369.943385 415.236929 366.97317 417.331656 363.949244 419.351187 C 360.925318 421.370719 357.853052 423.315055 354.732446 425.189566 C 351.611841 427.058707 348.453637 428.847281 345.241723 430.560661 C 342.03518 432.279411 338.791039 433.912223 335.50393 435.464469 C 332.21682 437.022087 328.892113 438.493766 325.529808 439.88488 C 322.172874 441.275993 318.778343 442.58654 315.356956 443.81115 C 311.935569 445.035759 308.481955 446.174431 305.001486 447.232537 C 301.521017 448.285271 298.019064 449.257439 294.490255 450.138298 C 290.961446 451.024529 287.416524 451.819451 283.850118 452.528435 C 280.283711 453.23742 276.701192 453.860467 273.102559 454.397576 C 269.503926 454.929314 265.899922 455.375115 262.279804 455.729607 C 258.659687 456.0841 255.034198 456.352654 251.403339 456.5299 C 247.772479 456.712518 244.136248 456.798455 240.500018 456.798455 C 236.863787 456.798455 233.227556 456.712518 229.596697 456.5299 C 225.965837 456.352654 222.340349 456.0841 218.720231 455.729607 C 215.100114 455.375115 211.49611 454.929314 207.897477 454.397576 C 204.298844 453.860467 200.716324 453.23742 197.149917 452.528435 C 193.583511 451.819451 190.038589 451.024529 186.50978 450.138298 C 182.980971 449.257439 179.479018 448.285271 175.998549 447.232537 C 172.51808 446.174431 169.064466 445.035759 165.64308 443.81115 C 162.221693 442.58654 158.827161 441.275993 155.470227 439.88488 C 152.107922 438.493766 148.783215 437.022087 145.496106 435.464469 C 142.208996 433.912223 138.964855 432.279411 135.758312 430.560661 C 132.546398 428.847281 129.382823 427.058707 126.267589 425.189566 C 123.146983 423.315055 120.074717 421.370719 117.050791 419.351187 C 114.026865 417.331656 111.05665 415.236929 108.134775 413.072378 C 105.2129 410.907827 102.350107 408.668081 99.535654 406.363882 C 96.726571 404.054311 93.976571 401.680288 91.280282 399.241811 C 88.583993 396.797963 85.952157 394.289662 83.379403 391.716908 C 80.81202 389.149525 78.303719 386.512318 75.859871 383.8214 C 73.416023 381.125111 71.042 378.37511 68.7378 375.560657 C 66.42823 372.751575 64.193855 369.883411 62.029304 366.966907 C 59.859382 364.045031 57.770026 361.069445 55.745124 358.045519 C 53.725592 355.021593 51.781256 351.954699 49.912116 348.834093 C 48.042975 345.713487 46.249029 342.549913 44.53565 339.34337 C 42.822271 336.136827 41.189459 332.892686 39.631841 329.600205 C 38.079595 326.313096 36.607916 322.993759 35.211431 319.631455 C 33.820318 316.274521 32.515142 312.879989 31.290532 309.458602 C 30.065923 306.031844 28.92188 302.583602 27.869145 299.103133 C 26.81104 295.622664 25.844243 292.11534 24.958012 288.591902 C 24.077153 285.063093 23.27686 281.518171 22.567876 277.946393 C 21.858891 274.379987 21.241215 270.802838 20.704106 267.204205 C 20.172368 263.605572 19.726567 259.996197 19.372075 256.381451 C 19.012211 252.761333 18.743657 249.135845 18.566411 245.504985 C 18.389164 241.868755 18.297856 238.237895 18.297856 234.601664 C 18.297856 230.965434 18.389164 227.329203 18.566411 223.698343 C 18.743657 220.067484 19.012211 216.441995 19.372075 212.821878 C 19.726567 209.20176 20.172368 205.592385 20.704106 201.999123 C 21.241215 198.40049 21.858891 194.817971 22.567876 191.251564 C 23.27686 187.685158 24.077153 184.134864 24.958012 180.611427 C 25.844243 177.082618 26.81104 173.580665 27.869145 170.100196 C 28.92188 166.619727 30.065923 163.166113 31.290532 159.744726 C 32.515142 156.317968 33.820318 152.928808 35.211431 149.566503 C 36.607916 146.209569 38.079595 142.884862 39.631841 139.597752 C 41.189459 136.310643 42.822271 133.061131 44.53565 129.854588 C 46.249029 126.648045 48.042975 123.48447 49.912116 120.363864 C 51.781256 117.24863 53.725592 114.176364 55.745124 111.152438 C 57.770026 108.128512 59.859382 105.158297 62.029304 102.236422 C 64.193855 99.314547 66.42823 96.446383 68.7378 93.6373 C 71.042 90.828218 73.416023 88.072847 75.859871 85.381929 C 78.303719 82.68564 80.81202 80.053803 83.379403 77.481049 C 85.952157 74.908295 88.583993 72.405365 91.280282 69.961518 C 93.976571 67.51767 96.726571 65.143646 99.535654 62.839447 C 102.350107 60.529876 105.2129 58.295501 108.134775 56.125579 C 111.05665 53.961028 114.026865 51.866302 117.050791 49.84677 C 120.074717 47.827239 123.146983 45.882903 126.267589 44.013762 C 129.382823 42.144621 132.546398 40.350676 135.758312 38.637297 C 138.964855 36.923918 142.208996 35.285734 145.496106 33.733488 C 148.783215 32.181242 152.107922 30.704191 155.470227 29.313078 C 158.827161 27.921964 162.221693 26.611417 165.64308 25.386808 C 169.064466 24.162198 172.51808 23.023527 175.998549 21.965421 C 179.479018 20.912687 182.980971 19.940519 186.50978 19.059659 C 190.038589 18.173429 193.583511 17.378507 197.149917 16.669522 C 200.716324 15.960538 204.298844 15.337491 207.897477 14.805753 C 211.49611 14.274014 215.100114 13.828214 218.720231 13.46835 C 222.340349 13.113858 225.965837 12.845303 229.596697 12.668057 C 233.227556 12.490811 236.863787 12.399502 240.500018 12.399502 C 244.136248 12.399502 247.772479 12.490811 251.403339 12.668057 C 255.034198 12.845303 258.659687 13.113858 262.279804 13.46835 C 265.899922 13.828214 269.503926 14.274014 273.102559 14.805753 C 276.701192 15.337491 280.283711 15.960538 283.850118 16.669522 C 287.416524 17.378507 290.961446 18.173429 294.490255 19.059659 C 298.019064 19.940519 301.521017 20.912687 305.001486 21.965421 C 308.481955 23.023527 311.935569 24.162198 315.356956 25.386808 C 318.778343 26.611417 322.172874 27.921964 325.529808 29.313078 C 328.892113 30.704191 332.21682 32.181242 335.50393 33.733488 C 338.791039 35.285734 342.03518 36.923918 345.241723 38.637297 C 348.453637 40.350676 351.611841 42.144621 354.732446 44.013762 C 357.853052 45.882903 360.925318 47.827239 363.949244 49.84677 C 366.97317 51.866302 369.943385 53.961028 372.86526 56.125579 C 375.787135 58.295501 378.649928 60.529876 381.464382 62.839447 C 384.273464 65.143646 387.023464 67.51767 389.719753 69.961518 C 392.416042 72.405365 395.047879 74.908295 397.620633 77.481049 C 400.188016 80.053803 402.696316 82.68564 405.140164 85.381929 C 407.584012 88.072847 409.958036 90.828218 412.262235 93.6373 C 414.571805 96.446383 416.806181 99.314547 418.970732 102.236422 C 421.140654 105.158297 423.230009 108.128512 425.254912 111.152438 C 427.274443 114.176364 429.218779 117.24863 431.08792 120.363864 C 432.957061 123.48447 434.751006 126.648045 436.464385 129.854588 C 438.177764 133.061131 439.810577 136.310643 441.368194 139.597752 C 442.92044 142.884862 444.39212 146.209569 445.788604 149.566503 C 447.179718 152.928808 448.484893 156.317968 449.709503 159.744726 C 450.934112 163.166113 452.078155 166.619727 453.13089 170.100196 C 454.188995 173.580665 455.155792 177.082618 456.042023 180.611427 C 456.922882 184.134864 457.723175 187.685158 458.43216 191.251564 C 459.141144 194.817971 459.75882 198.40049 460.295929 201.999123 C 460.827668 205.592385 461.273468 209.20176 461.627961 212.821878 C 461.987824 216.441995 462.256379 220.067484 462.433625 223.698343 C 462.610871 227.329203 462.702179 230.965434 462.702179 234.601664 Z M 462.702179 234.601664 " stroke="#4267b2" stroke-width="1" stroke-opacity="1" stroke-miterlimit="10"/></g><path fill="#ffffff" d="M 757.964844 291.074219 C 745.089844 293.398438 740.65625 295.582031 733.238281 299.800781 C 725.308594 304.308594 719.78125 309.035156 716 312.890625 C 703.636719 325.691406 700.871094 337.617188 698.546875 346.855469 C 695.054688 360.453125 695.417969 373.253906 695.417969 373.253906 L 695.417969 383.21875 L 669.453125 383.21875 L 669.453125 428.382812 L 695.417969 428.382812 L 695.417969 564.746094 C 703.417969 565.980469 711.636719 566.636719 720 566.636719 C 732.363281 566.636719 744.4375 565.253906 756 562.636719 L 756 428.382812 L 795.492188 428.382812 L 795.492188 383.21875 L 756 383.21875 L 756 373.617188 C 756 373.617188 756 371.871094 756 371.65625 C 756 371.4375 756 371.144531 756 370.925781 C 756 368.964844 756.074219 366.054688 756.507812 363.507812 C 757.601562 356.890625 759.855469 351.726562 763.636719 347.144531 C 768 341.910156 773.089844 339.65625 778.761719 338.78125 C 792.800781 336.601562 804.507812 341.472656 804.507812 341.472656 L 806.691406 293.980469 C 806.691406 293.980469 797.890625 291.144531 783.34375 290.128906 C 773.089844 289.398438 764 289.980469 757.964844 291.074219 Z M 757.964844 291.074219 " fill-opacity="1" fill-rule="nonzero"/><g clip-path="url(#cd47204079)"><path stroke-linecap="butt" transform="matrix(0.727273, 0, 0, 0.727273, 545.090907, 234.345462)" fill="none" stroke-linejoin="miter" d="M 292.701681 78.002045 C 274.998555 81.197846 268.902363 84.200288 258.702655 90.00107 C 247.799335 96.199312 240.199236 102.698336 235.000017 107.999606 C 218.000505 125.600681 214.19777 141.998631 211.001969 154.701269 C 206.200211 173.398047 206.699723 190.999123 206.699723 190.999123 L 206.699723 204.700784 L 170.99806 204.700784 L 170.99806 266.801373 L 206.699723 266.801373 L 206.699723 454.300896 C 217.699723 455.998162 229.000505 456.900506 240.500018 456.900506 C 257.49953 456.900506 274.101582 454.999139 290.000021 451.400506 L 290.000021 266.801373 L 344.301782 266.801373 L 344.301782 204.700784 L 290.000021 204.700784 L 290.000021 191.498634 C 290.000021 191.498634 290.000021 189.097755 290.000021 188.802345 C 290.000021 188.501564 290.000021 188.098732 290.000021 187.797951 C 290.000021 185.101661 290.102071 181.100196 290.698263 177.598243 C 292.202169 168.49961 295.30129 161.399023 300.50051 155.09873 C 306.500022 147.901464 313.498557 144.802342 321.297386 143.599217 C 340.601098 140.602147 356.698267 147.299901 356.698267 147.299901 L 359.700708 81.998139 C 359.700708 81.998139 347.599633 78.098725 327.597679 76.702241 C 313.498557 75.697846 301.000021 76.498139 292.701681 78.002045 Z M 292.701681 78.002045 " stroke="#ffffff" stroke-width="1" stroke-opacity="1" stroke-miterlimit="10"/></g></svg>