<svg xmlns="http://www.w3.org/2000/svg" xmlns:xlink="http://www.w3.org/1999/xlink" width="1920" zoomAndPan="magnify" viewBox="0 0 1440 809.999993" height="1080" preserveAspectRatio="xMidYMid meet" version="1.0"><defs><clipPath id="5c0170ba7f"><path d="M 558 243 L 882 243 L 882 567 L 558 567 Z M 558 243 " clip-rule="nonzero"/></clipPath><clipPath id="c4d1b2517d"><path d="M 882 405 C 882 407.652344 881.933594 410.300781 881.804688 412.949219 C 881.675781 415.597656 881.480469 418.242188 881.21875 420.878906 C 880.960938 423.515625 880.636719 426.148438 880.246094 428.769531 C 879.859375 431.394531 879.40625 434.003906 878.886719 436.605469 C 878.371094 439.203125 877.789062 441.789062 877.144531 444.363281 C 876.5 446.933594 875.792969 449.488281 875.023438 452.027344 C 874.253906 454.5625 873.421875 457.078125 872.53125 459.574219 C 871.636719 462.074219 870.683594 464.546875 869.667969 466.996094 C 868.652344 469.445312 867.578125 471.867188 866.445312 474.265625 C 865.3125 476.660156 864.121094 479.027344 862.871094 481.367188 C 861.621094 483.703125 860.316406 486.011719 858.953125 488.285156 C 857.589844 490.558594 856.171875 492.796875 854.699219 495.003906 C 853.226562 497.207031 851.699219 499.375 850.121094 501.503906 C 848.539062 503.632812 846.910156 505.722656 845.226562 507.773438 C 843.546875 509.820312 841.816406 511.828125 840.035156 513.792969 C 838.253906 515.757812 836.425781 517.675781 834.550781 519.550781 C 832.675781 521.425781 830.757812 523.253906 828.792969 525.035156 C 826.828125 526.816406 824.820312 528.546875 822.773438 530.226562 C 820.722656 531.910156 818.632812 533.539062 816.503906 535.121094 C 814.375 536.699219 812.207031 538.226562 810.003906 539.699219 C 807.796875 541.171875 805.558594 542.589844 803.285156 543.953125 C 801.011719 545.316406 798.703125 546.621094 796.367188 547.871094 C 794.027344 549.121094 791.660156 550.3125 789.265625 551.445312 C 786.867188 552.578125 784.445312 553.652344 781.996094 554.667969 C 779.546875 555.683594 777.074219 556.636719 774.574219 557.53125 C 772.078125 558.421875 769.5625 559.253906 767.027344 560.023438 C 764.488281 560.792969 761.933594 561.5 759.363281 562.144531 C 756.789062 562.789062 754.203125 563.371094 751.605469 563.886719 C 749.003906 564.40625 746.394531 564.859375 743.769531 565.246094 C 741.148438 565.636719 738.515625 565.960938 735.878906 566.21875 C 733.242188 566.480469 730.597656 566.675781 727.949219 566.804688 C 725.300781 566.933594 722.652344 567 720 567 C 717.347656 567 714.699219 566.933594 712.050781 566.804688 C 709.402344 566.675781 706.757812 566.480469 704.121094 566.21875 C 701.484375 565.960938 698.851562 565.636719 696.230469 565.246094 C 693.605469 564.859375 690.996094 564.40625 688.394531 563.886719 C 685.796875 563.371094 683.207031 562.789062 680.636719 562.144531 C 678.066406 561.5 675.511719 560.792969 672.972656 560.023438 C 670.4375 559.253906 667.921875 558.421875 665.421875 557.53125 C 662.925781 556.636719 660.453125 555.683594 658.003906 554.667969 C 655.554688 553.652344 653.132812 552.578125 650.734375 551.445312 C 648.339844 550.3125 645.972656 549.121094 643.632812 547.871094 C 641.296875 546.621094 638.988281 545.316406 636.714844 543.953125 C 634.441406 542.589844 632.203125 541.171875 629.996094 539.699219 C 627.792969 538.226562 625.625 536.699219 623.496094 535.121094 C 621.367188 533.539062 619.277344 531.910156 617.226562 530.226562 C 615.179688 528.546875 613.171875 526.816406 611.207031 525.035156 C 609.242188 523.253906 607.324219 521.425781 605.449219 519.550781 C 603.574219 517.675781 601.746094 515.757812 599.964844 513.792969 C 598.183594 511.828125 596.453125 509.820312 594.773438 507.773438 C 593.089844 505.722656 591.460938 503.632812 589.878906 501.503906 C 588.300781 499.375 586.773438 497.207031 585.300781 495.003906 C 583.828125 492.796875 582.410156 490.558594 581.046875 488.285156 C 579.683594 486.011719 578.378906 483.703125 577.128906 481.367188 C 575.878906 479.027344 574.6875 476.660156 573.554688 474.265625 C 572.421875 471.867188 571.347656 469.445312 570.332031 466.996094 C 569.316406 464.546875 568.363281 462.074219 567.46875 459.574219 C 566.578125 457.078125 565.746094 454.5625 564.976562 452.027344 C 564.207031 449.488281 563.5 446.933594 562.855469 444.363281 C 562.210938 441.789062 561.628906 439.203125 561.113281 436.605469 C 560.59375 434.003906 560.140625 431.394531 559.753906 428.769531 C 559.363281 426.148438 559.039062 423.515625 558.78125 420.878906 C 558.519531 418.242188 558.324219 415.597656 558.195312 412.949219 C 558.066406 410.300781 558 407.652344 558 405 C 558 402.347656 558.066406 399.699219 558.195312 397.050781 C 558.324219 394.402344 558.519531 391.757812 558.78125 389.121094 C 559.039062 386.484375 559.363281 383.851562 559.753906 381.230469 C 560.140625 378.605469 560.59375 375.996094 561.113281 373.394531 C 561.628906 370.796875 562.210938 368.210938 562.855469 365.636719 C 563.5 363.066406 564.207031 360.511719 564.976562 357.972656 C 565.746094 355.4375 566.578125 352.921875 567.46875 350.425781 C 568.363281 347.925781 569.316406 345.453125 570.332031 343.003906 C 571.347656 340.554688 572.421875 338.132812 573.554688 335.734375 C 574.6875 333.339844 575.878906 330.972656 577.128906 328.632812 C 578.378906 326.296875 579.683594 323.988281 581.046875 321.714844 C 582.410156 319.441406 583.828125 317.203125 585.300781 314.996094 C 586.773438 312.792969 588.300781 310.625 589.878906 308.496094 C 591.460938 306.367188 593.089844 304.277344 594.773438 302.226562 C 596.453125 300.179688 598.183594 298.171875 599.964844 296.207031 C 601.746094 294.242188 603.574219 292.324219 605.449219 290.449219 C 607.324219 288.574219 609.242188 286.746094 611.207031 284.964844 C 613.171875 283.183594 615.179688 281.453125 617.226562 279.773438 C 619.277344 278.089844 621.367188 276.460938 623.496094 274.878906 C 625.625 273.300781 627.792969 271.773438 629.996094 270.300781 C 632.203125 268.828125 634.441406 267.410156 636.714844 266.046875 C 638.988281 264.683594 641.296875 263.378906 643.632812 262.128906 C 645.972656 260.878906 648.339844 259.6875 650.734375 258.554688 C 653.132812 257.421875 655.554688 256.347656 658.003906 255.332031 C 660.453125 254.316406 662.925781 253.363281 665.421875 252.46875 C 667.921875 251.578125 670.4375 250.746094 672.972656 249.976562 C 675.511719 249.207031 678.066406 248.5 680.636719 247.855469 C 683.207031 247.210938 685.796875 246.628906 688.394531 246.113281 C 690.996094 245.59375 693.605469 245.140625 696.230469 244.753906 C 698.851562 244.363281 701.484375 244.039062 704.121094 243.78125 C 706.757812 243.519531 709.402344 243.324219 712.050781 243.195312 C 714.699219 243.066406 717.347656 243 720 243 C 722.652344 243 725.300781 243.066406 727.949219 243.195312 C 730.597656 243.324219 733.242188 243.519531 735.878906 243.78125 C 738.515625 244.039062 741.148438 244.363281 743.769531 244.753906 C 746.394531 245.140625 749.003906 245.59375 751.605469 246.113281 C 754.203125 246.628906 756.789062 247.210938 759.363281 247.855469 C 761.933594 248.5 764.488281 249.207031 767.027344 249.976562 C 769.5625 250.746094 772.078125 251.578125 774.574219 252.46875 C 777.074219 253.363281 779.546875 254.316406 781.996094 255.332031 C 784.445312 256.347656 786.867188 257.421875 789.265625 258.554688 C 791.660156 259.6875 794.027344 260.878906 796.367188 262.128906 C 798.703125 263.378906 801.011719 264.683594 803.285156 266.046875 C 805.558594 267.410156 807.796875 268.828125 810.003906 270.300781 C 812.207031 271.773438 814.375 273.300781 816.503906 274.878906 C 818.632812 276.460938 820.722656 278.089844 822.773438 279.773438 C 824.820312 281.453125 826.828125 283.183594 828.792969 284.964844 C 830.757812 286.746094 832.675781 288.574219 834.550781 290.449219 C 836.425781 292.324219 838.253906 294.242188 840.035156 296.207031 C 841.816406 298.171875 843.546875 300.179688 845.226562 302.226562 C 846.910156 304.277344 848.539062 306.367188 850.121094 308.496094 C 851.699219 310.625 853.226562 312.792969 854.699219 314.996094 C 856.171875 317.203125 857.589844 319.441406 858.953125 321.714844 C 860.316406 323.988281 861.621094 326.296875 862.871094 328.632812 C 864.121094 330.972656 865.3125 333.339844 866.445312 335.734375 C 867.578125 338.132812 868.652344 340.554688 869.667969 343.003906 C 870.683594 345.453125 871.636719 347.925781 872.53125 350.425781 C 873.421875 352.921875 874.253906 355.4375 875.023438 357.972656 C 875.792969 360.511719 876.5 363.066406 877.144531 365.636719 C 877.789062 368.210938 878.371094 370.796875 878.886719 373.394531 C 879.40625 375.996094 879.859375 378.605469 880.246094 381.230469 C 880.636719 383.851562 880.960938 386.484375 881.21875 389.121094 C 881.480469 391.757812 881.675781 394.402344 881.804688 397.050781 C 881.933594 399.699219 882 402.347656 882 405 Z M 882 405 " clip-rule="nonzero"/></clipPath><linearGradient x1="0.0499007" gradientTransform="matrix(1.055375, 0, 0, 1.055375, 558.000001, 243.000018)" y1="307.049893" x2="307.050586" gradientUnits="userSpaceOnUse" y2="0.0506194" id="b91c61dd62"><stop stop-opacity="1" stop-color="rgb(99.609375%, 75.289917%, 32.548523%)" offset="0"/><stop stop-opacity="1" stop-color="rgb(99.609375%, 75.289917%, 32.548523%)" offset="0.125"/><stop stop-opacity="1" stop-color="rgb(99.609375%, 75.289917%, 32.548523%)" offset="0.140625"/><stop stop-opacity="1" stop-color="rgb(99.594116%, 75.093079%, 32.522583%)" offset="0.144531"/><stop stop-opacity="1" stop-color="rgb(99.580383%, 74.89624%, 32.498169%)" offset="0.148438"/><stop stop-opacity="1" stop-color="rgb(99.523926%, 74.162292%, 32.400513%)" offset="0.152344"/><stop stop-opacity="1" stop-color="rgb(99.468994%, 73.428345%, 32.304382%)" offset="0.15625"/><stop stop-opacity="1" stop-color="rgb(99.414062%, 72.692871%, 32.208252%)" offset="0.160156"/><stop stop-opacity="1" stop-color="rgb(99.359131%, 71.958923%, 32.112122%)" offset="0.164063"/><stop stop-opacity="1" stop-color="rgb(99.304199%, 71.22345%, 32.014465%)" offset="0.167969"/><stop stop-opacity="1" stop-color="rgb(99.249268%, 70.489502%, 31.918335%)" offset="0.171875"/><stop stop-opacity="1" stop-color="rgb(99.19281%, 69.754028%, 31.822205%)" offset="0.175781"/><stop stop-opacity="1" stop-color="rgb(99.137878%, 69.020081%, 31.726074%)" offset="0.179688"/><stop stop-opacity="1" stop-color="rgb(99.082947%, 68.284607%, 31.628418%)" offset="0.183594"/><stop stop-opacity="1" stop-color="rgb(99.028015%, 67.550659%, 31.532288%)" offset="0.1875"/><stop stop-opacity="1" stop-color="rgb(98.973083%, 66.815186%, 31.436157%)" offset="0.191406"/><stop stop-opacity="1" stop-color="rgb(98.918152%, 66.081238%, 31.340027%)" offset="0.195313"/><stop stop-opacity="1" stop-color="rgb(98.86322%, 65.345764%, 31.242371%)" offset="0.199219"/><stop stop-opacity="1" stop-color="rgb(98.808289%, 64.611816%, 31.14624%)" offset="0.203125"/><stop stop-opacity="1" stop-color="rgb(98.751831%, 63.876343%, 31.05011%)" offset="0.207031"/><stop stop-opacity="1" stop-color="rgb(98.696899%, 63.142395%, 30.953979%)" offset="0.210938"/><stop stop-opacity="1" stop-color="rgb(98.641968%, 62.406921%, 30.856323%)" offset="0.214844"/><stop stop-opacity="1" stop-color="rgb(98.587036%, 61.672974%, 30.760193%)" offset="0.21875"/><stop stop-opacity="1" stop-color="rgb(98.532104%, 60.9375%, 30.664062%)" offset="0.222656"/><stop stop-opacity="1" stop-color="rgb(98.477173%, 60.203552%, 30.567932%)" offset="0.226563"/><stop stop-opacity="1" stop-color="rgb(98.420715%, 59.468079%, 30.471802%)" offset="0.230469"/><stop stop-opacity="1" stop-color="rgb(98.365784%, 58.734131%, 30.375671%)" offset="0.234375"/><stop stop-opacity="1" stop-color="rgb(98.310852%, 57.998657%, 30.278015%)" offset="0.238281"/><stop stop-opacity="1" stop-color="rgb(98.25592%, 57.264709%, 30.181885%)" offset="0.242188"/><stop stop-opacity="1" stop-color="rgb(98.200989%, 56.529236%, 30.085754%)" offset="0.246094"/><stop stop-opacity="1" stop-color="rgb(98.146057%, 55.795288%, 29.989624%)" offset="0.25"/><stop stop-opacity="1" stop-color="rgb(98.091125%, 55.059814%, 29.891968%)" offset="0.253906"/><stop stop-opacity="1" stop-color="rgb(98.036194%, 54.325867%, 29.795837%)" offset="0.257812"/><stop stop-opacity="1" stop-color="rgb(97.979736%, 53.590393%, 29.699707%)" offset="0.261719"/><stop stop-opacity="1" stop-color="rgb(97.924805%, 52.856445%, 29.603577%)" offset="0.265625"/><stop stop-opacity="1" stop-color="rgb(97.869873%, 52.120972%, 29.50592%)" offset="0.269531"/><stop stop-opacity="1" stop-color="rgb(97.814941%, 51.387024%, 29.40979%)" offset="0.273438"/><stop stop-opacity="1" stop-color="rgb(97.76001%, 50.65155%, 29.31366%)" offset="0.277344"/><stop stop-opacity="1" stop-color="rgb(97.705078%, 49.917603%, 29.217529%)" offset="0.28125"/><stop stop-opacity="1" stop-color="rgb(97.648621%, 49.182129%, 29.119873%)" offset="0.285156"/><stop stop-opacity="1" stop-color="rgb(97.593689%, 48.448181%, 29.023743%)" offset="0.289063"/><stop stop-opacity="1" stop-color="rgb(97.538757%, 47.712708%, 28.927612%)" offset="0.292969"/><stop stop-opacity="1" stop-color="rgb(97.483826%, 46.97876%, 28.831482%)" offset="0.296875"/><stop stop-opacity="1" stop-color="rgb(97.428894%, 46.243286%, 28.733826%)" offset="0.300781"/><stop stop-opacity="1" stop-color="rgb(97.373962%, 45.509338%, 28.637695%)" offset="0.304688"/><stop stop-opacity="1" stop-color="rgb(97.317505%, 44.773865%, 28.541565%)" offset="0.308594"/><stop stop-opacity="1" stop-color="rgb(97.262573%, 44.039917%, 28.445435%)" offset="0.3125"/><stop stop-opacity="1" stop-color="rgb(97.207642%, 43.304443%, 28.347778%)" offset="0.316406"/><stop stop-opacity="1" stop-color="rgb(97.15271%, 42.570496%, 28.251648%)" offset="0.320312"/><stop stop-opacity="1" stop-color="rgb(97.097778%, 41.835022%, 28.155518%)" offset="0.324219"/><stop stop-opacity="1" stop-color="rgb(97.042847%, 41.101074%, 28.059387%)" offset="0.328125"/><stop stop-opacity="1" stop-color="rgb(96.987915%, 40.365601%, 27.961731%)" offset="0.332031"/><stop stop-opacity="1" stop-color="rgb(96.932983%, 39.631653%, 27.865601%)" offset="0.335938"/><stop stop-opacity="1" stop-color="rgb(96.876526%, 38.896179%, 27.76947%)" offset="0.339844"/><stop stop-opacity="1" stop-color="rgb(96.821594%, 38.162231%, 27.67334%)" offset="0.34375"/><stop stop-opacity="1" stop-color="rgb(96.766663%, 37.428284%, 27.575684%)" offset="0.347656"/><stop stop-opacity="1" stop-color="rgb(96.711731%, 36.694336%, 27.479553%)" offset="0.351562"/><stop stop-opacity="1" stop-color="rgb(96.656799%, 35.958862%, 27.383423%)" offset="0.355469"/><stop stop-opacity="1" stop-color="rgb(96.601868%, 35.224915%, 27.287292%)" offset="0.359375"/><stop stop-opacity="1" stop-color="rgb(96.54541%, 34.489441%, 27.191162%)" offset="0.363281"/><stop stop-opacity="1" stop-color="rgb(96.490479%, 33.755493%, 27.095032%)" offset="0.367188"/><stop stop-opacity="1" stop-color="rgb(96.435547%, 33.02002%, 26.997375%)" offset="0.371094"/><stop stop-opacity="1" stop-color="rgb(96.380615%, 32.286072%, 26.901245%)" offset="0.375"/><stop stop-opacity="1" stop-color="rgb(96.325684%, 31.550598%, 26.805115%)" offset="0.378906"/><stop stop-opacity="1" stop-color="rgb(96.270752%, 30.81665%, 26.708984%)" offset="0.382812"/><stop stop-opacity="1" stop-color="rgb(96.21582%, 30.081177%, 26.611328%)" offset="0.386719"/><stop stop-opacity="1" stop-color="rgb(96.160889%, 29.347229%, 26.515198%)" offset="0.390625"/><stop stop-opacity="1" stop-color="rgb(96.104431%, 28.611755%, 26.419067%)" offset="0.394531"/><stop stop-opacity="1" stop-color="rgb(96.0495%, 27.877808%, 26.322937%)" offset="0.398438"/><stop stop-opacity="1" stop-color="rgb(95.994568%, 27.142334%, 26.225281%)" offset="0.402344"/><stop stop-opacity="1" stop-color="rgb(95.939636%, 26.408386%, 26.12915%)" offset="0.40625"/><stop stop-opacity="1" stop-color="rgb(95.884705%, 25.672913%, 26.03302%)" offset="0.410156"/><stop stop-opacity="1" stop-color="rgb(95.829773%, 24.938965%, 25.93689%)" offset="0.414062"/><stop stop-opacity="1" stop-color="rgb(95.773315%, 24.203491%, 25.839233%)" offset="0.417969"/><stop stop-opacity="1" stop-color="rgb(95.718384%, 23.469543%, 25.743103%)" offset="0.421875"/><stop stop-opacity="1" stop-color="rgb(95.663452%, 22.73407%, 25.646973%)" offset="0.425781"/><stop stop-opacity="1" stop-color="rgb(95.608521%, 22.000122%, 25.550842%)" offset="0.429688"/><stop stop-opacity="1" stop-color="rgb(95.553589%, 21.264648%, 25.453186%)" offset="0.433594"/><stop stop-opacity="1" stop-color="rgb(95.498657%, 20.530701%, 25.357056%)" offset="0.4375"/><stop stop-opacity="1" stop-color="rgb(95.443726%, 19.795227%, 25.260925%)" offset="0.441406"/><stop stop-opacity="1" stop-color="rgb(95.388794%, 19.061279%, 25.164795%)" offset="0.445312"/><stop stop-opacity="1" stop-color="rgb(95.332336%, 18.325806%, 25.067139%)" offset="0.449219"/><stop stop-opacity="1" stop-color="rgb(95.277405%, 17.591858%, 24.971008%)" offset="0.453125"/><stop stop-opacity="1" stop-color="rgb(95.222473%, 16.856384%, 24.874878%)" offset="0.457031"/><stop stop-opacity="1" stop-color="rgb(95.167542%, 16.122437%, 24.778748%)" offset="0.460938"/><stop stop-opacity="1" stop-color="rgb(95.11261%, 15.386963%, 24.681091%)" offset="0.464844"/><stop stop-opacity="1" stop-color="rgb(95.057678%, 14.653015%, 24.584961%)" offset="0.46875"/><stop stop-opacity="1" stop-color="rgb(95.001221%, 13.917542%, 24.488831%)" offset="0.472656"/><stop stop-opacity="1" stop-color="rgb(94.946289%, 13.183594%, 24.3927%)" offset="0.476562"/><stop stop-opacity="1" stop-color="rgb(94.621277%, 12.861633%, 24.891663%)" offset="0.480469"/><stop stop-opacity="1" stop-color="rgb(94.296265%, 12.539673%, 25.392151%)" offset="0.484375"/><stop stop-opacity="1" stop-color="rgb(93.765259%, 12.530518%, 26.345825%)" offset="0.488281"/><stop stop-opacity="1" stop-color="rgb(93.234253%, 12.521362%, 27.2995%)" offset="0.492188"/><stop stop-opacity="1" stop-color="rgb(92.703247%, 12.512207%, 28.251648%)" offset="0.496094"/><stop stop-opacity="1" stop-color="rgb(92.173767%, 12.503052%, 29.205322%)" offset="0.5"/><stop stop-opacity="1" stop-color="rgb(91.642761%, 12.493896%, 30.158997%)" offset="0.503906"/><stop stop-opacity="1" stop-color="rgb(91.111755%, 12.484741%, 31.112671%)" offset="0.507812"/><stop stop-opacity="1" stop-color="rgb(90.58075%, 12.475586%, 32.066345%)" offset="0.511719"/><stop stop-opacity="1" stop-color="rgb(90.05127%, 12.467957%, 33.02002%)" offset="0.515625"/><stop stop-opacity="1" stop-color="rgb(89.520264%, 12.458801%, 33.972168%)" offset="0.519531"/><stop stop-opacity="1" stop-color="rgb(88.989258%, 12.449646%, 34.925842%)" offset="0.523438"/><stop stop-opacity="1" stop-color="rgb(88.458252%, 12.440491%, 35.879517%)" offset="0.527344"/><stop stop-opacity="1" stop-color="rgb(87.927246%, 12.431335%, 36.833191%)" offset="0.53125"/><stop stop-opacity="1" stop-color="rgb(87.39624%, 12.42218%, 37.785339%)" offset="0.535156"/><stop stop-opacity="1" stop-color="rgb(86.86676%, 12.414551%, 38.739014%)" offset="0.539062"/><stop stop-opacity="1" stop-color="rgb(86.335754%, 12.405396%, 39.692688%)" offset="0.542969"/><stop stop-opacity="1" stop-color="rgb(85.804749%, 12.39624%, 40.646362%)" offset="0.546875"/><stop stop-opacity="1" stop-color="rgb(85.273743%, 12.387085%, 41.600037%)" offset="0.550781"/><stop stop-opacity="1" stop-color="rgb(84.744263%, 12.37793%, 42.553711%)" offset="0.554688"/><stop stop-opacity="1" stop-color="rgb(84.213257%, 12.368774%, 43.505859%)" offset="0.558594"/><stop stop-opacity="1" stop-color="rgb(83.682251%, 12.359619%, 44.459534%)" offset="0.5625"/><stop stop-opacity="1" stop-color="rgb(83.151245%, 12.350464%, 45.413208%)" offset="0.566406"/><stop stop-opacity="1" stop-color="rgb(82.621765%, 12.342834%, 46.366882%)" offset="0.570312"/><stop stop-opacity="1" stop-color="rgb(82.090759%, 12.333679%, 47.319031%)" offset="0.574219"/><stop stop-opacity="1" stop-color="rgb(81.559753%, 12.324524%, 48.272705%)" offset="0.578125"/><stop stop-opacity="1" stop-color="rgb(81.028748%, 12.315369%, 49.226379%)" offset="0.582031"/><stop stop-opacity="1" stop-color="rgb(80.497742%, 12.306213%, 50.180054%)" offset="0.585937"/><stop stop-opacity="1" stop-color="rgb(79.966736%, 12.297058%, 51.133728%)" offset="0.589844"/><stop stop-opacity="1" stop-color="rgb(79.437256%, 12.287903%, 52.087402%)" offset="0.59375"/><stop stop-opacity="1" stop-color="rgb(78.90625%, 12.278748%, 53.039551%)" offset="0.597656"/><stop stop-opacity="1" stop-color="rgb(78.375244%, 12.271118%, 53.993225%)" offset="0.601562"/><stop stop-opacity="1" stop-color="rgb(77.844238%, 12.261963%, 54.946899%)" offset="0.605469"/><stop stop-opacity="1" stop-color="rgb(77.314758%, 12.252808%, 55.900574%)" offset="0.609375"/><stop stop-opacity="1" stop-color="rgb(76.783752%, 12.243652%, 56.852722%)" offset="0.613281"/><stop stop-opacity="1" stop-color="rgb(76.252747%, 12.234497%, 57.806396%)" offset="0.617188"/><stop stop-opacity="1" stop-color="rgb(75.721741%, 12.225342%, 58.760071%)" offset="0.621094"/><stop stop-opacity="1" stop-color="rgb(75.190735%, 12.217712%, 59.713745%)" offset="0.625"/><stop stop-opacity="1" stop-color="rgb(74.659729%, 12.208557%, 60.665894%)" offset="0.628906"/><stop stop-opacity="1" stop-color="rgb(74.130249%, 12.199402%, 61.619568%)" offset="0.632812"/><stop stop-opacity="1" stop-color="rgb(73.599243%, 12.190247%, 62.573242%)" offset="0.636719"/><stop stop-opacity="1" stop-color="rgb(73.068237%, 12.181091%, 63.526917%)" offset="0.640625"/><stop stop-opacity="1" stop-color="rgb(72.537231%, 12.171936%, 64.480591%)" offset="0.644531"/><stop stop-opacity="1" stop-color="rgb(72.007751%, 12.162781%, 65.434265%)" offset="0.648438"/><stop stop-opacity="1" stop-color="rgb(71.304321%, 12.449646%, 65.922546%)" offset="0.652344"/><stop stop-opacity="1" stop-color="rgb(70.602417%, 12.738037%, 66.412354%)" offset="0.65625"/><stop stop-opacity="1" stop-color="rgb(69.847107%, 13.114929%, 66.758728%)" offset="0.660156"/><stop stop-opacity="1" stop-color="rgb(69.091797%, 13.493347%, 67.106628%)" offset="0.664062"/><stop stop-opacity="1" stop-color="rgb(68.336487%, 13.870239%, 67.453003%)" offset="0.667969"/><stop stop-opacity="1" stop-color="rgb(67.581177%, 14.247131%, 67.800903%)" offset="0.671875"/><stop stop-opacity="1" stop-color="rgb(66.825867%, 14.624023%, 68.148804%)" offset="0.675781"/><stop stop-opacity="1" stop-color="rgb(66.070557%, 15.002441%, 68.496704%)" offset="0.679688"/><stop stop-opacity="1" stop-color="rgb(65.315247%, 15.379333%, 68.843079%)" offset="0.683594"/><stop stop-opacity="1" stop-color="rgb(64.561462%, 15.757751%, 69.190979%)" offset="0.6875"/><stop stop-opacity="1" stop-color="rgb(63.806152%, 16.134644%, 69.537354%)" offset="0.691406"/><stop stop-opacity="1" stop-color="rgb(63.050842%, 16.513062%, 69.885254%)" offset="0.695312"/><stop stop-opacity="1" stop-color="rgb(62.295532%, 16.889954%, 70.233154%)" offset="0.699219"/><stop stop-opacity="1" stop-color="rgb(61.540222%, 17.266846%, 70.581055%)" offset="0.703125"/><stop stop-opacity="1" stop-color="rgb(60.784912%, 17.643738%, 70.927429%)" offset="0.707031"/><stop stop-opacity="1" stop-color="rgb(60.029602%, 18.022156%, 71.27533%)" offset="0.710938"/><stop stop-opacity="1" stop-color="rgb(59.274292%, 18.399048%, 71.62323%)" offset="0.714844"/><stop stop-opacity="1" stop-color="rgb(58.520508%, 18.777466%, 71.97113%)" offset="0.71875"/><stop stop-opacity="1" stop-color="rgb(57.765198%, 19.154358%, 72.317505%)" offset="0.722656"/><stop stop-opacity="1" stop-color="rgb(57.009888%, 19.532776%, 72.665405%)" offset="0.726563"/><stop stop-opacity="1" stop-color="rgb(56.254578%, 19.909668%, 73.01178%)" offset="0.730469"/><stop stop-opacity="1" stop-color="rgb(55.499268%, 20.28656%, 73.35968%)" offset="0.734375"/><stop stop-opacity="1" stop-color="rgb(54.743958%, 20.663452%, 73.707581%)" offset="0.738281"/><stop stop-opacity="1" stop-color="rgb(53.990173%, 21.04187%, 74.055481%)" offset="0.742188"/><stop stop-opacity="1" stop-color="rgb(53.234863%, 21.418762%, 74.401855%)" offset="0.746094"/><stop stop-opacity="1" stop-color="rgb(52.479553%, 21.79718%, 74.749756%)" offset="0.75"/><stop stop-opacity="1" stop-color="rgb(51.724243%, 22.174072%, 75.09613%)" offset="0.753906"/><stop stop-opacity="1" stop-color="rgb(50.968933%, 22.550964%, 75.444031%)" offset="0.757812"/><stop stop-opacity="1" stop-color="rgb(50.213623%, 22.927856%, 75.791931%)" offset="0.761719"/><stop stop-opacity="1" stop-color="rgb(49.458313%, 23.306274%, 76.139832%)" offset="0.765625"/><stop stop-opacity="1" stop-color="rgb(48.703003%, 23.683167%, 76.486206%)" offset="0.769531"/><stop stop-opacity="1" stop-color="rgb(47.949219%, 24.061584%, 76.834106%)" offset="0.773438"/><stop stop-opacity="1" stop-color="rgb(47.193909%, 24.438477%, 77.180481%)" offset="0.777344"/><stop stop-opacity="1" stop-color="rgb(46.438599%, 24.816895%, 77.528381%)" offset="0.78125"/><stop stop-opacity="1" stop-color="rgb(45.683289%, 25.193787%, 77.876282%)" offset="0.785156"/><stop stop-opacity="1" stop-color="rgb(44.927979%, 25.570679%, 78.224182%)" offset="0.789062"/><stop stop-opacity="1" stop-color="rgb(44.172668%, 25.947571%, 78.570557%)" offset="0.792969"/><stop stop-opacity="1" stop-color="rgb(43.417358%, 26.325989%, 78.918457%)" offset="0.796875"/><stop stop-opacity="1" stop-color="rgb(42.662048%, 26.702881%, 79.266357%)" offset="0.800781"/><stop stop-opacity="1" stop-color="rgb(41.908264%, 27.081299%, 79.614258%)" offset="0.804688"/><stop stop-opacity="1" stop-color="rgb(41.152954%, 27.458191%, 79.960632%)" offset="0.808594"/><stop stop-opacity="1" stop-color="rgb(40.397644%, 27.836609%, 80.308533%)" offset="0.8125"/><stop stop-opacity="1" stop-color="rgb(39.642334%, 28.213501%, 80.654907%)" offset="0.816406"/><stop stop-opacity="1" stop-color="rgb(38.887024%, 28.590393%, 81.002808%)" offset="0.820313"/><stop stop-opacity="1" stop-color="rgb(38.131714%, 28.967285%, 81.350708%)" offset="0.824219"/><stop stop-opacity="1" stop-color="rgb(37.376404%, 29.345703%, 81.698608%)" offset="0.828125"/><stop stop-opacity="1" stop-color="rgb(36.621094%, 29.722595%, 82.044983%)" offset="0.832031"/><stop stop-opacity="1" stop-color="rgb(35.86731%, 30.101013%, 82.392883%)" offset="0.835938"/><stop stop-opacity="1" stop-color="rgb(35.112%, 30.477905%, 82.739258%)" offset="0.839844"/><stop stop-opacity="1" stop-color="rgb(34.356689%, 30.856323%, 83.087158%)" offset="0.84375"/><stop stop-opacity="1" stop-color="rgb(33.601379%, 31.233215%, 83.435059%)" offset="0.847656"/><stop stop-opacity="1" stop-color="rgb(32.846069%, 31.610107%, 83.782959%)" offset="0.851563"/><stop stop-opacity="1" stop-color="rgb(32.696533%, 31.684875%, 83.850098%)" offset="0.859375"/><stop stop-opacity="1" stop-color="rgb(32.548523%, 31.759644%, 83.918762%)" offset="0.875"/><stop stop-opacity="1" stop-color="rgb(32.548523%, 31.759644%, 83.918762%)" offset="1"/></linearGradient></defs><g clip-path="url(#5c0170ba7f)"><g clip-path="url(#c4d1b2517d)"><path fill="url(#b91c61dd62)" d="M 558 243 L 558 567 L 882 567 L 882 243 Z M 558 243 " fill-rule="nonzero"/></g></g><path fill="#ffffff" d="M 763.464844 502.769531 L 677.101562 502.769531 C 647.15625 502.769531 622.796875 478.410156 622.796875 448.464844 L 622.796875 362.101562 C 622.796875 332.15625 647.15625 307.796875 677.101562 307.796875 L 763.464844 307.796875 C 793.410156 307.796875 817.769531 332.15625 817.769531 362.101562 L 817.769531 448.464844 C 817.769531 478.410156 793.410156 502.769531 763.464844 502.769531 Z M 677.101562 320.996094 C 654.4375 320.996094 635.996094 339.4375 635.996094 362.101562 L 635.996094 448.464844 C 635.996094 471.128906 654.4375 489.566406 677.101562 489.566406 L 763.464844 489.566406 C 786.128906 489.566406 804.566406 471.128906 804.566406 448.464844 L 804.566406 362.101562 C 804.566406 339.4375 786.128906 320.996094 763.464844 320.996094 Z M 677.101562 320.996094 " fill-opacity="1" fill-rule="nonzero"/><path fill="#ffffff" d="M 720.285156 453.574219 C 693.660156 453.574219 671.996094 431.914062 671.996094 405.285156 C 671.996094 378.660156 693.660156 356.996094 720.285156 356.996094 C 746.914062 356.996094 768.574219 378.660156 768.574219 405.285156 C 768.574219 431.914062 746.914062 453.574219 720.285156 453.574219 Z M 720.285156 370.191406 C 700.9375 370.191406 685.195312 385.933594 685.195312 405.28125 C 685.195312 424.632812 700.941406 440.371094 720.285156 440.371094 C 739.632812 440.371094 755.375 424.632812 755.375 405.28125 C 755.375 385.933594 739.636719 370.191406 720.285156 370.191406 Z M 720.285156 370.191406 " fill-opacity="1" fill-rule="nonzero"/></svg>